<?xml version="1.0" encoding="UTF-8" standalone="no"?><!DOCTYPE svg PUBLIC "-//W3C//DTD SVG 1.1//EN" "http://www.w3.org/Graphics/SVG/1.1/DTD/svg11.dtd"><svg width="100%" height="100%" viewBox="0 0 198 112" version="1.1" xmlns="http://www.w3.org/2000/svg" xmlns:xlink="http://www.w3.org/1999/xlink" xml:space="preserve" xmlns:serif="http://www.serif.com/" style="fill-rule:evenodd;clip-rule:evenodd;stroke-linejoin:round;stroke-miterlimit:2;"><rect id="Artboard1" x="0" y="0" width="197.716" height="111.741" style="fill:none;"/><g><g><path d="M166.905,36.92c0.839,-0.155 1.68,-0.307 2.52,-0.461l0,19.362c0.007,0.563 -0.022,1.41 0.043,1.971c0.124,0.914 0.5,1.641 1.551,1.765c0.529,0.065 1.054,-0.088 1.543,-0.28c0.206,0.583 0.422,1.164 0.63,1.748c-0.857,0.402 -1.797,0.606 -2.738,0.66c-0.537,0.025 -1.084,-0.004 -1.599,-0.164c-1.269,-0.412 -1.906,-1.556 -1.95,-2.845l0,-21.756Z" style="fill:#fff;"/><path d="M159.401,36.77c0.554,-0.107 1.15,0.02 1.611,0.348c0.377,0.263 0.665,0.655 0.801,1.094c0.152,0.489 0.121,1.032 -0.089,1.498c-0.235,0.519 -0.688,0.936 -1.227,1.122c-0.525,0.185 -1.122,0.154 -1.621,-0.091c-0.418,-0.202 -0.767,-0.545 -0.972,-0.962c-0.259,-0.515 -0.289,-1.14 -0.084,-1.678c0.248,-0.678 0.871,-1.202 1.581,-1.331Z" style="fill:#fff;"/><path d="M138.484,44.583c0.629,-0.195 1.287,-0.323 1.948,-0.293c0.609,0.023 1.222,0.197 1.722,0.556c0.509,0.362 0.882,0.889 1.13,1.459c0.848,-0.654 1.891,-1.19 3.034,-1.589c0.655,-0.232 1.566,-0.385 2.265,-0.356c0.589,0.023 1.173,0.206 1.655,0.546c0.393,0.269 0.715,0.628 0.984,1.018c0.215,0.304 0.406,0.631 0.529,0.983c0.087,0.249 0.112,0.514 0.125,0.777c0.002,4.387 0.018,8.775 0.02,13.164c0,0.156 -0.092,0.362 -0.273,0.361c-0.606,0.001 -1.212,0 -1.817,0.001c-0.107,0.002 -0.222,-0.015 -0.301,-0.091c-0.079,-0.068 -0.105,-0.174 -0.103,-0.273c0.001,-3.799 0,-7.596 0.001,-11.393c-0.001,-0.298 0.025,-0.6 -0.03,-0.895c-0.05,-0.287 -0.171,-0.555 -0.308,-0.811c-0.225,-0.417 -0.558,-0.788 -0.985,-1.004c-0.526,-0.273 -0.984,-0.292 -1.555,-0.171c-0.943,0.209 -1.87,0.761 -2.666,1.375c0.003,4.211 0,8.423 0,12.635c-0.004,0.131 0.018,0.269 -0.029,0.395c-0.056,0.142 -0.213,0.218 -0.359,0.217c-0.587,0.001 -1.173,0 -1.759,0c-0.13,-0.003 -0.269,-0.01 -0.371,-0.095c-0.094,-0.073 -0.119,-0.198 -0.117,-0.31c-0.002,-4.036 0.002,-8.072 -0.002,-12.109c-0.081,-0.601 -0.271,-1.219 -0.687,-1.677c-0.327,-0.363 -0.813,-0.553 -1.295,-0.565c-0.673,-0.023 -1.324,0.207 -1.925,0.487c-0.574,0.278 -1.114,0.624 -1.612,1.022c-0.028,4.202 -0.06,8.403 -0.09,12.605c-0.002,0.174 0.01,0.356 -0.048,0.523c-0.037,0.107 -0.13,0.208 -0.251,0.204c-0.624,0.002 -1.248,0 -1.872,0.001c-0.099,0.001 -0.211,-0.02 -0.275,-0.103c-0.073,-0.092 -0.076,-0.216 -0.078,-0.328l0,-9.819c-0.006,-0.814 0.013,-1.628 -0.014,-2.442c-0.032,-0.68 -0.086,-1.364 -0.265,-2.022c-0.078,-0.277 -0.187,-0.544 -0.327,-0.794c-0.059,-0.105 -0.071,-0.241 -0.009,-0.347c0.066,-0.124 0.196,-0.191 0.318,-0.254c0.438,-0.224 0.876,-0.448 1.314,-0.673c0.123,-0.07 0.281,-0.132 0.415,-0.053c0.123,0.083 0.143,0.241 0.189,0.372c0.175,0.495 0.344,0.992 0.517,1.487c0.994,-0.726 2.08,-1.345 3.257,-1.721Z" style="fill:#fff;"/><path d="M122.31,44.52c1.401,-0.307 2.874,-0.135 4.218,0.336c0.36,0.12 0.711,0.268 1.057,0.426c0.19,0.094 0.364,0.252 0.416,0.466c0.024,0.126 0.027,0.265 -0.026,0.386c-0.168,0.354 -0.344,0.705 -0.509,1.06c-0.06,0.126 -0.176,0.217 -0.303,0.267c-0.149,0.053 -0.308,0.01 -0.442,-0.058c-0.521,-0.245 -1.059,-0.457 -1.617,-0.603c-0.694,-0.182 -1.429,-0.262 -2.139,-0.125c-0.513,0.101 -1.014,0.333 -1.373,0.72c-0.426,0.435 -0.626,1.071 -0.553,1.673c0.074,0.676 0.466,1.287 0.995,1.702c0.207,0.168 0.441,0.3 0.679,0.42c1.164,0.601 2.328,1.199 3.492,1.802c0.933,0.589 1.731,1.429 2.158,2.455c0.279,0.671 0.388,1.41 0.304,2.132c-0.102,0.937 -0.552,1.813 -1.191,2.498c-0.11,0.094 -0.212,0.197 -0.317,0.296c-0.476,0.405 -1.021,0.73 -1.609,0.941c-0.634,0.251 -1.314,0.366 -1.99,0.401c-1.672,0.074 -3.322,-0.38 -4.836,-1.06c-0.177,-0.086 -0.37,-0.15 -0.517,-0.285c-0.148,-0.137 -0.186,-0.36 -0.126,-0.548c0.083,-0.248 0.208,-0.48 0.31,-0.72c0.113,-0.238 0.186,-0.507 0.386,-0.693c0.095,-0.096 0.246,-0.143 0.373,-0.081c0.265,0.118 0.518,0.261 0.788,0.368c0.544,0.238 1.108,0.433 1.685,0.571c0.848,0.194 1.731,0.256 2.595,0.145c0.524,-0.123 1.005,-0.43 1.341,-0.851c0.402,-0.473 0.601,-1.111 0.539,-1.728c-0.058,-0.559 -0.331,-1.087 -0.734,-1.475c-0.337,-0.348 -0.764,-0.591 -1.197,-0.796c-0.579,-0.286 -1.159,-0.569 -1.737,-0.856c-0.254,-0.136 -0.537,-0.208 -0.794,-0.337c-1.105,-0.495 -2.084,-1.322 -2.654,-2.401c-0.293,-0.56 -0.478,-1.182 -0.511,-1.813c-0.042,-0.7 0.1,-1.411 0.41,-2.041c0.506,-1.05 1.448,-1.842 2.505,-2.305c0.291,-0.144 0.61,-0.214 0.924,-0.289Z" style="fill:#fff;"/><path d="M178.767,44.879c0.742,-0.296 1.545,-0.431 2.343,-0.418c0.829,0.011 1.661,0.159 2.427,0.482c0.617,0.259 1.185,0.634 1.667,1.097c1.011,0.966 1.631,2.275 1.965,3.619c0.32,1.251 0.39,2.55 0.371,3.836c-3.491,0 -6.983,0 -10.475,0c0.006,1.342 0.337,2.715 1.116,3.825c0.286,0.42 0.648,0.783 1.045,1.098c0.626,0.477 1.374,0.786 2.15,0.912c0.797,0.137 1.623,0.105 2.41,-0.081c0.912,-0.202 1.79,-0.558 2.58,-1.056c0.163,0.386 0.337,0.768 0.506,1.153c0.09,0.221 0.203,0.433 0.279,0.661c-0.617,0.402 -1.283,0.731 -1.979,0.974c-0.667,0.252 -1.364,0.424 -2.069,0.528c-0.889,0.122 -1.799,0.085 -2.679,-0.082c-1.361,-0.251 -2.646,-0.913 -3.616,-1.902c-0.97,-0.982 -1.627,-2.238 -2.002,-3.558c-0.304,-1.052 -0.437,-2.149 -0.438,-3.242c0.001,-1.686 0.345,-3.399 1.164,-4.884c0.711,-1.306 1.838,-2.414 3.235,-2.962Zm0.187,2.373c-0.628,0.437 -1.096,1.075 -1.399,1.771c-0.318,0.731 -0.451,1.53 -0.459,2.323c2.573,-0.001 5.145,0 7.717,0c-0.006,-0.692 -0.118,-1.384 -0.349,-2.038c-0.228,-0.626 -0.565,-1.223 -1.036,-1.699c-0.5,-0.51 -1.161,-0.869 -1.872,-0.965c-0.903,-0.133 -1.856,0.077 -2.602,0.608Z" style="fill:#fff;"/><path d="M155.619,45.029c-0.009,-0.119 0.109,-0.203 0.222,-0.189c1.759,0 3.518,0 5.278,0.001c0.117,-0.015 0.228,0.087 0.211,0.207c-0.001,5.277 0,10.554 -0.001,15.83c0.013,0.129 -0.09,0.258 -0.221,0.255c-0.694,0.004 -1.388,-0.001 -2.081,0.002c-0.084,0 -0.184,-0.001 -0.24,-0.072c-0.049,-0.048 -0.06,-0.118 -0.06,-0.182c-0.001,-4.651 0.001,-9.302 -0.001,-13.954c-0.97,-0.001 -1.94,0.001 -2.911,-0.001c-0.103,0.007 -0.2,-0.081 -0.195,-0.186c-0.004,-0.57 -0.003,-1.141 -0.001,-1.711Z" style="fill:#fff;"/><path d="M76.527,62.735c0.899,-0.017 1.803,0.035 2.686,0.22c0.343,0.077 0.688,0.165 1.004,0.322c0.173,0.086 0.341,0.213 0.401,0.404c0.131,0.389 0.122,0.809 0.11,1.213c-0.033,0.633 -0.136,1.261 -0.278,1.876c-0.319,1.365 -0.837,2.687 -1.564,3.885c-0.464,0.75 -1.016,1.454 -1.684,2.036c-0.167,0.153 -0.357,0.312 -0.594,0.333c-0.124,0.016 -0.264,-0.04 -0.318,-0.159c-0.053,-0.124 -0.03,-0.267 0.017,-0.389c0.559,-1.411 1.114,-2.829 1.51,-4.297c0.094,-0.366 0.182,-0.733 0.238,-1.108c0.064,-0.439 0.121,-0.898 -0.006,-1.331c-0.062,-0.215 -0.225,-0.386 -0.42,-0.485c-0.333,-0.172 -0.709,-0.239 -1.076,-0.29c-0.911,-0.104 -1.83,-0.074 -2.743,-0.019c-1.014,0.065 -2.025,0.178 -3.034,0.301c-0.147,0.018 -0.317,0.004 -0.423,-0.109c-0.097,-0.097 -0.086,-0.253 -0.03,-0.367c0.094,-0.194 0.275,-0.325 0.453,-0.437c0.775,-0.522 1.648,-0.885 2.545,-1.138c1.042,-0.295 2.124,-0.436 3.206,-0.461Z" style="fill:#fff;"/><path d="M25.293,63.847c0.17,-0.043 0.351,-0.004 0.503,0.08c0.578,0.315 1.147,0.648 1.729,0.959c4.439,2.359 9.217,4.065 14.129,5.125c2.858,0.609 5.762,1.007 8.68,1.169c5.847,0.344 11.74,-0.331 17.385,-1.874c2.193,-0.604 4.351,-1.337 6.452,-2.213c0.221,-0.084 0.437,-0.198 0.677,-0.22c0.34,-0.04 0.711,0.112 0.882,0.419c0.135,0.227 0.113,0.524 -0.026,0.744c-0.155,0.258 -0.423,0.411 -0.658,0.585c-2.46,1.76 -5.202,3.104 -8.041,4.134c-1.97,0.714 -3.995,1.272 -6.049,1.688c-2.936,0.591 -5.933,0.889 -8.928,0.832c-2.922,-0.052 -5.842,-0.4 -8.69,-1.059c-4.843,-1.111 -9.477,-3.121 -13.595,-5.902c-1.484,-0.999 -2.902,-2.097 -4.241,-3.285c-0.161,-0.154 -0.358,-0.279 -0.47,-0.477c-0.087,-0.145 -0.104,-0.338 -0.02,-0.487c0.056,-0.11 0.164,-0.188 0.281,-0.218Z" style="fill:#fff;"/><path d="M14.706,44.12c0.959,-0.328 1.974,-0.476 2.986,-0.5c0.826,-0.031 1.654,0.057 2.458,0.246c0.636,0.155 1.259,0.374 1.829,0.702c0.862,0.481 1.576,1.244 1.938,2.17c0.268,0.683 0.361,1.421 0.395,2.15c0.028,0.693 0.015,1.387 0.015,2.082l0,4.315c0,0.579 -0.022,1.171 0.138,1.734c0.143,0.554 0.453,1.046 0.793,1.5c0.153,0.225 0.358,0.424 0.433,0.693c0.06,0.188 0.023,0.415 -0.135,0.545c-0.748,0.639 -1.493,1.282 -2.23,1.935c-0.167,0.143 -0.324,0.318 -0.543,0.38c-0.195,0.05 -0.426,0.027 -0.58,-0.113c-0.389,-0.333 -0.765,-0.685 -1.081,-1.089c-0.256,-0.333 -0.483,-0.687 -0.722,-1.033c-0.713,0.719 -1.486,1.409 -2.415,1.835c-0.633,0.293 -1.325,0.443 -2.017,0.498c-0.75,0.059 -1.513,0.062 -2.248,-0.11c-0.608,-0.135 -1.191,-0.384 -1.695,-0.751c-0.43,-0.31 -0.795,-0.707 -1.078,-1.154c-0.44,-0.712 -0.677,-1.537 -0.747,-2.368c-0.084,-1.019 0.026,-2.069 0.427,-3.015c0.377,-0.921 1.035,-1.717 1.843,-2.293c0.542,-0.39 1.15,-0.684 1.781,-0.897c0.512,-0.179 1.043,-0.29 1.572,-0.399c1.302,-0.245 2.623,-0.348 3.937,-0.494c-0.009,-0.63 0.039,-1.265 -0.062,-1.889c-0.068,-0.363 -0.186,-0.73 -0.433,-1.012c-0.367,-0.447 -0.949,-0.659 -1.512,-0.707c-0.688,-0.046 -1.412,0.106 -1.968,0.528c-0.378,0.28 -0.653,0.686 -0.791,1.133c-0.058,0.175 -0.071,0.364 -0.164,0.527c-0.084,0.152 -0.213,0.292 -0.385,0.337c-0.097,0.029 -0.197,0.005 -0.294,-0.004c-0.885,-0.094 -1.769,-0.189 -2.653,-0.284c-0.145,-0.017 -0.297,-0.015 -0.431,-0.08c-0.145,-0.065 -0.279,-0.173 -0.335,-0.327c-0.064,-0.161 -0.018,-0.336 0.018,-0.498c0.175,-0.815 0.508,-1.603 1.016,-2.266c0.727,-0.974 1.797,-1.649 2.94,-2.027Zm2.469,9.491c-0.551,0.17 -1.09,0.433 -1.492,0.856c-0.136,0.125 -0.236,0.282 -0.341,0.432c-0.349,0.564 -0.455,1.249 -0.416,1.905c0.028,0.531 0.179,1.077 0.528,1.492c0.293,0.358 0.737,0.577 1.195,0.622c0.576,0.068 1.171,-0.107 1.628,-0.46c0.441,-0.318 0.769,-0.771 1.006,-1.254c0.231,-0.47 0.356,-0.983 0.416,-1.499c0.083,-0.8 0.049,-1.604 0.056,-2.407c-0.867,0 -1.745,0.064 -2.58,0.313Z" style="fill:#fff;"/><path d="M57.964,43.939c0.811,-0.215 1.65,-0.307 2.486,-0.322c0.724,-0.019 1.448,0.056 2.155,0.206c0.608,0.133 1.208,0.323 1.762,0.607c0.472,0.238 0.915,0.542 1.281,0.925c0.414,0.405 0.728,0.91 0.934,1.451c0.249,0.664 0.337,1.375 0.369,2.08c0.031,0.734 0.013,1.468 0.015,2.201c0.001,1.607 -0.001,3.215 0.001,4.823c-0.001,0.544 0.09,1.094 0.31,1.594c0.226,0.506 0.572,0.946 0.902,1.388c0.129,0.18 0.224,0.407 0.17,0.631c-0.025,0.115 -0.103,0.209 -0.192,0.285c-0.7,0.587 -1.393,1.184 -2.081,1.787c-0.157,0.132 -0.298,0.282 -0.471,0.392c-0.228,0.157 -0.568,0.147 -0.775,-0.042c-0.432,-0.369 -0.848,-0.766 -1.183,-1.228c-0.208,-0.289 -0.403,-0.586 -0.602,-0.881c-0.755,0.767 -1.585,1.5 -2.593,1.913c-0.678,0.283 -1.412,0.407 -2.144,0.441c-0.744,0.042 -1.502,0.01 -2.221,-0.2c-0.589,-0.165 -1.151,-0.445 -1.621,-0.839c-0.418,-0.342 -0.761,-0.771 -1.019,-1.246c-0.328,-0.616 -0.516,-1.302 -0.589,-1.996c-0.124,-1.24 0.046,-2.54 0.656,-3.641c0.563,-1.038 1.492,-1.853 2.554,-2.353c0.597,-0.284 1.23,-0.482 1.876,-0.621c1.464,-0.332 2.966,-0.439 4.455,-0.605c-0.017,-0.72 0.063,-1.453 -0.12,-2.158c-0.087,-0.332 -0.253,-0.644 -0.503,-0.882c-0.385,-0.368 -0.921,-0.541 -1.446,-0.573c-0.667,-0.031 -1.364,0.125 -1.902,0.535c-0.428,0.317 -0.724,0.799 -0.842,1.318c-0.035,0.159 -0.078,0.321 -0.18,0.452c-0.099,0.14 -0.262,0.248 -0.437,0.238c-1.022,-0.106 -2.045,-0.218 -3.069,-0.326c-0.308,-0.035 -0.603,-0.315 -0.544,-0.643c0.194,-1.14 0.713,-2.238 1.541,-3.053c0.83,-0.841 1.932,-1.368 3.067,-1.658Zm1.828,9.679c-0.648,0.203 -1.282,0.549 -1.685,1.111c-0.333,0.43 -0.485,0.972 -0.529,1.507c-0.041,0.556 0.01,1.136 0.254,1.644c0.195,0.413 0.541,0.76 0.972,0.921c0.577,0.218 1.245,0.158 1.786,-0.131c0.559,-0.295 0.979,-0.797 1.269,-1.349c0.27,-0.499 0.42,-1.055 0.483,-1.618c0.087,-0.799 0.047,-1.602 0.057,-2.405c-0.876,0.002 -1.764,0.064 -2.607,0.32Z" style="fill:#fff;"/><path d="M34.582,44.238c0.53,-0.268 1.118,-0.403 1.709,-0.444c0.632,-0.038 1.278,0.009 1.882,0.208c0.724,0.23 1.353,0.706 1.82,1.301c0.378,0.473 0.665,1.011 0.908,1.564c0.202,-0.517 0.47,-1.01 0.826,-1.435c0.447,-0.542 1.024,-0.972 1.669,-1.252c1.221,-0.52 2.651,-0.533 3.882,-0.034c0.878,0.353 1.641,0.998 2.109,1.822c0.319,0.565 0.47,1.208 0.544,1.849c0.085,0.75 0.065,1.505 0.057,2.259c-0.017,1.637 -0.005,3.274 -0.008,4.911c-0.001,2.132 0.001,4.263 -0.002,6.395c0.003,0.32 -0.288,0.585 -0.599,0.588c-1.041,0.004 -2.082,0 -3.122,0.002c-0.147,0.005 -0.299,0 -0.429,-0.075c-0.198,-0.103 -0.32,-0.32 -0.315,-0.541c-0.002,-1.717 0,-3.433 -0.001,-5.15c0.005,-1.557 -0.011,-3.114 0.012,-4.673c0.002,-0.543 0.004,-1.086 -0.034,-1.629c-0.028,-0.4 -0.111,-0.807 -0.311,-1.16c-0.149,-0.259 -0.375,-0.475 -0.649,-0.599c-0.342,-0.158 -0.728,-0.189 -1.1,-0.186c-0.895,0.044 -1.699,0.729 -1.94,1.584c-0.187,0.678 -0.208,1.389 -0.223,2.089c-0.005,3.241 0,6.482 -0.002,9.723c0.004,0.21 -0.106,0.42 -0.291,0.524c-0.128,0.08 -0.282,0.101 -0.431,0.093c-0.982,0 -1.963,0 -2.944,0c-0.135,-0.002 -0.277,0.013 -0.407,-0.036c-0.196,-0.07 -0.348,-0.25 -0.381,-0.456c-0.015,-0.111 -0.009,-0.223 -0.01,-0.333c0,-1.578 -0.003,-3.155 -0.004,-4.733c-0.004,-1.657 -0.011,-3.312 0.009,-4.968c0.006,-0.528 -0.007,-1.059 -0.083,-1.582c-0.067,-0.406 -0.17,-0.816 -0.393,-1.167c-0.222,-0.369 -0.599,-0.637 -1.023,-0.721c-0.468,-0.094 -0.975,-0.072 -1.419,0.121c-0.375,0.162 -0.669,0.473 -0.858,0.83c-0.271,0.519 -0.371,1.107 -0.427,1.685c-0.057,0.623 -0.049,1.249 -0.049,1.875c-0.002,2.965 0,5.931 -0.003,8.895c0.003,0.322 -0.293,0.588 -0.608,0.588c-1.081,0.004 -2.162,0 -3.244,0.002c-0.251,0.008 -0.493,-0.157 -0.58,-0.392c-0.047,-0.119 -0.035,-0.249 -0.036,-0.373c0.001,-5.486 -0.001,-10.971 0.001,-16.458c-0.01,-0.331 0.288,-0.621 0.615,-0.619c1.002,-0.008 2.006,-0.002 3.009,-0.004c0.252,-0.006 0.493,0.157 0.589,0.389c0.06,0.13 0.042,0.276 0.045,0.414c0,0.649 -0.001,1.296 0,1.943c0.053,0.004 0.072,-0.04 0.087,-0.081c0.213,-0.56 0.505,-1.094 0.891,-1.554c0.349,-0.412 0.778,-0.759 1.262,-0.999Z" style="fill:#fff;"/><path d="M91.459,43.804c1.356,-0.1 2.757,0.134 3.953,0.797c1.004,0.547 1.841,1.376 2.454,2.337c0.671,1.04 1.096,2.225 1.344,3.434c0.257,1.279 0.328,2.595 0.229,3.896c-0.112,1.352 -0.438,2.696 -1.04,3.916c-0.47,0.965 -1.123,1.849 -1.94,2.548c-0.956,0.822 -2.152,1.357 -3.401,1.525c-1.372,0.184 -2.811,0.006 -4.058,-0.613c-0.991,-0.49 -1.838,-1.25 -2.47,-2.154c-0.707,-0.999 -1.172,-2.155 -1.453,-3.343c-0.34,-1.459 -0.42,-2.973 -0.288,-4.464c0.13,-1.434 0.481,-2.864 1.149,-4.147c0.526,-1.006 1.263,-1.914 2.194,-2.57c0.971,-0.692 2.142,-1.078 3.327,-1.162Zm0.361,3.396c-0.584,0.048 -1.126,0.385 -1.444,0.874c-0.355,0.51 -0.536,1.117 -0.654,1.721c-0.151,0.787 -0.192,1.593 -0.2,2.394c-0.005,1.432 -0.005,2.882 0.312,4.286c0.146,0.576 0.334,1.158 0.697,1.637c0.267,0.361 0.658,0.637 1.103,0.725c0.596,0.12 1.254,-0.006 1.729,-0.394c0.401,-0.32 0.656,-0.783 0.835,-1.256c0.202,-0.536 0.307,-1.104 0.377,-1.672c0.109,-0.925 0.115,-1.859 0.105,-2.789c-0.022,-1.307 -0.092,-2.632 -0.468,-3.891c-0.144,-0.478 -0.388,-0.951 -0.796,-1.253c-0.45,-0.346 -1.045,-0.431 -1.596,-0.382Z" style="fill:#fff;"/><path d="M108.4,44.291c0.603,-0.336 1.296,-0.482 1.982,-0.504c0.733,-0.032 1.479,0.067 2.159,0.35c1.033,0.421 1.858,1.302 2.242,2.345c0.168,0.459 0.269,0.937 0.342,1.418c0.124,0.898 0.15,1.806 0.15,2.711c0.003,3.542 0,7.083 0.001,10.626c-0.003,0.113 0.011,0.231 -0.031,0.34c-0.066,0.18 -0.226,0.32 -0.41,0.37c-0.115,0.033 -0.233,0.025 -0.35,0.025c-1.031,0 -2.062,0 -3.093,0c-0.213,-0.002 -0.417,-0.13 -0.511,-0.32c-0.078,-0.135 -0.063,-0.296 -0.063,-0.445c0,-3.294 0,-6.588 0.002,-9.882c-0.004,-0.735 -0.034,-1.488 -0.278,-2.19c-0.16,-0.45 -0.462,-0.878 -0.909,-1.077c-0.314,-0.144 -0.666,-0.185 -1.007,-0.163c-0.587,0.051 -1.12,0.4 -1.462,0.872c-0.21,0.282 -0.343,0.614 -0.453,0.947c-0.232,0.691 -0.306,1.424 -0.325,2.15c-0.013,0.664 -0.005,1.327 -0.007,1.991c-0.001,2.509 0.001,5.018 -0.001,7.526c0.005,0.321 -0.294,0.589 -0.608,0.591c-1.072,0.002 -2.144,-0.002 -3.216,0c-0.241,0.007 -0.486,-0.136 -0.581,-0.362c-0.065,-0.136 -0.049,-0.29 -0.05,-0.436c-0.002,-5.483 -0.007,-10.968 -0.01,-16.453c-0.002,-0.246 0.179,-0.473 0.408,-0.553c0.14,-0.053 0.293,-0.041 0.441,-0.043c0.853,0.001 1.706,0.001 2.558,0.001c0.146,0 0.297,-0.014 0.435,0.044c0.202,0.078 0.377,0.268 0.377,0.493c0.001,0.831 -0.003,1.664 0.002,2.495c0.062,0.012 0.078,-0.052 0.099,-0.092c0.237,-0.578 0.519,-1.141 0.894,-1.641c0.341,-0.459 0.768,-0.86 1.273,-1.134Z" style="fill:#fff;"/><path d="M71.094,44.265c0.125,-0.13 0.308,-0.182 0.485,-0.18c3.48,0 6.961,0.001 10.442,0c0.183,-0.001 0.38,-0.006 0.538,0.098c0.178,0.101 0.285,0.303 0.285,0.506c0.003,0.645 -0.002,1.291 0.001,1.936c0.019,0.441 -0.266,0.808 -0.492,1.161c-1.952,2.785 -3.906,5.569 -5.86,8.353c1.725,-0.026 3.482,0.175 5.09,0.83c0.352,0.143 0.694,0.308 1.025,0.495c0.362,0.191 0.567,0.601 0.555,1.004c0,0.734 -0.001,1.468 -0.001,2.202c-0.002,0.128 0.008,0.258 -0.018,0.385c-0.058,0.233 -0.254,0.44 -0.498,0.47c-0.107,0.016 -0.212,-0.023 -0.305,-0.071c-3.394,-1.745 -7.622,-1.797 -11.034,-0.072c-0.159,0.073 -0.317,0.2 -0.502,0.162c-0.288,-0.06 -0.491,-0.35 -0.487,-0.638c-0.001,-0.832 0.002,-1.665 0.001,-2.498c0,-0.521 0.094,-1.06 0.382,-1.504c0.173,-0.26 0.357,-0.513 0.536,-0.771c1.964,-2.817 3.929,-5.634 5.894,-8.45c-1.861,-0.001 -3.722,0 -5.583,-0.001c-0.174,0 -0.356,-0.063 -0.472,-0.198c-0.112,-0.118 -0.154,-0.284 -0.152,-0.442c-0.001,-0.773 -0.001,-1.548 0,-2.321c-0.002,-0.166 0.05,-0.338 0.17,-0.456Z" style="fill:#fff;"/></g></g></svg>