<?xml version="1.0" encoding="UTF-8" standalone="no"?><!DOCTYPE svg PUBLIC "-//W3C//DTD SVG 1.1//EN" "http://www.w3.org/Graphics/SVG/1.1/DTD/svg11.dtd"><svg width="100%" height="100%" viewBox="0 0 57 54" version="1.1" xmlns="http://www.w3.org/2000/svg" xmlns:xlink="http://www.w3.org/1999/xlink" xml:space="preserve" xmlns:serif="http://www.serif.com/" style="fill-rule:evenodd;clip-rule:evenodd;stroke-linejoin:round;stroke-miterlimit:2;"><g><rect x="3.262" y="13.995" width="53.314" height="31.128" style="fill:#fff;"/><path d="M1.43,53.225l-0.179,0c0,-0.089 -0.044,-0.224 -0.044,-0.269c0,-0.044 0,-0.133 -0.134,-0.133l-0.269,0l0,0.402l-0.134,0l0,-0.939l0.403,0c0.178,0 0.312,0.046 0.312,0.224c0,0.134 -0.044,0.179 -0.089,0.223c0.045,0.045 0.089,0.09 0.089,0.179l0,0.179c0,0.045 0,0.045 0.045,0.045l0,0.089Zm-0.179,-0.67c0,-0.134 -0.089,-0.134 -0.134,-0.134l-0.313,0l0,0.268l0.269,0c0.089,0 0.178,-0.045 0.178,-0.134Zm0.76,0.178c0,-0.536 -0.447,-0.983 -1.028,-0.983c-0.536,0 -0.983,0.447 -0.983,0.983c0,0.581 0.447,1.028 0.983,1.028c0.581,0 1.028,-0.447 1.028,-1.028Zm-0.134,0c0,0.492 -0.402,0.849 -0.894,0.849c-0.492,0 -0.849,-0.357 -0.849,-0.849c0,-0.447 0.358,-0.849 0.849,-0.849c0.492,0 0.894,0.402 0.894,0.849Zm55.057,-18.054c0,1.341 -0.849,1.966 -2.369,1.966l-2.904,0l0,-1.341l2.904,0c0.268,0 0.492,-0.044 0.582,-0.134c0.089,-0.089 0.178,-0.223 0.178,-0.402c0,-0.179 -0.089,-0.358 -0.178,-0.447c-0.09,-0.089 -0.269,-0.134 -0.537,-0.134c-1.385,-0.045 -3.128,0.045 -3.128,-1.921c0,-0.894 0.581,-1.878 2.145,-1.878l2.994,0l0,1.341l-2.771,0c-0.267,0 -0.447,0 -0.581,0.089c-0.134,0.134 -0.223,0.268 -0.223,0.492c0,0.224 0.134,0.358 0.313,0.447c0.179,0.045 0.358,0.089 0.581,0.089l0.804,0c0.849,0 1.386,0.179 1.743,0.492c0.268,0.313 0.447,0.715 0.447,1.341Zm-6.301,-1.341c-0.358,-0.313 -0.894,-0.492 -1.743,-0.492l-0.805,0c-0.223,0 -0.402,-0.045 -0.58,-0.089c-0.18,-0.089 -0.313,-0.223 -0.313,-0.447c0,-0.224 0.044,-0.358 0.223,-0.492c0.134,-0.089 0.313,-0.089 0.581,-0.089l2.771,0l0,-1.341l-2.994,0c-1.609,0 -2.146,0.984 -2.146,1.878c0,1.965 1.744,1.876 3.129,1.921c0.268,0 0.447,0.045 0.536,0.134c0.089,0.089 0.179,0.268 0.179,0.447c0,0.179 -0.09,0.313 -0.179,0.402c-0.134,0.09 -0.313,0.134 -0.581,0.134l-2.905,0l0,1.341l2.905,0c1.519,0 2.368,-0.625 2.368,-1.966c0,-0.626 -0.178,-1.028 -0.446,-1.341Zm-5.721,2.011l-3.529,0l0,-1.251l3.44,0l0,-1.251l-3.44,0l0,-1.162l3.529,0l0,-1.296l-5.004,0l0,6.256l5.004,0l0,-1.296Zm-6.613,-4.647c-0.492,-0.268 -1.073,-0.313 -1.833,-0.313l-3.44,0l0,6.256l1.519,0l0,-2.279l1.609,0c0.535,0 0.849,0.045 1.072,0.268c0.269,0.313 0.269,0.849 0.269,1.251l0,0.76l1.474,0l0,-1.207c0,-0.581 -0.045,-0.849 -0.223,-1.162c-0.134,-0.179 -0.402,-0.402 -0.76,-0.536c0.402,-0.134 1.073,-0.67 1.073,-1.654c0,-0.714 -0.269,-1.117 -0.76,-1.384Zm-8.491,-0.313l-4.782,0l-1.922,2.055l-1.832,-2.055l-6.033,0l0,6.256l5.944,0l1.922,-2.056l1.832,2.056l2.905,0l0,-2.1l1.877,0c1.296,0 2.592,-0.358 2.592,-2.101c0,-1.698 -1.341,-2.055 -2.503,-2.055Zm7.284,2.592c-0.223,0.089 -0.447,0.089 -0.715,0.089l-1.832,0.045l0,-1.431l1.832,0c0.268,0 0.536,0 0.715,0.135c0.179,0.089 0.312,0.268 0.312,0.536c0,0.268 -0.133,0.492 -0.312,0.626Zm-7.284,0.313l-1.967,0l0,-1.61l1.967,0c0.536,0 0.894,0.224 0.894,0.76c0,0.537 -0.358,0.85 -0.894,0.85Zm-5.765,0.223l2.323,-2.458l0,5.05l-2.323,-2.592Zm-3.62,1.832l-3.709,0l0,-1.251l3.307,0l0,-1.251l-3.307,0l0,-1.162l3.754,0l1.653,1.832l-1.698,1.832Zm32.355,-9.474l-2.145,0l-2.816,-4.692l0,4.692l-3.038,0l-0.582,-1.386l-3.128,0l-0.581,1.386l-1.743,0c-0.715,0 -1.653,-0.179 -2.189,-0.715c-0.492,-0.536 -0.76,-1.251 -0.76,-2.369c0,-0.938 0.134,-1.787 0.804,-2.458c0.447,-0.491 1.252,-0.714 2.279,-0.714l1.43,0l0,1.34l-1.43,0c-0.536,0 -0.849,0.09 -1.162,0.358c-0.268,0.268 -0.402,0.76 -0.402,1.43c0,0.67 0.134,1.162 0.402,1.475c0.224,0.223 0.626,0.312 1.028,0.312l0.671,0l2.144,-4.915l2.235,0l2.503,5.899l0,-5.899l2.324,0l2.636,4.334l0,-4.334l1.519,0l0,6.256l0.001,0Zm-17.742,-6.256l-1.519,0l0,6.256l1.519,0l0,-6.256Zm-3.173,0.268c-0.491,-0.268 -1.027,-0.268 -1.787,-0.268l-3.441,0l0,6.256l1.474,0l0,-2.279l1.609,0c0.537,0 0.894,0.044 1.117,0.268c0.269,0.313 0.224,0.849 0.224,1.207l0,0.804l1.519,0l0,-1.251c0,-0.537 -0.045,-0.805 -0.268,-1.118c-0.134,-0.179 -0.402,-0.402 -0.715,-0.536c0.402,-0.179 1.073,-0.67 1.073,-1.653c0,-0.715 -0.313,-1.118 -0.805,-1.43Zm-6.301,4.692l-3.486,0l0,-1.251l3.441,0l0,-1.296l-3.441,0l0,-1.117l3.486,0l0,-1.296l-5.005,0l0,6.256l5.005,0l0,-1.296Zm-6.122,-4.96l-2.458,0l-1.832,4.245l-1.967,-4.245l-2.413,0l0,5.898l-2.547,-5.898l-2.234,0l-2.682,6.256l1.609,0l0.581,-1.386l3.128,0l0.581,1.386l3.039,0l0,-4.916l2.189,4.916l1.296,0l2.19,-4.916l0,4.916l1.519,0l0,-6.256l0.001,0Zm24.222,3.53l-1.029,-2.458l-1.027,2.458l2.056,0Zm-12.96,-0.983c-0.224,0.134 -0.447,0.134 -0.76,0.134l-1.833,0l0,-1.385l1.833,0c0.268,0 0.58,0 0.759,0.089c0.179,0.135 0.268,0.313 0.268,0.581c0,0.268 -0.089,0.491 -0.267,0.581Zm-24.669,0.983l1.028,-2.458l1.028,2.458l-2.056,0Zm50.544,-23.149l-53.315,0l0,22.523l1.832,-4.156l3.888,0l0.537,1.028l0,-1.028l4.558,0l1.028,2.235l0.983,-2.235l14.524,0c0.67,0 1.251,0.135 1.698,0.492l0,-0.492l3.977,0l0,0.492c0.67,-0.358 1.519,-0.492 2.503,-0.492l5.765,0l0.536,1.028l0,-1.028l4.246,0l0.625,1.028l0,-1.028l4.156,0l0,8.759l-4.2,0l-0.804,-1.34l0,1.34l-5.229,0l-0.581,-1.429l-1.297,0l-0.58,1.429l-2.726,0c-1.073,0 -1.877,-0.268 -2.413,-0.536l0,0.536l-6.48,0l0,-2.011c0,-0.268 -0.045,-0.313 -0.224,-0.313l-0.223,0l0,2.324l-12.513,0l0,-1.117l-0.447,1.117l-2.637,0l-0.446,-1.072l0,1.072l-5.05,0l-0.537,-1.43l-1.296,0l-0.581,1.43l-2.592,0l0,26.412l53.315,0l0,-16.044c-0.581,0.268 -1.386,0.402 -2.19,0.402l-3.888,0l0,-0.536c-0.447,0.358 -1.252,0.536 -2.011,0.536l-12.245,0l0,-2.011c0,-0.268 -0.045,-0.268 -0.268,-0.268l-0.224,0l0,2.279l-4.022,0l0,-2.368c-0.67,0.312 -1.43,0.312 -2.1,0.312l-0.447,0l0,2.056l-4.916,0l-1.161,-1.341l-1.296,1.341l-7.911,0l0,-8.758l8.044,0l1.162,1.34l1.252,-1.34l5.407,0c0.625,0 1.654,0.089 2.1,0.535l0,-0.535l4.826,0c0.492,0 1.431,0.089 2.056,0.535l0,-0.535l7.285,0l0,0.536c0.402,-0.358 1.162,-0.536 1.832,-0.536l4.067,0l0,0.536c0.447,-0.313 1.072,-0.536 1.877,-0.536l2.771,0l0,-29.138Z" style="fill:#0077a6;"/></g></svg>