<?xml version="1.0" encoding="UTF-8" standalone="no"?><!DOCTYPE svg PUBLIC "-//W3C//DTD SVG 1.1//EN" "http://www.w3.org/Graphics/SVG/1.1/DTD/svg11.dtd"><svg width="100%" height="100%" viewBox="0 0 230 55" version="1.1" xmlns="http://www.w3.org/2000/svg" xmlns:xlink="http://www.w3.org/1999/xlink" xml:space="preserve" xmlns:serif="http://www.serif.com/" style="fill-rule:evenodd;clip-rule:evenodd;stroke-linejoin:round;stroke-miterlimit:2;"><clipPath id="_clip1"><rect id="apple-music" x="0" y="0" width="229.851" height="54.705"/></clipPath><g clip-path="url(#_clip1)"><g><path d="M36.26,28.995c-0.072,-4.448 1.848,-7.909 5.759,-10.387c-2.206,-3.207 -5.458,-5.009 -9.759,-5.412c-1.529,-0.144 -3.485,0.218 -5.864,1.094c-2.559,0.948 -4,1.42 -4.32,1.42c-0.675,0 -1.972,-0.399 -3.895,-1.202c-1.918,-0.802 -3.554,-1.203 -4.905,-1.203c-2.275,0.037 -4.391,0.666 -6.345,1.886c-1.956,1.221 -3.519,2.89 -4.691,5.001c-1.495,2.625 -2.24,5.76 -2.24,9.403c0,3.28 0.549,6.559 1.651,9.84c1.031,3.135 2.348,5.886 3.946,8.252c1.42,2.151 2.669,3.718 3.732,4.703c1.531,1.53 3.093,2.26 4.695,2.186c1.03,-0.038 2.38,-0.42 4.051,-1.151c1.563,-0.689 3.128,-1.035 4.693,-1.035c1.457,0 2.966,0.344 4.532,1.035c1.741,0.731 3.164,1.095 4.266,1.095c1.636,-0.072 3.163,-0.783 4.587,-2.13c0.496,-0.439 1.039,-1.04 1.625,-1.805c0.676,-0.891 1.325,-1.803 1.947,-2.733c0.518,-0.802 1.007,-1.623 1.467,-2.46c0.493,-0.901 0.929,-1.832 1.306,-2.788c0.176,-0.401 0.336,-0.81 0.479,-1.229c0.142,-0.419 0.284,-0.846 0.426,-1.284c-1.315,-0.582 -2.506,-1.405 -3.572,-2.462c-2.344,-2.329 -3.535,-5.209 -3.571,-8.634Zm38.666,9.744l-0.258,0l-10.829,-24.746l-8.504,0l0,39.927l7.411,0l0,-25.859l0.345,0l9.049,20.534l5.198,0l9.021,-20.534l0.345,0l0,25.859l7.497,0l0,-39.927l-8.446,0l-10.829,24.746Zm-45.386,-29.97c1.885,-2.369 2.828,-4.92 2.828,-7.654l0,-0.546c0,-0.183 -0.019,-0.365 -0.054,-0.547c-1.316,0.073 -2.71,0.493 -4.187,1.257c-1.474,0.766 -2.691,1.733 -3.653,2.897c-1.918,2.298 -2.879,4.756 -2.879,7.381l0,0.518c0,0.165 0.018,0.337 0.053,0.521c2.952,0.291 5.582,-0.985 7.892,-3.827Zm151.281,5.224l8.33,0l0,39.928l-8.33,0l0,-39.928Zm33.489,6.346c4.94,0 7.553,3.803 7.553,7.899l7.988,0l0,-0.849c0,-7.722 -5.889,-14.156 -15.599,-14.156c-10.399,0 -16.603,6.844 -16.603,18.516l0,4.505c0,11.669 6.146,18.428 16.573,18.428c9.969,0 15.629,-6.525 15.629,-13.778l0,-0.877l-7.987,0c0,4.126 -2.556,7.548 -7.495,7.548c-5.058,0 -8.275,-3.599 -8.275,-11.293l0,-4.502c0,-7.668 3.247,-11.441 8.216,-11.441Zm-88.249,18.867c0,5.355 -3.131,8.308 -7.727,8.308c-4.625,0 -7.755,-2.925 -7.755,-8.308l0,-25.213l-8.274,0l0,26.383c0,8.515 6.031,14.306 16.028,14.306c9.968,0 16.028,-5.791 16.028,-14.306l0,-26.383l-8.3,0l0,25.213Zm35.861,-8.54l-5.946,-1.344c-3.504,-0.734 -5.342,-2.283 -5.342,-4.595c0,-3.07 2.498,-5.002 6.522,-5.002c4.538,0 6.807,2.604 7.007,5.412l7.756,0c-0.086,-7.05 -5.974,-11.964 -14.736,-11.964c-8.301,0 -14.851,4.36 -14.851,12.199c0,6.786 4.597,9.943 10.112,11.145l5.888,1.374c3.964,0.907 5.975,2.224 5.975,4.942c0,3.103 -2.471,5.21 -7.095,5.21c-4.969,0 -7.584,-2.634 -7.812,-5.589l-7.987,0c0.117,5.646 3.851,12.228 15.399,12.228c9.708,0 15.713,-4.826 15.713,-12.669c-0.003,-7.254 -4.858,-10.091 -10.603,-11.347Z" style="fill:#231f20;fill-rule:nonzero;"/></g></g><g id="apple-music1" serif:id="apple-music"></g></svg>