<?xml version="1.0" encoding="UTF-8" standalone="no"?><!DOCTYPE svg PUBLIC "-//W3C//DTD SVG 1.1//EN" "http://www.w3.org/Graphics/SVG/1.1/DTD/svg11.dtd"><svg width="100%" height="100%" viewBox="0 0 1923 394" version="1.1" xmlns="http://www.w3.org/2000/svg" xmlns:xlink="http://www.w3.org/1999/xlink" xml:space="preserve" xmlns:serif="http://www.serif.com/" style="fill-rule:evenodd;clip-rule:evenodd;stroke-linejoin:round;stroke-miterlimit:2;"><path d="M961.096,368.485c0,0 -92.296,-99.286 -286.096,-168.75c-208.44,-74.71 -470.346,14.621 -528,-77.676c-57.654,-92.297 -120.353,-114.552 -147,-114.552l0,386.285l1922.19,0l0,-393.389c0,0 -211.686,-13.908 -314.192,121.656c-102.506,135.564 -176.811,87.273 -381,132.426c-218.237,48.26 -265.847,114.281 -265.904,114l0.002,0Z" style="fill:#2938a1;"/><path d="M1127.73,338.453c0,0 87.05,-28.625 177.344,-47.901c42.22,-9.013 85.141,-16.061 120.103,-16.921c39.824,-1.244 69.674,-6.812 92.357,-15.316c21.909,-8.215 37.235,-18.752 48.933,-29.109c10.96,-9.704 18.53,-19.304 25.452,-26.994c1.495,-1.471 1.514,-3.879 0.042,-5.374c-1.471,-1.495 -3.879,-1.514 -5.374,-0.043c-7.554,6.585 -16.065,14.77 -27.606,23.007c-11.626,8.299 -26.484,16.209 -46.912,22.559c-21.761,6.763 -49.761,11.828 -87.24,12.015c-36.04,0.419 -80.389,6.943 -123.998,15.756c-91.667,18.525 -180.055,46.922 -180.055,46.922c-5.905,1.92 -9.141,8.272 -7.222,14.177c1.919,5.905 8.271,9.141 14.176,7.222Z" style="fill:#4c68f1;"/><path d="M736.349,276.893c5.304,3.228 6.989,10.155 3.761,15.459c-3.228,5.304 -10.155,6.99 -15.459,3.762c0,0 -53.726,-32.896 -131.94,-53.656c-41.643,-11.053 -90.22,-18.738 -141.388,-16.028c-30.743,1.487 -56.543,1.787 -78.13,0.788c-12.568,-0.581 -23.704,-1.527 -33.554,-2.805l-72.84,-22.005c-1.603,-1.353 -1.806,-3.753 -0.453,-5.355c1.353,-1.603 3.752,-1.806 5.355,-0.454c0,0 14.49,9.678 69.303,12.107c9.625,0.426 20.448,0.727 32.651,0.8c21.175,0.128 46.438,-0.323 76.522,-2.429c53.4,-3.49 104.25,3.793 147.86,14.872c81.951,20.82 138.312,54.944 138.312,54.944Zm0,0l0,0Z" style="fill:#4c68f1;"/></svg>