<?xml version="1.0" encoding="UTF-8" standalone="no"?><!DOCTYPE svg PUBLIC "-//W3C//DTD SVG 1.1//EN" "http://www.w3.org/Graphics/SVG/1.1/DTD/svg11.dtd"><svg width="100%" height="100%" viewBox="0 0 1935 249" version="1.1" xmlns="http://www.w3.org/2000/svg" xmlns:xlink="http://www.w3.org/1999/xlink" xml:space="preserve" xmlns:serif="http://www.serif.com/" style="fill-rule:evenodd;clip-rule:evenodd;stroke-linejoin:round;stroke-miterlimit:2;"><rect x="-0.022" y="-13.614" width="1935.12" height="246.747" style="fill:#fff;"/><path d="M-7.278,2.853c0,0 216.215,-25.961 309.528,78.75c42.094,47.235 150.715,96.064 323.042,90c172.328,-6.065 297.311,-36.706 348.75,54.75c0,0 84.391,-75.177 270.75,-84c154.35,-7.308 175.268,2.105 251.625,-55.5c76.358,-57.606 161.193,-84.517 260.625,-78.75c98.385,5.706 177.959,59.25 177.959,59.25l0,181.65l-1942.29,0l0,-246.15l0.008,0Z" style="fill:#7b6cff;"/><path d="M1591.29,84.765c0,0 123.211,-84.197 285.75,-1.5" style="fill:#7b6cff;"/><path d="M1601.87,100.245c0,0 51.619,-35.369 131.759,-36.586c25.373,-0.385 53.235,3.54 83.98,10.747c10.9,2.555 22.057,4.932 33.77,8.146c7.507,2.059 14.965,3.87 22.79,6.358c3.116,1.585 6.932,0.342 8.517,-2.773c1.586,-3.116 0.343,-6.932 -2.773,-8.517c-10.586,-7.608 -20.675,-14.281 -31.233,-20.046c-7.538,-4.116 -15.001,-7.624 -22.595,-10.534c-32.677,-12.519 -64.174,-16.188 -92.286,-16.901c-92.585,-2.348 -153.086,39.145 -153.086,39.145c-8.544,5.838 -10.741,17.515 -4.902,26.059c5.838,8.544 17.515,10.741 26.059,4.902Z" style="fill:#d8d4ff;"/><path d="M454.292,204.765c0,0 -113.465,-20.496 -163.5,-65.25c-50.034,-44.755 -52.069,-92.204 -171.75,-92.62" style="fill:#7b6cff;"/><path d="M456.292,193.694c0,0 -51.694,-9.068 -100.195,-28.597c-21.955,-8.841 -43.315,-19.746 -58.524,-33.163c-13.926,-12.248 -24.05,-24.774 -34.151,-36.353c-11.892,-13.632 -23.686,-26.162 -40.511,-35.779c-11.054,-6.318 -24.189,-11.704 -40.971,-14.729c-16.847,-3.037 -37.261,-3.633 -62.884,-1.978c-2.098,-0.007 -3.806,1.69 -3.814,3.787c-0.007,2.098 1.69,3.806 3.787,3.814c24.488,1.752 43.571,5.52 59.328,9.948c14.396,4.047 25.721,8.897 35.186,14.818c14.592,9.127 24.755,20.457 35.068,32.777c10.393,12.417 20.943,25.704 35.401,38.856c16.592,15.048 39.874,27.666 63.999,37.731c50.384,21.018 104.282,31.009 104.282,31.009c6.11,1.104 11.967,-2.961 13.07,-9.071c1.104,-6.11 -2.961,-11.967 -9.071,-13.07Z" style="fill:#d8d4ff;"/></svg>