<?xml version="1.0" encoding="UTF-8" standalone="no"?><!DOCTYPE svg PUBLIC "-//W3C//DTD SVG 1.1//EN" "http://www.w3.org/Graphics/SVG/1.1/DTD/svg11.dtd"><svg width="100%" height="100%" viewBox="0 0 1923 400" version="1.1" xmlns="http://www.w3.org/2000/svg" xmlns:xlink="http://www.w3.org/1999/xlink" xml:space="preserve" xmlns:serif="http://www.serif.com/" style="fill-rule:evenodd;clip-rule:evenodd;stroke-linejoin:round;stroke-miterlimit:2;"><path d="M1923.14,83.265c0,0 -109.102,-82.5 -441.03,-82.5c-366.263,0 -530.299,128.669 -527.388,127.125c0,0 -62.118,-74.802 -241.211,-73.125c-153.467,1.436 -201.076,82.355 -276.913,24.75c-75.838,-57.606 -160.097,-84.517 -258.853,-78.75c-97.716,5.706 -177.743,59.25 -177.743,59.25l-0.405,306l1923.68,0l-0.138,-282.75l0.001,0Z" style="fill:url(#_Linear1);"/><path d="M1922.98,130.419c0,0 -211.545,-23.448 -305.389,72.454c-93.843,95.901 -150.922,-17.882 -323.25,-23.461c-172.327,-5.58 -281.157,47.653 -332.596,131.797c-114.004,-78.654 -340.907,-124.526 -568.904,-123.517c-257.7,1.141 -393.242,106.956 -393.242,106.956l-0.646,104.491l1924.19,0l-0.162,-268.72l-0.001,0Z" style="fill:#de9031;"/><path d="M1089.82,269.874c0,0 43.049,-28.359 108.926,-41.077c21.3,-4.112 44.933,-5.994 70.372,-6.159c9.305,-0.061 18.748,-0.181 28.545,0.168c6.353,0.226 12.677,0.368 19.234,0.886c2.056,0.415 4.063,-0.916 4.478,-2.972c0.416,-2.056 -0.916,-4.062 -2.972,-4.478c-6.441,-2.135 -12.679,-4.071 -19.051,-5.629c-9.975,-2.438 -19.753,-4.201 -29.455,-5.147c-26.793,-2.61 -52.008,-0.146 -74.668,3.529c-71.133,11.538 -117.748,42.065 -117.748,42.065c-5.192,3.405 -6.643,10.385 -3.238,15.577c3.405,5.192 10.385,6.643 15.577,3.237Z" style="fill:#f9c98f;"/><path d="M1601.87,271.69c-6.194,-0.426 -10.877,-5.802 -10.45,-11.996c0.427,-6.195 5.802,-10.877 11.997,-10.45c0,0 10.569,0.627 23.662,-5.641c6.665,-3.191 13.938,-8.086 20.866,-15.631c15.506,-16.78 38.609,-37.847 72.836,-51.007c12.814,-4.927 27.126,-9.186 43.231,-10.761c8.415,-0.823 17.196,-0.847 26.499,-0.175c5.686,0.411 11.378,1.171 17.38,2.14c2.096,0.067 3.743,1.824 3.676,3.92c-0.068,2.097 -1.825,3.744 -3.921,3.676c-5.811,0.559 -11.255,1.418 -16.667,2.237c-8.624,1.304 -16.593,3.076 -24.308,4.802c-14.331,3.208 -27.186,7.018 -38.621,11.964c-30.236,13.076 -50.666,32.1 -64.208,47.524c-8.924,10.101 -18.4,16.69 -27.092,21.047c-19.131,9.591 -34.877,8.352 -34.88,8.351Z" style="fill:#f9c98f;"/><path d="M736.798,285.24c5.368,3.12 7.194,10.011 4.074,15.38c-3.12,5.368 -10.011,7.194 -15.379,4.074c0,0 -56.367,-32.736 -167.373,-51.459c-37.277,-6.288 -80.644,-10.845 -130.064,-12.473c-17.934,-0.591 -36.649,-0.628 -56.178,-0.664c-15.607,-0.029 -31.665,-0.11 -48.307,0.144c-10.578,0.161 -21.299,0.274 -32.301,0.635c-2.087,0.207 -3.949,-1.319 -4.156,-3.406c-0.207,-2.087 1.319,-3.95 3.406,-4.157c12.188,-2.02 24.048,-3.917 35.776,-5.393c18.643,-2.346 36.648,-4.087 54.101,-4.99c50.623,-2.62 96.002,-0.013 135.939,4.038c146.071,14.816 220.462,58.271 220.462,58.271Zm0,0l0,0Z" style="fill:#f9c98f;"/><path d="M1264.14,62.288c0,0 105.327,-19.226 229.95,-22.032c44.94,-1.012 92.316,0.692 138.347,4.967c18.633,1.73 37.016,3.641 54.987,6.324c12.408,1.853 24.557,3.805 36.446,6.33c2.02,0.564 4.118,-0.618 4.682,-2.638c0.565,-2.02 -0.617,-4.118 -2.638,-4.682c-11.693,-4.076 -23.657,-7.847 -36.026,-11.07c-17.963,-4.68 -36.489,-8.52 -55.399,-11.33c-30.868,-4.589 -62.577,-6.55 -93.739,-7.529c-145.786,-4.578 -280.606,19.518 -280.606,19.518c-6.11,1.103 -10.176,6.959 -9.073,13.069c1.103,6.11 6.959,10.176 13.069,9.073Z" style="fill:#4c68f1;"/><path d="M434.407,119.746c4.494,4.284 4.666,11.411 0.382,15.906c-4.284,4.494 -11.41,4.666 -15.905,0.382c0,0 -37.185,-35.651 -96.127,-61.102c-19.656,-8.488 -41.808,-15.263 -65.635,-20.546c-8.886,-1.97 -17.839,-3.997 -27.186,-5.579c-6.122,-1.037 -12.174,-2.131 -18.512,-2.869c-2.097,0.016 -3.813,-1.674 -3.829,-3.772c-0.016,-2.097 1.674,-3.813 3.771,-3.829c6.561,-0.866 12.911,-1.547 19.345,-1.815c9.982,-0.416 19.703,-0.162 29.235,0.909c25.74,2.893 49.372,10.552 70.5,18.916c63.809,25.262 103.953,63.392 103.961,63.399Zm0,0l0,0Z" style="fill:#4c68f1;"/><defs><linearGradient id="_Linear1" x1="0" y1="0" x2="1" y2="0" gradientUnits="userSpaceOnUse" gradientTransform="matrix(1.02512e-14,-167.415,167.415,1.02512e-14,955.931,322.883)"><stop offset="0" style="stop-color:#031154;stop-opacity:1"/><stop offset="1" style="stop-color:#1c3091;stop-opacity:1"/></linearGradient></defs></svg>