<?xml version="1.0" encoding="UTF-8" standalone="no"?><!DOCTYPE svg PUBLIC "-//W3C//DTD SVG 1.1//EN" "http://www.w3.org/Graphics/SVG/1.1/DTD/svg11.dtd"><svg width="100%" height="100%" viewBox="0 0 1923 534" version="1.1" xmlns="http://www.w3.org/2000/svg" xmlns:xlink="http://www.w3.org/1999/xlink" xml:space="preserve" xmlns:serif="http://www.serif.com/" style="fill-rule:evenodd;clip-rule:evenodd;stroke-linejoin:round;stroke-miterlimit:2;"><path d="M977.675,485.485c0,0 -26.58,-111.958 -138.425,-114.75c-138.24,-3.45 -164.966,20.765 -224.25,6c-59.284,-14.764 -93.948,-142.167 -198,-153c-104.052,-10.833 -212.346,-9.379 -270,-101.676c-57.654,-92.297 -120.353,-114.552 -147,-114.552l0,526.51l1923.04,0l0,-533.614c0,0 -212.531,-13.908 -315.037,121.656c-102.506,135.564 -80.889,154.641 -174.75,150.426c-93.861,-4.214 -150.941,38.924 -198,85.5c-47.059,46.577 -108.047,90.938 -159.75,91.5c-83.534,0.908 -97.768,36.281 -97.825,36l0.002,0Z" style="fill:#e35296;"/><path d="M529.094,357.1c3.458,5.157 2.078,12.151 -3.08,15.609c-5.157,3.457 -12.151,2.077 -15.608,-3.08c0,0 -31.097,-46.945 -77.92,-75.09c-19.655,-11.814 -42.113,-20.398 -66.307,-20.148c-35.558,0.232 -67.065,-4.666 -93.189,-12.107c-13.249,-3.773 -25.132,-8.074 -35.408,-12.655c-31.575,-14.075 -48.519,-28.657 -48.519,-28.657c-1.715,-1.206 -2.128,-3.579 -0.921,-5.294c1.207,-1.716 3.579,-2.129 5.295,-0.922c0,0 18.352,10.224 49.702,20.4c10.17,3.301 21.644,6.716 34.384,9.731c24.979,5.911 54.71,10.431 88.298,9.45c28.103,-0.712 54.449,8.541 77.464,21.963c51.4,29.978 85.809,80.8 85.809,80.8Zm0,0l0,0Z" style="fill:#fbc4de;"/><path d="M911.248,450.596c-0.128,6.207 -5.272,11.144 -11.479,11.016c-6.208,-0.128 -11.144,-5.271 -11.017,-11.479c0,0 0.498,-11.073 -6.797,-21.951c-2.488,-3.71 -5.944,-7.11 -10.029,-10.961c-1.668,-1.572 -2.752,-3.321 -4.479,-5.153c-1.25,-1.326 -1.918,-2.493 -3.264,-3.889c-1.967,-0.727 -2.975,-2.914 -2.248,-4.882c0.727,-1.967 2.915,-2.974 4.882,-2.247c3.862,-0.243 6.602,-0.146 10.035,0.359c1.508,0.222 2.78,0.665 4.132,1.204c7.592,3.026 12.742,8.461 16.98,13.395c13.758,16.018 13.284,34.584 13.284,34.588Z" style="fill:#fbc4de;"/><path d="M1587.63,246.947c0,0 31.865,-76.992 103.369,-131.736c24.976,-19.121 54.92,-34.936 89.842,-45.13c12.621,-3.685 25.746,-6.912 39.736,-9.1c8.858,-1.385 17.885,-2.612 27.349,-3.228c2.097,0.039 3.832,-1.631 3.871,-3.728c0.04,-2.097 -1.63,-3.832 -3.727,-3.871c-9.785,-1.011 -19.229,-1.56 -28.527,-1.438c-14.997,0.196 -29.307,1.771 -42.922,4.702c-38.149,8.21 -70.472,25.748 -97.682,45.698c-77.497,56.818 -112.073,139.165 -112.073,139.165c-2.392,5.73 0.319,12.324 6.049,14.715c5.73,2.392 12.324,-0.319 14.715,-6.049Z" style="fill:#fbc4de;"/></svg>