<?xml version="1.0" encoding="UTF-8" standalone="no"?><!DOCTYPE svg PUBLIC "-//W3C//DTD SVG 1.1//EN" "http://www.w3.org/Graphics/SVG/1.1/DTD/svg11.dtd"><svg width="100%" height="100%" viewBox="0 0 198 112" version="1.1" xmlns="http://www.w3.org/2000/svg" xmlns:xlink="http://www.w3.org/1999/xlink" xml:space="preserve" xmlns:serif="http://www.serif.com/" style="fill-rule:evenodd;clip-rule:evenodd;stroke-linejoin:round;stroke-miterlimit:2;"><rect id="Artboard1" x="0" y="0" width="197.716" height="111.741" style="fill:none;"/><g><path d="M136.371,55.585c0,-20.872 -16.927,-37.798 -37.798,-37.798c-20.872,0 -37.799,16.926 -37.799,37.798c0,20.872 16.927,37.798 37.799,37.798c0.221,0 0.442,-0.004 0.664,-0.008l0,-29.425l-8.121,0l0,-9.464l8.121,0l0,-6.964c0,-8.077 4.931,-12.473 12.136,-12.473c3.449,0 6.415,0.257 7.28,0.372l0,8.441l-4.968,0c-3.92,0 -4.679,1.863 -4.679,4.597l0,6.027l9.372,0l-1.221,9.464l-8.151,0l0,27.973c15.799,-4.53 27.365,-19.085 27.365,-36.338Z" style="fill:#fff;fill-rule:nonzero;"/><g id="facebookFooter"></g></g></svg>