<?xml version="1.0" encoding="UTF-8" standalone="no"?><!DOCTYPE svg PUBLIC "-//W3C//DTD SVG 1.1//EN" "http://www.w3.org/Graphics/SVG/1.1/DTD/svg11.dtd"><svg width="100%" height="100%" viewBox="0 0 45 45" version="1.1" xmlns="http://www.w3.org/2000/svg" xmlns:xlink="http://www.w3.org/1999/xlink" xml:space="preserve" xmlns:serif="http://www.serif.com/" style="fill-rule:evenodd;clip-rule:evenodd;stroke-linejoin:round;stroke-miterlimit:2;"><path d="M44.26,22.13c0,-12.22 -9.91,-22.13 -22.13,-22.13c-12.22,0 -22.13,9.91 -22.13,22.13c0,12.22 9.91,22.13 22.13,22.13c0.13,0 0.259,-0.002 0.389,-0.005l0,-17.227l-4.754,0l0,-5.541l4.754,0l0,-4.078c0,-4.728 2.887,-7.302 7.105,-7.302c2.02,0 3.757,0.15 4.263,0.218l0,4.942l-2.909,0c-2.295,0 -2.739,1.09 -2.739,2.691l0,3.529l5.487,0l-0.715,5.541l-4.772,0l0,16.377c9.25,-2.652 16.021,-11.174 16.021,-21.275Z" style="fill:#e35296;fill-rule:nonzero;"/></svg>