<?xml version="1.0" encoding="UTF-8" standalone="no"?><!DOCTYPE svg PUBLIC "-//W3C//DTD SVG 1.1//EN" "http://www.w3.org/Graphics/SVG/1.1/DTD/svg11.dtd"><svg width="100%" height="100%" viewBox="0 0 324 194" version="1.1" xmlns="http://www.w3.org/2000/svg" xmlns:xlink="http://www.w3.org/1999/xlink" xml:space="preserve" xmlns:serif="http://www.serif.com/" style="fill-rule:evenodd;clip-rule:evenodd;stroke-linejoin:round;stroke-miterlimit:2;"><path d="M246.68,119.514c0,4.831 2.638,9.277 6.878,11.592c11.318,6.179 34.27,18.71 50.907,27.793c4.091,2.234 9.058,2.145 13.068,-0.234c4.009,-2.379 6.467,-6.696 6.467,-11.358l0,-101.064c0,-4.662 -2.458,-8.979 -6.467,-11.358c-4.01,-2.379 -8.977,-2.468 -13.068,-0.234c-16.637,9.083 -39.589,21.614 -50.907,27.793c-4.24,2.315 -6.878,6.761 -6.878,11.592l0,45.478Z" style="fill:#fff;fill-rule:nonzero;"/><path d="M209.18,0l-186.68,0c-12.422,0.015 -22.485,10.078 -22.5,22.5l0,148.066c0.015,12.422 10.078,22.486 22.5,22.5l186.68,0c12.419,-0.014 22.485,-10.078 22.5,-22.5l0,-148.066c-0.015,-12.422 -10.081,-22.485 -22.5,-22.5Zm-63.125,87.613c2.888,2.052 4.604,5.377 4.604,8.92c0,3.544 -1.716,6.868 -4.604,8.921c-13.309,9.458 -34.422,24.463 -49.299,35.036c-3.338,2.372 -7.72,2.683 -11.359,0.805c-3.639,-1.878 -5.925,-5.631 -5.925,-9.725c0,-20.063 0,-50.011 0,-70.073c0,-4.095 2.286,-7.847 5.925,-9.725c3.639,-1.878 8.021,-1.568 11.359,0.804c14.877,10.573 35.99,25.578 49.299,35.037Z" style="fill:#fff;fill-rule:nonzero;"/></svg>