<?xml version="1.0" encoding="UTF-8" standalone="no"?><!DOCTYPE svg PUBLIC "-//W3C//DTD SVG 1.1//EN" "http://www.w3.org/Graphics/SVG/1.1/DTD/svg11.dtd"><svg width="100%" height="100%" viewBox="0 0 137 137" version="1.1" xmlns="http://www.w3.org/2000/svg" xmlns:xlink="http://www.w3.org/1999/xlink" xml:space="preserve" xmlns:serif="http://www.serif.com/" style="fill-rule:evenodd;clip-rule:evenodd;stroke-linejoin:round;stroke-miterlimit:2;"><g><g><g><path d="M123.233,55.981c-0.015,-0.052 -0.033,-0.104 -0.053,-0.155c0,-0.021 -0.012,-0.047 -0.022,-0.068c-0.091,-0.177 -0.209,-0.34 -0.349,-0.481c-0.032,-0.033 -0.071,-0.057 -0.104,-0.088c-0.136,-0.121 -0.287,-0.222 -0.45,-0.303c-0.058,-0.027 -0.113,-0.055 -0.174,-0.076c-0.217,-0.086 -0.446,-0.133 -0.679,-0.138l-80.697,0l-0.516,-0.643l25.32,-7.95l0.309,-0.097l0.453,-0.141l24.335,-7.642l5.163,-1.621l7.642,-2.398l18.58,-5.831c1.034,-0.325 1.608,-1.426 1.283,-2.46l0,-0.001l-4.702,-14.98c-0.012,-0.035 -0.039,-0.058 -0.053,-0.094c-0.065,-0.172 -0.154,-0.335 -0.265,-0.483c-0.035,-0.047 -0.063,-0.098 -0.102,-0.141c-0.013,-0.019 -0.027,-0.037 -0.041,-0.055c-0.138,-0.141 -0.297,-0.261 -0.471,-0.353c-0.046,-0.026 -0.097,-0.037 -0.144,-0.059c-0.16,-0.072 -0.329,-0.123 -0.502,-0.151c-0.067,-0.01 -0.128,-0.018 -0.196,-0.022c-0.233,-0.017 -0.466,0.008 -0.689,0.075l-54.841,17.215l-5.075,1.594l-8.713,2.735l-24.855,7.803l-7.199,0c-1.084,0 -1.962,0.879 -1.962,1.963l0,80.463c0,3.251 2.636,5.887 5.887,5.887l98.126,0c3.251,0 5.887,-2.636 5.887,-5.887l0,-64.763c0,-0.037 -0.019,-0.069 -0.021,-0.106c-0.011,-0.187 -0.048,-0.371 -0.11,-0.548Zm-5.756,2.616l-8.832,11.776l-10.793,0l8.831,-11.776l10.794,0Zm-15.7,0l-8.832,11.776l-10.793,0l8.831,-11.776l10.794,0Zm-15.7,0l-8.832,11.776l-10.794,0l8.832,-11.776l10.794,0Zm-15.701,0l-8.831,11.776l-10.794,0l8.832,-11.776l10.793,0Zm-15.7,0l-8.831,11.776l-0.981,0l0,-9.813c0,-0.446 -0.152,-0.878 -0.43,-1.227l-0.569,-0.71l10.811,-0.026Zm61.914,-40.888l2.355,7.49l-5.621,1.763l3.266,-9.253Zm-10.198,-0.917l7.16,-2.245l-4.907,13.877l-6.533,2.051l-3.766,1.177l4.906,-13.879l3.14,-0.981Zm-16.861,5.295l9.031,-2.838l-4.906,13.879l-10.298,3.232l4.907,-13.881l1.266,-0.392Zm-5.941,1.864l-4.906,13.877l-10.296,3.232l4.907,-13.876l10.295,-3.233Zm-25.277,7.941l10.297,-3.239l-4.906,13.885l-10.297,3.232l4.906,-13.878Zm-4.671,1.458l-4.906,13.877l-6.343,1.994l-3.954,1.24l4.906,-13.879l10.297,-3.232Zm-14.997,4.708l-3.439,9.746l-5.538,-6.928l8.977,-2.818Zm-21.256,4.839l8.87,0l9.073,11.344l2.893,3.613l1.373,1.723l0.238,0.296l1.091,1.362l0,9.138l-23.538,0l0,-27.476Zm102.05,78.501c0,1.084 -0.878,1.962 -1.962,1.962l-98.126,0c-1.084,0 -1.962,-0.878 -1.962,-1.962l0,-47.1l102.05,0l0,47.1Zm0,-51.025l-5.887,0l5.887,-7.851l0,7.851Z" style="fill:#e79a3c;fill-rule:nonzero;"/></g></g><g><g><rect x="21.314" y="62.522" width="3.925" height="3.925" style="fill:#e79a3c;"/></g></g><g><g><rect x="21.314" y="46.822" width="3.925" height="3.925" style="fill:#e79a3c;"/></g></g><g><g><rect x="33.089" y="62.522" width="3.925" height="3.925" style="fill:#e79a3c;"/></g></g><g><rect x="16.243" y="74.298" width="105" height="51.626" style="fill:#e79a3c;"/><g><rect x="25.239" y="86.073" width="86.351" height="3.925" style="fill:#fff;"/></g><g><path d="M25.239,101.773l0,3.925l25.512,0l0,11.775l3.925,0l0,-11.775l27.476,0l0,11.775l3.925,0l0,-11.775l25.512,0l0,-3.925l-86.35,0Z" style="fill:#fff;fill-rule:nonzero;"/></g></g></g></svg>