<?xml version="1.0" encoding="UTF-8" standalone="no"?><!DOCTYPE svg PUBLIC "-//W3C//DTD SVG 1.1//EN" "http://www.w3.org/Graphics/SVG/1.1/DTD/svg11.dtd"><svg width="100%" height="100%" viewBox="0 0 45 45" version="1.1" xmlns="http://www.w3.org/2000/svg" xmlns:xlink="http://www.w3.org/1999/xlink" xml:space="preserve" xmlns:serif="http://www.serif.com/" style="fill-rule:evenodd;clip-rule:evenodd;stroke-linejoin:round;stroke-miterlimit:2;"><g><path d="M35.125,3.75l-25.99,0c-2.969,0 -5.385,2.416 -5.385,5.385l0,25.99c0,2.969 2.416,5.385 5.385,5.385l25.99,0c2.969,0 5.385,-2.416 5.385,-5.385l0,-25.99c0,-2.969 -2.416,-5.385 -5.385,-5.385Zm-12.923,28.001c-5.345,0 -9.693,-4.348 -9.693,-9.693c0,-5.344 4.348,-9.692 9.693,-9.692c5.345,0 9.693,4.348 9.693,9.692c0,5.345 -4.348,9.693 -9.693,9.693Zm10.77,-17.231c-1.782,0 -3.231,-1.45 -3.231,-3.231c0,-1.782 1.449,-3.231 3.231,-3.231c1.781,0 3.23,1.449 3.23,3.231c0,1.781 -1.449,3.231 -3.23,3.231Z" style="fill:#e35296;fill-rule:nonzero;"/><path d="M32.972,10.212c-0.595,0 -1.077,0.482 -1.077,1.077c0,0.594 0.482,1.077 1.077,1.077c0.594,0 1.076,-0.483 1.076,-1.077c0,-0.595 -0.482,-1.077 -1.076,-1.077Z" style="fill:#e35296;fill-rule:nonzero;"/><path d="M22.202,14.52c-4.156,0 -7.539,3.382 -7.539,7.538c0,4.157 3.383,7.539 7.539,7.539c4.156,0 7.539,-3.382 7.539,-7.539c0,-4.156 -3.383,-7.538 -7.539,-7.538Z" style="fill:#e35296;fill-rule:nonzero;"/></g></svg>