<?xml version="1.0" encoding="UTF-8" standalone="no"?><!DOCTYPE svg PUBLIC "-//W3C//DTD SVG 1.1//EN" "http://www.w3.org/Graphics/SVG/1.1/DTD/svg11.dtd"><svg width="100%" height="100%" viewBox="0 0 77 43" version="1.1" xmlns="http://www.w3.org/2000/svg" xmlns:xlink="http://www.w3.org/1999/xlink" xml:space="preserve" xmlns:serif="http://www.serif.com/" style="fill-rule:evenodd;clip-rule:evenodd;stroke-linejoin:round;stroke-miterlimit:2;"><path d="M0,34.735c0,0.947 0.343,1.663 1.03,2.148c0.686,0.485 1.42,0.657 2.202,0.515c0.733,-0.142 1.248,-0.402 1.544,-0.781c0.296,-0.379 0.444,-1.006 0.444,-1.882l0,-10.299c0,-0.733 -0.254,-1.355 -0.763,-1.864c-0.509,-0.509 -1.131,-0.763 -1.865,-0.763c-0.71,0 -1.319,0.254 -1.828,0.763c-0.509,0.509 -0.764,1.13 -0.764,1.864l0,10.299Zm8.168,4.403c0,0.687 0.242,1.202 0.728,1.545c0.485,0.343 1.106,0.515 1.864,0.515c0.781,0 1.414,-0.172 1.9,-0.515c0.485,-0.343 0.728,-0.858 0.728,-1.545l0,-24.005c0,-0.711 -0.255,-1.32 -0.764,-1.829c-0.509,-0.509 -1.13,-0.764 -1.864,-0.764c-0.71,0 -1.32,0.255 -1.829,0.764c-0.509,0.509 -0.763,1.118 -0.763,1.829l0,24.005Zm8.132,1.137c0,0.686 0.248,1.201 0.745,1.544c0.498,0.344 1.137,0.515 1.918,0.515c0.758,0 1.379,-0.171 1.864,-0.515c0.486,-0.343 0.728,-0.858 0.728,-1.544l0,-21.911c0,-0.734 -0.254,-1.361 -0.763,-1.882c-0.509,-0.521 -1.119,-0.781 -1.829,-0.781c-0.734,0 -1.361,0.26 -1.882,0.781c-0.521,0.521 -0.781,1.148 -0.781,1.882l0,21.911l0,0Zm8.167,0.106c0,1.302 0.876,1.953 2.628,1.953c1.752,0 2.628,-0.651 2.628,-1.953l0,-35.511c0,-1.989 -0.604,-3.113 -1.811,-3.374c-0.781,-0.189 -1.551,0.036 -2.308,0.675c-0.758,0.639 -1.137,1.539 -1.137,2.699l0,35.511l0,0Zm8.31,1.03l0,-38.636c0,-1.232 0.367,-1.965 1.101,-2.202c1.586,-0.379 3.16,-0.568 4.723,-0.568c3.622,0 6.996,0.852 10.121,2.556c3.125,1.705 5.652,4.031 7.581,6.978c1.93,2.948 3.048,6.197 3.356,9.748c1.444,-0.615 2.983,-0.923 4.616,-0.923c3.315,0 6.15,1.172 8.505,3.516c2.356,2.344 3.534,5.161 3.534,8.451c0,3.315 -1.178,6.144 -3.534,8.488c-2.355,2.343 -5.178,3.515 -8.469,3.515l-30.895,-0.035c-0.213,-0.071 -0.373,-0.201 -0.479,-0.391c-0.107,-0.189 -0.16,-0.355 -0.16,-0.497Z" style="fill:url(#_Linear1);fill-rule:nonzero;"/><g id="soundcloud-2"></g><defs><linearGradient id="_Linear1" x1="0" y1="0" x2="1" y2="0" gradientUnits="userSpaceOnUse" gradientTransform="matrix(2.46968e-15,40.333,-40.333,2.46968e-15,38.2386,1.15643)"><stop offset="0" style="stop-color:#f80;stop-opacity:1"/><stop offset="1" style="stop-color:#f30;stop-opacity:1"/></linearGradient></defs></svg>