<?xml version="1.0" encoding="UTF-8" standalone="no"?><!DOCTYPE svg PUBLIC "-//W3C//DTD SVG 1.1//EN" "http://www.w3.org/Graphics/SVG/1.1/DTD/svg11.dtd"><svg width="100%" height="100%" viewBox="0 0 54 54" version="1.1" xmlns="http://www.w3.org/2000/svg" xmlns:xlink="http://www.w3.org/1999/xlink" xml:space="preserve" xmlns:serif="http://www.serif.com/" style="fill-rule:evenodd;clip-rule:evenodd;stroke-linejoin:round;stroke-miterlimit:2;"><path d="M26.906,0c-14.86,0 -26.906,12.046 -26.906,26.906c0,14.86 12.046,26.906 26.906,26.906c14.86,0 26.906,-12.046 26.906,-26.906c0,-14.86 -12.046,-26.906 -26.906,-26.906Zm11.71,39.048c-0.342,0.585 -0.958,0.912 -1.59,0.912c-0.316,0 -0.635,-0.081 -0.927,-0.252c-4.835,-2.825 -10.421,-3.28 -14.256,-3.163c-4.249,0.129 -7.364,0.968 -7.395,0.977c-0.979,0.267 -1.991,-0.309 -2.26,-1.288c-0.269,-0.98 0.306,-1.991 1.285,-2.261c0.14,-0.038 3.493,-0.949 8.155,-1.103c2.746,-0.09 5.39,0.101 7.856,0.569c3.125,0.593 5.975,1.633 8.472,3.092c0.877,0.513 1.173,1.64 0.66,2.517Zm3.42,-7.104c-0.405,0.693 -1.134,1.08 -1.883,1.08c-0.374,0 -0.752,-0.096 -1.098,-0.298c-5.727,-3.347 -12.344,-3.885 -16.886,-3.747c-5.033,0.153 -8.723,1.147 -8.76,1.157c-1.16,0.316 -2.359,-0.366 -2.677,-1.526c-0.318,-1.16 0.362,-2.358 1.522,-2.677c0.166,-0.046 4.137,-1.125 9.66,-1.307c3.253,-0.107 6.384,0.119 9.306,0.674c3.701,0.702 7.077,1.934 10.034,3.662c1.04,0.608 1.39,1.943 0.782,2.982Zm2.103,-6.46c-0.458,0 -0.922,-0.118 -1.346,-0.366c-13.616,-7.957 -31.278,-3.226 -31.455,-3.177c-1.424,0.392 -2.895,-0.444 -3.287,-1.868c-0.393,-1.423 0.443,-2.895 1.867,-3.287c0.204,-0.056 5.075,-1.379 11.849,-1.603c3.99,-0.131 7.831,0.147 11.415,0.827c4.54,0.861 8.681,2.372 12.309,4.492c1.274,0.745 1.704,2.383 0.959,3.657c-0.497,0.851 -1.392,1.325 -2.311,1.325Z" style="fill:#00d95f;fill-rule:nonzero;"/><g id="spotify"></g></svg>