<?xml version="1.0" encoding="UTF-8" standalone="no"?><!DOCTYPE svg PUBLIC "-//W3C//DTD SVG 1.1//EN" "http://www.w3.org/Graphics/SVG/1.1/DTD/svg11.dtd"><svg width="100%" height="100%" viewBox="0 0 111 34" version="1.1" xmlns="http://www.w3.org/2000/svg" xmlns:xlink="http://www.w3.org/1999/xlink" xml:space="preserve" xmlns:serif="http://www.serif.com/" style="fill-rule:evenodd;clip-rule:evenodd;stroke-linejoin:round;stroke-miterlimit:2;"><g><path d="M31.608,32.959l9.782,-32.251l8.727,0l-9.782,32.251l-8.727,0Zm-3.901,-32.242l-7.851,13.671c-1.999,3.581 -3.167,5.389 -3.729,7.652l-0.119,0c0.139,-2.868 -0.261,-6.39 -0.299,-8.38l-0.867,-12.943l-14.691,0l-0.151,0.867c3.774,0 6.013,1.896 6.629,5.774l2.863,25.601l9.042,0l18.282,-32.242l-9.109,0Zm67.871,32.242l-0.241,-4.796l-10.898,-0.009l-2.229,4.805l-9.475,0l17.18,-32.19l11.631,0l2.909,32.19l-8.877,0l0,0Zm-1.001,-19.024c-0.097,-2.383 -0.178,-5.619 -0.016,-7.576l-0.129,0c-0.531,1.601 -2.812,6.409 -3.816,8.773l-3.247,7.07l7.652,0l-0.444,-8.267Zm-35.297,19.941c-6.162,0 -10.251,-1.955 -13.17,-3.697l4.157,-6.349c2.621,1.466 4.678,3.157 9.413,3.157c1.522,0 2.989,-0.396 3.822,-1.838c1.214,-2.098 -0.28,-3.227 -3.689,-5.157l-1.684,-1.094c-5.054,-3.454 -7.24,-6.734 -4.861,-12.459c1.523,-3.663 5.538,-6.439 12.162,-6.439c4.568,0 8.851,1.976 11.347,3.907l-4.78,5.605c-2.435,-1.969 -4.454,-2.966 -6.764,-2.966c-1.842,0 -3.241,0.71 -3.724,1.668c-0.909,1.801 0.294,3.029 2.95,4.678l2.002,1.273c6.135,3.87 7.597,7.929 6.059,11.722c-2.644,6.531 -7.823,7.989 -13.24,7.989Zm47.562,-28.18l-0.575,0l0,-3.496l1.327,0c0.844,0 1.275,0.296 1.275,1.005c0,0.633 -0.389,0.895 -0.913,0.954l0.98,1.537l-0.65,0l-0.903,-1.494l-0.541,0l0,1.494Zm0.641,-1.984c0.432,0 0.811,-0.043 0.811,-0.55c0,-0.422 -0.414,-0.473 -0.759,-0.473l-0.693,0l0,1.023l0.641,0Zm-0.017,3.335c-1.814,0 -3.107,-1.359 -3.107,-3.158c0,-1.901 1.435,-3.159 3.107,-3.159c1.657,0 3.092,1.258 3.092,3.159c0,1.9 -1.435,3.158 -3.092,3.158Zm0,-5.767c-1.367,0 -2.431,1.071 -2.431,2.609c0,1.435 0.929,2.609 2.431,2.609c1.352,0 2.416,-1.063 2.416,-2.609c0,-1.538 -1.064,-2.609 -2.416,-2.609Z" style="fill:#fff;"/></g></svg>