<?xml version="1.0" encoding="UTF-8" standalone="no"?><!DOCTYPE svg PUBLIC "-//W3C//DTD SVG 1.1//EN" "http://www.w3.org/Graphics/SVG/1.1/DTD/svg11.dtd"><svg width="100%" height="100%" viewBox="0 0 190 208" version="1.1" xmlns="http://www.w3.org/2000/svg" xmlns:xlink="http://www.w3.org/1999/xlink" xml:space="preserve" xmlns:serif="http://www.serif.com/" style="fill-rule:evenodd;clip-rule:evenodd;stroke-linejoin:round;stroke-miterlimit:2;"><g><path d="M114.597,132.062c-2.619,-1.919 -5.348,-4.568 -8.106,-7.519c-6.057,-6.48 -12.201,-14.432 -17.257,-19.729c-3.865,-3.99 -7.693,-8.011 -11.536,-12.017c-2.562,-2.672 -5.122,-5.345 -7.693,-8.007c-6.428,-6.659 -12.848,-13.318 -19.205,-20.042c-8.476,-8.963 -16.883,-17.988 -25.113,-27.201c-0.232,-0.269 -0.639,-0.299 -0.909,-0.066c-0.269,0.232 -0.299,0.639 -0.067,0.908c9.91,11.877 20.008,23.562 30.407,34.984c5.201,5.713 10.458,11.375 15.817,16.942c5.355,5.564 10.836,11.008 16.309,16.464c5.223,5.111 11.595,12.859 17.88,19.091c2.947,2.924 5.877,5.51 8.648,7.367c0.325,0.228 0.772,0.149 1,-0.175c0.228,-0.325 0.149,-0.772 -0.175,-1Z" style="fill:#b9c4f7;"/><path d="M35.507,28.762c-0.359,0.956 -0.751,2.386 -0.928,2.667c-0.937,1.496 -2.164,2.81 -3.554,3.938c-1.362,1.105 -2.875,2.036 -4.405,2.793c-0.316,0.163 -0.705,0.039 -0.868,-0.277c-0.164,-0.316 -0.04,-0.705 0.277,-0.868c1.414,-0.762 2.808,-1.686 4.054,-2.769c1.221,-1.062 2.296,-2.282 3.097,-3.662c0.199,-0.341 0.642,-2.393 1.008,-3.169c0.22,-0.467 0.542,-0.677 0.73,-0.743c0.236,-0.082 0.822,-0.031 1.467,0.491c1.37,1.104 4.265,4.514 4.571,4.828c1.729,1.775 3.443,3.562 5.144,5.363c3.962,4.195 7.862,8.445 11.807,12.657c6.132,6.612 12.441,13.057 18.758,19.496c4.739,4.831 9.487,9.655 14.257,14.455c4.775,4.805 9.541,9.616 14.338,14.394c4.861,4.891 9.789,10.519 15.006,15.477c2.258,2.147 4.566,4.169 6.954,5.943c0.322,0.229 0.398,0.678 0.167,1.001c-0.23,0.322 -0.678,0.397 -1.001,0.167c-3.316,-2.274 -6.515,-4.99 -9.627,-7.88c-4.566,-4.24 -8.939,-8.849 -13.251,-12.907c-4.915,-4.669 -9.832,-9.337 -14.694,-14.068c-3.241,-3.154 -6.463,-6.328 -9.65,-9.538c-3.187,-3.212 -6.34,-6.457 -9.457,-9.737c-4.678,-4.922 -9.26,-9.932 -13.783,-14.995c-3.283,-3.7 -6.539,-7.419 -9.818,-11.12c-2.181,-2.463 -4.37,-4.918 -6.593,-7.347c-0.268,-0.293 -2.646,-3.3 -4.006,-4.59Z" style="fill:#b9c4f7;"/><path d="M28.025,41.3c-0.137,0.124 -0.287,0.289 -0.373,0.335c-0.309,0.164 -1.023,0.696 -1.556,0.887c-0.349,0.126 -0.667,0.12 -0.905,0.049c-0.507,-0.152 -1.048,-0.572 -1.563,-1.134c-0.839,-0.913 -1.636,-2.239 -2.156,-2.841c-3.899,-4.529 -7.674,-9.154 -11.521,-13.725c-1.639,-1.949 -3.286,-3.89 -4.973,-5.801c-0.452,-0.517 -3.385,-3.278 -4.458,-5.225c-0.729,-1.322 -0.625,-2.492 -0.099,-3.184c0.461,-0.609 1.082,-1.152 1.786,-1.65c1.23,-0.871 2.755,-1.582 3.795,-2.426c0.348,-0.28 0.672,-0.582 0.985,-0.895c0.512,-0.509 0.996,-1.045 1.486,-1.581l1.583,-1.745c1.358,-1.451 2.387,-2.07 3.31,-2.274c0.725,-0.16 1.425,-0.104 2.201,0.145c0.816,0.262 1.767,0.787 3.138,1.355l2.981,1.185l4.709,1.562c1.191,0.362 2.391,0.695 3.595,1.016c1.829,0.487 3.667,0.945 5.495,1.43c0.916,0.246 2.227,0.497 3.29,0.97c0.602,0.267 1.137,0.598 1.537,1.008c0.316,0.324 0.593,0.722 0.828,1.176c0.627,1.216 0.944,2.913 1.604,3.964c0.657,1.053 1.353,2.074 2.088,3.068c0.738,0.997 1.512,1.968 2.321,2.915c0.627,0.734 1.446,1.42 1.808,2.279c0.203,0.478 0.3,1.001 0.201,1.596c-0.223,1.347 -0.959,2.311 -1.985,3.061c-0.956,0.698 -2.167,1.21 -3.331,1.749c-1.069,0.494 -2.102,1 -2.76,1.792c-0.222,0.278 -0.627,0.325 -0.906,0.104c-0.278,-0.221 -0.324,-0.627 -0.103,-0.906c1.356,-1.785 4.276,-2.543 6.124,-4.018c0.649,-0.517 1.135,-1.146 1.245,-2.03c0.04,-0.33 -0.076,-0.595 -0.236,-0.837c-0.377,-0.568 -0.994,-1.023 -1.468,-1.534c-0.879,-0.947 -1.721,-1.921 -2.528,-2.923c-0.809,-1.006 -1.579,-2.043 -2.31,-3.113c-0.649,-0.954 -1.062,-2.433 -1.629,-3.639c-0.184,-0.392 -0.385,-0.748 -0.649,-1c-0.29,-0.276 -0.718,-0.441 -1.166,-0.588c-0.885,-0.291 -1.874,-0.44 -2.594,-0.606c-1.843,-0.429 -3.695,-0.83 -5.539,-1.259c-1.246,-0.29 -2.487,-0.594 -3.721,-0.928c-0.825,-0.226 -1.647,-0.463 -2.465,-0.711c-0.823,-0.251 -1.64,-0.514 -2.454,-0.793l-3.127,-1.157c-1.512,-0.596 -2.419,-1.193 -3.258,-1.29c-0.249,-0.029 -0.465,0.077 -0.743,0.274c-0.352,0.248 -0.734,0.612 -1.189,1.105l-1.57,1.736c-0.526,0.572 -1.044,1.146 -1.596,1.687c-0.394,0.387 -0.805,0.758 -1.242,1.103c-1.101,0.868 -2.699,1.605 -4,2.495c-0.387,0.264 -0.747,0.538 -1.027,0.852c0.22,0.416 0.892,1.079 1.276,1.563c1.172,1.475 2.631,2.923 2.926,3.278c1.638,1.984 3.245,3.989 4.826,6.016c3.67,4.708 7.22,9.502 10.922,14.189c0.427,0.544 1.036,1.644 1.709,2.551c0.333,0.448 0.651,0.87 0.996,1.041c0.223,-0.117 1.138,-0.593 1.393,-0.714c0.175,-0.082 0.516,-0.333 0.695,-0.416c0.149,-0.07 0.275,-0.098 0.36,-0.102c0.325,-0.013 0.535,0.124 0.661,0.314c0.086,0.126 0.233,0.369 0.072,0.747c-0.08,0.202 -0.243,0.347 -0.433,0.412c-0.012,0.03 -0.057,0.037 -0.117,0.03c-0.064,0.011 -0.13,0.013 -0.196,0.006Zm0.11,-0.021c0.017,0.003 0.034,0.007 0.051,0.01l0.035,0.005c0.039,-0.007 0.079,-0.016 0.117,-0.03c0.007,-0.017 0.003,-0.042 -0.016,-0.077c-0.042,-0.076 -0.14,-0.021 -0.253,0.073l0.066,0.019Zm-0.725,-0.875c-0.058,0.208 -0.028,0.363 0.04,0.477c-0.066,-0.146 -0.083,-0.314 -0.04,-0.477Zm0.009,-0.03l0.018,-0.052c-0.006,0.018 -0.012,0.035 -0.018,0.052Zm-24.492,-28.003c0.115,-0.172 0.233,-0.4 0.071,-0.361c-0.168,0.04 -0.168,0.174 -0.071,0.361Z" style="fill:#b9c4f7;"/><path d="M97.764,114.513c-0.408,-0.027 -0.983,0.221 -1.563,0.665c-0.841,0.645 -1.765,1.692 -2.102,2.032c-1.997,2.008 -3.134,4.429 -3.555,6.998c-0.417,2.544 -0.108,5.234 0.785,7.82c2.643,7.573 8.456,13.748 15.431,16.984c3.644,1.691 7.61,2.574 11.596,2.454c3.877,-0.116 7.773,-1.197 11.436,-3.383c3.775,-2.302 7.127,-5.574 9.32,-9.428c2.233,-3.922 3.284,-8.43 2.45,-13.086c-1.168,-6.386 -6.429,-14.433 -13.14,-18.88c-4.644,-3.076 -9.949,-4.446 -15.007,-2.458c-0.334,0.124 -0.504,0.495 -0.38,0.828c0.124,0.334 0.495,0.504 0.829,0.38c4.65,-1.629 9.397,-0.157 13.506,2.78c6.046,4.322 10.735,11.848 11.617,17.777c0.614,4.017 -0.42,7.852 -2.409,11.181c-2.015,3.372 -5.024,6.224 -8.401,8.207c-3.179,1.907 -6.563,2.829 -9.931,2.964c-3.524,0.142 -7.033,-0.581 -10.291,-1.995c-6.443,-2.797 -11.924,-8.246 -14.554,-15.084c-0.862,-2.225 -1.223,-4.557 -0.949,-6.788c0.274,-2.229 1.165,-4.357 2.812,-6.162c0.265,-0.29 0.924,-1.109 1.597,-1.738c0.219,-0.205 0.436,-0.392 0.639,-0.518c0.081,-0.05 0.137,-0.117 0.2,-0.116c0.395,0.018 0.731,-0.289 0.749,-0.685c0.017,-0.396 -0.29,-0.731 -0.685,-0.749Z" style="fill:#b9c4f7;"/><path d="M75.466,155.991c-0.098,-0.231 -0.216,-0.536 -0.351,-0.903c-0.985,-2.702 -3.049,-9.21 -4.179,-10.83c-5.902,-8.457 -14.038,-16.04 -17.276,-24.701c-2.223,-5.95 -2.228,-12.401 2.225,-19.949c1.291,-2.188 4.268,-6.055 7.313,-9.285c2.194,-2.329 4.427,-4.323 6.095,-5.17c0.352,-0.182 0.785,-0.043 0.967,0.309c0.181,0.352 0.043,0.785 -0.308,0.967c-1.552,0.814 -3.601,2.733 -5.627,4.942c-2.909,3.171 -5.752,6.951 -6.975,9.088c-4.011,7.007 -3.976,12.945 -1.86,18.4c3.291,8.483 11.427,15.816 17.33,24.069c0.483,0.675 1.144,2.128 1.822,3.837c1.101,2.775 2.288,6.255 2.902,7.829c0.088,0.224 0.19,0.455 0.231,0.546c0.265,0.357 0.32,0.841 0.126,1.255c-0.013,0.056 -0.031,0.136 -0.046,0.207c-0.239,1.162 -0.694,4.153 -0.698,4.259c-0.109,2.368 0.153,4.653 0.689,6.882c0.543,2.254 1.368,4.448 2.38,6.606c2.595,5.539 6.544,10.894 11.22,15.51c4.675,4.615 10.082,8.49 15.616,11.046c13.265,6.157 28.786,4.668 42.472,-1.384c13.762,-6.086 25.71,-16.798 31.616,-29.317c5.725,-12.066 6.555,-26.412 2.901,-39.344c-3.655,-12.938 -11.8,-24.473 -24.115,-30.88c-8.37,-4.362 -18.404,-4.484 -27.153,-7.48c-2.316,-0.793 -4.545,-1.779 -6.638,-3.079c-1.877,-1.165 -3.432,-2.708 -4.807,-4.45c-2.982,-3.776 -5.102,-8.513 -8.123,-12.06c-4.394,-5.161 -10.12,-7.448 -16.016,-7.331c-5.796,0.113 -11.749,2.529 -16.791,6.795c-0.27,0.232 -0.678,0.2 -0.909,-0.069c-0.231,-0.271 -0.2,-0.678 0.07,-0.909c5.251,-4.553 11.494,-7.146 17.591,-7.338c6.36,-0.2 12.566,2.204 17.371,7.718c3.071,3.526 5.257,8.253 8.291,12.009c1.253,1.551 2.656,2.929 4.353,3.957c1.976,1.197 4.08,2.095 6.262,2.815c8.895,2.939 19.047,3.003 27.574,7.333c13.007,6.616 21.71,18.647 25.665,32.216c3.954,13.565 3.143,28.656 -2.784,41.386c-6.166,13.165 -18.626,24.534 -33.081,30.916c-14.505,6.403 -30.979,7.774 -45.009,1.195c-5.802,-2.734 -11.471,-6.843 -16.351,-11.74c-4.873,-4.889 -8.961,-10.558 -11.635,-16.398c-1.066,-2.332 -1.927,-4.7 -2.487,-7.13c-0.568,-2.464 -0.831,-4.99 -0.687,-7.601c0.007,-0.115 0.525,-3.377 0.8,-4.643l0.024,-0.101Zm0.684,0.933c0.403,0.253 0.872,0.334 1.357,-0.054c-0.389,0.281 -0.923,0.318 -1.357,0.054Zm1.29,-2.094l0.001,0.001l-0.001,-0.001Zm-1.331,2.069l-0.013,-0.009l0.013,0.009Z" style="fill:#b9c4f7;"/></g></svg>