<?xml version="1.0" encoding="UTF-8" standalone="no"?><!DOCTYPE svg PUBLIC "-//W3C//DTD SVG 1.1//EN" "http://www.w3.org/Graphics/SVG/1.1/DTD/svg11.dtd"><svg width="100%" height="100%" viewBox="0 0 242 135" version="1.1" xmlns="http://www.w3.org/2000/svg" xmlns:xlink="http://www.w3.org/1999/xlink" xml:space="preserve" xmlns:serif="http://www.serif.com/" style="fill-rule:evenodd;clip-rule:evenodd;stroke-linejoin:round;stroke-miterlimit:2;"><path d="M137.02,2.316c-0.767,2.418 -1.584,6.908 -2.158,11.381c-0.512,3.993 -0.82,7.976 -0.689,10.484c0.037,0.689 0.105,1.256 0.219,1.665c0.036,0.131 0.045,0.24 0.101,0.29c1.144,0.988 2.789,1.181 4.162,1.835c0.422,0.201 0.822,0.438 1.19,0.728c2.955,2.334 5.7,4.942 8.585,7.386c0.709,0.601 1.427,1.191 2.158,1.764c0.254,0.199 4.113,2.885 5.48,4.11c0.407,0.365 0.638,0.686 0.713,0.853c0.197,0.44 0.091,0.788 -0.045,1.027c-0.149,0.264 -0.466,0.568 -1.018,0.788c-0.54,0.214 -1.433,0.401 -2.589,0.547c-4.919,0.623 -15.076,0.664 -21.462,1.151c-2.024,0.154 -3.635,0.313 -4.468,0.596c-0.063,0.236 -0.173,0.666 -0.236,1.038c-0.634,3.671 -1.095,12.037 -2.022,17.272c-0.315,1.779 -0.701,3.225 -1.135,4.094c-0.352,0.704 -0.794,1.133 -1.202,1.348c-0.584,0.308 -1.467,0.312 -2.311,-0.555c-1.251,-1.286 -3.203,-5.814 -3.477,-6.365c-2.088,-4.208 -3.917,-10.352 -6.397,-15.384c-1.047,-2.125 -2.206,-4.046 -3.584,-5.483c-0.085,-0.013 -0.395,-0.062 -0.611,-0.059c-0.676,0.011 -1.481,0.164 -2.286,0.359c-1.805,0.441 -3.599,1.11 -4.21,1.275c-1.769,0.475 -3.553,0.88 -5.349,1.238c-7.031,1.4 -14.214,2.098 -21.099,3.931c-0.601,0.159 -0.955,-0.01 -1.095,-0.074c-0.685,-0.315 -0.947,-0.84 -0.878,-1.523c0.02,-0.195 0.083,-0.59 0.477,-0.969c0.143,-0.137 0.812,-0.541 1.047,-0.755l1.871,-1.612c0.741,-0.629 1.523,-1.207 2.326,-1.755c1.153,-0.788 2.35,-1.516 3.525,-2.263c3.134,-1.989 7.08,-4.519 10.444,-7.405c2.214,-1.901 4.179,-3.951 5.442,-6.112c0.034,-0.059 0.012,-0.14 0.009,-0.232c-0.007,-0.213 -0.045,-0.452 -0.107,-0.715c-0.17,-0.725 -0.498,-1.591 -0.93,-2.555c-2.387,-5.325 -7.75,-13.337 -9.38,-17.542c-0.452,-1.165 -0.624,-2.111 -0.535,-2.73c0.076,-0.528 0.296,-0.924 0.618,-1.205c0.418,-0.366 1.31,-0.549 2.437,-0.195c1.63,0.511 4.156,2.036 4.88,2.17c4.55,0.839 9.805,1.92 14.736,3.497c3.241,1.036 6.342,2.285 9.02,3.813c0.363,-0.226 1.124,-0.702 1.217,-0.769c1.539,-1.118 3.134,-2.142 4.761,-3.113c2.413,-1.442 4.894,-2.771 7.36,-4.138c0.838,-0.464 3.627,-1.437 5.006,-1.985c0.091,-0.199 0.272,-0.352 0.503,-0.397l0.098,-0.018c0.118,-0.296 0.235,-0.542 0.347,-0.733c0.173,-0.301 0.559,-0.404 0.859,-0.231c0.301,0.173 0.404,0.558 0.231,0.86c-0.08,0.141 -0.161,0.313 -0.243,0.515c0.063,0.162 0.046,0.349 -0.05,0.56c-0.025,0.056 -0.098,0.175 -0.256,0.297Zm16.887,40.562c-1.627,-1.335 -4.357,-3.294 -4.566,-3.463c-0.741,-0.6 -1.469,-1.217 -2.187,-1.845c-2.833,-2.475 -5.522,-5.113 -8.426,-7.478c-1.191,-0.97 -2.848,-1.194 -4.189,-1.897c-0.417,-0.218 -0.809,-0.473 -1.162,-0.788c-0.381,-0.34 -0.728,-1.238 -0.823,-2.592c-0.143,-2.015 0.068,-5.214 0.485,-8.659c0.572,-4.728 1.534,-9.916 2.445,-13.141c-1.44,0.574 -3.513,1.359 -4.208,1.76c-2.425,1.402 -4.866,2.768 -7.238,4.245c-1.564,0.973 -3.097,1.996 -4.573,3.11c-0.16,0.121 -1.323,0.975 -1.863,1.171c-0.436,0.158 -0.779,0.058 -0.966,-0.048c-2.671,-1.511 -5.796,-2.712 -9.06,-3.697c-4.87,-1.469 -10.05,-2.448 -14.532,-3.202c-0.431,-0.072 -1.435,-0.53 -2.554,-1.057c-0.879,-0.415 -1.848,-0.88 -2.589,-1.092c0.015,0.073 0.032,0.146 0.051,0.211c0.182,0.62 0.516,1.38 0.945,2.246c2.096,4.227 6.423,10.704 8.685,15.378c0.904,1.869 1.475,3.491 1.563,4.633c0.058,0.761 -0.085,1.379 -0.352,1.846c-1.378,2.419 -3.516,4.739 -5.956,6.877c-3.442,3.014 -7.486,5.668 -10.701,7.751c-1.09,0.705 -2.199,1.39 -3.27,2.126c6.666,-1.282 13.484,-2.019 20.063,-3.79c0.845,-0.226 3.862,-1.354 6.198,-1.644c1.716,-0.213 3.137,0.128 3.84,0.857c1.597,1.66 2.962,3.874 4.16,6.35c2.446,5.051 4.214,11.215 6.267,15.441c0.191,0.393 1.266,3.107 2.247,4.739c0.182,-0.564 0.348,-1.254 0.505,-2.033c1.001,-4.953 1.564,-13.202 2.222,-17.183c0.204,-1.233 0.453,-2.118 0.683,-2.52c0.207,-0.362 0.458,-0.566 0.674,-0.678c0.899,-0.461 3.279,-0.798 6.375,-0.972c6.647,-0.374 16.843,-0.271 21.339,-0.882c0.156,-0.022 0.314,-0.049 0.468,-0.08Zm-32.615,25.316c-0.051,0.021 -0.154,0.049 -0.113,0.085c0.045,0.038 0.081,-0.007 0.113,-0.085Z" style="fill:#b9c4f7;"/><path d="M221.732,49.628c-0.767,2.418 -1.583,6.908 -2.157,11.382c-0.512,3.993 -0.821,7.975 -0.689,10.484c0.036,0.688 0.104,1.256 0.218,1.665c0.036,0.13 0.045,0.24 0.102,0.289c1.143,0.989 2.788,1.181 4.162,1.836c0.421,0.201 0.821,0.438 1.189,0.728c2.955,2.333 5.7,4.942 8.586,7.386c0.708,0.601 1.426,1.19 2.157,1.764c0.254,0.199 4.113,2.884 5.48,4.11c0.407,0.365 0.639,0.685 0.714,0.853c0.197,0.439 0.09,0.788 -0.046,1.026c-0.149,0.264 -0.466,0.568 -1.018,0.788c-0.54,0.215 -1.433,0.402 -2.589,0.548c-4.919,0.623 -15.076,0.664 -21.461,1.15c-2.025,0.154 -3.636,0.314 -4.469,0.597c-0.063,0.236 -0.173,0.666 -0.237,1.037c-0.633,3.672 -1.094,12.037 -2.02,17.272c-0.315,1.78 -0.702,3.225 -1.136,4.095c-0.352,0.704 -0.794,1.133 -1.202,1.348c-0.583,0.307 -1.466,0.311 -2.311,-0.556c-1.251,-1.286 -3.203,-5.814 -3.476,-6.365c-2.089,-4.208 -3.917,-10.351 -6.397,-15.384c-1.048,-2.125 -2.207,-4.046 -3.586,-5.482c-0.084,-0.014 -0.393,-0.063 -0.61,-0.06c-0.676,0.011 -1.481,0.164 -2.286,0.36c-1.805,0.441 -3.598,1.109 -4.209,1.274c-1.769,0.475 -3.554,0.881 -5.35,1.238c-7.031,1.4 -14.214,2.098 -21.099,3.932c-0.601,0.159 -0.955,-0.01 -1.095,-0.074c-0.685,-0.316 -0.946,-0.84 -0.878,-1.523c0.02,-0.196 0.083,-0.59 0.477,-0.969c0.143,-0.138 0.813,-0.542 1.047,-0.755l1.871,-1.612c0.742,-0.63 1.523,-1.208 2.326,-1.756c1.153,-0.787 2.349,-1.515 3.525,-2.263c3.134,-1.989 7.081,-4.518 10.444,-7.405c2.214,-1.9 4.179,-3.95 5.442,-6.112c0.034,-0.058 0.012,-0.139 0.009,-0.231c-0.007,-0.213 -0.045,-0.452 -0.107,-0.716c-0.17,-0.724 -0.498,-1.59 -0.93,-2.554c-2.386,-5.325 -7.749,-13.337 -9.38,-17.543c-0.452,-1.164 -0.623,-2.11 -0.534,-2.73c0.075,-0.527 0.296,-0.924 0.617,-1.205c0.418,-0.365 1.31,-0.548 2.437,-0.195c1.63,0.512 4.156,2.037 4.88,2.17c4.55,0.84 9.805,1.921 14.736,3.497c3.241,1.037 6.343,2.286 9.021,3.814c0.362,-0.226 1.123,-0.703 1.217,-0.77c1.538,-1.118 3.133,-2.141 4.76,-3.112c2.413,-1.443 4.895,-2.772 7.36,-4.138c0.839,-0.465 3.627,-1.437 5.007,-1.985c0.09,-0.199 0.272,-0.352 0.502,-0.397l0.098,-0.018c0.119,-0.297 0.235,-0.543 0.347,-0.734c0.173,-0.301 0.558,-0.404 0.86,-0.23c0.3,0.173 0.403,0.558 0.23,0.859c-0.079,0.141 -0.161,0.314 -0.243,0.515c0.063,0.162 0.046,0.349 -0.05,0.56c-0.025,0.056 -0.098,0.175 -0.256,0.297Zm16.888,40.563c-1.628,-1.336 -4.358,-3.295 -4.567,-3.464c-0.742,-0.6 -1.469,-1.217 -2.187,-1.844c-2.833,-2.476 -5.522,-5.113 -8.425,-7.479c-1.191,-0.97 -2.849,-1.193 -4.19,-1.896c-0.417,-0.219 -0.809,-0.474 -1.162,-0.789c-0.381,-0.339 -0.728,-1.237 -0.823,-2.592c-0.142,-2.015 0.068,-5.214 0.485,-8.659c0.572,-4.727 1.534,-9.915 2.445,-13.141c-1.439,0.575 -3.513,1.359 -4.208,1.761c-2.424,1.402 -4.866,2.767 -7.237,4.244c-1.565,0.974 -3.097,1.996 -4.574,3.111c-0.16,0.12 -1.323,0.974 -1.863,1.171c-0.436,0.158 -0.778,0.057 -0.966,-0.048c-2.671,-1.511 -5.796,-2.713 -9.06,-3.698c-4.87,-1.469 -10.049,-2.448 -14.532,-3.201c-0.431,-0.073 -1.435,-0.53 -2.554,-1.058c-0.878,-0.414 -1.848,-0.88 -2.589,-1.091c0.015,0.072 0.032,0.145 0.051,0.211c0.183,0.62 0.516,1.38 0.946,2.245c2.095,4.228 6.422,10.705 8.684,15.379c0.904,1.868 1.476,3.49 1.563,4.632c0.058,0.761 -0.085,1.38 -0.352,1.847c-1.378,2.418 -3.516,4.739 -5.956,6.876c-3.441,3.014 -7.486,5.669 -10.701,7.752c-1.089,0.704 -2.199,1.39 -3.27,2.126c6.666,-1.282 13.485,-2.019 20.064,-3.791c0.844,-0.226 3.861,-1.354 6.198,-1.643c1.715,-0.213 3.137,0.128 3.839,0.856c1.597,1.66 2.963,3.875 4.161,6.35c2.445,5.051 4.213,11.215 6.266,15.442c0.191,0.393 1.266,3.106 2.247,4.738c0.182,-0.564 0.348,-1.254 0.506,-2.033c1,-4.952 1.563,-13.202 2.222,-17.182c0.204,-1.234 0.452,-2.119 0.682,-2.52c0.207,-0.363 0.457,-0.567 0.674,-0.679c0.899,-0.461 3.279,-0.797 6.375,-0.971c6.647,-0.374 16.843,-0.272 21.338,-0.883c0.157,-0.021 0.316,-0.048 0.47,-0.079Zm-32.617,25.315c-0.05,0.022 -0.153,0.05 -0.112,0.086c0.045,0.038 0.081,-0.008 0.112,-0.086Z" style="fill:#b9c4f7;"/><path d="M147.528,35.227c0.013,0.19 -0.052,0.383 -0.194,0.53c-0.269,0.279 -0.714,0.286 -0.992,0.016c-0.319,-0.276 -0.36,-0.619 -0.257,-0.991c0.086,-0.316 0.49,-0.753 1.141,-1.177c1.691,-1.102 5.287,-2.452 5.454,-2.495c1.234,-0.315 2.496,-0.518 3.77,-0.629c1.266,-0.112 2.537,-0.117 3.799,-0.068c1.359,0.069 3.224,0.526 5.316,1.355c1.483,0.587 3.093,1.35 4.707,2.283c2.917,1.685 5.876,3.867 8.321,6.227c4.258,4.108 6.901,8.789 5.422,12.585c-0.111,0.329 -0.468,0.505 -0.797,0.394c-0.329,-0.111 -0.506,-0.468 -0.395,-0.797c0.427,-1.501 0.053,-3.062 -0.796,-4.63c-1.061,-1.964 -2.914,-3.882 -5.095,-5.697c-2.46,-2.049 -5.376,-3.888 -8.161,-5.407c-1.523,-0.83 -2.999,-1.575 -4.362,-2.162c-1.728,-0.745 -3.239,-1.277 -4.371,-1.393c-1.149,-0.132 -2.311,-0.203 -3.475,-0.199c-1.158,0.003 -2.311,0.066 -3.45,0.245c-0.171,0.026 -4.409,1.131 -5.585,2.01Z" style="fill:#b9c4f7;"/><path d="M86.715,2.807c0.294,-0.197 0.696,-0.144 0.928,0.134c0.247,0.297 0.207,0.739 -0.09,0.987c-0.22,0.188 -1.895,0.717 -4.25,1.314c-5.316,1.349 -14.276,3.37 -16.068,3.875c-10.459,2.918 -28.281,6.742 -42.747,11.375c-6.882,2.204 -12.999,4.571 -17.128,7.17c-3.528,2.203 -4.648,7.172 -4.179,11.573c0.247,2.326 0.949,4.519 2.09,6.091c1.134,1.564 2.729,2.467 4.737,1.936c1.483,-0.389 1.614,-1.649 1.624,-3.121c0.019,-2.736 -0.585,-6.157 0.313,-9.084c0.653,-2.127 2.004,-4.041 4.761,-5.353c2.81,-1.334 5.772,-2.346 8.812,-3.173c6.852,-1.864 14.102,-2.795 20.832,-4.609c11.085,-2.967 21.912,-7.105 32.867,-10.45c2.769,-0.846 5.546,-1.64 8.338,-2.353c0.335,-0.09 0.68,0.109 0.77,0.445c0.09,0.335 -0.109,0.68 -0.444,0.77c-2.754,0.774 -5.491,1.629 -8.222,2.531c-10.904,3.6 -21.67,7.967 -32.716,11.181c-6.689,1.934 -13.911,3.002 -20.723,4.982c-2.872,0.835 -5.67,1.835 -8.317,3.145c-3.212,1.584 -3.637,4.306 -3.592,6.975c0.043,2.508 0.452,5.009 0.127,6.908c-0.34,1.998 -1.333,3.479 -3.649,4.114c-4.914,1.334 -8.604,-2.242 -10.083,-7.483c-0.994,-3.524 -0.969,-7.757 0.272,-11.303c0.922,-2.633 2.509,-4.887 4.785,-6.291c4.327,-2.655 10.697,-5.1 17.89,-7.28c14.577,-4.418 32.539,-7.84 43.083,-10.557c1.599,-0.408 8.831,-1.861 14.2,-3.033c2.4,-0.524 4.422,-0.989 5.38,-1.279c0.191,-0.058 0.437,-0.066 0.4,-0.137l-0.001,0c-0.021,0.013 -0.04,0.028 -0.06,0.044c0.015,-0.012 0.046,-0.069 0.06,-0.044Z" style="fill:#b9c4f7;"/><path d="M238.066,92.457c-0.466,0.133 -1.297,0.369 -1.347,0.385c-1.011,0.317 -2.004,0.667 -3.007,1.019c-1.498,0.526 -2.98,1.074 -4.448,1.668c-1.492,0.535 -2.956,1.157 -4.448,1.719c-1.127,0.423 -2.267,0.808 -3.409,1.198c-1.151,0.394 -2.302,0.77 -3.465,1.128c-2.613,0.803 -5.232,1.496 -7.904,2.009c-0.336,0.09 -0.681,-0.109 -0.771,-0.445c-0.09,-0.335 0.109,-0.68 0.445,-0.77c2.641,-0.917 5.173,-2.072 7.735,-3.23c1.712,-0.775 3.412,-1.569 5.142,-2.3c0.936,-0.395 1.882,-0.765 2.836,-1.107c0.964,-0.345 1.942,-0.641 2.919,-0.937c1.31,-0.359 2.623,-0.707 3.955,-0.993c1.335,-0.287 2.669,-0.517 4.015,-0.719c0.083,-0.011 1.446,-0.209 1.976,-0.194c0.302,0.009 0.508,0.069 0.592,0.128c0.292,0.205 0.423,0.443 0.367,0.727c-0.021,0.105 -0.071,0.475 -0.595,0.689c-0.19,0.098 -0.404,0.101 -0.588,0.025Zm-0.208,-1.162c0.045,-0.043 0.096,-0.079 0.154,-0.109c0.024,-0.014 0.061,-0.029 0.05,-0.043c-0.099,-0.122 -0.165,0.003 -0.204,0.152Z" style="fill:#b9c4f7;"/><path d="M196.923,105.803c-1.269,0.242 -2.524,0.588 -3.766,0.987c-2.221,0.714 -4.401,1.601 -6.548,2.398c-4.58,1.693 -9.167,3.158 -13.776,4.494c-6.921,2.005 -13.89,3.722 -20.948,5.542c-3.138,0.798 -6.774,1.487 -10.085,2.708c-2.095,0.773 -4.058,1.761 -5.635,3.179c-0.876,0.786 -1.366,2.001 -1.884,3.194c-0.691,1.594 -1.401,3.172 -2.481,4.247c-1.1,1.095 -2.546,1.763 -4.674,1.556c-1.345,-0.135 -2.871,-0.838 -4.3,-1.958c-1.63,-1.278 -3.152,-3.089 -4.133,-4.997c-1.42,-2.76 -1.659,-5.705 -0.097,-7.792c1.961,-2.607 4.27,-4.535 6.835,-6.006c3.74,-2.146 8.023,-3.319 12.517,-4.282c5.06,-1.073 10.158,-1.805 15.175,-2.965c2.11,-0.488 4.206,-1.051 6.278,-1.752c7.713,-2.602 17.169,-3.462 25.548,-5.461c3.749,-0.893 7.278,-2.013 10.322,-3.649c0.304,-0.169 0.687,-0.06 0.855,0.244c0.169,0.304 0.06,0.687 -0.244,0.855c-3.095,1.777 -6.704,3.044 -10.549,4.069c-8.255,2.2 -17.614,3.265 -25.195,6.036c-2.128,0.775 -4.283,1.408 -6.457,1.961c-5.003,1.27 -10.098,2.106 -15.148,3.286c-4.183,0.969 -8.175,2.106 -11.638,4.164c-2.211,1.313 -4.2,3.009 -5.874,5.299c-0.427,0.581 -0.522,1.294 -0.441,2.04c0.133,1.241 0.753,2.564 1.586,3.771c1.436,2.082 3.511,3.894 5.269,4.071c0.998,0.104 1.695,-0.155 2.216,-0.666c0.837,-0.819 1.324,-2.067 1.868,-3.287c0.712,-1.595 1.489,-3.156 2.676,-4.198c1.868,-1.636 4.164,-2.796 6.631,-3.664c3.425,-1.204 7.177,-1.85 10.419,-2.615c7.078,-1.645 14.062,-3.201 21.01,-5.022c4.599,-1.206 9.181,-2.523 13.762,-4.075c2.192,-0.739 4.42,-1.566 6.684,-2.219c1.542,-0.444 3.098,-0.809 4.671,-1.015c0.266,-0.034 0.479,0.043 0.645,0.212c0.096,0.098 0.197,0.248 0.231,0.458c0.01,0.058 -0.011,0.152 -0.028,0.242l0.011,0.022l0.007,0.019c0.066,0.091 0.122,0.193 0.046,0.208c0.011,0.146 -0.024,0.297 -0.11,0.429c-0.195,0.312 -0.446,0.329 -0.557,0.339c-0.25,0.022 -0.535,-0.053 -0.694,-0.407Zm0.01,-0.332c0.025,-0.148 0.031,-0.299 -0.081,-0.288c-0.229,0.023 -0.122,0.161 0.081,0.288Zm0.098,-0.409c-0.011,0.014 -0.022,0.03 -0.034,0.047l0.034,-0.047Zm0.03,-0.036l-0.008,0.009l0.022,-0.024l-0.014,0.015Zm0.073,-0.072c-0.015,0.012 -0.029,0.025 -0.044,0.04l0.044,-0.04Zm0.023,-0.019l-0.015,0.012l0.04,-0.03l-0.025,0.018Zm1.081,0.299l-0.008,-0.011l-0.013,-0.016c-0.023,0.122 -0.038,0.233 0.038,0.236l0.029,-0.001c-0.005,-0.072 -0.02,-0.142 -0.046,-0.208Z" style="fill:#b9c4f7;"/><path d="M144.782,30.759c0.019,0.158 -0.014,0.324 -0.107,0.468c-0.168,0.287 -0.411,0.31 -0.554,0.326c-0.185,0.019 -0.614,-0.052 -0.74,-0.587c-0.03,-0.13 -0.004,-0.541 0.013,-0.607c0.17,-0.676 0.885,-1.367 1.874,-1.965c1.588,-0.96 3.918,-1.74 4.751,-2.132c2.59,-1.201 5.032,-1.976 7.538,-2.312c2.529,-0.339 5.116,-0.207 7.967,0.355c2.882,0.618 5.438,1.5 7.663,2.688c3.853,2.058 6.769,4.907 8.944,8.274c3.391,5.247 4.952,11.803 5.556,18.871c0.042,0.345 -0.204,0.658 -0.549,0.7c-0.345,0.042 -0.658,-0.204 -0.7,-0.549c-1.041,-6.661 -2.967,-12.743 -6.459,-17.546c-2.093,-2.878 -4.782,-5.242 -8.225,-7.026c-2.019,-1.046 -4.283,-1.928 -6.873,-2.526c-2.507,-0.625 -4.796,-0.837 -7.059,-0.673c-2.302,0.168 -4.575,0.701 -7.012,1.625c-0.734,0.274 -2.597,0.743 -4.142,1.391c-0.531,0.223 -1.025,0.457 -1.4,0.726c-0.201,0.144 -0.381,0.272 -0.47,0.429l0,0.004c0.015,0.034 0.016,0.062 -0.016,0.066Zm-1.145,-0.45l-0.003,0.002l0.003,-0.002Zm0.451,-0.163c-0.131,-0.007 -0.293,0.022 -0.45,0.162c0.127,-0.106 0.287,-0.162 0.45,-0.162Zm0.69,0.593l-0.011,0.02l-0.001,-0.001l-0.003,0.009l0.004,-0.008l0.004,0.001l0.011,-0.001l-0.004,-0.02Zm0.02,-0.05c0.001,-0.007 -0.002,-0.013 -0.009,-0.015l-0.005,-0.012c-0.008,-0.013 -0.016,-0.026 -0.023,-0.038l-0.024,-0.035l0.017,0.045l0.013,0.049c-0.012,0.022 -0.017,0.068 -0.001,0.075l0.011,-0.027l-0.005,-0.031l-0.005,-0.017l0.007,-0.01c0.002,-0.001 0.006,-0.001 0.008,-0.003l0.007,0.004l0.008,0.017l0.001,-0.002Z" style="fill:#b9c4f7;"/></svg>