<?xml version="1.0" encoding="UTF-8" standalone="no"?><!DOCTYPE svg PUBLIC "-//W3C//DTD SVG 1.1//EN" "http://www.w3.org/Graphics/SVG/1.1/DTD/svg11.dtd"><svg width="100%" height="100%" viewBox="0 0 113 155" version="1.1" xmlns="http://www.w3.org/2000/svg" xmlns:xlink="http://www.w3.org/1999/xlink" xml:space="preserve" xmlns:serif="http://www.serif.com/" style="fill-rule:evenodd;clip-rule:evenodd;stroke-linejoin:round;stroke-miterlimit:2;"><path d="M33.864,117.83c-5.366,-8.142 -18.355,-6.286 -26.569,0.73c-7.357,6.283 -10.854,16.486 -2.231,26.961c5.458,6.553 15.111,9.822 23.966,8.963c9.196,-0.892 17.435,-6.161 19.537,-16.178c0.566,-2.802 0.421,-5.818 -0.138,-8.908c-1.133,-6.271 -3.984,-12.879 -4.876,-18.496c-2.001,-12.319 -2.445,-28.972 -4.292,-43.388c-0.884,-6.905 -2.093,-13.297 -3.915,-18.481c-0.146,-0.44 -0.622,-0.678 -1.061,-0.531c-0.44,0.146 -0.677,0.622 -0.531,1.061c1.619,5.13 2.577,11.425 3.24,18.207c1.418,14.516 1.432,31.231 3.094,43.646c0.778,5.648 3.481,12.334 4.502,18.64c0.418,2.582 0.545,5.094 0.035,7.42c-1.717,8.132 -8.541,12.187 -16.003,12.971c-7.615,0.799 -15.992,-1.718 -20.784,-7.276c-7.425,-8.512 -4.622,-17.06 1.334,-22.482c6.979,-6.352 18.217,-8.749 23.149,-1.803c0.291,0.426 0.874,0.535 1.3,0.244c0.425,-0.292 0.534,-0.874 0.243,-1.3Z" style="fill:#b9c4f7;"/><path d="M84.639,21.878c0.061,-0.082 0.442,-0.599 0.659,-0.851c0.17,-0.197 0.353,-0.378 0.554,-0.54c0.437,-0.352 1.332,-0.877 1.839,-0.939c0.535,-0.066 0.998,0.049 1.383,0.268c0.421,0.239 0.8,0.606 1.008,1.221c0.232,0.689 0.28,1.632 0.137,2.664c-0.19,1.379 -0.737,3.004 -0.809,3.867c-0.432,4.716 0.216,13.943 1.117,23.746c1.523,16.568 3.858,34.746 4.143,35.831c0.128,0.445 -0.13,0.91 -0.575,1.038c-0.445,0.128 -0.91,-0.129 -1.038,-0.575c-0.338,-1.08 -3.679,-19.276 -5.846,-35.926c-1.309,-10.057 -2.143,-19.553 -1.843,-24.424c0.02,-0.289 0.085,-0.658 0.173,-1.075c-0.955,0.604 -1.916,1.197 -2.885,1.778c-3.316,1.991 -6.695,3.879 -10.01,5.87c-6.802,4.001 -14.113,9.218 -21.947,12.655c-5.356,2.35 -10.943,3.877 -16.742,3.723c-0.516,0 -0.935,-0.419 -0.935,-0.936c0,-0.515 0.419,-0.934 0.935,-0.934c5.467,-0.146 10.632,-1.906 15.572,-4.358c7.564,-3.755 14.576,-9.165 21.121,-13.387l13.989,-8.716Zm3.697,1.906c0.329,0.034 0.544,-0.029 0.38,-0.304c-0.063,-0.105 -0.212,0.159 -0.284,0.217c-0.033,0.027 -0.065,0.056 -0.096,0.087Z" style="fill:#b9c4f7;"/><path d="M31.814,118.879c-0.079,-0.185 -0.151,-0.392 -0.14,-0.504c0.322,-3.181 0.093,-6.635 -0.395,-10.128c-0.734,-5.243 -2.057,-10.568 -3.057,-15.205c-2.09,-9.728 -4.119,-19.914 -5.203,-30.112c-0.731,-6.875 -1.028,-13.757 -0.636,-20.508c0.018,-0.32 0.131,-0.715 0.466,-1.116c0.267,-0.32 0.943,-0.812 1.967,-1.334c3.497,-1.785 12.089,-4.956 15.552,-7.11c4.045,-2.505 27.917,-18.389 42.539,-27.019c4.636,-2.735 8.381,-4.743 10.338,-5.458c1.044,-0.381 1.825,-0.428 2.256,-0.358c0.567,0.094 1.37,0.473 1.961,1.558c0.595,1.088 1.278,3.648 1.893,7c1.694,9.227 3.292,24.891 3.85,29.299c1.703,13.869 9.072,33.96 9.126,51.587c0.04,12.644 -3.594,24.044 -15.167,31.295c-7.001,4.377 -15.7,1.795 -22.004,-3.746c-6.435,-5.656 -10.244,-14.275 -7.31,-20.968c1.382,-3.151 4.332,-5.672 7.914,-7.444c4.969,-2.459 11.122,-3.506 15.55,-3.043c0.151,0.015 0.83,0.168 1.572,0.378c-0.142,-0.474 -0.264,-0.916 -0.335,-1.216c-0.113,-0.449 0.161,-0.905 0.61,-1.017c0.449,-0.113 0.905,0.161 1.017,0.61c0.118,0.453 0.314,1.537 0.54,2.282c0.034,0.017 0.066,0.035 0.095,0.053c0.522,0.313 0.676,0.739 0.674,1.012c-0.005,0.459 -0.161,0.693 -0.243,0.789c-0.293,0.341 -0.976,0.689 -1.513,-0.166c-0.032,-0.053 -0.069,-0.125 -0.109,-0.213c-0.682,-0.206 -2.294,-0.69 -2.479,-0.706c-3.478,-0.3 -8.073,0.427 -12.179,2.072c-4.032,1.616 -7.617,4.109 -9.037,7.5c-2.463,5.883 1.255,13.246 6.951,18.091c5.43,4.62 12.799,7.033 18.686,3.22c10.449,-6.752 13.479,-17.235 13.301,-28.75c-0.269,-17.499 -7.811,-37.359 -9.648,-51.108c-0.648,-5.004 -2.707,-24.677 -4.634,-32.553c-0.112,-0.458 -0.179,-1.005 -0.256,-1.454c-0.503,0.197 -1.169,0.472 -1.781,0.772c-3.044,1.493 -7.701,4.182 -12.986,7.359c-14.538,8.74 -33.746,21.186 -37.341,23.363c-3.556,2.144 -12.338,5.272 -15.924,7.039c-0.212,0.106 -0.479,0.193 -0.686,0.277c-0.444,6.397 -0.256,12.921 0.322,19.448c0.899,10.119 2.731,20.242 4.629,29.915c0.919,4.702 2.146,10.107 2.782,15.417c0.439,3.664 0.599,7.283 0.197,10.603c0.018,-0.146 -0.127,-0.542 -0.127,-0.542c0,0 0.022,1.667 -0.672,1.661c-0.476,0 -0.871,-0.359 -0.926,-0.822Zm0.079,-0.505c0.148,-0.32 0.472,-0.543 0.847,-0.543c-0.539,0.006 -0.757,0.264 -0.847,0.543Zm63.007,-31.271c0.097,0.207 0.198,0.312 0.297,0.247c0.154,-0.101 -0.15,-0.201 -0.297,-0.247Zm-69.316,-43.894c-0.224,0.091 -0.372,0.177 -0.291,0.275c0.154,0.186 0.242,-0.018 0.291,-0.275Zm68.618,-39.372c-0.08,-0.249 -0.185,-0.378 -0.344,-0.292c-0.157,0.085 0.223,0.214 0.306,0.269l0.038,0.023Z" style="fill:#b9c4f7;"/><path d="M37.589,66.713c0.775,-0.474 2.315,-1.749 2.506,-1.872l9.511,-6.141c2.641,-1.596 5.261,-3.223 7.945,-4.752c1.788,-1.018 3.595,-2.003 5.424,-2.946c4.581,-2.362 9.257,-4.511 13.929,-6.674c0.285,-0.127 4.078,-2.088 6.89,-3.491c1.692,-0.844 3.052,-1.482 3.234,-1.516c0.448,-0.112 0.904,0.161 1.017,0.61c0.112,0.45 -0.161,0.906 -0.611,1.019l-9.224,5.938c-2.676,1.514 -5.316,3.075 -7.985,4.607c-2.663,1.529 -5.314,3.079 -8.003,4.564c-2.152,1.188 -4.331,2.322 -6.508,3.462c-1.454,0.762 -2.919,1.494 -4.377,2.247l-10.103,5.096c-0.217,0.104 -2.077,1.28 -2.883,1.618c-0.613,0.255 -1.073,0.154 -1.226,0.054c-0.448,-0.255 -0.607,-0.825 -0.353,-1.274c0.143,-0.252 0.387,-0.412 0.652,-0.459c-0.051,-0.121 0.038,-0.126 0.165,-0.09l-0.087,0.052c-0.013,0.007 -0.026,0.021 -0.039,0.032l-0.039,0.006l0.002,0.009c0.007,0.012 0.02,0.001 0.037,-0.015c0.162,-0.022 0.33,-0.002 0.488,0.066c-0.099,-0.049 -0.246,-0.118 -0.362,-0.15Z" style="fill:#b9c4f7;"/><path d="M39.275,73.598c0.019,-0.029 0.041,-0.057 0.065,-0.082c0.426,-0.453 1.395,-1.385 3.814,-3.101c1.904,-1.323 3.789,-2.656 5.708,-3.958c1.283,-0.87 2.578,-1.714 3.877,-2.56c2.533,-1.563 5.117,-3.222 7.838,-4.732c2.656,-1.476 5.419,-2.836 8.215,-4.121c5.691,-2.616 11.542,-4.801 17.278,-6.382c0.438,-0.146 0.914,0.092 1.061,0.53c0.146,0.44 -0.092,0.916 -0.531,1.062c-3.281,1.307 -6.546,2.876 -9.821,4.565c-2.682,1.383 -5.34,2.86 -7.984,4.365c-1.767,1.006 -3.515,2.032 -5.263,3.031c-1.48,0.845 -2.959,1.67 -4.422,2.481c-1.503,0.833 -3.003,1.626 -4.464,2.432l-10.152,5.469c-2.396,1.263 -3.391,1.979 -3.832,2.338c-1.139,0.929 -1.537,0.463 -1.742,0.21c-0.351,-0.378 -0.329,-0.97 0.049,-1.321c0.035,-0.032 0.071,-0.062 0.11,-0.087c-0.065,-0.091 0.048,-0.127 0.196,-0.139Zm0.11,-0.006l-0.11,0.006l-0.013,0.016l-0.024,0.037c-0.055,0.022 -0.108,0.051 -0.159,0.086l0.029,0.034c0.032,0.032 0.073,-0.036 0.13,-0.12l0.047,-0.02c0.029,-0.009 0.058,-0.018 0.087,-0.027l0.059,-0.012l-0.046,0Z" style="fill:#b9c4f7;"/></svg>