<?xml version="1.0" encoding="UTF-8" standalone="no"?><!DOCTYPE svg PUBLIC "-//W3C//DTD SVG 1.1//EN" "http://www.w3.org/Graphics/SVG/1.1/DTD/svg11.dtd"><svg width="100%" height="100%" viewBox="0 0 140 141" version="1.1" xmlns="http://www.w3.org/2000/svg" xmlns:xlink="http://www.w3.org/1999/xlink" xml:space="preserve" xmlns:serif="http://www.serif.com/" style="fill-rule:evenodd;clip-rule:evenodd;stroke-linejoin:round;stroke-miterlimit:2;"><g><path d="M31.212,1.218c0.784,0.262 2.119,1.06 3.861,2.303c3.448,2.461 8.607,6.669 14.411,11.603c15.916,13.531 36.696,32.52 40.309,35.721c5.23,4.634 10.428,9.299 15.6,13.992c5.173,4.693 10.32,9.413 15.454,14.151c6.734,6.216 11.593,10.796 14.561,14.666c2.387,3.112 3.577,5.81 3.642,8.49c0.066,2.721 -1.025,5.458 -3.364,8.627c-2.875,3.896 -7.687,8.516 -14.468,14.79c-3.258,3.014 -6.496,7.458 -10.05,10.958c-1.666,1.641 -3.402,3.079 -5.23,4.101c-0.872,0.486 -1.52,0.401 -2.079,0.11c-0.5,-0.26 -0.926,-0.839 -1.48,-1.396c-3.218,-3.24 -4.429,-5.286 -4.254,-7.385c0.16,-1.917 1.565,-3.998 4.099,-7.314c2.373,-3.1 4.806,-6.261 7.289,-9.361c1.664,-2.075 3.35,-4.124 5.053,-6.109c0.957,-1.115 1.907,-2.229 2.943,-3.258c0.713,-0.708 1.465,-1.376 2.284,-1.98c0.085,-0.062 0.554,-0.312 1.02,-0.594c-1.276,-1.349 -2.636,-2.647 -4.039,-3.915c-3.875,-3.501 -8.075,-6.786 -11.783,-10.309c-2.923,-2.781 -5.668,-5.345 -8.299,-7.774c-11.485,-10.604 -20.829,-18.64 -33.619,-30.741c-3.352,-3.173 -6.761,-6.256 -10.204,-9.287c-5.189,-4.57 -10.456,-9.024 -15.734,-13.493c-1.277,-1.082 -3.456,-3.71 -5.435,-5.599c-0.747,-0.712 -1.452,-1.321 -2.062,-1.654c-0.604,0.627 -1.59,2.014 -1.703,2.158c-3.365,4.239 -6.9,8.823 -10.227,13.468c-2.23,3.112 -4.366,6.251 -6.295,9.331c-0.206,0.33 -1.272,2.934 -1.978,3.663c-0.423,0.437 -0.861,0.446 -1.162,0.276c-0.389,-0.219 -0.759,-0.516 -1.112,-0.864c-1.115,-1.101 -2.065,-2.769 -3.232,-3.669c-2.443,-1.884 -3.564,-3.285 -3.85,-4.661c-0.187,-0.905 -0.036,-1.816 0.391,-2.865c0.563,-1.382 1.625,-3.037 2.898,-5.353c1.461,-2.659 3.006,-5.223 4.615,-7.735c2.416,-3.771 4.977,-7.427 7.622,-11.122c1.046,-1.461 5.249,-7.997 9.445,-11.257c2.194,-1.705 4.407,-2.495 6.207,-1.482c0.206,0.115 0.28,0.376 0.165,0.583c-0.049,0.087 -0.124,0.15 -0.21,0.186Zm73.578,137.648c0.036,-0.013 0.095,-0.036 0.137,-0.06c1.678,-0.933 3.265,-2.257 4.796,-3.757c3.578,-3.506 6.846,-7.955 10.127,-10.972c6.68,-6.14 11.431,-10.651 14.27,-14.467c2.036,-2.735 3.067,-5.068 3.02,-7.424c-0.046,-2.341 -1.149,-4.669 -3.22,-7.395c-2.905,-3.826 -7.675,-8.352 -14.275,-14.508c-5.105,-4.762 -10.224,-9.506 -15.364,-14.228c-5.139,-4.72 -10.299,-9.419 -15.493,-14.083c-3.589,-3.225 -24.23,-22.348 -40.039,-35.989c-5.74,-4.953 -10.841,-9.184 -14.254,-11.659c-1.814,-1.316 -3.113,-2.139 -3.755,-2.249c-0.26,-0.043 -0.435,-0.289 -0.392,-0.548c0.034,-0.202 0.19,-0.353 0.379,-0.389c-1.514,-0.753 -3.31,0.073 -5.123,1.502c-4.096,3.23 -8.165,9.687 -9.182,11.129c-2.609,3.698 -5.135,7.356 -7.517,11.127c-1.579,2.502 -3.095,5.053 -4.527,7.7c-1.01,1.866 -1.887,3.297 -2.472,4.501c-0.547,1.127 -0.838,2.023 -0.647,2.917c0.254,1.184 1.31,2.314 3.426,3.923c1.208,0.919 2.213,2.619 3.368,3.745c0.184,0.179 0.371,0.342 0.566,0.479c0.648,-0.823 1.5,-3.043 1.68,-3.336c1.924,-3.115 4.055,-6.291 6.281,-9.441c3.311,-4.684 6.832,-9.31 10.184,-13.588c0.133,-0.17 1.387,-1.926 2.006,-2.495c0.442,-0.406 0.887,-0.381 1.068,-0.312c0.815,0.311 1.844,1.106 2.914,2.117c1.966,1.855 4.129,4.443 5.397,5.504c5.311,4.446 10.613,8.875 15.835,13.424c3.474,3.027 6.912,6.108 10.296,9.279c12.838,12.039 22.218,20.024 33.741,30.576c2.648,2.426 5.408,4.987 8.35,7.763c3.708,3.501 7.908,6.759 11.779,10.238c1.704,1.531 3.344,3.105 4.856,4.758c0.355,0.388 0.482,0.924 0.044,1.527c-0.139,0.193 -0.411,0.439 -0.749,0.669c-0.497,0.339 -1.174,0.681 -1.273,0.755c-0.735,0.544 -1.409,1.148 -2.049,1.785c-0.995,0.993 -1.907,2.066 -2.826,3.14c-1.686,1.97 -3.355,4.003 -5.002,6.061c-2.473,3.089 -4.898,6.236 -7.261,9.325c-1.145,1.495 -2.055,2.703 -2.698,3.755c-0.565,0.924 -0.918,1.699 -0.982,2.459c-0.064,0.758 0.184,1.483 0.717,2.325c0.617,0.974 1.587,2.063 2.93,3.419c0.241,0.244 0.449,0.499 0.65,0.723c0.071,0.079 0.14,0.154 0.211,0.218c0.019,0.018 0.049,0.041 0.072,0.057Z" style="fill:#b9c4f7;"/><path d="M35.975,39.771c-0.66,-0.283 -1.218,-0.076 -1.773,0.374c-0.643,0.522 -1.258,1.525 -2.131,2.339c-0.887,0.856 -1.712,1.624 -2.468,2.368c-0.571,0.559 -1.104,1.098 -1.608,1.631c-0.452,0.478 -0.879,0.95 -1.286,1.427c-0.424,0.495 -0.823,0.996 -1.211,1.505c-0.945,1.242 -1.823,2.529 -2.697,4.019c-0.734,1.252 -1.451,2.64 -2.22,4.261c-0.116,0.206 -0.042,0.467 0.164,0.582c0.207,0.115 0.467,0.041 0.583,-0.165c1.606,-2.501 3.031,-4.353 4.458,-6.041c0.732,-0.866 1.47,-1.676 2.23,-2.508c0.494,-0.542 0.996,-1.092 1.514,-1.668c0.485,-0.541 0.981,-1.106 1.499,-1.704c0.695,-0.803 1.416,-1.671 2.211,-2.617c0.742,-0.916 1.204,-1.981 1.757,-2.583c0.198,-0.217 0.387,-0.391 0.672,-0.318c0.249,0.085 0.52,-0.049 0.604,-0.298c0.085,-0.249 -0.049,-0.52 -0.298,-0.604Z" style="fill:#b9c4f7;"/><path d="M46.705,52.362c-1.452,1.235 -2.618,2.288 -3.588,3.251c-0.538,0.534 -1.01,1.037 -1.437,1.518c-0.81,0.909 -1.467,1.721 -2.053,2.518c-0.636,0.865 -1.192,1.702 -1.82,2.594c-0.769,1.092 -1.626,2.273 -2.851,3.722c-0.865,1.022 -1.881,2.183 -3.176,3.536c-0.174,0.159 -0.187,0.43 -0.028,0.604c0.16,0.175 0.431,0.187 0.605,0.028c1.409,-1.12 2.556,-2.085 3.518,-2.972c1.376,-1.268 2.373,-2.344 3.223,-3.36c0.622,-0.744 1.166,-1.451 1.699,-2.189c0.5,-0.694 0.989,-1.415 1.555,-2.207c0.553,-0.773 1.169,-1.616 1.923,-2.586c0.843,-1.083 1.825,-2.323 3.1,-3.779c0.186,-0.184 0.189,-0.486 0.004,-0.673c-0.184,-0.187 -0.486,-0.19 -0.674,-0.005Z" style="fill:#b9c4f7;"/><path d="M66.866,54.801c-0.004,-0.207 0.128,-0.4 0.336,-0.465c0.456,-0.166 0.638,0.14 0.705,0.305c0.039,0.098 0.039,0.376 -0.197,0.704c-0.471,0.656 -2.157,2.313 -2.452,2.637l-5.452,5.785c-1.349,1.416 -2.649,2.879 -3.987,4.31c-1.006,1.076 -2.034,2.132 -3.061,3.188c-1.032,1.061 -2.071,2.11 -3.125,3.147c-2.353,2.315 -4.764,4.552 -7.286,6.67c-0.174,0.159 -0.445,0.146 -0.604,-0.028c-0.159,-0.175 -0.147,-0.445 0.028,-0.604c2.785,-2.753 5.364,-5.697 7.948,-8.655c1.033,-1.184 2.064,-2.369 3.111,-3.542c0.7,-0.783 1.405,-1.562 2.126,-2.325c1.131,-1.198 2.298,-2.359 3.468,-3.515c0.578,-0.556 1.16,-1.107 1.752,-1.649c1.371,-1.254 2.77,-2.47 4.138,-3.728c0.303,-0.274 1.963,-1.609 2.552,-2.235Z" style="fill:#b9c4f7;"/><path d="M67.871,75.502c-0.231,0.437 -0.482,0.859 -0.75,1.275c-0.351,0.544 -0.732,1.061 -1.123,1.578c-0.856,1.085 -1.729,2.152 -2.648,3.186c-0.456,0.512 -0.92,1.016 -1.396,1.509c-0.473,0.491 -0.964,0.963 -1.443,1.447c-1.518,1.436 -2.495,2.513 -3.248,3.417c-1.207,1.449 -1.818,2.456 -2.961,3.802c-0.14,0.191 -0.408,0.232 -0.599,0.092c-0.19,-0.14 -0.231,-0.408 -0.091,-0.598c0.949,-1.502 1.388,-2.61 2.416,-4.203c0.669,-1.035 1.591,-2.249 3.018,-3.907c0.559,-0.603 1.11,-1.214 1.685,-1.802c0.534,-0.545 1.082,-1.075 1.629,-1.606c0.82,-0.794 1.651,-1.568 2.449,-2.38c0.438,-0.432 0.861,-0.87 1.268,-1.327c0.404,-0.456 0.792,-0.918 1.145,-1.417c0.132,-0.185 0.29,-0.289 0.5,-0.253c0.081,0.014 0.195,0.034 0.295,0.121c0.112,0.099 0.249,0.284 0.275,0.365c0.084,0.261 -0.003,0.436 -0.076,0.509c-0.06,0.06 -0.176,0.187 -0.345,0.192Zm-0.456,-0.284c-0.026,-0.051 -0.044,-0.106 -0.05,-0.164c-0.004,0.056 0.001,0.124 0.048,0.162l0.002,0.002Zm0.365,-0.693c-0.041,0.005 -0.076,0.014 -0.108,0.027l0.034,-0.012c0.015,-0.003 0.03,-0.007 0.045,-0.01l0.029,-0.005Z" style="fill:#b9c4f7;"/><path d="M67.048,101.62c-0.021,0.07 -0.061,0.136 -0.119,0.189c-0.175,0.159 -0.446,0.147 -0.605,-0.028c-0.064,-0.059 -0.156,-0.216 -0.082,-0.476c0.019,-0.067 0.086,-0.198 0.185,-0.377c0.423,-0.763 1.61,-2.552 1.818,-2.804c1.072,-1.249 2.058,-2.73 3.162,-4.27c0.344,-0.479 0.702,-0.959 1.077,-1.439c0.366,-0.47 0.749,-0.936 1.146,-1.4c0.647,-0.757 1.323,-1.509 2.043,-2.247c0.703,-0.721 1.442,-1.411 2.217,-2.095c0.217,-0.188 0.461,-0.657 0.675,-0.796c0.305,-0.199 0.597,-0.255 0.864,0.056c0.188,0.184 0.192,0.486 0.008,0.674c-0.079,0.081 -0.18,0.128 -0.284,0.14c-0.081,0.168 -0.29,0.591 -0.412,0.743c-0.688,0.841 -1.314,1.698 -1.936,2.55c-0.426,0.583 -0.838,1.161 -1.251,1.731c-0.426,0.588 -0.843,1.169 -1.265,1.733c-0.291,0.388 -0.585,0.767 -0.882,1.135c-0.519,0.644 -1.042,1.257 -1.564,1.844c-0.858,0.965 -1.714,1.841 -2.576,2.627c-0.228,0.202 -1.573,1.685 -2.077,2.325c-0.032,0.04 -0.078,0.08 -0.11,0.113c-0.004,-0.026 -0.009,-0.053 -0.012,-0.07l0,0.035c-0.002,0.013 -0.003,0.027 -0.004,0.04l-0.003,0.014c-0.021,0.024 -0.03,0.042 -0.013,0.052l0,0.001l0.008,-0.026l0.005,-0.027l0.018,-0.019l0.001,0c0.007,0.048 0.007,0.095 -0.032,0.072Zm0.017,-0.172c-0.001,-0.068 -0.024,-0.122 -0.054,-0.168c0.03,0.052 0.048,0.109 0.054,0.168Z" style="fill:#b9c4f7;"/><path d="M92.008,97.847c0.056,-0.067 0.132,-0.12 0.222,-0.149c0.196,-0.078 0.329,0.016 0.404,0.055c0.15,0.081 0.261,0.247 0.197,0.541c-0.006,0.026 -0.04,0.107 -0.132,0.219c-0.038,0.046 -0.124,0.139 -0.244,0.27c-0.471,0.512 -1.52,1.642 -2.074,2.499c-0.748,1.111 -1.492,2.219 -2.278,3.306c-0.469,0.648 -0.95,1.287 -1.441,1.918c-0.328,0.42 -0.668,0.829 -1.001,1.244c-0.19,0.222 -0.365,0.417 -0.519,0.585c0.022,0.133 -0.029,0.284 -0.189,0.455l0,0.002c-0.004,0.004 -0.167,0.197 -0.335,0.382c-0.169,0.187 -0.357,0.352 -0.446,0.415c-0.03,0.021 -0.061,0.041 -0.091,0.058c-0.175,0.172 -0.381,0.376 -0.623,0.616c-1.245,1.206 -2.153,1.646 -3.02,2.529c-0.322,0.329 -0.642,0.713 -0.967,1.241c-0.108,0.21 -0.367,0.292 -0.576,0.184c-0.21,-0.109 -0.292,-0.368 -0.183,-0.577c0.28,-0.652 0.577,-1.141 0.89,-1.562c0.736,-0.993 1.584,-1.542 2.66,-2.897l0.384,-0.473c0.014,-0.123 0.052,-0.259 0.122,-0.41c0.032,-0.069 0.11,-0.199 0.252,-0.411c0.012,0.033 0.034,0.072 0.068,0.118c0.033,0.046 0.12,-0.097 0.193,-0.163l0.082,-0.076c-0.097,-0.021 -0.181,-0.032 -0.244,-0.026l-0.009,0.013l-0.09,0.134c-0.037,-0.095 0.007,-0.139 0.099,-0.147c0.2,-0.293 0.495,-0.706 0.917,-1.278c0.496,-0.626 0.982,-1.26 1.49,-1.876c0.592,-0.719 1.2,-1.421 1.809,-2.125c0.609,-0.704 1.228,-1.393 1.836,-2.099c0.724,-0.818 2.01,-1.857 2.593,-2.321c0.055,-0.044 0.119,-0.081 0.168,-0.111c0.011,-0.064 0.032,-0.132 0.076,-0.083Zm-0.105,0.385c-0.011,-0.066 -0.008,-0.132 0.007,-0.194c-0.023,0.073 -0.02,0.138 -0.007,0.194Zm0.061,-0.323c0.038,-0.025 0.058,-0.045 0.044,-0.062c-0.017,0.02 -0.031,0.04 -0.044,0.062l-0.021,0.014l-0.011,0.007c-0.005,0.028 -0.008,0.055 -0.011,0.072l0.01,-0.028c0.006,-0.014 0.013,-0.028 0.02,-0.042l0.013,-0.023Zm0.344,0.717c-0.15,-0.021 -0.285,-0.112 -0.357,-0.25c0.045,0.106 0.151,0.234 0.357,0.25Z" style="fill:#b9c4f7;"/><path d="M102.541,108.365c-0.065,0.074 -0.167,0.192 -0.262,0.307c-0.461,0.56 -1.17,1.561 -2.065,2.774c-0.629,0.853 -1.331,1.81 -2.092,2.787c-0.47,0.602 -0.962,1.209 -1.467,1.802c-0.509,0.598 -1.034,1.177 -1.548,1.738c-2.311,2.526 -4.356,4.642 -4.809,5.102c-0.153,0.18 -0.423,0.202 -0.603,0.049c-0.18,-0.153 -0.202,-0.423 -0.049,-0.603c0.262,-0.364 1.125,-1.663 2.314,-3.356c0.707,-1.009 1.511,-2.157 2.385,-3.316c0.542,-0.719 1.105,-1.445 1.686,-2.135c0.603,-0.718 1.223,-1.397 1.819,-2.03c1.649,-1.754 3.102,-3.138 3.804,-3.714c0.253,-0.207 0.435,-0.33 0.534,-0.364c0.232,-0.079 0.396,-0.047 0.493,0.023c0.122,0.088 0.318,0.236 0.237,0.546c-0.033,0.201 -0.188,0.353 -0.377,0.39Z" style="fill:#b9c4f7;"/><path d="M36.542,40.964c0.043,-0.073 0.072,-0.123 0.079,-0.131c0.196,-0.272 0.41,-0.531 0.643,-0.775c0.223,-0.234 0.457,-0.458 0.699,-0.668c1.428,-1.214 2.942,-2.309 4.284,-3.524c0.58,-0.524 1.128,-1.062 1.615,-1.651c0.14,-0.191 0.408,-0.231 0.598,-0.092c0.191,0.14 0.231,0.408 0.092,0.598c-0.443,0.682 -0.952,1.32 -1.503,1.94c-1.209,1.36 -2.617,2.605 -3.921,3.966c-0.185,0.19 -0.364,0.392 -0.533,0.601c-0.16,0.199 -0.306,0.408 -0.437,0.625c-0.017,0.027 -0.253,0.539 -0.358,0.737c-0.338,0.64 -1.017,0.556 -1.061,0.548c-0.465,-0.073 -0.908,-0.281 -1.339,-0.566c-0.567,-0.373 -1.117,-0.91 -1.695,-1.376c-0.386,-0.31 -0.774,-0.612 -1.26,-0.635c-0.405,-0.024 -0.635,-0.192 -0.774,-0.338c-0.196,-0.208 -0.31,-0.456 -0.306,-0.757c0.002,-0.174 0.041,-0.426 0.227,-0.685c0.121,-0.169 0.82,-0.478 0.62,-0.647l-0.021,0.034c0.006,-0.01 0.008,-0.045 0.02,-0.035l0.001,0.001l1.199,-1.848c0.688,-1 1.335,-1.976 2.064,-2.905c0.494,-0.629 1.019,-1.235 1.608,-1.82c0.23,-0.227 0.464,-0.446 0.707,-0.658c0.241,-0.209 0.486,-0.413 0.74,-0.609c0.128,-0.1 0.497,-0.133 0.665,-0.214c-0.001,-0.198 0.123,-0.384 0.321,-0.453c0.249,-0.085 0.52,0.047 0.606,0.296c0.109,0.26 0.031,0.476 -0.121,0.675c-0.144,0.189 -0.56,0.323 -0.748,0.512l-1.185,1.336c-0.483,0.602 -0.899,1.221 -1.297,1.85c-0.613,0.972 -1.163,1.968 -1.741,2.998l-0.929,1.639c0.152,0.083 0.3,0.175 0.445,0.277c0.527,0.369 1.006,0.853 1.48,1.291c0.176,0.163 0.343,0.328 0.516,0.463Zm-3.939,-2.481c-0.021,-0.001 -0.041,-0.003 -0.063,-0.003l0.063,0.003Zm0.895,1.135c-0.173,0.146 -0.305,0.284 -0.203,0.354c0.214,0.15 0.242,-0.078 0.203,-0.354Zm5.706,-9.542c0.066,-0.034 0.097,-0.077 0.061,-0.136c-0.043,-0.071 -0.062,0.027 -0.061,0.136Z" style="fill:#b9c4f7;"/><path d="M49.921,53.504c0.061,-0.065 0.124,-0.136 0.187,-0.211c0.592,-0.699 1.204,-1.636 1.616,-2.097c0.866,-0.956 1.768,-1.873 2.71,-2.754c0.937,-0.876 1.904,-1.712 2.893,-2.525c0.174,-0.158 0.445,-0.146 0.604,0.028c0.159,0.174 0.147,0.445 -0.028,0.605c-0.885,0.895 -1.741,1.813 -2.573,2.761c-0.825,0.94 -1.617,1.904 -2.367,2.906c-0.369,0.487 -0.894,1.463 -1.425,2.197c-0.339,0.47 -0.703,0.84 -1.019,1.046c-0.218,0.141 -0.533,0.207 -0.92,0.093c-0.274,-0.08 -0.981,-0.579 -1.149,-0.699c-0.462,-0.169 -0.934,-0.422 -1.399,-0.715c-0.612,-0.386 -1.21,-0.849 -1.767,-1.23c-0.24,-0.169 -0.571,-0.34 -0.842,-0.539c-0.194,-0.144 -0.367,-0.299 -0.501,-0.464c-0.168,-0.208 -0.399,-0.597 -0.138,-1.146c0.056,-0.116 0.209,-0.352 0.477,-0.632c0.805,-0.841 2.951,-2.68 3.402,-3.22l0.936,-1.072c0.643,-0.713 1.556,-2.198 2.508,-3.247c0.529,-0.584 1.067,-1.044 1.577,-1.236c0.326,-0.123 0.502,0.023 0.555,0.075c0.114,0.112 0.262,0.291 0.139,0.562c-0.008,0.018 -0.106,0.078 -0.175,0.141l-0.006,-0.026l-0.013,-0.049c0.006,0.028 0.009,0.056 0.009,0.084l0.002,-0.003l0.008,-0.006c0.021,0.095 0.025,0.18 -0.03,0.152c-0.037,0.124 -0.123,0.231 -0.248,0.292c-0.09,0.044 -0.188,0.057 -0.28,0.042c-0.2,0.202 -0.397,0.458 -0.596,0.735c-0.836,1.158 -1.604,2.737 -2.173,3.519l-0.823,1.129c-0.362,0.491 -1.895,2.025 -2.831,3.031l0.245,0.158c0.534,0.381 1.111,0.835 1.692,1.232c0.348,0.237 0.691,0.46 1.037,0.603c0.094,0.04 0.247,0.119 0.415,0.251l0.291,0.229Zm-4.136,-1.971c-0.073,0.076 -0.191,0.148 -0.144,0.181c0.109,0.078 0.139,-0.042 0.144,-0.181Zm6.633,-9.788c0.081,-0.086 0.159,-0.168 0.101,-0.212c-0.106,-0.08 -0.113,0.077 -0.101,0.212Zm0.794,0.395c-0.053,0.05 -0.084,0.102 -0.034,0.136l0.014,0.007c0.014,-0.046 0.021,-0.094 0.02,-0.143Z" style="fill:#b9c4f7;"/><path d="M69.196,74.275c0.201,-0.25 0.439,-0.483 0.626,-0.713c0.625,-0.756 1.264,-1.506 1.948,-2.213c0.695,-0.718 1.429,-1.395 2.225,-2.002c1.236,-0.935 2.535,-1.71 3.78,-2.562c0.523,-0.358 1.035,-0.725 1.525,-1.132c0.174,-0.159 0.445,-0.146 0.604,0.028c0.159,0.175 0.147,0.446 -0.027,0.604c-0.47,0.472 -0.965,0.909 -1.475,1.332c-1.144,0.948 -2.358,1.815 -3.491,2.838c-0.55,0.493 -1.057,1.027 -1.542,1.583c-0.74,0.846 -1.418,1.747 -2.07,2.66c-0.163,0.226 -0.372,0.458 -0.551,0.701c-0.038,0.053 -0.074,0.106 -0.105,0.161l0.001,0.329c0.006,0.755 -0.703,0.985 -0.72,0.99c-0.149,0.047 -0.543,0.089 -0.987,-0.209c-0.317,-0.214 -1.01,-0.88 -1.094,-0.938c-0.476,-0.331 -0.956,-0.665 -1.422,-1.015c-0.319,-0.241 -0.631,-0.49 -0.934,-0.745c-0.207,-0.177 -0.85,-0.653 -1.041,-1.071c-0.179,-0.391 -0.185,-0.781 -0.003,-1.148c0.476,-0.934 1.138,-1.825 1.925,-2.655c1.631,-1.72 3.756,-3.209 5.29,-4.684c0.315,-0.298 1.185,-0.922 1.885,-1.552c0.201,-0.18 0.39,-0.356 0.538,-0.526l-0.005,-0.032c-0.02,-0.164 0.027,-0.304 0.141,-0.425l0.033,-0.028c0.004,0.007 0.01,0.015 0.02,0.023c0.046,0.041 0.1,-0.02 0.15,-0.102l-0.031,0.003c-0.051,0.018 -0.098,0.043 -0.139,0.076c-0.03,-0.047 0.047,-0.068 0.139,-0.076l0.029,-0.01l0.007,-0.002c0.057,-0.094 0.108,-0.212 0.137,-0.232c0.212,-0.153 0.404,-0.082 0.53,-0.019c0.102,0.051 0.258,0.174 0.26,0.479c0.002,0.357 -0.271,0.859 -0.7,1.377c-0.646,0.782 -1.656,1.647 -1.981,2.02c-1.396,1.569 -3.345,3.219 -4.851,5.008c-0.496,0.59 -0.944,1.193 -1.289,1.822c0.13,0.062 0.266,0.116 0.306,0.15l2.2,1.695c0.02,0.015 0.079,0.098 0.159,0.212Zm-2.771,-2.111c0.013,-0.176 -0.017,-0.304 -0.134,-0.214c-0.086,0.065 0.003,0.143 0.134,0.214Zm3.273,2.747c0.159,0.161 0.307,0.249 0.389,0.139c0.142,-0.19 -0.139,-0.179 -0.389,-0.139Zm5.27,-12.907c-0.047,-0.097 -0.111,-0.156 -0.182,-0.19c0.076,0.044 0.14,0.109 0.182,0.19Zm-0.034,0.44c0.126,-0.008 0.335,-0.038 0.236,-0.132c-0.065,-0.061 -0.153,0.025 -0.236,0.132Z" style="fill:#b9c4f7;"/><path d="M78.694,83.72c0.375,0.322 0.792,0.619 1.121,0.928c0.538,0.521 0.961,0.928 1.336,1.191c0.169,0.119 0.282,0.248 0.434,0.218c0.35,-0.07 0.684,-0.414 1.19,-0.977l1.469,-1.501c1.579,-1.458 3.049,-3.137 4.598,-4.682c0.686,-0.684 1.386,-1.34 2.115,-1.943c0.174,-0.159 0.445,-0.146 0.603,0.028c0.16,0.175 0.148,0.445 -0.027,0.604c-0.647,0.65 -1.256,1.351 -1.859,2.073c-1.417,1.698 -2.762,3.509 -4.225,5.116l-1.271,1.493c-1.252,1.569 -2.214,1.913 -3.144,1.713c-0.705,-0.152 -1.507,-0.769 -2.653,-1.807c-0.376,-0.354 -0.873,-0.688 -1.28,-1.069c-0.239,-0.225 -0.452,-0.464 -0.622,-0.719c-0.363,-0.547 0.97,-0.912 0.58,-1.697c-0.095,-0.191 -0.281,0.286 -0.338,0.434c0.15,-0.389 0.219,-0.735 0.377,-1.083c0.087,-0.192 0.192,-0.386 0.335,-0.583c0.591,-0.793 1.272,-1.543 2.005,-2.254c1.042,-1.009 2.174,-1.945 3.187,-2.909c0.499,-0.468 2.466,-2.38 3.356,-2.999c0.36,-0.25 0.655,-0.312 0.776,-0.283c0.189,0.045 0.334,0.139 0.395,0.329c0.095,0.246 -0.028,0.522 -0.273,0.617c-0.036,0.014 -0.073,0.023 -0.111,0.027c-0.009,0.005 -0.023,0.006 -0.04,0.004l-0.034,0.001c-0.029,0.031 -0.063,0.072 -0.096,0.1c-0.792,0.685 -2.489,2.717 -2.923,3.216c-1.073,1.21 -2.293,2.413 -3.375,3.686c-0.443,0.523 -0.863,1.055 -1.23,1.612c-0.074,0.11 -0.115,0.219 -0.151,0.326c-0.088,0.254 -0.138,0.511 -0.225,0.79Zm-0.4,0.404c-0.237,0.13 -0.481,0.259 -0.379,0.453c0.114,0.214 0.318,-0.303 0.371,-0.434l0.008,-0.019Zm8.474,-10.139c0.012,-0.005 0.016,-0.017 0.005,-0.037c-0.012,-0.025 -0.041,-0.001 -0.075,0.037l0.001,0l0.029,0.004l0.011,0l0.029,-0.004Z" style="fill:#b9c4f7;"/><path d="M94.637,98.656c0.096,-0.136 0.204,-0.266 0.32,-0.39c0.482,-0.515 1.12,-0.94 1.688,-1.352c1.642,-1.178 3.853,-2.949 5.645,-4.888c1.212,-1.311 2.241,-2.685 2.73,-4.019c0.073,-0.224 0.314,-0.348 0.539,-0.276c0.224,0.073 0.348,0.314 0.275,0.539c-0.412,1.481 -1.383,3.065 -2.586,4.578c-1.709,2.151 -3.89,4.141 -5.51,5.483c-0.455,0.373 -0.976,0.749 -1.358,1.2c-0.173,0.205 -0.307,0.429 -0.346,0.696c-0.02,0.131 -0.111,0.346 -0.231,0.493c-0.134,0.163 -0.311,0.258 -0.486,0.312c-0.17,0.052 -0.365,0.053 -0.573,0.004c-0.162,-0.039 -0.368,-0.164 -0.468,-0.224c-0.449,-0.268 -0.885,-0.562 -1.312,-0.875c-0.92,-0.673 -1.797,-1.423 -2.74,-2.047l-1.327,-0.844c-0.002,-0.001 -0.042,-0.033 -0.095,-0.071c-0.146,0.066 -0.271,0.09 -0.286,-0.006c-0.288,-0.04 -0.498,-0.202 -0.656,-0.398c-0.378,-0.467 -0.242,-0.863 -0.164,-1.066c0.107,-0.28 0.33,-0.535 0.752,-0.63c0.681,-0.603 1.916,-1.941 2.022,-2.041l6.716,-6.065c0.161,-0.148 1.081,-1.099 1.715,-1.514c0.304,-0.2 0.588,-0.278 0.796,-0.269c0.103,-0.021 0.274,-0.047 0.363,-0.029c0.241,0.049 0.427,0.174 0.467,0.454c0.048,0.259 -0.121,0.508 -0.38,0.557c-0.097,0.019 -0.193,0.006 -0.278,-0.031c-0.023,0.015 -0.044,0.029 -0.055,0.032c-0.053,0.012 -0.1,0.014 -0.142,0.011l-0.006,0.004c-0.521,0.291 -1.449,1.495 -1.601,1.661c-0.82,0.894 -1.648,1.777 -2.488,2.651c-1.255,1.306 -2.527,2.59 -3.78,3.897c-0.072,0.074 -0.662,0.764 -1.249,1.406c0.287,0.175 0.564,0.362 0.848,0.551c0.288,0.194 0.573,0.396 0.852,0.609c0.807,0.616 1.577,1.296 2.389,1.897Zm-5.843,-1.686l0.008,0.005l0.024,-0.01l-0.032,0.005c-0.104,-0.074 -0.253,-0.163 -0.272,-0.085c-0.009,0.035 -0.011,0.062 -0.006,0.084c0.085,0.012 0.177,0.013 0.278,0.001Zm11.107,-11.053c0.046,0.02 0.091,0.034 0.083,-0.002c-0.008,-0.035 -0.045,-0.021 -0.083,0.002Z" style="fill:#b9c4f7;"/><path d="M35.563,12.647c0.24,0.105 0.596,0.187 0.926,0.291c0.359,0.115 0.686,0.255 0.905,0.39c0.53,0.33 1.054,0.659 1.573,1.005c0.768,0.512 1.516,1.046 2.281,1.565c0.545,0.394 1.097,0.792 1.631,1.224c0.52,0.42 1.027,0.863 1.533,1.313c0.746,0.662 1.478,1.343 2.224,2.009c0.745,0.667 1.484,1.324 2.252,1.942c0.649,0.523 1.3,1.021 1.98,1.476c0.207,0.115 0.28,0.376 0.165,0.582c-0.115,0.206 -0.376,0.28 -0.582,0.165c-1.529,-0.707 -3.004,-1.574 -4.441,-2.549c-1.256,-0.852 -2.489,-1.749 -3.673,-2.684c-0.788,-0.623 -1.533,-1.285 -2.302,-1.886l-3.474,-3.028c-0.391,-0.344 -1.376,-0.709 -1.743,-1.034c-0.288,-0.254 -0.396,-0.516 -0.339,-0.745c0.038,-0.148 0.103,-0.334 0.331,-0.469c0.214,-0.155 0.512,-0.107 0.666,0.106c0.071,0.099 0.099,0.215 0.087,0.327Z" style="fill:#b9c4f7;"/><path d="M123.757,89.902c0.221,0.025 0.388,0.218 0.377,0.444c-0.01,0.236 -0.211,0.418 -0.447,0.407c-0.107,-0.003 -0.274,-0.051 -0.484,-0.166c-0.455,-0.252 -1.274,-0.905 -2.272,-1.776c-3.16,-2.756 -8.194,-7.735 -9.047,-8.509c-4.617,-4.218 -9.334,-8.314 -14.042,-12.422c-3.142,-2.741 -6.292,-5.474 -9.409,-8.246c-3.342,-2.971 -6.635,-5.998 -9.919,-9.037c-2.605,-2.449 -5.235,-4.864 -7.884,-7.262c-1.766,-1.6 -3.537,-3.193 -5.322,-4.772l-4.746,-4.271c-0.111,-0.105 -0.547,-0.592 -0.907,-0.934c-0.027,-0.026 -0.054,-0.056 -0.081,-0.087c-0.241,0.049 -0.483,-0.096 -0.552,-0.337c-0.115,-0.374 0.064,-0.564 0.169,-0.648c0.109,-0.088 0.272,-0.144 0.491,-0.082c0.308,0.086 1.383,1.149 1.577,1.316l4.894,4.051c2.309,1.898 4.603,3.807 6.875,5.745c2.273,1.938 4.522,3.903 6.76,5.883c3.323,2.983 6.697,5.906 10.037,8.867c3.345,2.965 6.668,5.953 9.974,8.961c4.411,4.015 8.764,8.093 13.055,12.243c0.73,0.711 4.617,4.821 7.619,7.749c1.087,1.06 2.053,1.965 2.708,2.485c0.256,0.203 0.527,0.52 0.576,0.398Zm-64.303,-56.765c-0.038,-0.037 -0.069,-0.053 -0.085,-0.025c-0.006,0.012 0.024,0.009 0.034,0.011c0.017,0.006 0.035,0.011 0.051,0.014Zm64.303,56.765l-0.03,-0.004c0.008,0.001 0.035,-0.01 0.031,0.002l-0.001,0.002Z" style="fill:#b9c4f7;"/><path d="M104.908,108.297c0.812,-0.56 1.94,-2.073 2.313,-2.458c1.072,-1.089 2.905,-2.615 4.819,-4.043c1.894,-1.412 3.856,-2.728 5.193,-3.465c0.202,-0.122 0.465,-0.057 0.587,0.146c0.122,0.202 0.057,0.465 -0.145,0.587c-1.248,0.819 -3.051,2.262 -4.797,3.774c-1.737,1.503 -3.408,3.074 -4.366,4.189c-0.364,0.417 -1.417,1.929 -2.267,2.682c-0.484,0.428 -0.976,0.623 -1.328,0.642c-0.265,0.013 -0.578,-0.068 -0.903,-0.246c-0.468,-0.256 -1.027,-0.846 -1.309,-1.026c-1.049,-0.698 -2.214,-1.281 -3.29,-1.929c-0.293,-0.177 -0.578,-0.36 -0.855,-0.548c-0.238,-0.161 -0.411,-0.388 -0.455,-0.721c-0.017,-0.131 -0.034,-0.352 0.104,-0.62c0.027,-0.052 0.091,-0.164 0.21,-0.297c0.196,-0.217 0.738,-0.731 0.764,-0.756l1.736,-1.615c0.612,-0.543 1.245,-1.06 1.898,-1.555c1.47,-1.118 3.011,-2.146 4.435,-3.319c0.239,-0.194 2.815,-2.479 3.855,-3.157c0.343,-0.224 0.615,-0.291 0.724,-0.275c0.17,0.025 0.293,0.097 0.37,0.215c0.061,0.095 0.143,0.248 0.071,0.476c-0.062,0.232 -0.286,0.378 -0.517,0.35l-0.064,0.049c-0.957,0.751 -3.277,3.198 -3.494,3.408c-1.541,1.465 -3.233,2.768 -4.819,4.183c-0.383,0.342 -0.761,0.689 -1.127,1.049l-1.495,1.502c0.598,0.347 1.216,0.683 1.818,1.04c0.437,0.258 0.864,0.53 1.277,0.814c0.157,0.11 0.396,0.332 0.653,0.576c0.111,0.105 0.287,0.252 0.404,0.348Zm-4.731,-2.324c-0.165,0.137 -0.292,0.283 -0.202,0.36c0.317,0.272 0.312,0.012 0.202,-0.36Z" style="fill:#b9c4f7;"/><path d="M95.173,126.202l0.212,0.202c0.754,0.709 1.61,1.387 2.375,2.126c0.346,0.334 0.674,0.679 0.968,1.045c0.076,0.095 0.135,0.228 0.119,0.394c-0.011,0.105 -0.07,0.255 -0.11,0.336c-0.01,0.023 -0.021,0.045 -0.035,0.066l0,0.001c-5.467,9.838 -8.437,11.192 -0.889,-0.381c-0.231,-0.253 -0.48,-0.495 -0.738,-0.73c-0.785,-0.714 -1.657,-1.363 -2.429,-2.048c-0.639,-0.567 -0.879,-0.795 -0.927,-0.851c-0.072,-0.085 -0.099,-0.157 -0.112,-0.2l-0.275,-0.249c-1.359,-1.226 -2.744,-2.42 -4.142,-3.599c-5.62,-4.74 -11.481,-9.196 -17.005,-14.05c-3.997,-3.547 -8.017,-7.078 -12.009,-10.646c-2.659,-2.377 -5.311,-4.765 -7.94,-7.177c-6.583,-6.037 -13.056,-12.19 -19.401,-18.453c-5.427,-5.403 -10.584,-11.519 -16.188,-16.979c-2.408,-2.346 -4.895,-4.572 -7.529,-6.561c-0.191,-0.14 -0.231,-0.408 -0.092,-0.598c0.14,-0.191 0.408,-0.232 0.598,-0.092c2.719,1.943 5.299,4.125 7.795,6.438c5.739,5.317 11.032,11.317 16.585,16.59c3.861,3.686 7.785,7.312 11.725,10.926c4.594,4.214 9.231,8.385 13.855,12.569c4.631,4.189 9.236,8.404 13.844,12.601c4.721,4.35 9.716,8.39 14.561,12.597c2.089,1.813 4.147,3.657 6.148,5.567c0.627,0.599 0.861,0.841 0.906,0.902c0.068,0.091 0.109,0.176 0.13,0.254Zm2.727,3.638l0.002,0.015l0.004,-0.007l-0.006,-0.008Z" style="fill:#b9c4f7;"/></g></svg>