<?xml version="1.0" encoding="UTF-8" standalone="no"?><!DOCTYPE svg PUBLIC "-//W3C//DTD SVG 1.1//EN" "http://www.w3.org/Graphics/SVG/1.1/DTD/svg11.dtd"><svg width="100%" height="100%" viewBox="0 0 149 164" version="1.1" xmlns="http://www.w3.org/2000/svg" xmlns:xlink="http://www.w3.org/1999/xlink" xml:space="preserve" xmlns:serif="http://www.serif.com/" style="fill-rule:evenodd;clip-rule:evenodd;stroke-linejoin:round;stroke-miterlimit:2;"><g><path d="M78.159,1.495c-0.118,-0.414 -0.121,-1.143 0.92,-1.451c0.337,-0.098 0.7,-0.031 0.98,0.18l0.038,0.03c0.57,0.069 1.572,0.2 1.973,0.32c0.93,0.279 1.855,0.597 2.767,0.951c0.908,0.352 1.804,0.738 2.679,1.15c2.484,1.173 4.964,2.382 7.409,3.659c2.453,1.282 4.87,2.632 7.216,4.082c3.909,2.415 7.716,4.974 11.463,7.615c5.609,3.953 11.085,8.09 16.579,12.204c3.411,2.557 6.954,4.629 9.858,7.317c1.94,1.797 3.602,3.863 4.768,6.508c0.292,-0.24 0.588,-0.474 0.886,-0.703c0.318,-0.247 0.777,-0.19 1.024,0.129c0.247,0.318 0.19,0.776 -0.128,1.023c-2.971,2.344 -5.653,5.284 -8.172,8.433c-3.792,4.744 -7.212,9.961 -10.655,14.39c-5.953,7.647 -11.872,15.325 -17.755,23.032c-5.881,7.706 -11.724,15.44 -17.52,23.207l-17.243,23.204c-1.316,1.754 -3.833,4.193 -5.647,6.492c-0.757,0.959 -1.389,1.88 -1.678,2.703c-0.133,0.375 -0.413,0.679 -0.775,0.843c-0.363,0.164 -0.777,0.173 -1.145,0.025c-0.883,-0.349 -2.868,-2.013 -5.124,-4.21c-3.619,-3.522 -8.127,-8.385 -9.905,-10.21c-4.274,-4.394 -8.695,-8.498 -13.264,-12.43c-4.579,-3.943 -9.307,-7.714 -14.198,-11.419c-3.182,-2.416 -6.422,-4.785 -9.597,-7.229c-2.138,-1.647 -4.246,-3.329 -6.291,-5.077l-4.721,-4.166c-0.318,-0.281 -1.582,-1.469 -2.118,-1.953l-0.117,-0.103c-0.245,-0.18 -0.437,-0.429 -0.547,-0.72c-0.3,-0.787 0.033,-1.299 0.265,-1.578c0.07,-0.085 0.158,-0.179 0.265,-0.266c0.243,-0.328 1.11,-1.498 1.16,-1.559l5.598,-6.957c4.198,-5.201 8.462,-10.351 12.782,-15.453c4.32,-5.1 8.694,-10.153 13.108,-15.166c5.476,-6.21 11.033,-12.341 16.666,-18.403c5.631,-6.059 11.338,-12.049 17.102,-17.986c1.462,-1.504 2.93,-3.002 4.41,-4.489c1.48,-1.489 2.97,-2.968 4.476,-4.431c0.223,-0.216 1.615,-0.953 2.208,-1.538Zm1.753,0.959l-0.041,0.049c-0.669,0.792 -2.018,1.843 -2.328,2.151c-1.481,1.47 -2.948,2.953 -4.405,4.448c-1.457,1.495 -2.905,3.001 -4.344,4.513c-5.695,5.979 -11.327,12.014 -16.89,18.111c-5.561,6.096 -11.053,12.254 -16.46,18.492c-4.365,5.032 -8.689,10.103 -12.961,15.219c-4.27,5.113 -8.487,10.27 -12.636,15.48l-5.571,6.983c-0.028,0.036 -0.237,0.334 -0.49,0.685c0.507,0.467 1.036,0.956 1.225,1.122l4.689,4.12c2.007,1.709 4.079,3.351 6.174,4.963c3.173,2.439 6.402,4.809 9.577,7.223c4.934,3.761 9.707,7.582 14.32,11.587c4.623,4.012 9.085,8.206 13.402,12.688c1.755,1.826 6.209,6.691 9.783,10.219c1.175,1.159 2.226,2.183 3.024,2.852c0.377,-0.614 0.837,-1.251 1.352,-1.894c1.818,-2.268 4.337,-4.667 5.658,-6.398l17.46,-23.037c5.891,-7.705 11.828,-15.379 17.806,-23.021c5.978,-7.641 11.997,-15.25 18.047,-22.83c3.505,-4.385 6.998,-9.562 10.857,-14.257c2.079,-2.529 4.264,-4.92 6.611,-6.981c-0.018,-0.026 -0.033,-0.055 -0.046,-0.085c-1.122,-2.577 -2.744,-4.553 -4.637,-6.262c-2.902,-2.621 -6.432,-4.619 -9.834,-7.104c-5.527,-4.041 -11.037,-8.105 -16.676,-11.984c-3.747,-2.577 -7.55,-5.072 -11.453,-7.424c-2.322,-1.399 -4.711,-2.699 -7.137,-3.932c-2.433,-1.236 -4.902,-2.405 -7.374,-3.538c-0.833,-0.381 -1.685,-0.737 -2.55,-1.061c-0.861,-0.323 -1.735,-0.613 -2.613,-0.865c-0.341,-0.098 -0.981,-0.167 -1.539,-0.232Zm-1.523,-1.252c0.066,-0.134 0.052,-0.25 -0.079,-0.335c-0.089,-0.057 -0.036,0.184 -0.037,0.248l0.116,0.087Z" style="fill:#b9c4f7;"/><path d="M35.348,91.071c0.504,0.908 1.981,2.833 2.145,2.98l6.547,5.572c1.047,0.916 2.113,1.806 3.16,2.721c1.049,0.915 2.093,1.836 3.124,2.772c1.241,1.126 2.46,2.274 3.678,3.425c1.836,1.734 3.635,3.493 5.438,5.261c0.841,0.84 2.203,2.767 3.597,4.037c0.556,0.508 1.086,0.933 1.609,1.023c0.359,0.04 0.619,0.364 0.579,0.724c-0.04,0.359 -0.364,0.618 -0.724,0.579c-0.75,-0.038 -1.602,-0.468 -2.467,-1.089c-1.542,-1.109 -3.119,-2.892 -4.055,-3.64c-1.952,-1.589 -3.927,-3.135 -5.881,-4.721c-1.304,-1.057 -2.606,-2.117 -3.881,-3.211c-1.065,-0.912 -2.111,-1.847 -3.139,-2.8c-1.032,-0.955 -2.03,-1.943 -3.034,-2.929c-1.012,-1.023 -2.044,-2.028 -3.052,-3.062c-1.023,-1.049 -2.016,-2.117 -2.976,-3.217c-0.182,-0.213 -1.85,-3.038 -2.175,-4.04c-0.233,-0.719 0.11,-1.146 0.31,-1.239c0.16,-0.075 0.468,-0.212 0.856,0.052c0.285,0.167 0.415,0.497 0.341,0.802Z" style="fill:#b9c4f7;"/><path d="M48.502,77.547c0.098,0.122 0.221,0.265 0.342,0.381c0.924,0.893 1.94,1.689 2.985,2.465c1.609,1.192 3.289,2.298 4.905,3.421c1.357,0.99 2.742,1.939 4.096,2.935c1.358,0.998 2.7,2.019 4.026,3.059c2.67,2.095 5.259,4.275 7.825,6.494c1.347,1.196 2.565,2.808 3.912,4.168c0.547,0.553 1.105,1.066 1.72,1.469c0.314,0.179 0.423,0.58 0.244,0.894c-0.179,0.314 -0.58,0.423 -0.894,0.244c-0.748,-0.37 -1.453,-0.863 -2.143,-1.413c-1.455,-1.163 -2.796,-2.603 -4.226,-3.613c-1.965,-1.416 -3.964,-2.769 -5.957,-4.147c-1.331,-0.921 -2.663,-1.835 -3.976,-2.781c-1.097,-0.79 -2.18,-1.599 -3.251,-2.424c-1.074,-0.829 -2.121,-1.69 -3.173,-2.545c-1.524,-1.29 -3.131,-2.551 -4.625,-3.927c-1.029,-0.947 -2,-1.938 -2.873,-3.007c-0.679,-0.845 -0.934,-1.595 -0.843,-2.078c0.125,-0.668 0.735,-1.399 2.268,-1.079c0.05,0.01 0.426,0.093 0.543,0.177c0.29,0.208 0.387,0.461 0.36,0.684c-0.022,0.403 -0.366,0.712 -0.769,0.69c-0.08,-0.004 -0.156,-0.022 -0.227,-0.05l0.002,-0.011c0.005,-0.028 -0.031,-0.025 -0.064,-0.017l0.009,0.005l0.053,0.023c-0.027,0.149 -0.1,0.105 -0.18,-0.018l-0.033,-0.001l-0.056,0.002Zm0.015,-0.129c0.014,0.025 0.027,0.049 0.04,0.075l0.099,0.055c0.008,-0.002 0.016,-0.004 0.024,-0.005l0.029,-0.007c-0.082,-0.041 -0.155,-0.097 -0.214,-0.164l0.022,0.046Z" style="fill:#b9c4f7;"/><path d="M58.697,67.279c-0.408,0.974 0.239,2.321 1.526,3.667c1.77,1.855 4.738,3.808 5.985,4.854c1.853,1.463 3.656,2.996 5.518,4.464c0.933,0.734 1.885,1.444 2.841,2.149c0.959,0.708 1.927,1.4 2.906,2.08c3.942,2.739 7.969,5.313 12.147,7.64c0.305,0.192 0.71,0.101 0.903,-0.204c0.193,-0.307 0.101,-0.712 -0.204,-0.905c-3.229,-2.307 -6.278,-4.835 -9.35,-7.371c-2.047,-1.689 -4.074,-3.402 -6.151,-5.054c-0.894,-0.712 -1.807,-1.398 -2.725,-2.074c-1.387,-1.022 -2.8,-1.997 -4.211,-2.974c-1.328,-0.873 -4.415,-2.443 -6.36,-4.015c-0.503,-0.408 -0.94,-0.789 -1.2,-1.182c-0.147,-0.221 -0.295,-0.407 -0.243,-0.606c0.13,-0.383 -0.075,-0.797 -0.457,-0.926c-0.382,-0.129 -0.796,0.075 -0.925,0.457Z" style="fill:#b9c4f7;"/><path d="M67.215,56.895c0.091,0.169 0.748,0.79 1.703,1.591c1.977,1.658 5.304,4.26 6.315,5.171c1.893,1.614 3.767,3.258 5.731,4.797c0.788,0.618 1.594,1.213 2.412,1.79c1.233,0.871 2.493,1.699 3.774,2.49c2.151,1.328 4.354,2.546 6.63,3.63c2.272,1.084 4.602,2.016 7.017,2.793c0.337,0.131 0.718,-0.037 0.849,-0.374c0.131,-0.336 -0.037,-0.717 -0.374,-0.848c-3.586,-1.634 -6.894,-3.686 -10.11,-5.917c-1.685,-1.169 -3.331,-2.392 -4.969,-3.635c-0.703,-0.533 -1.402,-1.07 -2.11,-1.597c-1.42,-1.059 -2.846,-2.11 -4.269,-3.163c-0.956,-0.708 -1.923,-1.394 -2.88,-2.096c-0.368,-0.264 -0.994,-0.688 -1.762,-1.178c-1.706,-1.087 -4.085,-2.532 -5.565,-3.487c-0.622,-0.401 -1.084,-0.646 -1.157,-0.745c-0.214,-0.341 -0.666,-0.444 -1.006,-0.229c-0.341,0.214 -0.443,0.665 -0.229,1.007Z" style="fill:#b9c4f7;"/><path d="M78.032,45.232c-0.078,0.104 -0.186,0.188 -0.316,0.239c-0.376,0.145 -0.799,-0.042 -0.943,-0.418c-0.354,-0.752 -0.015,-1.184 0.276,-1.402c0.237,-0.178 0.764,-0.244 1.499,0.004c1.377,0.464 4.125,2.111 6.47,3.649c2.046,1.342 3.756,2.59 3.925,2.695c1.197,0.788 2.46,1.676 3.738,2.666c0.776,0.602 1.558,1.241 2.342,1.903c1.125,0.95 2.253,1.946 3.392,2.94c1.693,1.478 3.389,2.956 5.092,4.302c2.209,1.745 4.384,3.284 6.537,4.297c0.336,0.135 0.499,0.516 0.365,0.852c-0.135,0.335 -0.516,0.499 -0.852,0.365c-3.087,-1.035 -6.368,-2.937 -9.627,-5.162c-1.329,-0.907 -2.646,-1.867 -3.942,-2.845c-1.3,-0.982 -2.586,-1.962 -3.809,-2.944c-1.749,-1.404 -3.374,-2.795 -4.938,-3.921c-0.161,-0.123 -1.813,-1.509 -3.736,-3.092c-1.975,-1.624 -4.222,-3.471 -5.473,-4.128Zm0.134,-0.593c0.07,-0.113 0.088,-0.208 -0.043,-0.192c-0.023,0.002 0.001,0.05 0.01,0.079c0.015,0.038 0.026,0.075 0.033,0.113Z" style="fill:#b9c4f7;"/><path d="M89.636,31.717c-0.494,0.288 -0.763,0.662 -0.925,1.039c-0.342,0.796 -0.031,1.791 0.742,2.822c1.405,1.871 4.556,3.958 5.534,4.863c0.907,0.812 1.811,1.624 2.742,2.41c1.389,1.174 2.797,2.328 4.244,3.433c1.441,1.101 2.919,2.151 4.399,3.201c2.215,1.573 4.456,3.093 6.659,4.678c1.316,0.926 2.464,2.176 3.709,3.248c0.587,0.505 1.186,0.973 1.831,1.358c0.297,0.206 0.706,0.13 0.91,-0.168c0.206,-0.298 0.13,-0.706 -0.168,-0.911c-0.352,-0.276 -0.677,-0.586 -0.998,-0.911c-1.353,-1.373 -2.514,-3.042 -3.935,-4.313c-2.86,-2.481 -5.722,-4.951 -8.674,-7.325c-1.173,-0.944 -2.363,-1.867 -3.565,-2.774c-1.799,-1.358 -3.634,-2.66 -5.421,-4.032c-0.898,-0.658 -3.437,-1.981 -5.144,-3.375c-0.514,-0.419 -0.964,-0.814 -1.201,-1.226c-0.166,-0.289 -0.22,-0.573 0.083,-0.812c0.332,-0.227 0.418,-0.681 0.192,-1.014c-0.228,-0.333 -0.682,-0.419 -1.014,-0.191Z" style="fill:#b9c4f7;"/><path d="M97.297,24.693c1.214,0.747 2.578,1.901 4.072,3.27c1.452,1.329 2.981,2.876 4.573,4.47c1.505,1.507 3.039,3.068 4.565,4.548c0.846,0.822 1.698,1.61 2.529,2.358c1.411,1.271 2.775,2.413 3.993,3.39c1.111,0.87 2.247,1.665 3.419,2.4c2.679,1.681 5.471,3.086 8.187,4.763c0.297,0.207 0.706,0.135 0.913,-0.161c0.208,-0.297 0.135,-0.705 -0.161,-0.913c-2.497,-1.972 -5.078,-3.707 -7.558,-5.653c-1.021,-0.801 -2.021,-1.634 -2.982,-2.544c-1.052,-0.976 -2.191,-2.132 -3.424,-3.348c-0.742,-0.731 -1.511,-1.489 -2.311,-2.245c-1.158,-1.096 -2.368,-2.199 -3.586,-3.278c-0.821,-0.727 -1.648,-1.437 -2.475,-2.118c-3.362,-2.769 -6.606,-5.113 -9.072,-6.229c-0.356,-0.189 -0.798,-0.052 -0.986,0.304c-0.188,0.356 -0.052,0.798 0.304,0.986Z" style="fill:#b9c4f7;"/><path d="M35.078,88.851c0.755,-0.066 1.236,0.43 1.574,1.168c0.33,0.72 0.305,1.91 -0.012,3.115c-0.339,1.286 -1.144,2.494 -2.136,3.15c-0.927,0.613 -2.054,0.733 -3.26,0.247c-1.381,-0.694 -1.965,-2.099 -1.252,-3.81c0.22,-0.528 0.523,-1.091 0.934,-1.607c1.083,-1.357 2.557,-2.47 3.399,-2.538c0.292,-0.069 0.585,0.048 0.753,0.275Zm-2.343,4.941c-0.003,0.06 -0.005,0.12 -0.003,0.177c0,0.019 0.002,0.054 0.019,0.052c0.104,-0.016 0.069,-0.124 -0.016,-0.229Zm0.013,-0.149c0.218,-0.012 0.411,-0.157 0.584,-0.326c0.33,-0.322 0.651,-0.694 0.87,-1.118c0.262,-0.505 0.502,-0.995 0.519,-1.414c0.003,-0.091 0.045,-0.231 0.045,-0.231c0,0 0.203,0.112 0.218,0.028c0.039,-0.201 -0.48,0.013 -0.868,0.224c-0.064,0.047 -0.133,0.082 -0.206,0.103l-0.062,0.091c-0.534,0.774 -1.009,1.82 -1.1,2.643Z" style="fill:#b9c4f7;"/><path d="M59.188,83.567c0.144,-0.124 0.34,-0.185 0.541,-0.151c1.374,0.052 1.898,1.185 1.877,2.668c-0.012,0.86 -0.321,1.842 -0.782,2.773c-0.382,0.773 -0.934,1.449 -1.532,1.987c-0.526,0.473 -1.136,0.776 -1.749,0.946c-0.803,0.221 -1.639,0.123 -2.468,-0.263c-1.312,-0.725 -1.871,-1.773 -1.821,-2.973c0.025,-0.612 0.172,-1.275 0.499,-1.898c0.64,-1.222 1.718,-2.352 2.484,-2.864c0.085,-0.053 1.417,-0.77 1.935,-0.799c0.625,-0.036 0.963,0.194 1.016,0.574Zm-0.183,0.728c-0.084,0.085 -0.192,0.151 -0.315,0.187c-0.08,0.022 -0.16,0.031 -0.238,0.026c-0.043,0.04 -0.119,0.108 -0.181,0.156c-0.33,0.25 -0.684,0.619 -0.714,0.654c-0.364,0.406 -0.755,1.161 -1.052,1.94c-0.107,0.279 -0.165,0.566 -0.211,0.841c-0.029,0.18 -0.001,0.348 0.059,0.496c0.02,0.05 0.097,0.029 0.16,0.058c0.353,0.199 0.722,0.045 1.065,-0.187c0.394,-0.265 0.79,-0.583 1.108,-0.977c0.534,-0.662 0.996,-1.371 1.068,-2.01c0.038,-0.337 0.081,-0.667 -0.248,-0.772c-0.237,-0.04 -0.421,-0.203 -0.501,-0.412Zm-1.075,-0.048c0.057,0.082 0.126,0.147 0.223,0.179c-0.086,-0.044 -0.162,-0.104 -0.223,-0.179Z" style="fill:#b9c4f7;"/><path d="M57.463,65.936c1.091,-0.68 1.628,-0.181 1.284,0.561c0.068,-0.124 0.178,-0.227 0.32,-0.285c0.943,-0.623 1.677,-0.424 2.192,-0.17c0.895,0.441 1.161,1.836 0.767,3.294c-0.263,0.978 -0.966,1.893 -1.892,2.459c-0.643,0.393 -1.435,0.535 -2.295,0.457c-2.101,-0.453 -2.791,-1.493 -2.723,-2.678c0.024,-0.433 0.087,-0.891 0.314,-1.323c0.435,-0.828 1.1,-1.584 1.479,-1.907c0.082,-0.069 0.161,-0.133 0.239,-0.19c0.084,-0.114 0.195,-0.186 0.315,-0.218Zm1.257,0.612c-0.095,0.188 -0.245,0.389 -0.456,0.589c-0.015,0.024 -0.031,0.045 -0.049,0.066c-0.027,0.093 -0.062,0.191 -0.107,0.293c-0.181,0.417 -0.367,1.142 -0.333,1.758c0.003,0.044 0.048,0.108 0.086,0.092c0.049,-0.019 0.039,-0.148 0.013,-0.225c0.076,-0.004 0.207,-0.039 0.299,-0.037c0.198,0.024 0.376,-0.009 0.533,-0.085c0.153,-0.074 0.318,-0.121 0.444,-0.233c0.171,-0.154 0.357,-0.287 0.473,-0.472c0.144,-0.23 0.327,-0.418 0.349,-0.633c0.012,-0.115 0.324,-0.122 0.223,-0.163c-0.152,-0.064 -0.347,-0.131 -0.627,-0.075c-0.335,0.139 -0.718,-0.02 -0.857,-0.355c-0.071,-0.173 -0.063,-0.361 0.009,-0.52Zm-0.846,2.573c-0.045,0.003 -0.07,-0.006 -0.056,-0.039c0.017,-0.039 0.04,-0.011 0.056,0.039Z" style="fill:#b9c4f7;"/><path d="M87.385,67.527c0.138,0.112 0.257,0.24 0.366,0.374c0.652,0.808 0.531,2.303 -0.088,3.71c-0.524,1.192 -1.52,2.185 -2.549,2.672c-0.687,0.325 -1.426,0.338 -2.155,0.177c-1.985,-0.624 -2.62,-2.274 -1.867,-4.195c0.337,-0.86 0.963,-1.788 1.788,-2.515c1.369,-1.21 3.061,-1.974 4.282,-1.591c0.399,0.062 0.672,0.435 0.609,0.833c-0.037,0.239 -0.187,0.432 -0.386,0.535Zm-3.454,3.896c-0.041,-0.044 -0.085,-0.066 -0.106,-0.027c-0.006,0.012 0.019,0.022 0.034,0.027c0.022,0.009 0.045,0.016 0.067,0.021c-0.026,0.121 -0.017,0.205 0.072,0.191c0.056,-0.01 0.015,-0.112 -0.042,-0.185l-0.03,-0.006l0.005,-0.021Zm1.789,-3.083c-0.121,0.123 -0.242,0.256 -0.366,0.392c-0.578,0.632 -1.002,1.459 -1.259,2.206c-0.047,0.136 -0.129,0.334 -0.164,0.485l0.02,0.022l0.005,0.005c0.244,0.047 0.499,-0.074 0.736,-0.247c0.493,-0.356 0.971,-0.811 1.254,-1.33c0.34,-0.623 0.7,-1.291 0.009,-1.461c-0.084,-0.009 -0.163,-0.034 -0.235,-0.072Z" style="fill:#b9c4f7;"/><path d="M105.396,60.306c0.159,-0.255 0.467,-0.394 0.777,-0.325c0.393,0.088 0.641,0.479 0.553,0.871c-0.005,0.108 -0.115,0.299 -0.333,0.55c0.433,0.116 0.759,0.353 1.013,0.607c0.729,0.728 0.682,2.097 0.161,3.414c-0.327,0.828 -0.935,1.554 -1.586,2.077c-0.386,0.309 -0.827,0.487 -1.259,0.607c-0.783,0.219 -1.583,0.061 -2.358,-0.407c-1.593,-1.182 -1.924,-2.43 -1.607,-3.557c0.133,-0.477 0.351,-0.962 0.726,-1.384c0.565,-0.633 1.34,-1.214 2.138,-1.643c0.587,-0.316 1.444,-0.465 1.702,-0.667c0.005,-0.025 0.014,-0.05 0.031,-0.073c0.015,-0.019 -0.001,-0.159 0.026,-0.112c0.008,0.015 0.014,0.029 0.016,0.042l-0.016,0.023c-0.01,0.022 -0.021,0.043 -0.032,0.065l-0.02,0.051l-0.005,0.004l-0.002,0.008l-0.007,0.029l0.007,-0.024l0.007,-0.017c0.053,-0.043 0.078,-0.089 0.068,-0.139Zm-0.283,2.391c-0.387,0.401 -0.792,0.857 -1.115,1.325c-0.167,0.24 -0.522,0.705 -0.282,0.733c0.035,0.005 0.142,-0.024 0.108,0.005c-0.099,0.084 0.201,0.191 0.348,0.289c-0.026,-0.02 -0.077,0.012 -0.074,0.04c0.024,0.242 0.503,-0.12 0.722,-0.306c0.354,-0.301 0.706,-0.637 0.886,-1.027c0.096,-0.209 0.243,-0.38 0.224,-0.564c-0.007,-0.061 0.065,-0.13 0.02,-0.175c-0.145,-0.143 -0.351,-0.276 -0.687,-0.31c-0.051,0.003 -0.101,-0.001 -0.15,-0.01Z" style="fill:#b9c4f7;"/><path d="M92.005,37.969c0.23,-0.147 0.538,-0.14 0.763,0.041c0.537,0.259 0.689,0.688 0.81,1.064c0.208,0.641 -0.19,1.298 -0.743,1.901c-0.487,0.53 -1.245,0.774 -1.93,0.871c-0.446,0.063 -0.846,-0.102 -1.236,-0.258c-1.212,-0.547 -1.545,-1.572 -1.483,-2.674c0.019,-0.338 0.113,-0.699 0.281,-1.05c0.327,-0.685 0.886,-1.415 1.61,-1.965c1.19,-0.905 2.546,-1.465 3.264,-1.478c0.392,-0.095 0.786,0.146 0.881,0.538c0.094,0.391 -0.147,0.786 -0.539,0.88c-0.145,0.077 -0.255,0.267 -0.447,0.458c-0.366,0.365 -0.696,0.881 -1.068,1.42c-0.057,0.083 -0.112,0.167 -0.163,0.252Zm-0.713,1.254c-0.042,-0.036 -0.089,-0.078 -0.108,-0.111c-0.008,-0.014 -0.035,-0.026 -0.049,-0.015c-0.015,0.012 -0.022,0.044 -0.005,0.057c-0.037,-0.031 -0.126,-0.031 -0.141,0.017c-0.013,0.04 0.053,0.08 0.098,0.08c0.066,0 0.135,0.007 0.202,0.012c0.005,0.024 0.022,0.04 0.057,0.045c0.035,0.004 0.024,-0.014 -0.005,-0.04l-0.021,-0.002l-0.031,-0.003c-0.002,-0.012 -0.001,-0.025 0.003,-0.04Zm0.412,-0.714l-0.111,0.206c-0.084,0.155 -0.274,0.384 -0.301,0.508l0.023,0.02l0.026,0.025c0.122,0.008 0.24,0.007 0.337,-0.053c0.055,-0.035 0.176,-0.034 0.176,-0.034c0,0 0.041,0.051 0.072,0.054c0.026,0.003 0.086,0.005 0.075,-0.024c-0.02,-0.053 -0.007,-0.122 -0.052,-0.178c-0.165,-0.132 -0.249,-0.328 -0.245,-0.524Z" style="fill:#b9c4f7;"/><path d="M117.033,36.279c0.125,0.055 0.232,0.15 0.304,0.278c0.7,0.823 0.482,2.114 -0.086,3.276c-0.213,0.437 -0.536,0.792 -0.865,1.123c-0.914,0.919 -2.157,1.074 -3.205,0.691c-0.302,-0.111 -0.567,-0.326 -0.841,-0.572c-0.393,-0.4 -0.66,-0.871 -0.751,-1.398c-0.142,-0.82 0.031,-1.808 0.611,-2.63c0.278,-0.396 0.582,-0.781 0.974,-1.066c1.258,-0.918 2.698,-1.315 3.552,-0.396c0.232,0.161 0.342,0.432 0.307,0.694Zm-2.386,2.583l-0.013,-0.014c-0.061,-0.076 -0.248,-0.063 -0.247,0.023c0.002,0.158 0.118,0.181 0.284,0.123c-0.025,-0.021 -0.03,-0.071 -0.024,-0.132Zm1.462,-1.977c-0.075,-0.02 -0.148,-0.055 -0.216,-0.101c-0.115,-0.046 -0.173,0.124 -0.285,0.177c-0.242,0.115 -0.348,0.422 -0.536,0.694c-0.183,0.264 -0.257,0.59 -0.351,0.895c-0.026,0.084 -0.065,0.212 -0.074,0.312c0.03,0.031 0.073,0.076 0.085,0.109l-0.04,0.016l-0.021,0.007c0.011,0.01 0.026,0.014 0.046,0.011c0.02,-0.004 0.023,-0.017 0.015,-0.034c0.339,-0.145 0.834,-0.558 1.04,-0.845c0.23,-0.323 0.522,-0.606 0.419,-0.932c-0.054,-0.098 -0.081,-0.204 -0.082,-0.309Z" style="fill:#b9c4f7;"/><path d="M25.639,91.195c-0.044,0.101 -0.112,0.193 -0.204,0.268c-0.311,0.256 -0.771,0.211 -1.026,-0.101c-0.095,-0.107 -0.28,-0.399 -0.082,-0.834c0.041,-0.089 0.155,-0.266 0.326,-0.499c0.714,-0.978 2.664,-3.315 2.812,-3.508l10.484,-13.593c2.968,-3.792 5.93,-7.591 8.963,-11.337c2.02,-2.495 4.065,-4.974 6.139,-7.425c2.594,-3.065 5.237,-6.088 7.894,-9.097c2.66,-3.011 5.353,-5.986 8.051,-8.959c3.051,-3.334 6.177,-7.646 9.531,-11.331c1.513,-1.661 3.069,-3.193 4.681,-4.463c0.278,-0.232 0.691,-0.194 0.922,0.083c0.232,0.278 0.194,0.692 -0.084,0.924c-1.482,1.306 -2.892,2.867 -4.263,4.54c-3.166,3.865 -6.092,8.329 -8.982,11.819c-4.324,5.153 -8.57,10.374 -12.85,15.573c-1.833,2.226 -3.674,4.445 -5.523,6.658c-2.056,2.459 -4.125,4.907 -6.191,7.355c-2.069,2.45 -4.15,4.887 -6.212,7.339l-11.198,13.031c-0.158,0.182 -2.231,2.38 -2.998,3.306c-0.018,0.021 -0.038,0.042 -0.06,0.063c0.044,0.172 0.033,0.291 -0.13,0.188c0.014,-0.033 0.026,-0.065 0.035,-0.099c0.028,-0.027 0.062,-0.057 0.095,-0.089c-0.019,-0.076 -0.047,-0.161 -0.08,-0.242c0.021,0.11 0.016,0.223 -0.015,0.331c-0.043,0.043 -0.068,0.077 -0.041,0.095l0.006,0.004Z" style="fill:#b9c4f7;"/><path d="M78.901,11.018c0.517,0.288 1.486,0.713 2.023,1.169c0.34,0.288 0.539,0.615 0.605,0.915c0.088,0.393 -0.056,0.955 -0.407,1.531c-0.452,0.74 -1.241,1.572 -1.502,1.926c-1.783,2.41 -3.601,4.794 -5.448,7.157c-1.845,2.361 -3.718,4.7 -5.601,7.029c-7.137,8.797 -14.238,17.609 -21.257,26.489c-4.673,5.913 -9.317,11.849 -13.863,17.87c-1.598,2.099 -3.162,5.055 -4.91,7.539c-1.456,2.067 -3.059,3.813 -4.823,4.719c-2.242,1.15 -4.781,1.166 -7.719,-1.112c-0.835,-0.65 -1.116,-1.564 -0.839,-2.664c0.163,-0.648 0.584,-1.411 1.115,-2.131c0.66,-0.894 1.481,-1.734 1.752,-2.091l11.535,-15.162c4.269,-5.445 8.672,-10.757 13.165,-15.989c6.73,-7.834 13.652,-15.492 20.548,-23.213c2.615,-2.921 5.421,-7.377 8.342,-11.017c1.381,-1.722 2.788,-3.263 4.208,-4.396c0.28,-0.229 0.694,-0.187 0.923,0.093c0.229,0.279 0.187,0.693 -0.093,0.921c-1.321,1.11 -2.615,2.615 -3.887,4.284c-2.851,3.738 -5.577,8.291 -8.139,11.297c-6.714,7.862 -13.439,15.673 -19.999,23.633c-4.361,5.292 -8.649,10.645 -12.793,16.137l-11.308,15.298c-0.232,0.312 -0.874,0.99 -1.468,1.752c-0.225,0.289 -0.496,0.754 -0.663,1.055c0.887,0.596 1.696,0.869 2.463,0.839c1.025,-0.039 1.921,-0.612 2.777,-1.402c2.785,-2.565 5.006,-7.327 7.3,-10.313c4.638,-5.981 9.348,-11.897 14.138,-17.748c7.178,-8.768 14.515,-17.402 21.849,-26.053c2.321,-2.728 4.623,-5.472 6.891,-8.245c1.511,-1.848 3.007,-3.707 4.479,-5.585c0.197,-0.252 0.689,-0.755 1.118,-1.29c0.19,-0.237 0.371,-0.478 0.487,-0.702c0.018,-0.036 0.038,-0.085 0.055,-0.125c-0.127,-0.108 -0.435,-0.364 -0.678,-0.506c-0.529,-0.311 -1.099,-0.584 -1.374,-0.773c-0.876,-0.603 -0.75,-1.175 -0.632,-1.442c0.214,-0.478 0.851,-0.614 1.093,-0.541c0.312,0.095 0.481,0.309 0.533,0.568c0.02,0.095 0.02,0.19 0.004,0.279Zm-1.282,0.337c0.098,0.128 0.24,0.236 0.427,0.254c-0.168,-0.032 -0.319,-0.123 -0.427,-0.254Zm1.088,-0.451c0.008,-0.108 -0.017,-0.171 -0.111,-0.086c-0.028,0.025 0.053,0.053 0.111,0.086Z" style="fill:#b9c4f7;"/><path d="M145.577,53.374c-0.026,-2.461 -0.419,-5.738 -0.356,-7.157c0.032,-0.74 0.296,-1.173 0.484,-1.303c0.294,-0.205 0.788,-0.364 1.296,0.235c0.251,0.296 0.645,1.026 1.18,2.36c0.157,0.371 -0.017,0.799 -0.388,0.956c-0.3,0.128 -0.638,0.038 -0.838,-0.196c0.172,1.677 0.441,3.802 0.496,5.471c0.046,0.173 0.063,0.406 -0.017,0.704c-0.108,0.439 -0.511,0.736 -0.955,0.718l-0.042,0.045c-1.953,2.172 -6.816,9.292 -6.866,9.361l-15.495,21.447c-4.299,5.895 -8.451,11.881 -12.606,17.861c-3.886,5.592 -7.763,11.187 -11.62,16.798c-5.789,8.422 -11.58,16.842 -17.425,25.245c-0.392,0.562 -6.929,9.532 -11.019,14.494c-1.241,1.506 -2.268,2.649 -2.843,3.112c-0.352,0.283 -0.648,0.37 -0.812,0.368c-0.362,0 -0.655,-0.294 -0.655,-0.655c0,-0.304 0.206,-0.559 0.486,-0.633c-0.024,-0.044 0.06,-0.035 0.12,-0.027l-0.005,0.005l-0.002,0.002c-0.039,0.003 -0.077,0.01 -0.113,0.02l0.001,0.004c0.024,0.039 0.064,0.022 0.112,-0.024l0.056,-0.003l-0.049,-0.004c0.083,-0.081 0.191,-0.238 0.297,-0.347c1.033,-1.06 2.927,-3.569 4.95,-6.356c3.555,-4.897 7.481,-10.656 7.774,-11.105c4.004,-6.114 7.954,-12.251 11.936,-18.367c3.988,-6.125 7.981,-12.243 12.063,-18.305c2.722,-4.043 5.483,-8.062 8.298,-12.045c2.814,-3.982 5.697,-7.917 8.615,-11.833l16.062,-21.037c0.052,-0.069 5.252,-7.157 7.32,-9.299c0.202,-0.209 0.392,-0.379 0.56,-0.51Z" style="fill:#b9c4f7;"/><path d="M2.872,98.844c-0.497,-1.788 -0.576,-3.884 -0.975,-5.671c-0.179,-0.805 -0.417,-1.543 -0.843,-2.125c-0.247,-0.318 -0.19,-0.777 0.129,-1.024c0.318,-0.247 0.777,-0.19 1.024,0.129c0.583,0.709 0.963,1.617 1.248,2.626c0.504,1.78 0.673,3.909 1.312,5.653c0.082,0.126 0.198,0.359 0.103,0.719c0.306,0.481 0.668,0.951 1.055,1.415c1.172,1.405 2.59,2.737 3.703,3.996c1.452,1.651 2.942,3.267 4.447,4.873c2.262,2.415 4.562,4.794 6.875,7.155c3.423,3.569 7.053,6.9 10.718,10.189c3.443,3.089 6.929,6.129 10.43,9.157c5.277,4.567 10.542,9.147 15.623,13.939c2.068,1.964 4.148,4.002 6.02,6.201c1.262,1.481 2.43,3.033 3.443,4.68c0.026,0.043 0.124,0.447 0.247,0.689c0.172,0.024 0.351,0.073 0.222,0.166c0.122,0.119 0.198,0.285 0.198,0.468c0,0.361 -0.294,0.655 -0.655,0.655c-0.098,0.003 -0.378,-0.043 -0.611,-0.345c-0.167,-0.218 -0.501,-0.817 -0.549,-0.887c-1.051,-1.531 -2.25,-2.959 -3.53,-4.322c-1.933,-2.059 -4.056,-3.954 -6.167,-5.778c-5.248,-4.564 -10.713,-8.859 -16.108,-13.241c-3.617,-2.938 -7.22,-5.894 -10.7,-8.99c-3.745,-3.33 -7.333,-6.835 -10.766,-10.514c-2.244,-2.458 -4.487,-4.923 -6.666,-7.445c-1.456,-1.687 -2.881,-3.398 -4.275,-5.135c-1.059,-1.325 -2.422,-2.739 -3.534,-4.214c-0.524,-0.694 -0.997,-1.399 -1.364,-2.116c-0.088,-0.173 -0.161,-0.405 -0.117,-0.676c0.012,-0.07 0.034,-0.149 0.063,-0.227Zm64.455,62.593c0.021,0.005 0.042,0.011 0.063,0.016l0.056,0.02c0.063,0.119 0.134,0.189 0.203,0.14l0.004,-0.002c-0.059,-0.058 -0.13,-0.105 -0.207,-0.138l-0.015,-0.028c-0.059,-0.008 -0.116,-0.014 -0.16,-0.017l0.056,0.009Zm-64.36,-62.27c0.01,0.038 0.021,0.073 0.034,0.106l0,-0.002l-0.034,-0.104Z" style="fill:#b9c4f7;"/><path d="M67.502,145.787c0.04,0.133 0.074,0.23 0.081,0.253c0.116,0.473 0.258,0.948 0.368,1.452c0.067,0.314 0.136,0.632 0.175,0.957c0.087,0.741 0.105,1.486 0.169,2.233c0.102,1.166 0.15,2.261 0.478,3.304c0.173,0.318 0.056,0.716 -0.261,0.889c-0.318,0.173 -0.716,0.056 -0.889,-0.262c-0.938,-1.142 -1.65,-2.477 -2.204,-3.965c-0.156,-0.419 -0.278,-0.844 -0.38,-1.276c-0.066,-0.286 -0.121,-0.573 -0.151,-0.861c-0.075,-0.739 -0.043,-1.458 -0.05,-2.15c0.011,-0.138 0.163,-1.753 0.481,-2.243c0.307,-0.474 0.59,-0.752 0.916,-0.737c0.17,0.007 0.353,-0.052 0.524,0.051c0.157,0.096 0.464,0.167 0.616,0.557c-0.005,-0.012 -0.037,-0.019 -0.037,-0.019c0,0 0.351,0.491 0.411,0.665c0.086,0.253 0.178,0.436 0.121,0.587c-0.083,0.217 -0.107,0.473 -0.368,0.565Zm-1.344,-0.471c-0.134,-0.09 -0.28,-0.193 -0.348,-0.255c0.074,0.067 0.082,0.154 0.132,0.172c0.078,0.027 0.149,0.057 0.216,0.083Zm0.276,-0.517l-0.003,0.007l0.006,-0.011l-0.003,0.004Z" style="fill:#b9c4f7;"/></g></svg>