<?xml version="1.0" encoding="UTF-8" standalone="no"?><!DOCTYPE svg PUBLIC "-//W3C//DTD SVG 1.1//EN" "http://www.w3.org/Graphics/SVG/1.1/DTD/svg11.dtd"><svg width="100%" height="100%" viewBox="0 0 93 125" version="1.1" xmlns="http://www.w3.org/2000/svg" xmlns:xlink="http://www.w3.org/1999/xlink" xml:space="preserve" xmlns:serif="http://www.serif.com/" style="fill-rule:evenodd;clip-rule:evenodd;stroke-linejoin:round;stroke-miterlimit:2;"><path d="M48.41,98.896c0.004,-1.275 -0.426,-3.11 -1.051,-5.142c-1.189,-3.865 -3.097,-8.47 -3.747,-11.071c-1.037,-4.02 -2.007,-8.053 -2.982,-12.086c-0.974,-4.028 -1.909,-8.064 -2.832,-12.103c-1.23,-5.381 -2.455,-10.762 -3.461,-16.196c-0.527,-2.701 -1.327,-11.211 -2.48,-17.621c-0.645,-3.588 -1.431,-6.531 -2.279,-7.587c-0.207,-0.272 -0.596,-0.325 -0.869,-0.118c-0.272,0.206 -0.325,0.595 -0.119,0.868c0.724,1.01 1.203,3.768 1.623,7.089c0.821,6.488 1.231,15.058 1.628,17.793c0.629,4.134 1.323,8.252 2.144,12.347c0.547,2.729 1.144,5.449 1.79,8.157c0.646,2.705 1.343,5.398 2.075,8.083c1.095,4.023 2.286,8.017 3.493,12.009c0.805,2.593 2.977,7.147 4.411,10.983c0.683,1.823 1.207,3.468 1.276,4.633c0.011,0.381 0.329,0.682 0.71,0.671c0.38,-0.011 0.681,-0.329 0.67,-0.709Z" style="fill:#b9c4f7;"/><path d="M44.346,80.917l0.005,-0.004l0.495,0.746c0.285,-0.19 0.67,-0.112 0.859,0.173c0.189,0.284 0.112,0.67 -0.173,0.859l0.495,0.744l-0.005,0.004l-0.456,-0.686c-0.317,0.21 -0.746,0.124 -0.956,-0.193c-0.211,-0.317 -0.125,-0.746 0.193,-0.957l-0.457,-0.686Z" style="fill:#b9c4f7;"/><path d="M55.672,95.9c0.048,0.166 0.148,0.388 0.177,0.527c0.055,0.272 0.065,0.508 0.048,0.641c-0.039,0.296 -0.207,0.463 -0.356,0.567c-0.19,0.133 -0.503,0.245 -0.932,-0.03c-0.463,-0.296 -0.895,-1.022 -1.228,-1.942c-0.524,-1.45 -0.864,-3.43 -1.098,-4.157c-0.954,-2.996 -1.894,-5.989 -2.78,-9.002c-0.593,-2.013 -1.157,-4.032 -1.701,-6.061c-0.897,-3.452 -1.78,-6.908 -2.579,-10.385c-0.534,-2.32 -1.044,-4.646 -1.496,-6.984c-1.133,-5.849 -1.993,-11.747 -2.667,-17.671c-0.631,-6.074 -0.759,-12.318 -1.322,-18.463c-0.24,-2.622 -0.553,-5.222 -1.033,-7.784c-0.072,-0.334 0.141,-0.664 0.475,-0.737c0.334,-0.071 0.664,0.141 0.736,0.475c0.63,2.576 1.101,5.2 1.481,7.852c0.873,6.093 1.274,12.312 2.19,18.333c0.672,4.671 1.531,9.306 2.433,13.934c0.54,2.779 1.101,5.554 1.674,8.327c0.861,4.166 1.733,8.329 2.683,12.475c0.559,2.542 1.16,5.07 1.78,7.594c0.622,2.531 1.262,5.054 1.92,7.578c0.166,0.644 0.353,2.243 0.686,3.624l0.036,0.153c0.131,-0.06 0.287,-0.079 0.466,-0.057c0.379,0.033 0.66,0.369 0.626,0.748c-0.016,0.178 -0.097,0.334 -0.219,0.445Zm-0.015,-0.061c0.065,-0.067 0.133,-0.148 0.058,-0.153c-0.07,-0.004 -0.079,0.06 -0.058,0.153Z" style="fill:#b9c4f7;"/><path d="M36.928,88.081c-1.173,0.451 -2.505,0.233 -3.854,-0.202c-2.146,-0.693 -4.319,-1.975 -6.042,-2.642c-3.635,-1.401 -7.851,-2.503 -11.941,-2.453c-2.854,0.035 -5.642,0.641 -8.159,2.047c-3.481,1.961 -5.487,5.123 -6.381,8.715c-1.28,5.141 -0.21,11.181 1.971,15.667c1.977,3.99 5.428,7.502 9.641,10.122c3.907,2.431 8.458,4.102 12.984,4.755c9.802,1.416 19.476,-1.883 22.74,-12.325c0.595,-1.926 0.939,-4.042 1.058,-6.178c0.116,-2.107 0.019,-4.229 -0.258,-6.197c-0.44,-3.12 -0.982,-6.259 -1.866,-9.292c-0.594,-2.038 -1.338,-4.027 -2.304,-5.931c-0.149,-0.307 -0.52,-0.436 -0.828,-0.286c-0.307,0.149 -0.436,0.52 -0.286,0.827c0.862,1.861 1.508,3.798 2.011,5.775c0.762,2.987 1.193,6.066 1.523,9.125c0.202,1.86 0.229,3.861 0.055,5.84c-0.171,1.96 -0.543,3.897 -1.147,5.65c-3.094,9.086 -11.695,11.62 -20.267,10.204c-4.127,-0.681 -8.25,-2.283 -11.811,-4.529c-3.706,-2.338 -6.814,-5.371 -8.569,-8.89c-1.654,-3.259 -2.645,-7.473 -2.338,-11.417c0.298,-3.83 1.816,-7.422 5.307,-9.507c2.132,-1.283 4.527,-1.858 6.987,-1.969c3.83,-0.174 7.809,0.744 11.259,1.94c2.077,0.715 4.817,2.243 7.361,2.702c1.301,0.234 2.556,0.207 3.674,-0.272c0.353,-0.144 0.522,-0.547 0.379,-0.899c-0.143,-0.353 -0.546,-0.523 -0.899,-0.38Z" style="fill:#b9c4f7;"/><path d="M32.931,2.024c-2.194,1.243 -3.021,3.178 -3.224,5.253c-0.249,2.559 0.386,5.319 0.801,7.459c0.315,1.626 0.475,2.941 0.214,3.667c-0.123,0.361 -0.515,0.554 -0.876,0.431c-0.36,-0.123 -0.553,-0.515 -0.431,-0.876c0.188,-0.586 -0.075,-1.622 -0.373,-2.911c-0.521,-2.262 -1.275,-5.18 -1.101,-7.912c0.172,-2.69 1.221,-5.192 4.027,-6.877c0.432,-0.259 1.334,-0.36 2.62,-0.128c1.742,0.315 4.42,1.163 7.612,2.346c6.261,2.319 14.557,5.899 21.62,9.018c7.039,3.109 12.814,5.773 14.011,6.032c1.764,0.392 4.107,0.438 6.385,0.123c2.2,-0.304 4.35,-0.93 5.796,-2.018c0.285,-0.213 0.739,-0.43 1.132,-0.421c0.261,0.007 0.528,0.068 0.793,0.229c0.425,0.258 0.959,0.859 0.692,1.87c-0.16,0.604 -1.055,2.031 -1.139,2.207c-0.565,1.196 -1.106,2.379 -1.676,3.564c-0.383,0.795 -0.778,1.589 -1.202,2.389c-2.191,4.105 -5.026,6.754 -7.948,8.37c-4.165,2.302 -8.501,2.523 -11.411,1.895c-0.301,-0.066 -1.244,-0.605 -2.566,-1.592c-3.784,-2.828 -11.702,-9.35 -18.059,-14.081c-2.891,-2.151 -5.448,-3.933 -7.136,-4.802c-0.426,-0.219 -0.789,-0.38 -1.083,-0.462c-0.075,-0.022 -0.174,-0.064 -0.24,-0.079c0.024,-0.024 0.046,-0.054 0.06,-0.071c-0.02,0.025 -0.042,0.049 -0.066,0.069l0.006,0.002c-0.021,0.024 -0.043,0.043 -0.056,0.039c-0.22,0.163 -0.532,0.165 -0.755,-0.014c-0.267,-0.215 -0.31,-0.605 -0.096,-0.872c0.222,-0.285 0.648,-0.461 1.295,-0.34c1.103,0.208 3.281,1.417 5.975,3.188c6.626,4.357 16.553,12.1 21.183,15.397c0.946,0.674 1.652,1.153 2.042,1.353l0.017,0.008c2.491,0.459 6.141,0.143 9.617,-1.882c2.503,-1.46 4.902,-3.819 6.729,-7.422c0.393,-0.773 0.759,-1.541 1.112,-2.309c0.312,-0.676 0.613,-1.351 0.916,-2.028c-1.108,0.367 -2.299,0.639 -3.51,0.812c-2.66,0.381 -5.401,0.297 -7.464,-0.159c-1.243,-0.282 -7.265,-3.022 -14.535,-6.384c-6.966,-3.222 -15.112,-7.001 -21.271,-9.475c-3.011,-1.209 -5.529,-2.117 -7.179,-2.468c-0.384,-0.082 -0.713,-0.135 -0.982,-0.145c-0.102,-0.005 -0.247,0.005 -0.276,0.007Zm56.802,15.046c0.143,-0.253 0.197,-0.456 0.031,-0.497c-0.23,-0.057 -0.133,0.253 -0.031,0.497Zm-49.57,-2.354c-0.042,-0.009 -0.068,-0.005 -0.061,0.025c0.001,0.01 0.005,0.016 0.011,0.016l0.028,-0.021l0.022,-0.02Z" style="fill:#b9c4f7;"/></svg>