<?xml version="1.0" encoding="UTF-8" standalone="no"?><!DOCTYPE svg PUBLIC "-//W3C//DTD SVG 1.1//EN" "http://www.w3.org/Graphics/SVG/1.1/DTD/svg11.dtd"><svg width="100%" height="100%" viewBox="0 0 145 146" version="1.1" xmlns="http://www.w3.org/2000/svg" xmlns:xlink="http://www.w3.org/1999/xlink" xml:space="preserve" xmlns:serif="http://www.serif.com/" style="fill-rule:evenodd;clip-rule:evenodd;stroke-linejoin:round;stroke-miterlimit:2;"><g><path d="M28.899,103.361c-0.08,-0.052 -0.198,-0.131 -0.242,-0.166c-0.338,-0.269 -0.692,-0.506 -1.055,-0.727c-0.573,-0.35 -1.172,-0.652 -1.783,-0.95c-1.112,-0.543 -2.263,-1.024 -3.445,-1.407c-1.155,-0.375 -2.339,-0.647 -3.546,-0.783c-3.335,-0.379 -6.315,0.526 -8.717,2.289c-2.406,1.766 -4.212,4.409 -5.223,7.504c-2.636,8.009 -1.079,16.611 3.293,22.932c4.313,6.236 11.453,10.214 20.152,8.876c3.476,-0.508 7.096,-2.794 10.104,-5.716c3.04,-2.951 5.476,-6.581 6.328,-9.987c0.129,-0.507 0.142,-0.987 0.095,-1.453c-0.182,-1.825 -0.899,-3.521 -0.858,-5.399c0.14,-5.902 0.212,-11.861 0.172,-17.85c-0.04,-5.916 -0.188,-11.861 -0.531,-17.813l-0.856,-19.835c-0.173,-4.973 -0.311,-9.979 -0.236,-14.976c0.05,-3.345 0.196,-6.683 0.482,-10.004c0.035,-0.517 0.483,-0.908 1,-0.873c0.517,0.034 0.909,0.483 0.873,0.999c-0.161,3.283 -0.179,6.576 -0.112,9.872c0.1,4.958 0.399,9.916 0.738,14.839l1.496,19.735c0.517,6.002 0.85,12.004 1.043,17.979c0.196,6.03 0.247,12.032 0.243,17.979c-0.004,1.703 0.736,3.215 0.934,4.866c0.114,0.957 0.093,1.944 -0.153,2.992c-0.987,4.134 -3.781,8.636 -7.447,12.223c-3.728,3.646 -8.339,6.315 -12.663,6.932c-10.545,1.427 -19.169,-3.434 -24.199,-11.097c-4.82,-7.343 -6.315,-17.246 -3.024,-26.303c1.351,-3.697 3.661,-6.804 6.646,-8.833c3.015,-2.048 6.699,-3.033 10.757,-2.415c1.366,0.211 2.701,0.571 3.996,1.049c1.268,0.468 2.499,1.04 3.684,1.679c0.659,0.354 1.304,0.716 1.919,1.125c0.428,0.285 0.842,0.589 1.237,0.93c0.051,0.044 0.191,0.131 0.226,0.16c0.94,0.755 0.046,1.673 -0.155,1.77c-0.064,0.031 -0.377,0.256 -0.896,0.027c-0.104,-0.043 -0.197,-0.101 -0.277,-0.17Zm-0.273,-0.363l0.009,0.016l-0.018,-0.037l0.009,0.021Zm-0.033,-0.079l0.014,0.033l-0.026,-0.073l0.012,0.04Zm-0.024,-0.078l0.006,0.02l-0.012,-0.048l0.006,0.028Zm1.204,-1.302c-0.217,-0.047 -0.383,-0.016 -0.494,0.025c0.158,-0.047 0.327,-0.057 0.494,-0.025Zm0.027,0.004l-0.019,-0.003l0.055,0.014l-0.036,-0.011Z" style="fill:#b9c4f7;"/><path d="M34.021,100.126c-0.056,-0.129 -0.143,-0.247 -0.259,-0.342c4.307,-5.42 2.283,-2.405 0.259,0.342c0.104,0.233 0.11,0.503 0.009,0.743l0.049,0.018l-0.026,0.058l0.067,0.029c0.883,0.404 0.396,0.198 -0.073,-0.017l-0.013,0.028l-0.013,0.022l0.127,0.067c0.966,0.523 0.371,0.223 -0.135,-0.053l-0.033,0.053l0,0.001l0.182,0.113c1.056,0.678 0.349,0.257 -0.193,-0.097l-0.006,0.007l-0.008,-0.007l-0.035,-0.028l-0.011,0.015l0.046,0.03l0.008,-0.01c0.272,0.205 0.845,0.605 0.199,0.153c-0.088,-0.062 -0.156,-0.109 -0.207,-0.143l-0.018,0.024l-0.042,-0.036l-0.007,0.009l-0.005,0.006l0.034,0.024l0.012,0.009l0.008,-0.012c0.271,0.225 0.9,0.705 0.22,0.184l-0.228,-0.172l-0.01,0.014l-0.028,0.031l-0.043,-0.04l-0.006,0.007l0.046,0.037l0.003,-0.004l0.126,0.113l0.124,0.106c0.782,0.675 0.265,0.243 -0.124,-0.106l-0.11,-0.094l-0.019,-0.015l-0.038,0.041l-0.002,0.001l-0.012,-0.012l-0.03,-0.032l-0.011,0.01l0.045,0.042l0.008,-0.008l0.175,0.18l0.091,0.088c0.74,0.724 0.282,0.29 -0.091,-0.088l-0.116,-0.112l-0.067,-0.06l-0.037,0.032l-0.037,-0.047l-0.013,0.011l-0.008,0.006l0.043,0.045l0.015,-0.015c0.093,0.117 0.241,0.288 0.369,0.433l-0.098,-0.111c-0.129,-0.143 -0.221,-0.243 -0.286,-0.307l-0.013,0.011l-0.027,0.02l0.043,0.063l0.2,0.27l-0.132,-0.165c-0.034,-0.04 -0.068,-0.081 -0.101,-0.121l-0.031,-0.03l-0.014,0.009c0.099,0.206 0.959,1.438 0.257,0.424c-0.981,-1.417 0.837,1.539 -0.056,0.077c-0.92,-1.506 0.765,1.624 -0.064,0.073c-0.834,-1.56 0.676,1.675 -0.068,0.071c-0.736,-1.588 0.58,1.697 -0.071,0.066c-0.643,-1.613 0.487,1.716 -0.073,0.062c-0.549,-1.623 0.393,1.721 -0.076,0.058c-0.445,-1.58 0.298,1.668 -0.074,0.053c-0.362,-1.571 0.22,1.653 -0.075,0.049c-0.247,-1.351 0.118,1.42 -0.075,0.042c-0.167,-1.194 0.046,1.252 -0.074,0.035c-0.112,-1.133 -0.001,1.186 -0.07,0.033c-0.054,-0.893 -0.029,0.928 -0.056,0.023c-0.038,-1.266 -0.093,1.325 -0.08,0.033c0.021,-1.966 -0.267,2.072 -0.125,0.05c0.114,-1.632 -0.359,1.717 -0.136,0.037c0.193,-1.46 -0.404,1.529 -0.124,0.031c0.256,-1.361 -0.465,1.426 -0.13,0.028c0.292,-1.221 -0.547,1.278 -0.164,0.016c0.136,-0.445 -0.128,0.474 -0.07,0.003c0.017,-0.136 -0.024,-0.051 -0.149,-0.065c-0.439,0.526 -0.599,0.634 -0.199,-0.062l-0.006,-0.002l-0.009,-0.005l-0.173,0.268l0.168,-0.27l-0.047,-0.024l-0.037,-0.026l-0.148,0.212l0.148,-0.212l-0.011,-0.008l-0.03,-0.029l-0.131,0.178c-0.027,0.034 0.02,-0.032 0.048,-0.07l0.081,-0.11l0.002,0.002l0.31,-0.42l0.026,0.009l0.01,0.009l0.248,-0.362l0.157,-0.238l0.05,0.03l0.066,-0.104c0.111,0.067 0.232,0.108 0.355,0.125l0.266,-0.35l0.226,-0.3l-0.01,-0.008c-0.009,-0.013 -0.016,-0.018 0,-0.018l0.023,0.008l0.011,-0.015c-0.038,-0.027 -0.039,-0.035 0.013,-0.018l0.006,-0.009l-0.04,-0.023c-0.009,-0.009 -0.017,-0.012 -0.004,-0.013l0.059,0.017l0.084,-0.111l0.349,-0.471Zm-0.347,-0.344l0.489,-0.742c1.691,-2.551 -0.338,0.631 -0.489,0.742c-0.398,0.607 -0.726,1.113 -0.991,1.53l-0.039,-0.023l-0.017,-0.013l-0.072,0.103l-0.021,-0.013l-0.303,0.391l-0.16,0.208l0.026,-0.001l0.024,0.003l0.033,-0.045l0.275,-0.369l0.098,-0.136l0.028,-0.038l0.005,0.002l0.017,-0.02c0.006,-0.004 -0.004,0.014 -0.008,0.02l-0.002,0.005l-0.007,-0.005l-0.041,0.051l-0.09,0.121l-0.223,0.305l-0.08,0.11l-0.005,-0.001l-0.307,0.419c-0.025,-0.027 -0.041,-0.055 -0.049,-0.084l0.159,-0.193l0.112,-0.138l0.013,-0.003l0.222,-0.286l0.066,-0.083l-0.301,0.372l-0.005,0.001l-0.017,0.005l-0.25,0.316l0.001,0.009l-0.122,0.151c-0.029,0.032 0.05,-0.07 0.075,-0.104l0.046,-0.056c-0.031,-0.137 0.119,-0.274 0.25,-0.316l0.318,-0.399l0.182,-0.226l-0.018,-0.014l-0.041,0.05c-0.382,0.458 -0.173,0.206 0.026,-0.033l0.014,-0.018l0.001,0.001l0.083,-0.098l-0.001,0l-0.059,0.07l-0.024,0.027l0,0l-0.014,0.018l-0.443,0.523c0.151,-0.18 0.301,-0.36 0.452,-0.54l0.002,-0.003c-0.362,-0.264 -0.52,-0.74 -0.37,-1.177c0.661,0.286 1.237,0.496 0.052,-0.156c-0.427,-0.223 -1.013,-0.555 -0.089,-0.05l0.089,0.05c0.305,0.161 0.529,0.265 0.057,-0.035c-0.45,-0.264 -1.177,-0.735 -0.162,-0.102l0.162,0.102c0.145,0.086 0.261,0.15 0.278,0.148c0.263,0.166 0.283,0.128 -0.435,-0.488c-1.239,-1.063 1.178,1.025 0.016,-0.076c-1.162,-1.101 1.107,1.062 0.023,-0.077c-0.852,-0.895 0.829,0.857 0.026,-0.062c-0.854,-0.979 0.833,0.941 0.033,-0.064c-0.839,-1.052 0.818,1.014 0.036,-0.064c-0.802,-1.108 0.786,1.07 0.041,-0.064c-0.772,-1.174 0.757,1.139 0.045,-0.062c-0.722,-1.22 0.713,1.185 0.049,-0.062c-0.669,-1.257 0.663,1.227 0.053,-0.058c-0.612,-1.289 0.609,1.259 0.055,-0.056c-0.616,-1.465 0.609,1.436 0.064,-0.061c-0.54,-1.483 0.537,1.458 0.067,-0.057c-0.464,-1.492 0.464,1.469 0.068,-0.053c-0.388,-1.491 0.392,1.47 0.07,-0.049c-0.31,-1.455 0.317,1.432 0.068,-0.047c-0.241,-1.43 0.25,1.412 0.069,-0.043c-0.141,-1.13 0.165,1.115 0.069,-0.034c-0.089,-1.077 0.117,1.061 0.066,-0.032c-0.071,-1.55 0.089,1.541 0.097,-0.042c0.008,-1.451 0.015,1.441 0.092,-0.037c0.105,-2.024 -0.115,2.026 0.13,-0.049c0.169,-1.435 -0.142,1.434 0.118,-0.032c0.228,-1.284 -0.189,1.281 0.109,-0.028c0.266,-1.167 -0.23,1.161 0.1,-0.024c0.313,-1.12 -0.264,1.124 0.132,-0.017c0.293,-0.844 -0.238,0.845 0.115,-0.01c0.247,-0.598 -0.207,0.589 0.117,0.003l0.02,-0.046c0.011,0.023 0.036,0.05 0.087,0.076c0.026,0.012 0.048,0.019 0.065,0.019l-0.012,0.024c-0.476,1.176 0.671,-1.016 0.061,0.153c-0.827,1.583 0.932,-1.41 0.005,0.166c-0.469,0.8 -0.6,1.055 -0.554,1.02Zm-1.14,1.584l0.078,-0.101l-0.005,-0.004l-0.079,0.101l-0.002,-0.001l-0.006,0.009l-0.013,0.017l-0.121,0.151l-0.037,0.045l-0.045,0.06l-0.254,0.325l-0.001,0l-0.132,0.171l0.133,-0.171l0.015,-0.003l0.005,0l0.183,-0.24l0.254,-0.338l0.021,-0.025l0.002,0.002l0.004,0.002Zm-0.338,0.694c0.213,-0.347 0.352,-0.59 -0.017,-0.055c0.01,0.014 0.016,0.032 0.017,0.055Zm0.049,-0.182c0.007,-0.018 -0.008,0.006 -0.018,0.019l-0.064,0.089l0.008,0.007l0.074,-0.115Zm0.281,-0.517l-0.003,-0.003l-0.155,0.201l0.124,-0.158l0.034,-0.04Zm-0.404,-1.203c-0.774,-0.335 -1.664,-0.774 0.02,-0.058l-0.02,0.058Zm1.59,1.11c-0.196,0.144 -0.439,0.201 -0.674,0.169l-0.07,0.091c0.266,0.038 0.532,-0.03 0.745,-0.181l-0.006,-0.012c-0.003,-0.011 -0.008,-0.018 0.003,-0.014l0.017,0.017l0.021,-0.017l-0.032,-0.046l-0.004,-0.007Zm-1.203,-1.153c-0.538,-0.336 -2.092,-1.518 -0.446,-0.347c0.354,0.253 0.467,0.345 0.446,0.347Zm1.482,1.539l0.03,0.039c0.61,0.78 0.276,0.368 -0.03,-0.039Z" style="fill:#b9c4f7;"/><path d="M29.239,103.127c-0.003,-0.062 -0.009,-0.134 -0.003,-0.194c0.166,-1.679 0.057,-6.069 0.035,-6.352l-1.167,-14.745c-0.158,-2.698 -0.354,-5.398 -0.483,-8.107c-0.085,-1.799 -0.149,-3.601 -0.193,-5.404c-0.105,-4.204 -0.161,-8.407 -0.242,-12.611c-0.123,-6.331 -0.233,-12.631 -0.563,-18.915c-0.052,-0.516 0.324,-0.976 0.839,-1.029c0.515,-0.052 0.976,0.323 1.028,0.839c1.112,7.449 2.069,14.941 2.757,22.49c0.341,3.758 0.654,7.518 0.835,11.284c0.18,3.768 0.191,7.537 0.277,11.293c-0.002,2.47 0.022,4.936 0.003,7.409c-0.019,2.484 -0.079,4.957 -0.155,7.438c-0.012,0.303 -0.434,4.986 -0.82,6.749c-0.135,0.622 -0.327,1.02 -0.448,1.146c-0.5,0.515 -0.991,0.556 -1.457,0.188c-0.448,-0.312 -0.577,-0.91 -0.312,-1.374c0.003,-0.014 0.013,-0.03 0.028,-0.045l0.023,-0.037l0.018,-0.023Zm-0.022,0.039l-0.019,0.021l-0.028,0.045c-0.004,0.016 0.004,0.03 0.031,0.038c0.04,0.011 0.042,-0.047 0.039,-0.125l-0.023,0.021Zm1.245,-0.39c-0.33,-0.151 -0.659,-0.167 -0.954,0.097c0.28,-0.184 0.638,-0.224 0.954,-0.097Z" style="fill:#b9c4f7;"/><path d="M125.109,75.863c0.174,0.036 0.34,0.117 0.481,0.244c0.429,0.385 0.463,1.047 0.078,1.476c-0.098,0.119 -0.651,0.519 -1.439,0.195c-0.528,-0.218 -1.8,-0.924 -1.889,-0.963c-0.959,-0.408 -1.966,-0.698 -2.992,-0.905c-1.033,-0.208 -2.085,-0.314 -3.133,-0.352c-3.167,-0.129 -6.327,0.601 -9.047,2.077c-2.612,1.418 -4.785,3.577 -6.087,6.428c-3.486,7.297 -2.181,13.232 1.55,17.513c2.699,3.097 6.579,5.374 10.889,6.659c10.755,3.206 24.035,0.417 27.506,-11.492c0.129,-0.501 0.642,-0.803 1.144,-0.674c0.501,0.129 0.802,0.642 0.674,1.144c-3.098,13.753 -18.009,18.013 -30.396,14.965c-5.226,-1.286 -9.991,-3.912 -13.261,-7.581c-2.166,-2.431 -3.684,-5.338 -4.287,-8.614c-0.742,-4.029 -0.105,-8.657 2.502,-13.729c1.864,-3.533 4.753,-6.166 8.19,-7.759c3.318,-1.538 7.109,-2.146 10.834,-1.737c1.185,0.137 2.369,0.353 3.523,0.682c1.164,0.332 2.297,0.76 3.365,1.318c0.059,0.031 0.789,0.805 1.311,1.095c0.321,-0.181 0.646,-0.307 0.486,0.008l-0.002,0.002c-0.151,-0.033 -0.307,-0.031 -0.458,0.005l-0.026,-0.015l-0.078,0.044l0.09,-0.027l0.014,-0.002c0.21,0.111 0.383,0.138 0.458,-0.005Z" style="fill:#b9c4f7;"/><path d="M44.888,38.756c-0.13,-0.036 -0.254,-0.097 -0.367,-0.185c-0.486,-0.358 -0.523,-0.735 -0.54,-0.85c-0.057,-0.405 0.111,-0.703 0.385,-0.94c0.115,-0.1 0.467,-0.326 1.041,-0.2c0.426,0.094 1.954,0.76 2.623,0.753c1.512,-0.016 3.02,0.063 4.53,0.051c0.615,-0.005 1.228,-0.028 1.843,-0.078c1.887,-0.152 3.771,-0.376 5.656,-0.633c4.449,-0.605 8.887,-1.41 13.313,-2.017c6.071,-0.79 12.177,-1.855 18.26,-3.043c6.082,-1.189 12.139,-2.504 18.066,-4.021c2.063,-0.493 6.615,-2.454 10.354,-3.322c2.415,-0.562 4.567,-0.628 5.903,-0.077c0.341,0.14 0.685,0.356 0.972,0.72c0.284,0.359 0.648,1.14 0.727,2.303c0.208,3.086 -0.824,10.841 -0.903,12.033c-0.659,9.304 -0.521,18.781 -0.875,28.168c-0.153,4.078 -0.403,8.133 -0.836,12.152c-0.042,0.516 -0.495,0.901 -1.011,0.859c-0.517,-0.041 -0.902,-0.495 -0.86,-1.012c0.22,-3.987 0.246,-8 0.199,-12.032c-0.108,-9.439 -0.651,-18.947 -0.42,-28.317c0.032,-1.08 0.708,-7.812 0.526,-11.008c-0.67,0.038 -1.488,0.257 -2.375,0.486c-3.717,0.955 -8.237,2.978 -10.29,3.509c-6.038,1.462 -12.192,2.793 -18.394,3.844c-6.204,1.053 -12.45,1.829 -18.636,2.402c-4.451,0.382 -8.924,0.967 -13.397,1.337c-1.948,0.161 -3.894,0.282 -5.84,0.331c-0.68,0.016 -1.359,0.002 -2.037,-0.033c-1.507,-0.076 -3.007,-0.244 -4.517,-0.316c-0.517,-0.025 -1.608,-0.646 -2.349,-0.941c-0.189,0.096 -0.401,0.133 -0.609,0.104c-0.068,0.018 -0.121,0.013 -0.142,-0.027c0.048,0.013 0.094,0.022 0.142,0.027c0.109,-0.026 0.258,-0.105 0.389,-0.187c-0.287,-0.095 -0.488,-0.109 -0.529,0.033c-0.017,0.06 -0.016,0.101 -0.002,0.127Z" style="fill:#b9c4f7;"/><path d="M143.11,97.634c1.231,-3.974 1.679,-8.584 1.735,-13.349c0.081,-6.786 -0.643,-13.853 -0.661,-19.696c-0.093,-3.827 -0.104,-7.656 -0.212,-11.483c-0.163,-5.75 -0.417,-11.495 -0.688,-17.243c-0.453,-9.605 -1.083,-19.182 -1.865,-28.76c-0.024,-0.517 -0.463,-0.918 -0.981,-0.894c-0.517,0.024 -0.918,0.463 -0.894,0.981c0.079,8.052 -0.046,16.091 -0.128,24.148c-0.053,5.372 -0.107,10.741 -0.096,16.113c0.004,2.305 0.022,4.609 0.077,6.913c0.082,3.459 0.248,6.915 0.4,10.371c0.21,3.52 0.659,7.47 1.103,11.539c0.411,3.754 0.811,7.601 0.897,11.308c0.077,3.363 -0.069,6.595 -0.709,9.518c-0.147,0.557 0.187,1.13 0.745,1.278c0.557,0.147 1.129,-0.186 1.277,-0.744Z" style="fill:#b9c4f7;"/><path d="M27.051,33.695c0.347,-0.382 0.317,-1.058 0.338,-1.791c0.043,-1.468 -0.107,-3.177 0.132,-4.546c0.161,-0.928 0.517,-1.714 1.062,-2.312c1.024,-1.12 2.829,-2.014 4.969,-2.71c3.863,-1.26 8.895,-1.898 11.356,-2.616c5.9,-1.67 11.797,-3.336 17.73,-4.873c5.932,-1.538 11.885,-3 17.863,-4.351c4.783,-1.081 9.586,-2.065 14.394,-3.026c7.211,-1.442 14.442,-2.76 21.685,-4.051c1.774,-0.307 13.045,-3.483 18.969,-3.418c3.246,0.037 5.021,1.219 4.526,3.252c-0.108,0.507 -0.606,0.83 -1.113,0.723c-0.507,-0.108 -0.831,-0.607 -0.723,-1.113c0.054,-0.296 -0.154,-0.432 -0.435,-0.53c-0.453,-0.158 -1.06,-0.198 -1.775,-0.188c-0.8,0.01 -1.716,0.107 -2.706,0.255c-6.023,0.893 -14.597,3.803 -16.114,4.15l-71.369,16.727c-2.485,0.578 -7.52,0.934 -11.43,1.968c-1.621,0.429 -3.045,0.923 -3.855,1.712c-0.426,0.412 -0.534,1.101 -0.616,1.847c-0.162,1.496 -0.094,3.196 -0.382,4.47c-0.219,0.974 -0.618,1.751 -1.274,2.224c-0.069,0.048 -0.885,0.41 -1.223,0.532c-0.907,0.333 -1.46,-0.514 -1.469,-0.538c-0.218,-0.535 0.04,-1.145 0.575,-1.362l0.054,-0.019l-0.001,0c0,0 0.031,-0.016 0.056,-0.027c0.193,-0.085 0.888,-0.19 0.795,-0.373c-0.005,-0.011 -0.012,-0.016 -0.019,-0.016c-0.027,0.031 -0.056,0.059 -0.088,0.086c0.009,-0.008 0.055,-0.09 0.088,-0.086Z" style="fill:#b9c4f7;"/></g></svg>