<?xml version="1.0" encoding="UTF-8" standalone="no"?><!DOCTYPE svg PUBLIC "-//W3C//DTD SVG 1.1//EN" "http://www.w3.org/Graphics/SVG/1.1/DTD/svg11.dtd"><svg width="100%" height="100%" viewBox="0 0 225 204" version="1.1" xmlns="http://www.w3.org/2000/svg" xmlns:xlink="http://www.w3.org/1999/xlink" xml:space="preserve" xmlns:serif="http://www.serif.com/" style="fill-rule:evenodd;clip-rule:evenodd;stroke-linejoin:round;stroke-miterlimit:2;"><g><path d="M67.941,4.244c-0.106,-0.04 -0.202,-0.105 -0.282,-0.195c-0.264,-0.298 -0.237,-0.756 0.062,-1.021c0.098,-0.089 0.561,-0.327 1.077,0.039c0.402,0.284 1.325,1.149 1.389,1.208l10.596,9.308c5.046,4.488 10.075,8.998 15.13,13.479c3.365,2.984 6.74,5.956 10.145,8.895c2.451,2.122 5.555,4.205 8.195,6.524c1.228,1.079 2.356,2.211 3.295,3.409c0.125,0.161 0.601,0.845 0.037,1.739c-0.089,0.142 -0.305,0.425 -0.615,0.8c-1.439,1.743 -5.238,5.965 -5.497,6.251c-1.485,1.627 -8.565,9.491 -14,15.239c-3.204,3.388 -5.895,6.04 -6.624,6.484c-0.42,0.255 -1.272,0.423 -2.337,-0.075c-1.93,-0.903 -6.06,-4.432 -6.642,-4.851c-2.911,-2.109 -5.783,-4.269 -8.627,-6.465c-4.254,-3.285 -8.449,-6.646 -12.65,-10.001c-2.343,-1.878 -9.815,-6.488 -15.155,-10.583c-3.007,-2.306 -5.335,-4.511 -5.972,-6.008c-0.535,-1.257 -0.428,-2.839 0.131,-4.499c0.993,-2.949 3.359,-6.213 4.371,-7.897c2.752,-4.582 5.994,-9.153 9.627,-13.384c3.632,-4.229 7.649,-8.12 11.943,-11.354c0.283,-0.219 0.692,-0.166 0.91,0.117c0.219,0.284 0.166,0.692 -0.117,0.911c-4.136,3.269 -7.982,7.179 -11.448,11.406c-3.47,4.231 -6.555,8.781 -9.157,13.335c-0.806,1.411 -2.573,3.965 -3.61,6.466c-0.61,1.469 -1.022,2.902 -0.54,3.976c0.574,1.278 2.715,3.031 5.34,4.967c5.436,4.012 13.012,8.516 15.398,10.361c4.235,3.285 8.47,6.572 12.753,9.793c2.848,2.141 5.716,4.256 8.625,6.314c0.522,0.372 4.078,3.437 5.945,4.408c0.993,-0.862 3.067,-3.028 5.529,-5.611c5.446,-5.712 12.596,-13.477 14.092,-15.089c0.248,-0.265 3.754,-4.05 5.309,-5.852c-0.661,-0.763 -1.403,-1.496 -2.188,-2.209c-2.595,-2.356 -5.65,-4.494 -8.056,-6.655c-3.35,-3.018 -6.672,-6.065 -9.98,-9.131c-4.954,-4.594 -9.874,-9.225 -14.815,-13.831l-10.358,-9.589c-0.042,-0.039 -0.524,-0.799 -0.889,-1.083l-0.036,0.002l-0.011,-0.001c-0.053,0.003 -0.106,-0.001 -0.158,-0.009c-0.057,0.001 -0.168,0.011 -0.135,-0.038l0.012,0.005c0.023,0.007 0.045,0.014 0.067,0.02l0.056,0.013l0.028,-0.002c0.046,0.008 0.089,0.012 0.13,0.011l0.045,-0.003l0.002,0.002c0.137,-0.011 0.246,-0.064 0.334,-0.128c-0.102,0.072 -0.218,0.114 -0.336,0.126c-0.14,-0.109 -0.262,-0.147 -0.336,-0.048l-0.002,0.004Zm0.685,-0.09c0.019,-0.013 0.037,-0.029 0.055,-0.043l-0.055,0.043Z" style="fill:#b9c4f7;"/><path d="M58.023,9.11c0.096,0.073 0.224,0.159 0.327,0.253c1.441,1.322 5.171,4.349 6.331,5.19c2.11,1.546 4.217,3.087 6.304,4.663c2.089,1.577 4.151,3.184 6.209,4.803c2.38,1.937 5.361,4.215 8.538,6.772c4.036,3.252 8.419,6.907 12.625,10.467c5.241,4.435 10.142,8.779 13.643,12.149c0.266,0.24 0.287,0.65 0.048,0.917c-0.241,0.266 -0.651,0.287 -0.918,0.047c-4.342,-3.673 -10.761,-8.473 -17.229,-13.371c-3.987,-3.018 -8.009,-6.043 -11.572,-8.854c-2.664,-2.103 -5.048,-4.113 -7.055,-5.801l-11.912,-10.11c-1.122,-0.948 -4.71,-4.327 -6.081,-5.792c-0.405,-0.433 -0.642,-0.755 -0.686,-0.869c-0.187,-0.489 0.038,-0.774 0.245,-0.911c0.115,-0.074 0.358,-0.237 0.729,-0.081c0.165,0.061 0.295,0.177 0.375,0.32c0.035,0 0.048,0.049 0.052,0.113c0.011,0.031 0.021,0.062 0.027,0.095Zm-0.026,-0.072l-0.001,-0.023l-0.022,-0.056l-0.03,-0.057c-0.013,0 -0.029,0.007 -0.048,0.023c-0.045,0.036 0.009,0.093 0.1,0.164l0.001,-0.051Z" style="fill:#b9c4f7;"/><path d="M150.506,104.514c-1.15,-2.055 -2.542,-3.936 -4.072,-5.708c-2.642,-3.06 -5.686,-5.798 -8.652,-8.499c-4.106,-3.749 -8.223,-7.484 -12.364,-11.193c-2.76,-2.472 -5.527,-4.935 -8.317,-7.373c-0.332,-0.289 -1.205,-0.488 -1.791,-0.857c-0.452,-0.286 -0.781,-0.645 -0.904,-1.074c-0.116,-0.382 0.099,-0.786 0.481,-0.903c0.382,-0.116 0.786,0.099 0.903,0.481c0.057,0.178 0.286,0.243 0.498,0.344c0.666,0.317 1.464,0.55 1.809,0.833c3.588,2.943 7.149,5.917 10.688,8.92c3.537,3 7.05,6.028 10.56,9.06c3.111,2.694 6.304,5.423 9.084,8.498c1.902,2.103 3.607,4.369 4.983,6.881c0.241,0.451 0.22,0.998 -0.055,1.429c-0.929,1.49 -2.036,2.964 -3.231,4.388c-1.749,2.083 -3.692,4.058 -5.533,5.825l-9.325,8.571l-3.479,3.264c-0.325,0.31 -1.38,1.531 -2.273,1.859c-0.635,0.235 -1.25,0.205 -1.802,-0.063c-0.534,-0.252 -1.032,-0.569 -1.508,-0.919c-0.943,-0.698 -1.79,-1.546 -2.691,-2.295l-3.686,-3.302l-17.102,-14.728c-2.857,-2.409 -6.145,-4.636 -9.026,-7.235c-2.007,-1.81 -3.821,-3.794 -5.19,-6.117c-0.226,-0.384 -0.302,-0.893 -0.154,-1.444c0.166,-0.613 0.627,-1.318 0.835,-1.581l4.4,-5.368c1.099,-1.479 2.183,-2.968 3.258,-4.463c2.515,-3.5 4.983,-7.034 7.486,-10.542c0.824,-1.151 2.028,-3.398 3.609,-4.632c0.811,-0.633 1.714,-1.021 2.705,-0.977c0.325,0.015 0.743,0.179 1.162,0.462c0.634,0.43 1.322,1.116 1.638,1.386c0.276,0.228 0.315,0.638 0.087,0.914c-0.227,0.276 -0.638,0.316 -0.914,0.087c-0.266,-0.213 -0.803,-0.721 -1.341,-1.105c-0.252,-0.18 -0.485,-0.357 -0.674,-0.36c-0.883,-0.014 -1.622,0.531 -2.275,1.223c-1.162,1.231 -2.028,2.971 -2.669,3.924c-2.412,3.574 -4.787,7.174 -7.211,10.74c-1.041,1.533 -2.091,3.059 -3.158,4.575c-0.412,0.584 -0.842,1.155 -1.282,1.719c-0.997,1.277 -2.043,2.518 -3.018,3.812c-0.073,0.096 -0.255,0.47 -0.346,0.662c1.274,1.981 2.917,3.664 4.707,5.208c2.919,2.518 6.231,4.662 9.118,6.994c2.347,1.9 4.679,3.818 6.997,5.751c3.474,2.894 6.921,5.819 10.38,8.73l3.682,3.227c0.746,0.617 1.454,1.306 2.214,1.91c0.346,0.277 0.705,0.534 1.091,0.745c0.298,-0.32 0.626,-0.981 0.744,-1.092l3.541,-3.309l9.376,-8.446c1.794,-1.671 3.687,-3.539 5.399,-5.512c0.94,-1.083 1.827,-2.195 2.608,-3.325Zm-21.694,21.709c-0.239,-0.073 -0.498,-0.12 -0.402,0.04c0.102,0.175 0.248,0.116 0.402,-0.04Z" style="fill:#b9c4f7;"/><path d="M105.451,73.083c1.8,2.178 5.517,5.865 9.733,9.741c2.495,2.293 5.153,4.654 7.664,6.817c1.364,1.174 2.69,2.282 3.914,3.294c1.504,1.243 2.866,2.326 3.945,3.226c0.941,0.764 6.992,6.368 11.727,10.244c2.732,2.236 5.085,3.864 5.856,3.93c0.355,0.046 0.681,-0.206 0.727,-0.562c0.046,-0.355 -0.206,-0.681 -0.561,-0.727c-0.189,-0.032 -0.469,-0.254 -0.864,-0.549c-0.975,-0.727 -2.361,-2.002 -3.918,-3.492c-4.438,-4.243 -10.139,-10.241 -11.029,-11.07c-1.35,-1.217 -3.115,-2.802 -5.145,-4.527c-1.059,-0.899 -2.194,-1.832 -3.364,-2.787c-1.655,-1.349 -3.382,-2.74 -5.099,-4.106c-5.207,-4.14 -10.253,-8.102 -12.513,-10.401c-0.266,-0.297 -0.725,-0.32 -1.021,-0.052c-0.296,0.267 -0.32,0.725 -0.052,1.021Z" style="fill:#b9c4f7;"/><path d="M61.359,56.63c0.086,-0.23 0.288,-0.409 0.547,-0.456c0.354,-0.077 0.562,0.018 0.654,0.063c0.263,0.129 0.362,0.348 0.396,0.584c0.02,0.142 -0.004,0.409 -0.266,0.683c-0.285,0.3 -1.729,1.152 -2.212,1.631c-0.558,0.554 -1.093,1.13 -1.619,1.717c-0.798,0.891 -1.566,1.806 -2.331,2.722c-1.109,1.321 -2.19,2.659 -3.266,4.004c-2.521,3.149 -4.978,6.34 -7.447,9.536c-1.198,1.518 -2.402,3.028 -3.642,4.507c-1.244,1.485 -2.525,2.937 -3.829,4.373c-5.591,5.902 -9.498,8.699 -13.347,10.211c-3.048,1.198 -6.054,1.595 -9.846,2.088c-3.712,0.482 -8.201,1.056 -14.316,2.682c-0.343,0.103 -0.705,-0.093 -0.808,-0.436c-0.102,-0.344 0.093,-0.706 0.437,-0.809c6.098,-2.021 10.61,-2.895 14.346,-3.593c3.536,-0.661 6.34,-1.157 9.157,-2.405c2.366,-1.05 4.72,-2.656 7.574,-5.324c1.359,-1.27 2.833,-2.769 4.454,-4.57c1.294,-1.395 2.55,-2.819 3.798,-4.251c1.251,-1.436 2.495,-2.879 3.719,-4.343c2.252,-2.646 4.479,-5.302 6.774,-7.905c1.536,-1.741 3.101,-3.453 4.703,-5.14c0.838,-0.879 1.678,-1.762 2.551,-2.612c0.589,-0.574 1.189,-1.133 1.811,-1.67c0.381,-0.328 1.471,-0.975 2.008,-1.287Z" style="fill:#b9c4f7;"/><path d="M30.23,104.062c0.007,-1.174 0.031,-2.343 0.227,-3.439c0.231,-1.293 0.672,-2.498 1.458,-3.552c3.059,-4.059 6.317,-7.96 9.703,-11.755c7.829,-8.773 16.23,-17.062 23.541,-26.242c0.243,-0.316 0.697,-0.377 1.014,-0.135c0.318,0.243 0.378,0.697 0.135,1.015c-4.777,6.521 -10.046,12.672 -15.348,18.805c-3.511,4.059 -7.028,8.108 -10.407,12.267c-2.101,2.588 -4.158,5.209 -6.111,7.909c-0.484,0.663 -0.723,1.429 -0.863,2.237c-0.401,2.316 -0.044,4.955 -0.39,7.283c-0.162,1.049 -0.298,2.097 -0.416,3.144c-0.12,1.053 -0.222,2.109 -0.309,3.174l-0.342,3.872c-0.106,1.554 -0.684,2.689 -1.341,3.35c-0.66,0.667 -1.429,0.941 -2.118,0.901c-1.09,-0.07 -2.448,-0.927 -2.523,-3.37c-0.036,-1.298 0.036,-2.59 0.173,-3.88c0.304,-2.858 0.918,-5.697 1.198,-8.549c0.112,-1.13 0.494,-2.184 0.303,-3.071c-0.079,-0.363 -0.324,-0.656 -0.819,-0.907c-1.842,-0.938 -3.98,-1.236 -6.184,-1.206c-3.444,0.046 -7.04,0.875 -10.027,1.506c-1.571,0.331 -3.657,0.969 -5.549,0.951c-1.462,-0.014 -2.818,-0.395 -3.814,-1.479c-0.247,-0.258 -0.239,-0.67 0.02,-0.917c0.259,-0.248 0.67,-0.24 0.918,0.019c0.765,0.766 1.786,0.961 2.861,0.927c1.784,-0.056 3.72,-0.756 5.189,-1.126c3.07,-0.772 6.768,-1.758 10.336,-1.939c2.57,-0.13 5.071,0.171 7.261,1.188c1.331,0.621 1.891,1.485 2.131,2.44c0.047,0.186 0.076,0.38 0.093,0.579Zm-1.238,15.066c0.066,-0.203 0.116,-0.428 0.127,-0.652l0.26,-3.933c0.074,-1.101 0.16,-2.187 0.27,-3.277c0.11,-1.096 0.243,-2.184 0.4,-3.279c0.139,-0.933 0.167,-1.916 0.175,-2.91c-0.05,0.701 -0.169,1.452 -0.22,2.226c-0.193,2.859 -0.721,5.723 -0.941,8.592c-0.083,1.079 -0.119,2.158 -0.071,3.233Zm0.063,0.929c0.022,0.08 0.057,0.12 0.114,0.085c0.013,-0.006 -0.017,-0.023 -0.027,-0.032c-0.024,-0.024 -0.054,-0.042 -0.087,-0.053Z" style="fill:#b9c4f7;"/><path d="M73.11,141.009c0.404,-0.412 0.972,-0.986 1.15,-1.166c0.582,-0.6 1.152,-1.209 1.705,-1.841c0.543,-0.619 1.064,-1.255 1.552,-1.909c1.551,-2.037 3.162,-3.974 4.888,-5.811c1.713,-1.819 3.538,-3.538 5.416,-5.258c1.861,-1.652 3.749,-3.279 5.699,-4.834c1.953,-1.556 3.957,-3.037 6.012,-4.454l4.241,-2.866c0.084,-0.056 1.871,-1.118 2.411,-1.232c0.46,-0.098 0.745,0.088 0.868,0.246c0.124,0.161 0.339,0.486 0.047,0.954c-0.195,0.344 -0.631,0.467 -0.976,0.277c-0.521,0.308 -1.333,1.079 -1.378,1.114l-3.975,3.173c-1.911,1.528 -3.754,3.133 -5.57,4.769c-1.815,1.637 -3.597,3.313 -5.336,5.036c-1.784,1.718 -3.476,3.469 -5.137,5.252c-1.652,1.777 -3.271,3.572 -4.797,5.506c-0.566,0.7 -1.165,1.375 -1.791,2.033c-0.614,0.638 -1.25,1.259 -1.896,1.865c-0.229,0.217 -1.066,0.974 -1.465,1.337c-0.119,0.154 -0.295,0.307 -0.554,0.442c-0.485,0.254 -0.859,0.128 -1.033,0.071c-0.039,-0.012 -0.077,-0.024 -0.112,-0.043c-0.369,0.016 -0.892,0.04 -1.107,0.047c-0.647,0.008 -1.291,0.038 -1.935,0.096c-0.995,0.082 -1.985,0.208 -2.976,0.34c-1.852,0.24 -3.679,0.574 -5.496,0.965c-2.758,0.594 -5.483,1.311 -8.214,2.042c-0.342,0.104 -0.706,-0.084 -0.811,-0.428c-0.106,-0.344 0.087,-0.706 0.43,-0.816c2.697,-0.932 5.389,-1.865 8.126,-2.658c1.843,-0.529 3.703,-1 5.593,-1.375c1.017,-0.199 2.035,-0.391 3.061,-0.541c0.703,-0.106 1.409,-0.184 2.119,-0.233c0.282,-0.019 0.791,-0.066 1.241,-0.1Zm33.123,-27.954c0.185,0.12 0.373,0.199 0.315,0.006c-0.031,-0.102 -0.151,-0.087 -0.315,-0.006Z" style="fill:#b9c4f7;"/><path d="M177.483,83.797c-0.256,0.145 -0.586,0.122 -0.823,-0.08c-0.304,-0.258 -0.34,-0.715 -0.082,-1.019c0.291,-0.356 0.647,-0.422 1.042,-0.323c0.347,0.087 0.809,0.596 1.185,0.742c1.47,0.57 2.981,1.04 4.51,1.465c2.321,0.643 4.68,1.176 6.995,1.756c3.205,0.811 7.514,1.469 11.332,2.795c2.806,0.974 5.338,2.326 7.096,4.252c2.097,2.31 3.87,5.109 5.438,8.088c2.243,4.264 4.064,8.899 5.945,12.886c0.461,0.997 3.05,6.431 4.024,8.696c0.216,0.502 0.359,0.875 0.412,1.053c0.543,1.814 -1.323,2.175 -1.698,2.124c-0.981,-0.133 -1.97,-0.413 -2.936,-0.787c-1.334,-0.517 -2.627,-1.207 -3.798,-1.86c-0.745,-0.417 -1.472,-0.86 -2.187,-1.324c-0.702,-0.456 -1.393,-0.93 -2.079,-1.415c-1.207,-0.854 -2.394,-1.739 -3.558,-2.653c-1.161,-0.913 -2.3,-1.855 -3.418,-2.819c-1.685,-1.454 -3.343,-2.946 -4.98,-4.465c-2.443,-2.267 -4.839,-4.587 -7.222,-6.902c-2.459,-2.396 -4.802,-4.833 -7.079,-7.309c-3.439,-3.742 -6.721,-7.565 -10.022,-11.442c-0.238,-0.269 -0.212,-0.679 0.057,-0.917c0.268,-0.237 0.679,-0.212 0.917,0.056c3.427,3.737 6.839,7.418 10.398,11.017c2.338,2.366 4.739,4.694 7.253,6.976c2.442,2.225 4.901,4.453 7.397,6.635c1.658,1.449 3.331,2.877 5.032,4.264c1.112,0.907 2.245,1.79 3.396,2.649c1.148,0.857 2.315,1.689 3.502,2.489c0.663,0.448 1.331,0.887 2.011,1.308c0.667,0.414 1.345,0.81 2.04,1.179c0.851,0.454 1.771,0.93 2.723,1.331c-1.158,-2.521 -2.714,-5.805 -3.061,-6.555c-1.802,-3.983 -3.553,-8.598 -5.688,-12.872c-1.396,-2.796 -2.949,-5.451 -4.839,-7.646c-1.435,-1.677 -3.574,-2.834 -5.919,-3.74c-3.701,-1.431 -7.905,-2.233 -11.02,-3.144c-2.303,-0.679 -4.653,-1.311 -6.959,-2.056c-1.561,-0.504 -3.1,-1.058 -4.593,-1.711c-0.216,-0.095 -0.514,-0.539 -0.744,-0.722Zm-0.014,-0.012c-0.104,-0.079 -0.193,-0.099 -0.251,-0.001c-0.071,0.121 0.093,0.084 0.251,0.001Zm43.943,40.858c-0.068,0.226 -0.096,0.458 0.129,0.388c0.081,-0.025 -0.013,-0.183 -0.129,-0.388Z" style="fill:#b9c4f7;"/><path d="M95.657,178.892c0.868,-0.17 2.951,-1.209 3.099,-1.267c0.952,-0.391 1.924,-0.723 2.909,-1.025c1.455,-0.438 2.938,-0.809 4.411,-1.168c1.855,-0.457 7.739,-0.866 12.153,-1.478c1.354,-0.184 2.563,-0.387 3.455,-0.623c0.452,-0.118 0.8,-0.206 0.966,-0.354c1.141,-0.985 2.233,-2.032 3.303,-3.118c4.338,-4.391 8.262,-9.377 12.876,-13.493c3.511,-3.099 7.1,-6.103 10.759,-9.013c4.251,-3.383 8.576,-6.672 12.865,-10.007c4.268,-3.318 8.519,-6.651 12.625,-10.18c3.092,-2.628 8.738,-7.32 13.131,-12.215c3.042,-3.387 5.511,-6.843 5.954,-9.787c0.051,-0.396 0.414,-0.676 0.81,-0.625c0.396,0.051 0.677,0.414 0.626,0.81c-0.344,3.2 -2.764,7.095 -5.905,10.883c-4.267,5.147 -9.842,10.112 -12.887,12.895c-3.471,3.145 -7.032,6.174 -10.659,9.131c-4.213,3.43 -8.489,6.788 -12.759,10.147c-4.247,3.348 -8.5,6.682 -12.607,10.202c-4.672,3.955 -8.667,8.805 -13.084,13.024c-1.148,1.097 -2.325,2.154 -3.545,3.143c-0.533,0.431 -1.974,0.864 -3.904,1.128c-4.419,0.605 -11.686,0.786 -13.79,1.218c-1.457,0.304 -2.923,0.615 -4.365,0.991c-0.951,0.25 -1.893,0.53 -2.816,0.868c-0.165,0.056 -2.523,1.088 -3.447,1.215c-0.708,0.099 -1.041,-0.289 -1.093,-0.598c-0.07,-0.347 0.16,-0.69 0.512,-0.757c0.144,-0.03 0.286,-0.012 0.407,0.053Zm-0.028,0.003c-0.038,-0.019 -0.069,-0.03 -0.068,0.012c0.001,0.022 0.041,-0.008 0.066,-0.012l0.002,0Z" style="fill:#b9c4f7;"/><path d="M109.83,113.45c0.038,-0.084 0.093,-0.161 0.164,-0.228c0.291,-0.273 0.75,-0.258 1.022,0.034c0.127,0.128 0.339,0.456 0.083,0.926c-0.066,0.122 -0.252,0.358 -0.529,0.666c-1.135,1.26 -4.069,4.092 -4.866,4.852c-2.467,2.347 -4.885,4.75 -7.286,7.175c-3.606,3.649 -7.161,7.347 -10.704,11.031c-1.308,1.344 -2.612,2.694 -3.907,4.06c-1.288,1.353 -2.565,2.714 -3.815,4.107c-0.447,0.491 -3.047,1.865 -2.25,2.277c0.007,0.001 0.013,0.001 0.017,0.002l0.019,-0.152c-0.004,0.041 0.009,0.135 -0.019,0.152c-0.223,1.75 -0.521,3.519 -0.877,5.294c-0.538,2.666 -1.202,5.337 -1.849,7.954c-0.26,1.021 -0.753,2.765 -1.639,3.839c-0.598,0.724 -1.35,1.204 -2.249,1.313c-0.951,0.11 -1.827,-0.355 -2.259,-1.571c-0.466,-1.297 -0.331,-3.987 -0.289,-4.446c0.133,-1.431 0.359,-2.844 0.648,-4.248c0.423,-2.055 0.975,-4.093 1.532,-6.11c0.097,-0.353 0.294,-0.904 0.441,-1.483c0.076,-0.3 0.146,-0.614 0.156,-0.901c0.002,-0.084 -0.008,-0.219 -0.013,-0.262c-0.094,-0.068 -0.22,-0.078 -0.353,-0.081c-0.327,-0.014 -0.688,0.038 -1.05,0.125c-0.993,0.231 -1.991,0.644 -2.588,0.813c-2.263,0.636 -4.499,1.15 -6.762,1.477c-2.274,0.318 -4.572,0.458 -6.944,0.335c-0.72,-0.037 -2.15,-0.031 -3.216,-0.344c-0.681,-0.201 -1.231,-0.539 -1.532,-0.999c-0.61,-0.93 -0.368,-1.883 0.469,-2.696c1.221,-1.179 3.791,-1.973 4.736,-1.767c0.351,0.074 0.581,0.413 0.513,0.763c-0.069,0.356 -0.41,0.58 -0.762,0.513c-0.52,-0.088 -1.648,0.322 -2.566,0.879c-0.412,0.249 -0.777,0.533 -1.01,0.847c-0.138,0.186 -0.216,0.38 -0.078,0.574c0.185,0.256 0.595,0.315 1.021,0.384c0.891,0.143 1.922,0.086 2.479,0.095c2.253,0.023 4.423,-0.189 6.566,-0.581c2.156,-0.39 4.28,-0.967 6.424,-1.661c0.887,-0.287 2.593,-1.079 3.988,-1.174c1.007,-0.074 1.881,0.194 2.501,0.822c0.467,0.468 0.695,1.166 0.695,1.981c0.002,1.041 -0.428,2.336 -0.587,2.997c-0.482,1.978 -0.958,3.969 -1.31,5.977c-0.231,1.314 -0.406,2.627 -0.492,3.952c-0.011,0.146 0.026,0.77 0.071,1.423c0.198,-0.559 0.326,-1.119 0.42,-1.521c0.62,-2.586 1.237,-5.22 1.765,-7.845c0.352,-1.748 0.669,-3.493 0.898,-5.222c0.058,-0.428 0.266,-0.943 0.644,-1.443c0.651,-0.872 1.948,-1.858 2.423,-2.366c1.037,-1.111 2.09,-2.206 3.157,-3.285c1.594,-1.616 3.218,-3.199 4.842,-4.783c3.685,-3.561 7.372,-7.15 11.129,-10.653c2.513,-2.348 5.056,-4.65 7.637,-6.901c0.818,-0.71 3.831,-3.352 5.003,-4.536c0.081,-0.082 0.191,-0.16 0.269,-0.225c0.002,0.038 0.005,0.075 0.006,0.102c0.003,-0.041 0.008,-0.083 0.017,-0.124c0.062,-0.054 0.094,-0.098 0.056,-0.127l-0.01,-0.006l-0.002,0.006c-0.009,0.022 -0.017,0.043 -0.026,0.066l-0.018,0.061l-0.023,0.022c-0.004,-0.096 0.004,-0.197 0.069,-0.155Zm0.038,0.671c-0.047,-0.078 -0.078,-0.163 -0.092,-0.251c0.012,0.097 0.046,0.179 0.092,0.251Zm0.026,0.04l-0.018,-0.027l0.006,0.011l0.012,0.016Z" style="fill:#b9c4f7;"/><path d="M117.841,200.519c0.042,-0.029 0.085,-0.052 0.122,-0.068c1.562,-0.699 2.683,-2.151 3.527,-3.835c1.35,-2.695 1.946,-6.021 2.099,-8.456c0.11,-1.694 -0.135,-3.294 0.21,-4.825c0.178,-0.792 0.493,-1.56 1.025,-2.322c0.993,-1.425 2.154,-2.767 3.41,-4.06c2.759,-2.83 5.974,-5.39 8.693,-8.042c5.729,-5.491 11.527,-10.946 17.251,-16.459c2.448,-2.364 4.889,-4.721 7.293,-7.125c5.709,-5.663 11.457,-11.293 17.154,-16.971c2.439,-2.432 4.87,-4.87 7.28,-7.33l7.942,-8.168l2.7,-2.765c0.311,-0.308 1.107,-0.732 1.465,-0.901c0.851,-0.4 0.955,1.119 0.926,1.142c-0.067,0.055 -0.14,0.095 -0.217,0.122c-0.021,0.014 -0.044,0.027 -0.07,0.04c-0.249,0.128 -0.819,0.419 -1.032,0.644l-2.584,2.821l-7.698,8.43c-3.129,3.374 -6.291,6.72 -9.476,10.043c-4.771,4.982 -9.586,9.916 -14.365,14.891c-3.166,3.269 -6.385,6.496 -9.645,9.676c-4.876,4.765 -9.832,9.456 -14.716,14.199c-2.725,2.609 -5.937,5.127 -8.714,7.912c-1.153,1.152 -2.233,2.356 -3.155,3.63c-0.41,0.573 -0.592,1.161 -0.673,1.762c-0.168,1.237 -0.011,2.523 -0.118,3.867c-0.228,2.741 -0.993,6.467 -2.576,9.477c-1.175,2.232 -2.794,4.076 -4.905,4.965c-1.609,0.678 -2.562,0.19 -3.141,-0.602c-0.325,-0.45 -0.537,-1.082 -0.595,-1.814c-0.093,-1.137 0.151,-2.54 0.304,-3.223c0.246,-1.101 0.531,-2.189 0.838,-3.275c0.702,-2.476 1.518,-4.923 2.217,-7.392c0.154,-0.543 0.403,-1.27 0.479,-1.978c0.048,-0.437 0.095,-0.888 -0.22,-1.16c-0.437,-0.38 -1.032,-0.548 -1.663,-0.637c-1.176,-0.165 -2.47,-0.058 -3.457,-0.065c-2.363,-0.017 -4.722,-0.012 -7.081,0.043c-2.354,0.048 -4.706,0.153 -7.057,0.328c-0.962,0.073 -4.747,-0.19 -5.702,-0.96c-0.266,-0.217 -0.409,-0.468 -0.445,-0.733c-0.044,-0.301 0.029,-0.678 0.431,-1.055c0.255,-0.242 0.688,-0.523 1.36,-0.816c0.326,-0.155 0.711,-0.007 0.861,0.315c0.15,0.328 0.007,0.711 -0.32,0.865c-0.313,0.15 -0.67,0.294 -0.874,0.415c0.149,0.062 0.371,0.146 0.558,0.192c1.308,0.302 3.366,0.328 3.996,0.262c2.374,-0.243 4.75,-0.408 7.13,-0.53c2.375,-0.115 4.752,-0.182 7.133,-0.226c1.254,-0.022 2.958,-0.203 4.398,0.095c0.783,0.158 1.493,0.46 2.068,0.935c0.558,0.466 0.854,1.088 0.966,1.791c0.184,1.142 -0.218,2.553 -0.457,3.485c-0.639,2.485 -1.394,4.954 -2.037,7.444c-0.27,1.049 -0.519,2.099 -0.731,3.162c-0.099,0.493 -0.259,1.464 -0.21,2.314c0.01,0.156 0.059,0.374 0.098,0.526Zm-23.03,-19.36c-0.058,0.049 -0.072,0.097 -0.019,0.139c0.066,0.05 0.048,-0.043 0.019,-0.139Zm22.954,19.4c-0.044,-0.041 -0.081,-0.06 -0.071,-0.016c0.005,0.035 0.034,0.032 0.071,0.016Z" style="fill:#b9c4f7;"/><path d="M213.859,93.673c0.023,0.015 0.015,0.063 0.009,0.085c-0.001,-0.029 -0.004,-0.057 -0.009,-0.085l-0.011,-0.004c-0.191,-0.024 0.028,0.435 -0.07,0.547c-0.096,0.108 -0.109,0.261 -0.238,0.304c-0.149,0.116 -0.328,0.165 -0.501,0.15c-0.157,0.045 -0.344,0.098 -0.561,0.178c-0.211,0.078 -0.331,0.349 -0.661,0.769c-0.222,0.217 -0.495,0.581 -0.787,0.847c-0.325,0.296 -0.636,0.483 -0.636,0.483l-0.002,-0.003l-0.015,0.019c-0.645,0.549 -1.611,0.475 -2.165,-0.165c-0.555,-0.64 -0.488,-1.607 0.148,-2.166c0,0 0.333,-0.384 0.777,-0.721c0.319,-0.242 0.688,-0.437 0.953,-0.584c0.769,-0.319 1.284,-0.508 1.717,-0.519c0.208,-0.095 0.456,-0.072 0.645,0.064c0.167,0.028 0.301,0.063 0.418,0.107c0.015,0.006 0.008,0.041 0.008,0.041c0,0 -0.04,0.03 -0.063,0.027c-0.068,-0.007 -0.112,0.031 -0.154,0.078l0.006,0.013c0.204,-0.133 0.462,-0.163 0.696,-0.076c0.266,0.1 0.454,0.335 0.496,0.611Z" style="fill:#b9c4f7;"/><path d="M168.918,70.139c0.312,0.055 0.625,0.116 0.76,0.243c0.348,0.324 0.518,0.706 0.317,1.186c-0.271,0.647 -1.091,0.922 -1.77,0.708c-0.775,0.281 -1.348,0.056 -1.771,-0.251c-0.524,-0.38 -0.798,-1.15 -0.803,-1.897c-0.22,-0.113 -0.42,-0.211 -0.568,-0.273c-0.423,-0.178 -0.838,-0.372 -1.25,-0.574c-0.902,-0.445 -1.78,-0.936 -2.682,-1.378c-1.318,-0.672 -2.666,-1.282 -4.002,-1.915c-1.352,-0.641 -2.698,-1.294 -4.042,-1.953c-1.165,-0.571 -2.317,-1.163 -3.466,-1.765c-0.646,-0.351 -3.637,-2.174 -6.299,-3.694c-1.309,-0.747 -2.523,-1.427 -3.337,-1.778c-0.172,-0.075 -0.363,-0.201 -0.476,-0.243c-0.034,0.012 -0.101,0.059 -0.098,0.02l0.001,-0.002l0.033,-0.004l0.062,-0.015l0.002,0.001l0.007,-0.003l-0.009,0.002c-0.056,-0.021 -0.092,-0.02 -0.095,0.019c-0.35,0.049 -0.691,-0.165 -0.792,-0.514c-0.112,-0.384 0.11,-0.785 0.493,-0.896c0.316,-0.114 1.416,0.112 2.84,0.659c3.053,1.173 7.999,3.588 8.869,3.951c2.346,1.052 4.742,1.988 7.079,3.061c1.583,0.727 3.126,1.533 4.657,2.365l3.679,2.148c0.174,0.09 0.424,0.246 0.69,0.415c0.152,-0.122 0.333,-0.203 0.55,-0.232c0.238,-0.03 0.555,-0.034 0.939,0.155c0.283,0.141 0.832,0.564 0.523,1.324c-0.013,0.031 -0.031,0.071 -0.055,0.115c0.173,0.389 0.091,0.703 0.063,0.845c-0.012,0.06 -0.028,0.117 -0.049,0.17Z" style="fill:#b9c4f7;"/><path d="M118.374,2.023c0.131,0.379 0.519,1.44 0.829,1.78l4.683,5.156c1.476,1.708 3.015,3.374 4.479,5.113c1.465,1.742 2.875,3.534 4.254,5.349c1.11,1.461 2.175,2.947 3.208,4.458c1.561,2.284 3.012,4.614 4.37,7.005c0.217,0.335 0.122,0.783 -0.212,1.001c-0.336,0.217 -0.784,0.123 -1.002,-0.213c-1.796,-2.432 -3.74,-4.746 -5.725,-7.055c-0.847,-0.985 -1.696,-1.965 -2.551,-2.948c-0.949,-1.091 -1.908,-2.174 -2.85,-3.272c-0.946,-1.101 -1.886,-2.208 -2.801,-3.33c-1.155,-1.416 -2.259,-2.865 -3.371,-4.301l-4.204,-5.558c-0.391,-0.537 -0.774,-1.661 -0.958,-2.445c-0.66,-0.113 -1.433,-0.33 -1.67,-0.584c-0.386,-0.414 -0.494,-0.802 -0.457,-1.109c0.045,-0.388 0.234,-0.728 0.59,-0.912c0.527,-0.273 1.555,-0.284 2.11,0.721c0.152,-0.046 0.319,-0.044 0.5,0.008c0.132,0.037 0.382,0.092 0.585,0.387c0.184,0.268 0.239,0.518 0.193,0.749Z" style="fill:#b9c4f7;"/><path d="M130.309,154.895l-0.002,0.006l-0.005,-0.007c-0.066,-0.03 -0.13,-0.066 -0.198,-0.096c-0.013,-0.002 -0.013,0.026 -0.021,0.039c-0.011,0.013 -0.025,0.025 -0.04,0.037c-0.056,0.042 -0.131,0.047 -0.193,0.018c-0.062,-0.03 -0.104,-0.091 -0.108,-0.162c0,-0.021 0.001,-0.035 0.006,-0.055c0.003,-0.014 0.024,-0.033 0.012,-0.034c-0.062,-0.043 -0.132,-0.066 -0.199,-0.096l-0.004,-0.008l0,0l0.222,0.106c0.041,-0.086 0.143,-0.122 0.227,-0.076c0.085,0.039 0.121,0.142 0.081,0.222l0.222,0.106Z" style="fill:#b9c4f7;"/><path d="M66.665,5.966c0.004,0.03 0.011,0.067 0.019,0.093c0.044,0.145 0.12,0.289 0.149,0.348c0.156,0.32 0.343,0.627 0.547,0.924c0.31,0.455 0.66,0.886 1.002,1.305c0.972,1.192 2.012,2.331 3.087,3.438c1.616,1.663 3.314,3.255 5,4.833c2.874,2.711 5.802,5.37 8.735,8.025c2.2,1.99 4.404,3.977 6.614,5.955c2.214,1.98 4.427,3.957 6.642,5.928c1.786,1.594 3.579,3.186 5.414,4.726c1.222,1.026 2.463,2.029 3.734,2.992c0.517,0.392 1.04,0.797 1.586,1.165c0.359,0.243 0.728,0.469 1.112,0.664c0.157,0.079 0.283,0.119 0.382,0.115c0.047,-0.001 0.085,-0.013 0.1,-0.049c0.056,-0.134 -0.021,-0.351 -0.188,-0.611c-0.061,-0.095 -0.126,-0.189 -0.193,-0.28c-0.101,-0.14 -0.208,-0.276 -0.317,-0.412c-0.058,-0.074 -0.047,-0.181 0.026,-0.24c0.073,-0.059 0.181,-0.047 0.24,0.026c0.113,0.137 0.226,0.275 0.333,0.417c0.073,0.095 0.143,0.193 0.211,0.293c0.262,0.392 0.316,0.741 0.235,0.947c-0.105,0.265 -0.441,0.414 -1.002,0.143c-0.402,-0.194 -0.79,-0.421 -1.168,-0.666c-0.559,-0.362 -1.096,-0.763 -1.626,-1.151c-1.294,-0.945 -2.56,-1.93 -3.806,-2.94c-1.865,-1.513 -3.687,-3.081 -5.503,-4.649c-2.242,-1.942 -4.488,-3.883 -6.722,-5.841c-2.234,-1.956 -4.462,-3.921 -6.665,-5.912c-2.939,-2.657 -5.834,-5.362 -8.695,-8.097c-1.671,-1.61 -3.357,-3.23 -4.954,-4.929c-1.068,-1.137 -2.096,-2.309 -3.058,-3.533c-0.344,-0.438 -0.695,-0.888 -1.005,-1.361c-0.212,-0.322 -0.407,-0.655 -0.567,-1.001c-0.051,-0.11 -0.21,-0.443 -0.214,-0.682c-0.004,-0.222 0.086,-0.389 0.29,-0.457c0.175,-0.06 0.401,-0.019 0.63,0.109c0.336,0.187 0.699,0.551 0.86,0.696c0.395,0.357 0.764,0.738 1.112,1.138c0.346,0.397 0.672,0.812 0.984,1.238c0.088,0.121 0.261,0.511 0.419,0.795c0.059,0.106 0.101,0.2 0.144,0.224c0.092,0.049 0.128,0.164 0.079,0.256c-0.049,0.093 -0.164,0.129 -0.257,0.079c-0.063,-0.032 -0.149,-0.122 -0.233,-0.253c-0.172,-0.267 -0.379,-0.728 -0.478,-0.858c-0.312,-0.409 -0.639,-0.809 -0.985,-1.189c-0.345,-0.38 -0.708,-0.74 -1.096,-1.076c-0.132,-0.113 -0.401,-0.376 -0.672,-0.551c-0.074,-0.047 -0.148,-0.088 -0.219,-0.114c-0.022,-0.008 -0.043,-0.015 -0.063,-0.02Z" style="fill:#b9c4f7;"/><path d="M110.726,69.247c0.07,0.231 0.259,0.48 0.475,0.731c0.445,0.515 1.035,1.007 1.311,1.298c1.045,1.103 2.123,2.172 3.217,3.224c1.096,1.054 2.21,2.09 3.33,3.118c1.241,1.143 2.484,2.285 3.723,3.43c1.24,1.145 2.479,2.29 3.715,3.438c2.473,2.295 4.944,4.591 7.438,6.863c2.138,1.947 4.285,3.883 6.458,5.79c1.123,0.987 2.246,1.98 3.388,2.95c0.76,0.646 1.526,1.282 2.307,1.902c0.399,0.317 0.901,0.802 1.435,1.162c0.344,0.231 0.701,0.413 1.052,0.445c0.094,0.008 0.164,0.09 0.157,0.184c-0.008,0.093 -0.09,0.164 -0.184,0.156c-0.406,-0.028 -0.824,-0.219 -1.227,-0.476c-0.551,-0.353 -1.072,-0.833 -1.485,-1.147c-0.797,-0.606 -1.582,-1.229 -2.359,-1.862c-1.163,-0.949 -2.309,-1.919 -3.454,-2.885c-3.681,-3.121 -7.307,-6.305 -10.884,-9.544c-1.787,-1.619 -3.564,-3.25 -5.331,-4.892c-1.766,-1.643 -3.516,-3.301 -5.273,-4.952c-1.33,-1.258 -2.653,-2.527 -3.94,-3.83c-0.86,-0.871 -1.703,-1.756 -2.527,-2.661c-0.318,-0.349 -1.056,-0.985 -1.502,-1.606c-0.25,-0.349 -0.41,-0.7 -0.408,-1.004c0.001,-0.141 0.055,-0.236 0.133,-0.301c0.078,-0.064 0.197,-0.106 0.349,-0.09c0.34,0.034 0.985,0.405 1.063,0.452c0.543,0.323 1.067,0.687 1.574,1.074c0.503,0.384 0.99,0.79 1.463,1.2l0.786,0.704c0.058,0.056 0.143,0.23 0.211,0.336c0.071,0.011 0.133,0.061 0.154,0.135c0.027,0.09 0.005,0.144 -0.004,0.164c-0.041,0.094 -0.113,0.128 -0.212,0.11c-0.024,-0.004 -0.07,-0.018 -0.117,-0.066c-0.053,-0.055 -0.213,-0.31 -0.302,-0.394l-0.787,-0.669c-0.476,-0.392 -0.965,-0.78 -1.47,-1.146c-0.502,-0.363 -1.018,-0.704 -1.552,-1.005c-0.055,-0.031 -0.439,-0.257 -0.721,-0.336Zm4.798,3.436c0.001,0.004 0.001,0.008 0.002,0.011l-0.002,-0.011Zm0.24,-0.191c0.029,0.038 0.053,0.057 0.07,0.041c0.029,-0.027 -0.035,-0.036 -0.07,-0.041Z" style="fill:#b9c4f7;"/></g></svg>