<?xml version="1.0" encoding="UTF-8" standalone="no"?><!DOCTYPE svg PUBLIC "-//W3C//DTD SVG 1.1//EN" "http://www.w3.org/Graphics/SVG/1.1/DTD/svg11.dtd"><svg width="100%" height="100%" viewBox="0 0 285 152" version="1.1" xmlns="http://www.w3.org/2000/svg" xmlns:xlink="http://www.w3.org/1999/xlink" xml:space="preserve" xmlns:serif="http://www.serif.com/" style="fill-rule:evenodd;clip-rule:evenodd;stroke-linejoin:round;stroke-miterlimit:2;"><path d="M258.629,0.181c0.019,-0.018 0.037,-0.03 0.051,-0.037c0.551,-0.281 1.209,-0.137 1.595,0.316c0.512,0.377 1.806,1.186 1.845,1.206c0.837,0.441 1.675,0.96 2.459,1.546c0.802,0.6 1.548,1.27 2.189,1.998c1.562,1.777 2.933,3.732 4.159,5.786c1.805,3.027 3.295,6.268 4.625,9.453c1.193,2.86 2.219,5.772 3.114,8.725c0.892,2.942 1.656,5.924 2.33,8.933c0.746,3.335 1.406,6.705 1.977,10.091c0.571,3.385 1.053,6.785 1.442,10.18c0.081,0.706 0.505,2.942 0.472,4.643c-0.022,1.169 -0.325,2.118 -0.806,2.562c-0.034,0.031 -0.676,0.575 -1.357,0.017c-0.057,-0.047 -0.176,-0.149 -0.335,-0.289c-0.804,-0.705 -2.775,-2.476 -3.008,-2.647c-1.561,-1.157 -3.087,-2.355 -4.669,-3.475c-1.031,-0.731 -2.087,-1.428 -3.193,-2.054c-2.621,-1.482 -5.309,-2.832 -8.027,-4.114c-5.852,-2.761 -11.837,-5.214 -17.582,-8.011c-1.847,1.479 -4.012,2.702 -6.33,3.761c-5.209,2.38 -11.209,3.924 -16.029,5.783c-9.553,3.684 -19.141,7.326 -28.679,11.085c-6.352,2.503 -12.682,5.056 -18.962,7.716c-26.616,11.26 -52.841,23.486 -79.284,35.167c-11.355,5.016 -22.752,9.925 -34.232,14.628c-9.542,3.903 -19.347,8.333 -29.144,12.248c-4.273,1.707 -8.545,3.315 -12.792,4.745c-1.36,0.458 -2.542,-0.048 -3.268,-1.605c-0.679,-1.455 -0.77,-4.684 -0.9,-5.476c-0.056,-0.344 -0.07,-1.231 -0.072,-1.791c-0.202,-0.46 -0.215,-0.99 -0.021,-1.469c0.42,-1.039 1.143,-1.21 1.402,-1.272c0.514,-0.123 0.999,-0.06 1.447,0.222c0.339,-0.245 0.824,-0.609 1.156,-0.901c0.899,-0.789 1.832,-1.571 2.673,-1.955c7.971,-3.641 15.96,-7.228 23.974,-10.759c8.013,-3.532 16.051,-7.006 24.11,-10.446c32.535,-13.797 65.36,-28.051 98.518,-41.221c21.906,-8.702 43.958,-16.921 66.143,-24.279c0.13,-0.324 0.258,-0.612 0.275,-0.645l2.385,-4.067l5.193,-9.075c1.222,-2.158 5.835,-11.177 9.687,-17.729c2.29,-3.894 4.426,-6.912 5.465,-7.501l0.004,0.007Zm0.745,2.83c-0.084,0.104 -0.173,0.218 -0.268,0.341c-0.97,1.248 -2.239,3.3 -3.613,5.682c-3.791,6.57 -8.323,15.606 -9.526,17.769l-5.144,9.151l-2.262,3.913c-0.01,0.02 -0.14,0.337 -0.219,0.531c-0.016,0.614 -0.414,1.171 -1.018,1.373c-22.33,7.559 -44.506,16.031 -66.553,24.929c-33.06,13.346 -65.821,27.675 -98.275,41.594c-8.049,3.429 -16.071,6.901 -24.077,10.413c-8.005,3.512 -15.992,7.063 -23.957,10.675c-0.698,0.315 -1.438,1.088 -2.177,1.719c-0.766,0.651 -1.538,1.195 -2.233,1.475c0.092,0.627 0.327,2.49 0.461,3.572c3.775,-1.285 7.569,-2.708 11.366,-4.204c9.806,-3.865 19.63,-8.229 29.184,-12.076c11.482,-4.616 22.878,-9.448 34.243,-14.366c26.543,-11.485 52.896,-23.466 79.618,-34.504c6.324,-2.61 12.696,-5.116 19.091,-7.565c9.58,-3.668 19.212,-7.207 28.809,-10.794c4.142,-1.549 9.15,-2.854 13.785,-4.661c2.721,-1.061 5.312,-2.293 7.503,-3.868c-0.33,-0.218 -0.452,-0.655 -0.271,-1.018c0.131,-0.263 0.39,-0.423 0.664,-0.439c0.001,-0.131 0.03,-0.264 0.092,-0.388c0.219,-0.44 0.754,-0.619 1.193,-0.4c0.685,0.338 0.965,0.945 0.957,1.566c-0.001,0.061 -0.004,0.123 -0.012,0.184c5.726,2.715 11.686,5.093 17.516,7.777c2.771,1.276 5.513,2.62 8.188,4.1c1.169,0.646 2.284,1.367 3.375,2.124c1.604,1.113 3.152,2.306 4.735,3.456c0.18,0.131 1.364,1.163 2.307,1.984c0.005,-0.208 0,-0.428 -0.012,-0.653c-0.072,-1.499 -0.411,-3.194 -0.483,-3.781c-0.415,-3.354 -0.921,-6.713 -1.514,-10.056c-0.593,-3.342 -1.274,-6.669 -2.041,-9.96c-0.687,-2.947 -1.462,-5.867 -2.363,-8.748c-0.897,-2.869 -1.92,-5.697 -3.107,-8.473c-1.312,-3.068 -2.776,-6.19 -4.546,-9.101c-1.162,-1.912 -2.459,-3.73 -3.934,-5.38c-0.53,-0.592 -1.15,-1.134 -1.812,-1.621c-0.679,-0.498 -1.402,-0.937 -2.124,-1.309c-0.034,-0.016 -0.863,-0.52 -1.546,-0.963Zm-21.726,36.084c-0.223,-0.15 -0.486,-0.236 -0.802,-0.232c0.292,-0.001 0.568,0.083 0.802,0.232Zm22.699,-37.022c-0.107,0.151 -0.247,0.281 -0.418,0.378l-0.004,0.003c0.183,-0.102 0.32,-0.232 0.422,-0.381Zm0.187,-0.385l-0.008,0.023l0.004,-0.01l0.004,-0.013Zm-0.011,-0.786c0.084,0.252 0.086,0.518 0.017,0.764c0.061,-0.196 0.096,-0.462 -0.017,-0.764Z" style="fill:#b9c4f7;"/><path d="M9.259,147.46c0.23,-0.474 0.509,-0.965 0.832,-1.462c1.679,-2.578 4.368,-5.479 5.68,-7.001c0.27,-0.348 0.772,-0.411 1.12,-0.141c0.348,0.27 0.411,0.772 0.141,1.12c-0.965,1.384 -2.816,3.867 -4.192,6.229c-0.877,1.505 -1.605,2.912 -1.486,3.846c0.045,0.576 -0.26,1.124 -0.774,1.388c-0.514,0.265 -1.137,0.196 -1.58,-0.176c-2.961,-2.302 -6.042,-5.814 -7.711,-9.707c-1.22,-2.846 -1.635,-5.89 -0.981,-8.772c0.114,-0.444 0.639,-1.625 1.469,-3.003c1.14,-1.895 2.805,-4.26 4.229,-5.578c0.725,-0.672 1.419,-1.12 1.997,-1.286c0.776,-0.223 1.457,-0.16 2.019,0.216c0.422,0.257 0.698,0.694 0.753,1.179c0.025,0.023 0.012,0.122 0.01,0.159c-0.001,-0.054 -0.004,-0.107 -0.01,-0.159c-0.007,-0.006 -0.016,-0.007 -0.027,-0.002c-0.761,0.322 1.399,1.863 2.638,3.035c2.208,2.087 4.909,4.284 5.822,5.159c0.373,0.319 0.417,0.881 0.098,1.254c-0.319,0.372 -0.881,0.416 -1.253,0.098c-1.334,-1.018 -6.014,-3.958 -8.487,-6.215c-0.44,-0.402 -0.808,-0.795 -1.1,-1.161c-0.715,0.726 -1.49,1.947 -2.231,3.151c-1.081,1.76 -2.032,3.537 -2.142,4.049c-0.313,1.31 -0.266,2.66 -0.015,4.005c0.259,1.389 0.731,2.775 1.371,4.105c1.002,2.085 2.355,4.046 3.81,5.67Z" style="fill:#b9c4f7;"/><path d="M114.141,65.113c-0.143,-0.057 -0.273,-0.155 -0.371,-0.287c-0.295,-0.393 -0.214,-0.95 0.178,-1.244c0.662,-0.562 1.358,-1.078 2.075,-1.576c1.611,-1.118 3.315,-2.107 4.927,-3.197c0.795,-0.534 1.525,-0.558 2.151,-0.418c0.644,0.144 1.213,0.596 1.704,1.298c0.718,1.029 1.21,2.906 1.586,4.814c0.311,1.584 0.531,3.185 0.858,4.076c0.213,0.607 0.916,1.816 1.601,3.155c0.637,1.246 1.272,2.585 1.653,3.688c0.44,1.276 0.508,2.365 0.327,3.006c-0.089,0.305 -0.454,1.11 -1.542,1.52c-1.096,0.413 -3.998,0.991 -4.24,1.064c-0.409,0.121 -2.722,1.226 -3.726,1.447c-0.934,0.206 -1.582,-0.064 -1.856,-0.293c-0.295,-0.248 -0.844,-1.078 -1.223,-2.323c-0.667,-2.187 -1.401,-5.89 -1.637,-6.753l-2.465,-7.977Zm7.023,14.239c-0.044,-0.019 -0.089,-0.036 -0.137,-0.049c-0.11,-0.031 -0.619,-0.324 -0.545,-0.078c0.076,0.254 0.336,0.259 0.682,0.127Zm1.087,-18.132c-1.688,0.878 -3.45,1.662 -5.142,2.564c-0.478,0.255 -0.95,0.516 -1.412,0.793l3.313,7.73c0.336,0.891 1.56,5.008 2.414,6.93c0.928,-0.461 2.224,-1.564 2.476,-1.657c0.167,-0.062 1.73,-0.461 2.93,-0.84c-0.287,-0.841 -0.774,-1.866 -1.25,-2.871c-0.814,-1.716 -1.617,-3.369 -1.851,-4.139c-0.413,-1.446 -0.536,-4.481 -0.98,-6.794c-0.102,-0.535 -0.202,-1.024 -0.364,-1.418c-0.037,-0.092 -0.094,-0.213 -0.134,-0.298Zm4.809,16.282c-0.025,0.054 -0.046,0.106 0,0.104c0.037,-0.002 0.023,-0.049 0,-0.104Z" style="fill:#b9c4f7;"/><path d="M130.442,57.894c0.014,0.12 0.005,0.243 -0.032,0.366c-0.143,0.468 -0.641,0.734 -1.11,0.591c-0.412,-0.1 -0.573,-0.379 -0.675,-0.613c-0.113,-0.258 -0.103,-0.71 0.313,-1.187c0.612,-0.704 3.186,-2.179 3.344,-2.253c1.281,-0.588 3.09,-1.683 4.776,-2.359c0.939,-0.378 1.853,-0.599 2.646,-0.641c0.32,-0.017 0.998,0.128 1.449,0.93c0.163,0.289 0.408,1.106 0.439,1.182c0.407,1.019 0.784,2.048 1.135,3.087c0.791,2.338 1.476,4.71 2.357,7.019c0.268,0.763 1.799,3.611 2.244,5.477c0.311,1.306 0.105,2.362 -0.287,2.929c-0.091,0.132 -0.521,0.696 -1.454,0.9c-0.69,0.152 -2.41,0.342 -2.678,0.443c-0.682,0.256 -1.561,0.827 -2.407,1.143c-0.615,0.232 -1.218,0.377 -1.773,0.357c-0.681,-0.026 -1.105,-0.291 -1.375,-0.65c-0.181,-0.239 -0.344,-0.52 -0.379,-0.881c-0.014,-0.149 0.053,-0.55 0.102,-0.806c-0.042,-0.253 -0.106,-0.503 -0.19,-0.747c-0.206,-0.599 -0.481,-1.178 -0.757,-1.732c-1.22,-2.488 -2.514,-5.316 -3.527,-8.183c-0.565,-1.599 -1.044,-3.2 -1.386,-4.755c-0.307,0.123 -0.586,0.254 -0.775,0.383Zm8.161,-2.938c-0.413,0.082 -0.85,0.207 -1.292,0.354c-1.51,0.502 -3.065,1.21 -4.198,1.588c-0.021,0.008 -0.124,0.036 -0.281,0.08c0.485,1.464 1.116,2.958 1.817,4.447c1.253,2.661 2.747,5.27 4.151,7.552c0.392,0.646 0.783,1.323 1.092,2.032c0.036,0.08 0.069,0.161 0.101,0.243c0.549,-0.32 1.077,-0.655 1.525,-0.857c0.211,-0.094 1.194,-0.314 2.066,-0.515c-0.243,-0.484 -0.602,-1.065 -0.792,-1.504c-0.58,-1.338 -1.192,-2.611 -1.354,-3.084c-0.339,-1.047 -0.654,-2.1 -0.937,-3.162c-0.638,-2.392 -1.164,-4.808 -1.898,-7.17l0,-0.004Zm5.192,15.427c-0.123,0.163 -0.343,0.439 -0.152,0.422c0.199,-0.017 0.223,-0.18 0.152,-0.422Zm-13.427,-12.434c-0.168,0.133 -0.232,0.263 -0.126,0.381c0.161,0.178 0.159,-0.114 0.126,-0.381Zm8.228,-3.544c-0.018,-0.203 -0.07,-0.372 -0.205,-0.328c-0.178,0.059 0.038,0.216 0.205,0.328Z" style="fill:#b9c4f7;"/><path d="M148.284,52.223c-0.059,0.011 -0.118,0.016 -0.179,0.015c-0.395,0.017 -0.593,-0.212 -0.725,-0.37c-0.167,-0.201 -0.259,-0.513 -0.082,-0.941c0.04,-0.098 0.231,-0.343 0.595,-0.649c0.67,-0.564 2.238,-1.684 3.872,-2.694c1.799,-1.113 3.702,-2.002 4.667,-2.121c0.742,-0.094 1.257,0.191 1.593,0.48c1.137,0.987 2.144,3.227 2.934,5.939c0.593,2.031 1.091,4.334 1.542,6.444c0.329,1.541 0.627,2.974 0.935,4.098c0.107,0.394 0.157,0.932 0.252,1.24c-0.048,-0.019 -0.092,-0.035 -0.118,-0.049c0.043,0.023 0.084,0.045 0.124,0.069c0.057,0.178 0.131,0.272 0.243,0.199c0.012,-0.008 0.021,-0.016 0.025,-0.024c-0.081,-0.061 -0.17,-0.119 -0.268,-0.175l-0.006,-0.02c0.14,0.054 0.323,0.125 0.274,0.195c0.771,0.566 0.834,1.258 0.825,1.629c-0.014,0.568 -0.195,1.263 -1.011,1.718c-0.213,0.118 -0.646,0.29 -1.227,0.36c-0.535,0.065 -1.381,0.037 -1.77,0.179c-0.468,0.169 -3.323,1.485 -4.564,1.714c-0.942,0.174 -1.599,-0.084 -1.895,-0.332c-0.27,-0.226 -0.664,-0.679 -1.031,-1.392c-0.49,-0.95 -1.102,-2.466 -1.714,-4.232c-1.327,-3.839 -2.726,-8.837 -3.291,-11.28Zm7.882,14.119c-0.122,-0.071 -0.265,-0.133 -0.436,-0.156c-0.06,-0.008 -0.278,-0.142 -0.25,-0.036c0.071,0.274 0.331,0.305 0.686,0.192Zm0.095,-17.934c-0.349,0.083 -0.88,0.222 -1.299,0.383c-1.723,0.664 -3.89,1.757 -5.195,2.5c0.572,1.759 2.195,5.885 3.77,9.503c0.75,1.722 1.489,3.32 2.107,4.48c0.199,0.372 0.461,0.777 0.633,1.031c1.069,-0.397 2.842,-1.868 3.136,-1.996c0.111,-0.048 0.278,-0.073 0.475,-0.086c-0.355,-1.092 -0.686,-2.58 -0.988,-4.242c-0.353,-1.939 -0.676,-4.124 -1.068,-6.15c-0.325,-1.679 -0.666,-3.245 -1.13,-4.434c-0.147,-0.376 -0.281,-0.715 -0.441,-0.989Zm5.284,18.468c0.086,0.067 0.186,0.131 0.305,0.188c-0.098,-0.047 -0.2,-0.11 -0.305,-0.188Zm-0.118,-2.701c0.454,-0.038 0.781,-0.141 0.719,-0.419c-0.092,-0.418 -0.478,0.063 -0.719,0.419Zm-12.496,-12.446l-0.009,0.005l-0.028,0.053c-0.014,0.024 -0.03,0.049 -0.045,0.073l-0.032,0.041c0.062,0.055 0.095,-0.058 0.114,-0.172Z" style="fill:#b9c4f7;"/><path d="M110.899,54.33c0.201,-0.171 0.56,-0.848 1.159,-1.418c0.254,-0.241 0.524,-0.487 0.855,-0.689c0.307,-0.187 0.651,-0.322 0.995,-0.439c0.456,-0.155 0.879,-0.236 1.308,-0.321c1.055,-0.209 1.788,-0.279 2.073,-0.315c0.393,-0.201 0.874,-0.046 1.075,0.346c0.201,0.391 0.046,0.873 -0.345,1.075c-0.168,0.183 -0.513,0.65 -1.121,1.293c-0.364,0.386 -0.728,0.789 -1.206,1.176c-0.283,0.229 -0.583,0.444 -0.905,0.603c-0.35,0.171 -0.703,0.268 -1.045,0.351c-1.045,0.256 -1.77,0.301 -1.988,0.32c-0.137,0.011 -0.191,0.072 -0.221,0.069c-0.112,-0.014 -2.064,-1.82 -0.4,-2.01c0.078,-0.045 0.16,-0.077 0.245,-0.096c-0.025,-0.002 -0.053,0.002 -0.082,0.012c-0.075,0.027 -0.226,-0.089 -0.38,0.042c-0.002,0.001 -0.008,0.002 -0.017,0.001c-0.049,0.044 -0.088,0.056 -0.119,0.028c-0.052,-0.047 0.071,-0.027 0.119,-0.028Zm1.276,1.47c-0.046,0.041 -0.096,0.078 -0.151,0.11c-0.128,0.174 -0.261,0.279 -0.21,0.314c0.092,0.062 0.142,-0.08 0.152,-0.101c0.065,-0.157 0.198,-0.192 0.204,-0.27l0.005,-0.053Z" style="fill:#b9c4f7;"/><path d="M127.084,49.013c0.696,-0.023 1.296,-0.049 2.029,-0.142c0.289,-0.036 0.549,-0.087 0.837,-0.153c0.363,-0.083 0.712,-0.176 1.066,-0.31c0.226,-0.084 0.451,-0.182 0.659,-0.307c0.53,-0.32 0.991,-0.7 1.458,-1.107c0.747,-0.65 1.313,-1.293 1.99,-1.961c0.391,-0.202 0.544,-0.685 0.341,-1.076c-0.202,-0.39 -0.684,-0.543 -1.076,-0.341c-0.933,0.168 -1.78,0.264 -2.74,0.493c-0.587,0.139 -1.151,0.276 -1.711,0.5c-0.215,0.086 -0.419,0.199 -0.616,0.319c-0.305,0.187 -0.582,0.389 -0.857,0.61c-0.768,0.619 -1.317,1.239 -2.025,1.818c-0.457,0.178 -0.684,0.694 -0.506,1.151c0.177,0.457 0.693,0.684 1.151,0.506Z" style="fill:#b9c4f7;"/><path d="M146.616,40.854c-0.3,0.326 -0.803,0.385 -1.172,0.12c-0.073,0.016 -0.041,-0.096 -0.11,-0.092c-0.049,0.003 -0.017,-0.068 -0.065,-0.071c-0.218,-0.01 0.006,-0.272 -0.181,-0.38c-0.083,-0.049 0.057,-0.128 -0.019,-0.198c-0.088,-0.082 0.116,-0.133 0.042,-0.259c-0.025,-0.044 0.062,-0.049 0.039,-0.101c-0.035,-0.082 0.129,-0.059 0.108,-0.184c-0.008,-0.051 0.081,-0.024 0.079,-0.095c-0.002,-0.083 0.144,-0.034 0.215,-0.301c0.07,-0.267 0.101,-0.386 0.366,-0.905c0.087,-0.169 0.147,-0.288 0.302,-0.431c0.093,-0.084 0.208,-0.153 0.332,-0.185c0.154,-0.039 0.269,-0.018 0.42,0.004c1.008,0.144 1.366,0.341 1.463,0.373c0.409,-0.164 0.874,0.035 1.038,0.444c0.164,0.409 -0.035,0.874 -0.444,1.038c-0.031,0.066 -0.015,0.235 -0.291,0.802c-0.125,0.257 -0.162,0.426 -0.385,0.681c-0.097,0.111 -0.204,0.218 -0.343,0.268c-0.163,0.059 -0.302,0.029 -0.462,0.009c-0.642,-0.081 -0.947,-0.589 -1.01,-0.342c-0.014,0.052 -0.036,-0.089 -0.008,-0.083c0.085,0.015 0.061,-0.082 0.086,-0.112Zm0.012,-0.013l-0.005,0.005c0.003,-0.003 0.007,-0.004 0.012,-0.004c0.039,0 0.032,-0.036 0.04,-0.061l-0.047,0.06Zm0.105,-0.147l-0.044,0.069l0.008,-0.003c0.091,-0.012 0.077,-0.079 0.073,-0.139l-0.037,0.073Zm0.104,-0.29c-0.007,0.044 -0.018,0.086 -0.032,0.129l0.003,-0.002c0.067,-0.029 0.045,-0.078 0.029,-0.127Zm0.013,-0.126l-0.001,0.026l0.002,-0.003c0.025,-0.019 0.01,-0.039 -0.001,-0.06l0,0.037Zm-0.001,-0.086l0,0.004l0.002,-0.003c0.019,-0.02 0.003,-0.037 -0.009,-0.054l0.007,0.053Zm-0.023,-0.144l0.01,0.049l0.002,-0.003c0.015,-0.02 -0.001,-0.032 -0.012,-0.046Zm-0.065,-0.185c0.024,0.049 0.043,0.099 0.056,0.151l0.002,-0.004c0.049,-0.076 0,-0.109 -0.058,-0.147Zm-0.107,-0.167l0.001,-0.003c0.008,-0.054 -0.029,-0.064 -0.071,-0.075l0.031,0.03l0.039,0.048Z" style="fill:#b9c4f7;"/><path d="M129.72,99.012c0.233,0.211 0.681,0.613 0.763,0.698c0.316,0.328 0.605,0.676 0.89,1.037c0.281,0.355 0.535,0.725 0.785,1.098c0.69,1.042 1.342,2.095 1.955,3.185c0.61,1.084 1.158,2.193 1.705,3.308c0.717,1.615 1.544,3.188 2.281,4.811c0.558,1.23 1.062,2.485 1.562,3.742c0.508,1.275 0.986,2.553 1.425,3.85c0.994,2.933 1.787,5.884 2.243,8.926c0.101,0.429 -0.164,0.859 -0.593,0.961c-0.428,0.101 -0.858,-0.164 -0.96,-0.593c-0.465,-1.403 -1.021,-2.753 -1.62,-4.106c-0.717,-1.619 -1.518,-3.187 -2.333,-4.771c-0.818,-1.589 -1.677,-3.154 -2.482,-4.755c-0.543,-1.079 -1.061,-2.171 -1.538,-3.276c-0.487,-1.124 -0.908,-2.271 -1.328,-3.414c-0.452,-1.355 -0.939,-2.691 -1.454,-4.026c-0.345,-0.89 -0.683,-1.772 -1.064,-2.646l-1.056,-2.088c-0.06,-0.096 -0.434,-0.591 -0.579,-0.789c-0.945,-1.291 0.775,-1.787 1.19,-1.351c0.04,0.035 0.076,0.073 0.108,0.113c-0.002,0.005 0.004,0.01 0.013,0.015c0.043,0.055 0.079,0.115 0.107,0.178l-0.007,-0.039c-0.003,-0.016 -0.006,-0.031 -0.008,-0.046l-0.005,-0.022l-0.059,-0.054l-0.028,-0.017l-0.013,-0.015l0.001,-0.001c0.054,-0.056 0.082,0.013 0.099,0.087Zm-0.065,0.994l-0.048,0.061c-0.246,0.287 -0.637,0.378 -0.973,0.258c0.529,0.245 0.854,0.011 1.021,-0.319Z" style="fill:#b9c4f7;"/><path d="M136.996,98.56c-0.064,-0.284 0.013,-0.594 0.232,-0.817c0.251,-0.307 0.56,-0.275 0.773,-0.264c0.223,0.011 0.523,0.144 0.73,0.61c0.024,0.055 0.048,0.206 0.106,0.465c0.09,0.397 0.335,1.206 1.042,2.548l3.776,7.425c0.171,0.368 1.321,2.654 2.535,5.591c0.738,1.784 1.473,3.813 2.15,5.742c1.054,3.003 1.903,5.77 2.243,7.096c0.258,1.004 0.138,1.641 0.068,1.757c-0.025,0.043 -0.384,0.54 -1.212,0.796c-1.326,0.408 -4.567,1.311 -5.128,1.452c-0.418,0.139 -0.87,-0.087 -1.01,-0.504c-0.139,-0.418 0.087,-0.87 0.504,-1.01c0.454,-0.192 2.778,-1.251 4.184,-1.913c-0.683,-1.618 -2.277,-4.874 -3.782,-8.195c-0.727,-1.607 -1.435,-3.225 -2.018,-4.667c-1.001,-2.478 -1.662,-4.419 -1.79,-4.753l-2.712,-7.901c-0.526,-1.663 -0.643,-2.656 -0.668,-3.164c-0.192,-0.139 -0.281,-0.269 -0.023,-0.294Zm0.028,0.099c0.008,-0.059 0.013,-0.103 -0.013,-0.1l-0.015,0.001l0.016,0.066l0.012,0.033c-0.005,0.041 -0.011,0.089 -0.009,0.134l0.004,0.061l0.072,0.05c0.031,0.02 0.062,0.04 0.094,0.059l0.046,0.028c-0.096,-0.098 -0.165,-0.211 -0.207,-0.332Zm1.075,0.563c-0.093,0.025 -0.189,0.036 -0.284,0.03c0.087,0.01 0.181,0.002 0.284,-0.03Z" style="fill:#b9c4f7;"/><path d="M129.583,101.084c-0.056,0.001 -0.113,0.002 -0.127,0.065c-0.01,0.045 -0.174,-0.095 -0.109,-0.092c0.185,0.009 -0.021,-0.335 -0.007,-0.558c0.011,-0.192 0.078,-0.323 0.116,-0.497c0.084,-0.403 0.417,-0.57 0.586,-0.815c0.185,-0.193 0.338,-0.405 0.56,-0.555c0.219,-0.148 0.464,-0.235 0.718,-0.309c0.422,-0.124 0.764,-0.175 1.202,-0.22c0.473,-0.05 0.784,-0.048 1.257,-0.063c0.383,-0.219 0.87,-0.087 1.089,0.296c0.22,0.382 0.087,0.87 -0.295,1.089c-0.345,0.527 -0.521,0.92 -0.889,1.436c-0.212,0.294 -0.382,0.555 -0.641,0.81c-0.099,0.097 -0.208,0.184 -0.327,0.253c-0.187,0.107 -0.389,0.149 -0.586,0.234c0.068,-0.02 0.058,-0.135 0.132,-0.172c0.025,-0.012 -0.009,-0.052 -0.025,-0.08c-0.456,-0.798 -1.556,1.167 -1.911,1.046c-0.294,-0.099 -0.586,0.126 -0.74,-0.161c-0.042,-0.078 -0.159,-0.059 -0.185,-0.159c-0.035,-0.13 -0.223,-0.169 -0.202,-0.372c-0.212,-0.433 -0.039,-0.954 0.384,-1.176Zm0.178,-0.071c-0.018,0.001 -0.035,0.004 -0.049,0.016l0.049,-0.016Zm1.021,0.44c-0.002,-0.027 0.017,-0.063 -0.006,-0.073c-0.111,-0.047 -0.074,-0.202 -0.164,-0.207c-0.083,-0.005 -0.096,-0.121 -0.17,-0.108c-0.022,0.004 -0.043,0.005 -0.064,0.002c0.168,0.079 0.312,0.211 0.404,0.386Zm-0.593,-0.451c-0.099,-0.049 -0.187,-0.096 -0.275,-0.017c0.093,-0.009 0.186,-0.002 0.275,0.017Z" style="fill:#b9c4f7;"/><path d="M143.848,94.287c-0.187,-0.208 -0.272,-0.502 -0.204,-0.795c0.032,-0.267 0.214,-0.403 0.349,-0.523c0.191,-0.172 0.527,-0.263 1.005,-0.025c0.052,0.024 0.156,0.122 0.309,0.292c0.11,0.123 0.32,0.399 0.61,0.784c0.774,1.027 2.101,2.852 3.229,4.494c1.002,1.461 1.821,2.76 2.042,3.126c0.857,1.557 1.762,3.085 2.525,4.684c0.77,1.617 1.426,3.278 2.036,4.957c1.228,3.379 2.162,6.814 2.86,10.37c0.121,0.423 -0.123,0.866 -0.547,0.987c-0.424,0.122 -0.865,-0.123 -0.987,-0.547c-0.766,-1.964 -1.643,-3.838 -2.558,-5.72c-0.768,-1.579 -1.577,-3.12 -2.396,-4.673c-0.545,-1.034 -1.103,-2.058 -1.636,-3.101c-0.443,-0.868 -0.871,-1.746 -1.289,-2.63c-0.419,-0.887 -0.804,-1.788 -1.214,-2.682c-0.16,-0.379 -0.802,-1.705 -1.513,-3.251c-0.824,-1.789 -1.721,-3.833 -2.262,-4.983c-0.106,-0.226 -0.171,-0.483 -0.234,-0.636l0.007,0.004l0.034,0.012l-0.027,-0.018l-0.022,-0.017c-0.037,-0.086 -0.073,-0.131 -0.117,-0.109c0.035,0.039 0.074,0.076 0.117,0.109l0.008,0.019c-0.085,-0.031 -0.211,-0.079 -0.127,-0.127l0.002,-0.001Zm0.674,0.295c-0.071,0.002 -0.143,-0.006 -0.215,-0.022c-0.086,-0.02 -0.166,-0.052 -0.238,-0.094c0.159,0.115 0.318,0.128 0.453,0.116Zm0.651,-0.296c-0.116,0.129 -0.268,0.222 -0.435,0.267c0.172,-0.026 0.317,-0.115 0.435,-0.267Z" style="fill:#b9c4f7;"/><path d="M155.099,91.521c1.376,-0.579 3.311,0.954 0.656,1.691c0.03,0.075 0.049,0.156 0.058,0.241c0.014,0.086 0.014,0.157 0.008,0.216c0.365,1.302 0.963,2.808 1.654,4.418c0.447,1.044 0.944,2.115 1.444,3.204c0.748,1.628 1.546,3.256 2.258,4.804c0.964,2.092 1.782,4.026 2.401,5.462c0.133,0.354 2.507,6.533 3.371,9.026c0.166,0.479 0.282,0.831 0.327,1.003c0.205,0.785 -0.106,1.241 -0.169,1.316c-0.373,0.446 -1.077,0.894 -2.078,1.101c-1.85,0.383 -4.85,0.278 -6.087,0.595c-0.419,0.14 -0.871,-0.085 -1.01,-0.503c-0.141,-0.418 0.085,-0.871 0.503,-1.01c1.044,-0.435 3.478,-0.75 5.283,-1.251c0.195,-0.055 0.408,-0.138 0.604,-0.224c-1.153,-2.392 -4.056,-8.2 -4.223,-8.534c-0.557,-1.246 -1.35,-2.836 -2.116,-4.641c-0.952,-2.249 -1.911,-4.8 -2.7,-7.277c-1.056,-3.315 -1.761,-6.484 -1.773,-8.681c0.005,-1.073 0.891,-1.152 1.042,-1.134c0.058,0.007 0.311,0.021 0.547,0.178c-0.493,0.208 -0.915,0.685 -1.027,1.569l0.062,0.043c0.134,-0.264 0.396,-0.455 0.712,-0.484c0.212,-0.02 0.413,0.037 0.577,0.148c0.016,-0.039 0.03,-0.082 0.041,-0.127c0.012,-0.05 0.084,-0.16 0.053,-0.35l0.008,0.049c0.014,0.178 0.027,0.394 0.054,0.563l0.037,0.04l0.04,0.054l0.045,0.19c0.011,0.004 0.024,0.004 0.037,0.001l0.017,-0.005c-0.026,-0.067 -0.06,-0.129 -0.099,-0.186l-0.024,-0.101c-0.021,-0.102 -0.042,-0.205 -0.063,-0.307l-0.044,-0.249c-0.009,-0.124 -0.018,-0.229 -0.035,-0.288c-0.076,-0.281 -0.229,-0.455 -0.391,-0.56Zm9.465,30.51c-0.122,0.292 -0.155,0.536 0.156,0.408c0.088,-0.036 -0.02,-0.196 -0.156,-0.408Z" style="fill:#b9c4f7;"/><path d="M146.521,95.596c-0.079,0.152 -0.204,0.283 -0.366,0.37c-0.432,0.231 -0.971,0.069 -1.203,-0.364c-0.19,-0.05 0.045,-0.252 -0.111,-0.388c-0.049,-0.042 0.046,-0.084 0.002,-0.136c-0.078,-0.094 0.127,-0.133 0.069,-0.277c-0.039,-0.096 0.143,-0.081 0.126,-0.233c-0.007,-0.077 0.105,-0.05 0.116,-0.168c0.02,-0.229 0.135,-0.321 0.398,-0.906c0.113,-0.254 0.193,-0.439 0.433,-0.673c0.095,-0.093 0.22,-0.167 0.352,-0.204c0.158,-0.044 0.282,-0.029 0.44,-0.012c0.871,0.089 1.184,0.283 1.467,0.342c0.392,-0.201 0.873,-0.045 1.074,0.347c0.2,0.392 0.045,0.873 -0.347,1.074c-0.118,0.267 -0.179,0.626 -0.643,1.379c-0.081,0.131 -0.136,0.24 -0.261,0.336c-0.102,0.077 -0.226,0.126 -0.348,0.149c-0.262,0.047 -0.422,-0.015 -0.646,-0.049c-0.417,-0.062 -0.63,-0.453 -0.665,-0.251c-0.004,0.025 -0.043,-0.047 -0.023,-0.043c0.062,0.008 -0.003,-0.102 0.039,-0.102c0.126,-0.002 0.088,-0.117 0.097,-0.191Zm0.07,-0.178c-0.012,0.043 -0.028,0.087 -0.047,0.129l0.016,-0.008c0.062,-0.023 0.039,-0.074 0.031,-0.121Zm0.028,-0.146l-0.012,0.08l0.008,-0.006c0.036,-0.023 0.016,-0.053 0.005,-0.083l-0.001,0.009Zm0.005,-0.086l-0.002,0.028l0.006,-0.008c0.02,-0.017 0.001,-0.034 -0.005,-0.051l0.001,0.031Zm-0.016,-0.173c0.004,0.029 0.008,0.058 0.012,0.087l0.002,0.034l0.004,-0.006c0.071,-0.075 0.02,-0.124 -0.034,-0.179l0.016,0.064Z" style="fill:#b9c4f7;"/><path d="M162.015,87.169c0.482,-0.31 1.045,-0.837 1.155,-0.898c0.801,-0.439 1.606,-0.869 2.419,-1.281c0.814,-0.413 1.638,-0.808 2.466,-1.194c0.508,-0.235 2.217,-0.506 2.823,1.404c0.182,0.573 0.415,1.893 0.788,3.191l2.192,7.759c0.86,3.09 1.706,6.174 2.606,9.249c0.596,2.039 1.208,4.069 1.882,6.088c0.176,0.529 1.159,2.526 1.416,3.826c0.15,0.762 0.06,1.378 -0.184,1.716c-0.266,0.368 -0.595,0.626 -0.998,0.78c-0.426,0.163 -0.931,0.225 -1.457,0.245c-0.495,0.02 -1.016,-0.027 -1.42,0.176c-0.385,0.213 -0.871,0.074 -1.085,-0.312c-0.213,-0.385 -0.074,-0.871 0.311,-1.085c0.758,-0.459 1.875,-0.394 2.733,-0.629c0.098,-0.027 0.187,-0.062 0.258,-0.123l0,-0.003c-0.099,-1.093 -1.458,-3.269 -1.68,-3.803c-0.829,-1.996 -1.607,-4.004 -2.349,-6.029c-1.108,-3.023 -2.133,-6.068 -3.186,-9.113l-2.571,-7.653c-0.124,-0.375 -0.203,-0.822 -0.268,-1.255l-2.801,1.473c-0.121,0.069 -0.243,0.138 -0.365,0.207l-0.428,0.24c0.797,2.131 2.068,5.578 2.327,6.3c1.866,5.473 3.402,11.65 5.438,17.404c0.873,2.469 1.818,4.86 2.963,7.071c0.244,0.425 0.096,0.969 -0.33,1.213c-0.425,0.244 -0.969,0.096 -1.213,-0.329c-1.379,-2.187 -2.593,-4.566 -3.689,-7.056c-2.461,-5.589 -4.341,-11.679 -6.56,-17.023c-0.327,-0.824 -2.149,-5.254 -2.893,-7.082c-0.137,-0.336 -0.235,-0.584 -0.283,-0.702c-0.009,-0.022 -0.02,-0.048 -0.02,-0.048l0.059,0.046c-0.109,-0.202 -0.17,-0.385 -0.188,-0.505c-0.093,-0.615 0.113,-1.238 0.555,-1.676c0.243,-0.241 0.541,-0.41 0.864,-0.496c-0.101,-0.308 0.359,-0.205 0.713,-0.093Zm0.837,0.319c0.288,0.184 0.596,0.494 0.798,1.013l0.012,0.032c-0.131,-0.445 -0.387,-0.806 -0.81,-1.045Zm-0.735,-0.286l-0.102,-0.033l-0.049,0.032c-0.225,-0.019 -0.45,0.002 -0.664,0.061l0.012,0.034c0.079,0.191 0.345,0.098 0.652,-0.095c0.051,0.003 0.103,0.01 0.153,0.018c0.002,0 0.031,0.002 0.078,0.011l-0.08,-0.028Zm5.564,-0.152c-0.089,-0.437 -0.209,-0.712 -0.429,-0.635c-0.395,0.14 0.053,0.437 0.429,0.635Z" style="fill:#b9c4f7;"/><path d="M117.15,103.677c-9.193,3.129 -18.784,6.734 -27.504,11.695c-5.908,3.362 -11.391,7.365 -16.144,12.139c-4.092,4.201 -5.308,9.364 -4.097,13.672c1.254,4.458 5.08,8.108 11.145,8.908c5.034,0.631 10.439,-0.197 15.804,-1.824c7.563,-2.293 15.044,-6.12 21.291,-9.084c2.345,-1.119 5.081,-3.082 7.815,-4.383c1.143,-0.543 2.281,-0.975 3.391,-1.142c0.436,-0.055 0.747,-0.455 0.692,-0.892c-0.056,-0.437 -0.455,-0.747 -0.892,-0.692c-1.27,0.129 -2.59,0.541 -3.919,1.097c-2.785,1.165 -5.601,2.999 -7.988,4.005c-6.25,2.648 -13.752,6.065 -21.254,8.039c-4.935,1.299 -9.866,1.974 -14.427,1.254c-4.29,-0.65 -7.023,-3.165 -7.894,-6.333c-0.869,-3.156 0.099,-6.884 3.069,-9.981c4.395,-4.686 9.547,-8.595 15.052,-12.019c8.382,-5.212 17.591,-9.278 26.475,-12.791c0.46,-0.17 0.696,-0.681 0.528,-1.141c-0.17,-0.46 -0.682,-0.697 -1.143,-0.527Z" style="fill:#b9c4f7;"/><path d="M189.363,109.984c0.482,-0.22 1.005,-0.478 1.553,-0.757c3.625,-1.847 8.241,-4.701 9.448,-5.382c2.685,-1.499 5.988,-3.291 9.254,-5.377c2.92,-1.866 5.79,-3.987 8.116,-6.391c3.074,-3.177 5.199,-6.866 4.699,-11.333c-0.236,-2.457 -1.87,-3.806 -4.133,-4.531c-1.535,-0.492 -3.329,-0.728 -5.248,-0.787c-7.781,-0.238 -17.465,2.3 -21.026,3.305l-8.299,2.392c-0.418,0.139 -0.87,-0.087 -1.01,-0.504c-0.139,-0.417 0.086,-0.87 0.504,-1.01l8.174,-2.904c2.301,-0.788 7.12,-2.364 12.398,-3.436c4.464,-0.908 9.247,-1.432 13.149,-0.914c5.056,0.671 8.654,3.11 9.285,7.963c0.638,5.662 -1.804,10.478 -5.765,14.442c-2.57,2.574 -5.777,4.781 -9.034,6.676c-3.417,1.987 -6.89,3.613 -9.703,5.001c-1.257,0.612 -6.077,3.213 -9.848,4.837c-2.334,1.005 -4.338,1.572 -5.094,1.378c-0.623,-0.16 -0.83,-0.536 -0.885,-0.863c-0.047,-0.281 -0.009,-0.741 0.427,-1.128c0.508,-0.449 1.827,-1.004 2.464,-0.94c0.226,0.015 0.427,0.113 0.574,0.263Zm-1.546,1.782c-0.165,0.095 -0.26,0.199 -0.177,0.281c0.136,0.133 0.175,-0.065 0.177,-0.281Z" style="fill:#b9c4f7;"/></svg>