<?xml version="1.0" encoding="UTF-8" standalone="no"?><!DOCTYPE svg PUBLIC "-//W3C//DTD SVG 1.1//EN" "http://www.w3.org/Graphics/SVG/1.1/DTD/svg11.dtd"><svg width="100%" height="100%" viewBox="0 0 60 54" version="1.1" xmlns="http://www.w3.org/2000/svg" xmlns:xlink="http://www.w3.org/1999/xlink" xml:space="preserve" xmlns:serif="http://www.serif.com/" style="fill-rule:evenodd;clip-rule:evenodd;stroke-linejoin:round;stroke-miterlimit:2;"><path d="M0.108,41.756c0.179,-0.287 0.466,-0.305 0.861,-0.053c8.967,5.201 18.724,7.801 29.27,7.801c7.03,0 13.971,-1.309 20.822,-3.927c0.18,-0.072 0.44,-0.18 0.781,-0.323c0.34,-0.144 0.583,-0.251 0.726,-0.323c0.538,-0.215 0.96,-0.108 1.264,0.323c0.305,0.43 0.207,0.825 -0.295,1.183c-0.646,0.467 -1.471,1.005 -2.476,1.615c-3.084,1.829 -6.528,3.246 -10.33,4.25c-3.802,1.005 -7.515,1.507 -11.138,1.507c-5.596,0 -10.887,-0.978 -15.873,-2.933c-4.986,-1.955 -9.451,-4.708 -13.397,-8.259c-0.215,-0.179 -0.323,-0.358 -0.323,-0.538c0,-0.107 0.036,-0.215 0.108,-0.323Zm16.195,-15.334c0,-2.475 0.61,-4.592 1.829,-6.349c1.22,-1.758 2.888,-3.085 5.004,-3.982c1.937,-0.825 4.323,-1.417 7.157,-1.775c0.968,-0.108 2.546,-0.252 4.734,-0.431l0,-0.915c0,-2.295 -0.251,-3.838 -0.753,-4.627c-0.753,-1.076 -1.937,-1.614 -3.551,-1.614l-0.43,0c-1.184,0.108 -2.206,0.484 -3.067,1.13c-0.861,0.646 -1.417,1.542 -1.668,2.69c-0.144,0.718 -0.503,1.13 -1.076,1.238l-6.188,-0.754c-0.61,-0.143 -0.915,-0.466 -0.915,-0.968c0,-0.108 0.018,-0.233 0.054,-0.377c0.61,-3.192 2.107,-5.56 4.493,-7.102c2.385,-1.543 5.174,-2.403 8.367,-2.583l1.345,0c4.089,0 7.281,1.058 9.577,3.175c0.36,0.36 0.693,0.747 0.995,1.157c0.305,0.412 0.547,0.78 0.727,1.103c0.179,0.322 0.341,0.789 0.484,1.399c0.144,0.609 0.251,1.031 0.323,1.264c0.072,0.233 0.125,0.735 0.161,1.507c0.036,0.771 0.054,1.228 0.054,1.372l0,13.021c0,0.932 0.135,1.784 0.404,2.555c0.269,0.771 0.529,1.327 0.78,1.668c0.251,0.341 0.663,0.888 1.237,1.641c0.216,0.323 0.323,0.61 0.323,0.861c0,0.287 -0.143,0.538 -0.43,0.753c-2.977,2.583 -4.592,3.982 -4.843,4.197c-0.43,0.323 -0.95,0.359 -1.56,0.108c-0.502,-0.431 -0.942,-0.843 -1.318,-1.238c-0.377,-0.394 -0.646,-0.681 -0.807,-0.86c-0.162,-0.18 -0.422,-0.53 -0.781,-1.05c-0.358,-0.52 -0.609,-0.87 -0.753,-1.049c-2.009,2.188 -3.981,3.551 -5.918,4.089c-1.22,0.359 -2.727,0.538 -4.52,0.538c-2.762,0 -5.031,-0.852 -6.807,-2.555c-1.775,-1.704 -2.663,-4.117 -2.663,-7.237Zm9.255,-1.076c0,1.399 0.349,2.52 1.049,3.362c0.699,0.843 1.641,1.265 2.825,1.265c0.107,0 0.26,-0.018 0.457,-0.054c0.197,-0.036 0.332,-0.054 0.404,-0.054c1.506,-0.394 2.672,-1.363 3.497,-2.905c0.394,-0.682 0.69,-1.426 0.888,-2.233c0.197,-0.807 0.305,-1.462 0.323,-1.964c0.017,-0.502 0.026,-1.327 0.026,-2.475l0,-1.345c-2.08,0 -3.658,0.143 -4.734,0.43c-3.157,0.897 -4.735,2.888 -4.735,5.973Zm22.598,17.325c0.072,-0.143 0.179,-0.287 0.323,-0.43c0.897,-0.61 1.757,-1.023 2.582,-1.238c1.364,-0.359 2.691,-0.556 3.982,-0.592c0.359,-0.036 0.7,-0.018 1.022,0.054c1.615,0.144 2.583,0.413 2.906,0.807c0.143,0.215 0.215,0.538 0.215,0.969l0,0.376c0,1.256 -0.341,2.735 -1.022,4.439c-0.682,1.704 -1.632,3.076 -2.852,4.116c-0.179,0.144 -0.341,0.216 -0.484,0.216c-0.072,0 -0.144,-0.018 -0.215,-0.054c-0.216,-0.108 -0.269,-0.305 -0.162,-0.592c1.327,-3.121 1.991,-5.291 1.991,-6.511c0,-0.394 -0.072,-0.681 -0.215,-0.86c-0.359,-0.431 -1.363,-0.646 -3.013,-0.646c-0.61,0 -1.328,0.036 -2.153,0.107c-0.896,0.108 -1.721,0.216 -2.475,0.323c-0.215,0 -0.358,-0.036 -0.43,-0.107c-0.072,-0.072 -0.09,-0.144 -0.054,-0.216c0,-0.035 0.018,-0.089 0.054,-0.161Z" style="fill-rule:nonzero;"/><g id="amazon-icon"></g></svg>