<?xml version="1.0" encoding="UTF-8" standalone="no"?><!DOCTYPE svg PUBLIC "-//W3C//DTD SVG 1.1//EN" "http://www.w3.org/Graphics/SVG/1.1/DTD/svg11.dtd"><svg width="100%" height="100%" viewBox="0 0 567 284" version="1.1" xmlns="http://www.w3.org/2000/svg" xmlns:xlink="http://www.w3.org/1999/xlink" xml:space="preserve" xmlns:serif="http://www.serif.com/" style="fill-rule:evenodd;clip-rule:evenodd;stroke-linejoin:round;stroke-miterlimit:2;"><path d="M138.18,213.451c0.87,-1.395 2.265,-1.482 4.185,-0.257c43.582,25.278 91.004,37.915 142.261,37.915c34.168,0 67.904,-6.362 101.202,-19.087c0.875,-0.35 2.138,-0.874 3.796,-1.569c1.652,-0.7 2.833,-1.22 3.528,-1.57c2.615,-1.045 4.666,-0.525 6.144,1.57c1.482,2.089 1.006,4.009 -1.434,5.749c-3.14,2.27 -7.15,4.885 -12.034,7.85c-14.99,8.889 -31.728,15.776 -50.207,20.656c-18.479,4.885 -36.526,7.325 -54.135,7.325c-27.198,0 -52.914,-4.754 -77.147,-14.256c-24.234,-9.502 -45.935,-22.882 -65.114,-40.141c-1.045,-0.87 -1.57,-1.74 -1.57,-2.615c0,-0.52 0.175,-1.045 0.525,-1.57Zm78.713,-74.528c0,-12.029 2.965,-22.319 8.889,-30.858c5.93,-8.545 14.037,-14.994 24.321,-19.354c9.415,-4.01 21.012,-6.887 34.786,-8.627c4.704,-0.525 12.374,-1.225 23.008,-2.095l0,-4.447c0,-11.154 -1.22,-18.654 -3.659,-22.489c-3.66,-5.229 -9.415,-7.844 -17.259,-7.844l-2.09,0c-5.755,0.525 -10.722,2.352 -14.907,5.492c-4.185,3.14 -6.887,7.495 -8.107,13.074c-0.7,3.49 -2.445,5.492 -5.23,6.017l-30.075,-3.664c-2.965,-0.695 -4.447,-2.265 -4.447,-4.705c0,-0.525 0.087,-1.133 0.262,-1.833c2.965,-15.514 10.241,-27.023 21.837,-34.517c11.592,-7.5 25.148,-11.68 40.667,-12.555l6.537,0c19.874,0 35.388,5.143 46.547,15.432c1.75,1.75 3.368,3.63 4.836,5.623c1.482,2.003 2.659,3.791 3.533,5.361c0.87,1.565 1.658,3.835 2.353,6.8c0.7,2.96 1.22,5.011 1.57,6.143c0.35,1.133 0.607,3.572 0.782,7.325c0.175,3.747 0.263,5.968 0.263,6.668l0,63.286c0,4.53 0.656,8.671 1.963,12.418c1.308,3.748 2.571,6.45 3.791,8.107c1.22,1.658 3.223,4.316 6.013,7.976c1.049,1.57 1.569,2.965 1.569,4.185c0,1.395 -0.695,2.615 -2.09,3.66c-14.469,12.554 -22.318,19.353 -23.538,20.398c-2.09,1.57 -4.617,1.745 -7.582,0.525c-2.44,-2.094 -4.579,-4.097 -6.406,-6.017c-1.832,-1.915 -3.14,-3.31 -3.922,-4.18c-0.788,-0.874 -2.051,-2.576 -3.796,-5.103c-1.74,-2.527 -2.96,-4.228 -3.66,-5.098c-9.764,10.634 -19.349,17.259 -28.763,19.873c-5.93,1.745 -13.254,2.615 -21.969,2.615c-13.424,0 -24.452,-4.141 -33.084,-12.418c-8.627,-8.282 -12.943,-20.01 -12.943,-35.174Zm44.982,-5.23c0,6.8 1.696,12.248 5.099,16.341c3.397,4.097 7.975,6.148 13.73,6.148c0.52,0 1.264,-0.087 2.221,-0.262c0.958,-0.175 1.614,-0.263 1.964,-0.263c7.319,-1.915 12.986,-6.625 16.996,-14.119c1.915,-3.315 3.354,-6.931 4.316,-10.853c0.958,-3.922 1.483,-7.106 1.57,-9.546c0.083,-2.44 0.126,-6.45 0.126,-12.029l0,-6.537c-10.109,0 -17.779,0.695 -23.008,2.09c-15.344,4.359 -23.014,14.036 -23.014,29.03Zm109.833,84.205c0.35,-0.695 0.87,-1.395 1.57,-2.09c4.36,-2.964 8.54,-4.972 12.55,-6.017c6.629,-1.745 13.079,-2.702 19.353,-2.877c1.745,-0.175 3.403,-0.087 4.968,0.262c7.849,0.7 12.554,2.008 14.124,3.923c0.695,1.045 1.045,2.615 1.045,4.709l0,1.828c0,6.104 -1.658,13.293 -4.967,21.575c-3.315,8.282 -7.933,14.95 -13.862,20.005c-0.87,0.7 -1.657,1.05 -2.352,1.05c-0.35,0 -0.7,-0.088 -1.045,-0.263c-1.05,-0.525 -1.308,-1.482 -0.788,-2.877c6.45,-15.169 9.677,-25.716 9.677,-31.646c0,-1.915 -0.35,-3.309 -1.045,-4.179c-1.745,-2.095 -6.625,-3.14 -14.644,-3.14c-2.965,0 -6.455,0.175 -10.464,0.52c-4.355,0.525 -8.365,1.05 -12.03,1.57c-1.045,0 -1.74,-0.175 -2.09,-0.52c-0.349,-0.35 -0.437,-0.7 -0.262,-1.05c0,-0.17 0.088,-0.433 0.262,-0.783Z" style="fill-rule:nonzero;"/><g id="amazonMusic"></g></svg>