<?xml version="1.0" encoding="UTF-8" standalone="no"?><!DOCTYPE svg PUBLIC "-//W3C//DTD SVG 1.1//EN" "http://www.w3.org/Graphics/SVG/1.1/DTD/svg11.dtd"><svg width="100%" height="100%" viewBox="0 0 287 63" version="1.1" xmlns="http://www.w3.org/2000/svg" xmlns:xlink="http://www.w3.org/1999/xlink" xml:space="preserve" xmlns:serif="http://www.serif.com/" style="fill-rule:evenodd;clip-rule:evenodd;stroke-linejoin:round;stroke-miterlimit:2;"><g><path d="M253.164,0.745c1.356,-0.25 2.714,-0.497 4.071,-0.745l0,31.275c0.011,0.91 -0.036,2.277 0.069,3.183c0.2,1.477 0.808,2.652 2.505,2.852c0.855,0.104 1.703,-0.143 2.493,-0.453c0.332,0.942 0.681,1.881 1.017,2.823c-1.384,0.65 -2.902,0.979 -4.422,1.067c-0.867,0.041 -1.751,-0.007 -2.583,-0.265c-2.05,-0.666 -3.079,-2.514 -3.15,-4.595l0,-35.142Z" style="fill:#fff;"/><path d="M241.043,0.503c0.896,-0.174 1.858,0.032 2.603,0.562c0.609,0.425 1.074,1.057 1.294,1.767c0.245,0.789 0.195,1.666 -0.145,2.419c-0.379,0.839 -1.111,1.512 -1.982,1.813c-0.847,0.299 -1.811,0.248 -2.617,-0.148c-0.676,-0.326 -1.239,-0.879 -1.571,-1.554c-0.418,-0.832 -0.467,-1.84 -0.136,-2.71c0.401,-1.095 1.407,-1.941 2.554,-2.149Z" style="fill:#fff;"/><path d="M207.257,13.122c1.015,-0.315 2.079,-0.521 3.147,-0.473c0.983,0.038 1.973,0.318 2.78,0.898c0.823,0.585 1.425,1.437 1.826,2.357c1.369,-1.057 3.054,-1.923 4.901,-2.566c1.058,-0.375 2.53,-0.622 3.659,-0.576c0.95,0.037 1.894,0.333 2.672,0.882c0.635,0.434 1.156,1.014 1.59,1.644c0.347,0.492 0.656,1.019 0.854,1.588c0.141,0.403 0.181,0.831 0.202,1.255c0.003,7.087 0.03,14.175 0.033,21.264c-0.001,0.252 -0.149,0.585 -0.441,0.583c-0.979,0.002 -1.958,0 -2.935,0.002c-0.173,0.003 -0.358,-0.024 -0.487,-0.147c-0.127,-0.11 -0.169,-0.282 -0.165,-0.442c0.001,-6.135 0,-12.269 0.001,-18.403c-0.001,-0.481 0.04,-0.968 -0.048,-1.445c-0.081,-0.464 -0.277,-0.897 -0.498,-1.31c-0.364,-0.674 -0.901,-1.272 -1.591,-1.622c-0.849,-0.44 -1.59,-0.471 -2.512,-0.276c-1.523,0.338 -3.021,1.229 -4.307,2.221c0.005,6.802 0.001,13.605 0.001,20.41c-0.007,0.211 0.029,0.434 -0.047,0.638c-0.091,0.229 -0.344,0.352 -0.58,0.35c-0.948,0.002 -1.895,0 -2.842,0c-0.209,-0.005 -0.433,-0.017 -0.599,-0.153c-0.151,-0.118 -0.192,-0.32 -0.189,-0.501c-0.003,-6.52 0.003,-13.039 -0.003,-19.559c-0.131,-0.972 -0.438,-1.97 -1.11,-2.71c-0.528,-0.586 -1.313,-0.893 -2.091,-0.912c-1.087,-0.037 -2.138,0.334 -3.109,0.786c-0.928,0.449 -1.8,1.009 -2.605,1.651c-0.045,6.787 -0.097,13.573 -0.144,20.36c-0.004,0.282 0.015,0.575 -0.079,0.845c-0.059,0.174 -0.209,0.336 -0.404,0.33c-1.008,0.003 -2.017,0 -3.025,0.002c-0.16,0.001 -0.34,-0.032 -0.444,-0.166c-0.117,-0.15 -0.122,-0.35 -0.125,-0.53l0,-15.861c-0.01,-1.315 0.02,-2.629 -0.023,-3.944c-0.052,-1.098 -0.14,-2.203 -0.428,-3.266c-0.126,-0.448 -0.302,-0.879 -0.528,-1.283c-0.096,-0.17 -0.115,-0.39 -0.015,-0.56c0.107,-0.201 0.317,-0.309 0.513,-0.411c0.708,-0.361 1.415,-0.724 2.123,-1.087c0.198,-0.113 0.454,-0.213 0.67,-0.086c0.199,0.134 0.231,0.39 0.306,0.602c0.282,0.799 0.555,1.602 0.835,2.401c1.605,-1.173 3.359,-2.172 5.261,-2.78Z" style="fill:#fff;"/><path d="M181.131,13.021c2.264,-0.496 4.642,-0.219 6.814,0.542c0.581,0.195 1.148,0.433 1.707,0.689c0.307,0.151 0.588,0.407 0.671,0.753c0.04,0.203 0.045,0.428 -0.041,0.622c-0.271,0.573 -0.556,1.14 -0.823,1.713c-0.096,0.203 -0.283,0.351 -0.489,0.431c-0.24,0.086 -0.498,0.017 -0.714,-0.094c-0.842,-0.396 -1.711,-0.737 -2.612,-0.974c-1.121,-0.293 -2.308,-0.422 -3.454,-0.202c-0.83,0.164 -1.638,0.538 -2.219,1.163c-0.688,0.704 -1.011,1.73 -0.893,2.703c0.119,1.092 0.753,2.079 1.608,2.749c0.334,0.272 0.711,0.485 1.096,0.679c1.88,0.971 3.761,1.937 5.641,2.91c1.506,0.952 2.795,2.308 3.486,3.966c0.45,1.083 0.627,2.278 0.49,3.443c-0.165,1.514 -0.891,2.929 -1.924,4.035c-0.177,0.153 -0.341,0.318 -0.511,0.478c-0.769,0.654 -1.649,1.179 -2.599,1.521c-1.024,0.405 -2.122,0.591 -3.215,0.648c-2.7,0.119 -5.366,-0.614 -7.811,-1.713c-0.286,-0.138 -0.598,-0.242 -0.835,-0.46c-0.239,-0.222 -0.3,-0.581 -0.203,-0.885c0.133,-0.401 0.336,-0.775 0.5,-1.163c0.182,-0.385 0.301,-0.82 0.623,-1.119c0.154,-0.156 0.398,-0.231 0.603,-0.131c0.428,0.19 0.837,0.421 1.273,0.594c0.879,0.384 1.789,0.699 2.722,0.922c1.37,0.313 2.795,0.414 4.191,0.235c0.847,-0.199 1.623,-0.695 2.166,-1.375c0.649,-0.764 0.971,-1.795 0.871,-2.792c-0.094,-0.902 -0.535,-1.755 -1.186,-2.382c-0.544,-0.562 -1.234,-0.955 -1.934,-1.286c-0.934,-0.462 -1.872,-0.919 -2.805,-1.382c-0.41,-0.22 -0.867,-0.336 -1.282,-0.544c-1.786,-0.801 -3.367,-2.136 -4.287,-3.879c-0.474,-0.904 -0.772,-1.909 -0.826,-2.929c-0.067,-1.13 0.161,-2.279 0.662,-3.296c0.817,-1.697 2.34,-2.975 4.046,-3.723c0.47,-0.233 0.986,-0.346 1.493,-0.467Z" style="fill:#fff;"/><path d="M272.324,13.601c1.199,-0.479 2.496,-0.696 3.785,-0.675c1.339,0.017 2.684,0.256 3.921,0.778c0.996,0.419 1.913,1.024 2.693,1.772c1.633,1.56 2.634,3.675 3.173,5.846c0.518,2.02 0.631,4.118 0.599,6.195c-5.639,0.001 -11.279,0.001 -16.92,0c0.01,2.169 0.545,4.386 1.804,6.179c0.461,0.679 1.046,1.265 1.687,1.774c1.011,0.771 2.219,1.269 3.473,1.473c1.288,0.221 2.622,0.17 3.893,-0.131c1.473,-0.326 2.892,-0.902 4.167,-1.706c0.264,0.624 0.545,1.241 0.817,1.862c0.146,0.358 0.329,0.7 0.452,1.068c-0.998,0.649 -2.073,1.181 -3.198,1.573c-1.077,0.407 -2.203,0.686 -3.342,0.853c-1.436,0.197 -2.905,0.138 -4.327,-0.132c-2.198,-0.405 -4.273,-1.474 -5.841,-3.072c-1.566,-1.586 -2.628,-3.615 -3.234,-5.748c-0.49,-1.698 -0.705,-3.47 -0.707,-5.236c0.002,-2.724 0.557,-5.49 1.88,-7.889c1.149,-2.109 2.97,-3.899 5.225,-4.784Zm0.303,3.833c-1.014,0.705 -1.77,1.736 -2.26,2.861c-0.513,1.18 -0.729,2.471 -0.742,3.752c4.156,-0.002 8.311,0 12.466,0c-0.01,-1.119 -0.191,-2.236 -0.564,-3.292c-0.369,-1.012 -0.912,-1.976 -1.673,-2.745c-0.808,-0.823 -1.876,-1.404 -3.024,-1.559c-1.458,-0.214 -2.998,0.125 -4.203,0.983Z" style="fill:#fff;"/><path d="M234.934,13.843c-0.014,-0.193 0.177,-0.328 0.359,-0.306c2.841,0 5.683,0 8.525,0.002c0.189,-0.024 0.369,0.14 0.342,0.334c-0.002,8.525 0,17.048 -0.002,25.57c0.021,0.209 -0.145,0.417 -0.358,0.412c-1.121,0.007 -2.241,-0.001 -3.36,0.004c-0.137,0 -0.298,-0.002 -0.388,-0.117c-0.08,-0.078 -0.097,-0.191 -0.097,-0.294c-0.002,-7.513 0.001,-15.025 -0.002,-22.54c-1.566,-0.001 -3.134,0.002 -4.702,-0.001c-0.167,0.012 -0.323,-0.131 -0.315,-0.3c-0.006,-0.921 -0.005,-1.843 -0.002,-2.764Z" style="fill:#fff;"/><path d="M107.179,42.443c1.452,-0.027 2.913,0.056 4.338,0.355c0.555,0.125 1.112,0.266 1.623,0.521c0.279,0.138 0.551,0.344 0.648,0.652c0.21,0.629 0.197,1.306 0.177,1.96c-0.053,1.022 -0.22,2.036 -0.449,3.03c-0.516,2.205 -1.352,4.339 -2.526,6.275c-0.75,1.212 -1.641,2.349 -2.72,3.288c-0.271,0.247 -0.578,0.505 -0.96,0.538c-0.201,0.026 -0.427,-0.064 -0.513,-0.256c-0.086,-0.201 -0.049,-0.432 0.026,-0.629c0.904,-2.279 1.8,-4.57 2.44,-6.94c0.151,-0.592 0.293,-1.185 0.385,-1.79c0.102,-0.709 0.194,-1.45 -0.011,-2.151c-0.099,-0.347 -0.363,-0.622 -0.678,-0.783c-0.538,-0.278 -1.145,-0.386 -1.738,-0.468c-1.471,-0.168 -2.956,-0.119 -4.43,-0.03c-1.639,0.105 -3.272,0.287 -4.902,0.486c-0.237,0.028 -0.511,0.006 -0.683,-0.177c-0.156,-0.156 -0.139,-0.408 -0.048,-0.592c0.151,-0.314 0.444,-0.525 0.732,-0.707c1.251,-0.843 2.662,-1.429 4.11,-1.838c1.684,-0.476 3.432,-0.704 5.179,-0.744Z" style="fill:#fff;"/><path d="M24.422,44.239c0.274,-0.069 0.567,-0.007 0.813,0.129c0.933,0.509 1.853,1.047 2.792,1.55c7.171,3.809 14.889,6.566 22.822,8.277c4.617,0.985 9.308,1.628 14.022,1.889c9.443,0.555 18.962,-0.535 28.08,-3.027c3.543,-0.976 7.029,-2.159 10.423,-3.574c0.356,-0.137 0.705,-0.32 1.093,-0.356c0.549,-0.065 1.149,0.18 1.425,0.676c0.218,0.368 0.183,0.847 -0.043,1.202c-0.25,0.417 -0.682,0.665 -1.062,0.945c-3.974,2.843 -8.402,5.014 -12.988,6.678c-3.182,1.153 -6.454,2.054 -9.771,2.726c-4.742,0.955 -9.584,1.437 -14.422,1.345c-4.72,-0.084 -9.436,-0.646 -14.036,-1.711c-7.823,-1.794 -15.308,-5.042 -21.96,-9.533c-2.397,-1.614 -4.687,-3.388 -6.851,-5.306c-0.259,-0.25 -0.577,-0.451 -0.759,-0.771c-0.14,-0.234 -0.167,-0.546 -0.032,-0.787c0.09,-0.177 0.265,-0.303 0.454,-0.352Z" style="fill:#fff;"/><path d="M7.321,12.375c1.55,-0.531 3.188,-0.77 4.823,-0.808c1.334,-0.05 2.672,0.092 3.971,0.398c1.027,0.249 2.034,0.604 2.954,1.133c1.393,0.777 2.545,2.01 3.13,3.505c0.434,1.103 0.584,2.295 0.638,3.473c0.046,1.12 0.024,2.241 0.024,3.363l0,6.97c0,0.936 -0.034,1.891 0.224,2.801c0.231,0.895 0.731,1.69 1.281,2.423c0.247,0.363 0.578,0.684 0.699,1.119c0.097,0.304 0.037,0.67 -0.218,0.881c-1.208,1.032 -2.411,2.071 -3.602,3.125c-0.27,0.231 -0.524,0.514 -0.877,0.614c-0.315,0.08 -0.688,0.043 -0.937,-0.183c-0.628,-0.538 -1.236,-1.106 -1.746,-1.759c-0.413,-0.538 -0.78,-1.109 -1.166,-1.668c-1.152,1.162 -2.4,2.276 -3.901,2.964c-1.023,0.473 -2.141,0.716 -3.259,0.805c-1.21,0.094 -2.444,0.099 -3.631,-0.178c-0.981,-0.218 -1.924,-0.621 -2.738,-1.213c-0.694,-0.501 -1.283,-1.143 -1.741,-1.865c-0.711,-1.149 -1.093,-2.483 -1.206,-3.825c-0.136,-1.646 0.041,-3.341 0.689,-4.87c0.609,-1.487 1.673,-2.773 2.978,-3.704c0.875,-0.629 1.857,-1.105 2.877,-1.449c0.827,-0.288 1.684,-0.468 2.539,-0.644c2.103,-0.395 4.237,-0.562 6.359,-0.798c-0.014,-1.017 0.062,-2.043 -0.1,-3.051c-0.11,-0.586 -0.301,-1.179 -0.699,-1.635c-0.594,-0.722 -1.533,-1.064 -2.443,-1.142c-1.111,-0.074 -2.281,0.171 -3.179,0.853c-0.61,0.452 -1.054,1.109 -1.278,1.83c-0.094,0.283 -0.115,0.589 -0.264,0.852c-0.136,0.245 -0.344,0.471 -0.623,0.544c-0.156,0.046 -0.318,0.008 -0.475,-0.006c-1.428,-0.153 -2.856,-0.306 -4.285,-0.459c-0.234,-0.028 -0.479,-0.024 -0.696,-0.13c-0.234,-0.105 -0.45,-0.279 -0.541,-0.527c-0.103,-0.261 -0.029,-0.543 0.029,-0.805c0.283,-1.317 0.821,-2.589 1.642,-3.661c1.173,-1.573 2.902,-2.663 4.748,-3.273Zm3.989,15.33c-0.891,0.275 -1.762,0.7 -2.411,1.383c-0.219,0.202 -0.381,0.455 -0.551,0.697c-0.564,0.912 -0.734,2.018 -0.672,3.077c0.046,0.859 0.29,1.741 0.853,2.411c0.473,0.578 1.191,0.931 1.931,1.004c0.93,0.11 1.891,-0.172 2.629,-0.743c0.713,-0.513 1.242,-1.245 1.626,-2.026c0.372,-0.758 0.574,-1.587 0.671,-2.421c0.134,-1.291 0.08,-2.591 0.091,-3.887c-1.401,0 -2.819,0.103 -4.167,0.505Z" style="fill:#fff;"/><path d="M77.195,12.082c1.309,-0.347 2.665,-0.496 4.016,-0.52c1.168,-0.03 2.338,0.091 3.481,0.333c0.982,0.214 1.95,0.522 2.846,0.98c0.762,0.384 1.477,0.875 2.068,1.495c0.67,0.654 1.176,1.469 1.51,2.343c0.401,1.072 0.543,2.221 0.595,3.36c0.05,1.185 0.021,2.371 0.024,3.555c0.002,2.596 -0.001,5.194 0.002,7.79c-0.002,0.88 0.145,1.767 0.501,2.575c0.365,0.818 0.923,1.528 1.457,2.243c0.208,0.29 0.361,0.657 0.275,1.019c-0.041,0.186 -0.167,0.337 -0.31,0.46c-1.132,0.948 -2.251,1.913 -3.362,2.887c-0.253,0.213 -0.481,0.455 -0.761,0.633c-0.369,0.253 -0.917,0.237 -1.251,-0.068c-0.699,-0.597 -1.37,-1.237 -1.911,-1.983c-0.336,-0.467 -0.651,-0.947 -0.973,-1.423c-1.219,1.238 -2.561,2.422 -4.188,3.089c-1.095,0.457 -2.282,0.658 -3.463,0.713c-1.203,0.067 -2.427,0.016 -3.588,-0.323c-0.952,-0.267 -1.859,-0.719 -2.618,-1.356c-0.676,-0.552 -1.23,-1.245 -1.646,-2.012c-0.53,-0.996 -0.834,-2.104 -0.952,-3.225c-0.2,-2.003 0.075,-4.103 1.06,-5.881c0.909,-1.676 2.409,-2.992 4.126,-3.801c0.963,-0.458 1.986,-0.778 3.029,-1.002c2.365,-0.537 4.791,-0.709 7.196,-0.978c-0.027,-1.162 0.103,-2.347 -0.193,-3.485c-0.141,-0.537 -0.409,-1.041 -0.813,-1.425c-0.622,-0.595 -1.488,-0.874 -2.335,-0.926c-1.078,-0.05 -2.203,0.202 -3.072,0.864c-0.692,0.512 -1.17,1.291 -1.361,2.13c-0.056,0.256 -0.126,0.518 -0.291,0.73c-0.159,0.226 -0.422,0.4 -0.705,0.384c-1.652,-0.172 -3.304,-0.352 -4.958,-0.526c-0.497,-0.057 -0.973,-0.51 -0.879,-1.039c0.314,-1.841 1.153,-3.615 2.49,-4.932c1.341,-1.358 3.121,-2.21 4.954,-2.678Zm2.953,15.634c-1.047,0.328 -2.072,0.888 -2.723,1.795c-0.537,0.694 -0.783,1.57 -0.854,2.434c-0.066,0.899 0.016,1.835 0.411,2.656c0.314,0.667 0.874,1.227 1.57,1.487c0.931,0.352 2.01,0.256 2.885,-0.212c0.903,-0.476 1.581,-1.287 2.049,-2.179c0.437,-0.805 0.679,-1.704 0.781,-2.612c0.14,-1.291 0.075,-2.589 0.091,-3.885c-1.415,0.002 -2.849,0.103 -4.21,0.516Z" style="fill:#fff;"/><path d="M39.427,12.565c0.856,-0.432 1.806,-0.651 2.76,-0.717c1.02,-0.062 2.064,0.015 3.04,0.336c1.17,0.371 2.185,1.141 2.94,2.101c0.611,0.764 1.074,1.633 1.467,2.526c0.326,-0.834 0.758,-1.631 1.334,-2.317c0.721,-0.876 1.654,-1.571 2.695,-2.023c1.973,-0.839 4.283,-0.861 6.271,-0.054c1.418,0.569 2.65,1.612 3.406,2.943c0.516,0.913 0.759,1.951 0.88,2.986c0.137,1.211 0.104,2.432 0.091,3.649c-0.027,2.644 -0.007,5.288 -0.013,7.932c-0.001,3.444 0.002,6.887 -0.003,10.331c0.005,0.516 -0.465,0.944 -0.968,0.95c-1.681,0.005 -3.363,0 -5.042,0.003c-0.237,0.008 -0.484,-0.001 -0.694,-0.122c-0.319,-0.166 -0.516,-0.517 -0.508,-0.874c-0.003,-2.773 0,-5.545 -0.001,-8.318c0.007,-2.516 -0.018,-5.031 0.019,-7.548c0.003,-0.877 0.006,-1.755 -0.055,-2.631c-0.046,-0.647 -0.179,-1.305 -0.502,-1.875c-0.242,-0.418 -0.607,-0.767 -1.049,-0.967c-0.553,-0.255 -1.175,-0.306 -1.777,-0.301c-1.445,0.071 -2.744,1.178 -3.134,2.559c-0.302,1.095 -0.336,2.243 -0.359,3.375c-0.008,5.235 0,10.47 -0.004,15.705c0.007,0.339 -0.171,0.678 -0.469,0.846c-0.207,0.129 -0.457,0.163 -0.697,0.151c-1.586,-0.001 -3.171,-0.001 -4.756,-0.001c-0.218,-0.002 -0.446,0.021 -0.656,-0.057c-0.318,-0.113 -0.563,-0.405 -0.616,-0.737c-0.025,-0.179 -0.014,-0.36 -0.016,-0.538c-0.001,-2.549 -0.005,-5.097 -0.006,-7.645c-0.007,-2.676 -0.018,-5.35 0.013,-8.025c0.011,-0.853 -0.01,-1.71 -0.134,-2.555c-0.107,-0.656 -0.274,-1.318 -0.634,-1.886c-0.358,-0.595 -0.967,-1.028 -1.652,-1.164c-0.757,-0.152 -1.576,-0.117 -2.292,0.196c-0.606,0.261 -1.081,0.764 -1.386,1.34c-0.439,0.839 -0.599,1.789 -0.691,2.722c-0.092,1.006 -0.078,2.018 -0.078,3.029c-0.003,4.789 0,9.579 -0.005,14.368c0.005,0.519 -0.474,0.95 -0.982,0.95c-1.747,0.005 -3.493,0 -5.241,0.003c-0.404,0.013 -0.796,-0.254 -0.936,-0.633c-0.076,-0.193 -0.056,-0.403 -0.059,-0.603c0.003,-8.861 -0.001,-17.722 0.003,-26.584c-0.016,-0.535 0.465,-1.003 0.993,-1.001c1.619,-0.012 3.24,-0.002 4.86,-0.005c0.407,-0.01 0.797,0.253 0.952,0.627c0.097,0.21 0.068,0.447 0.073,0.67c0,1.047 -0.002,2.093 0,3.137c0.084,0.008 0.116,-0.064 0.14,-0.13c0.344,-0.904 0.815,-1.767 1.439,-2.51c0.563,-0.666 1.257,-1.226 2.039,-1.614Z" style="fill:#fff;"/><path d="M131.298,11.864c2.19,-0.162 4.453,0.217 6.386,1.288c1.621,0.883 2.974,2.222 3.964,3.774c1.084,1.681 1.77,3.594 2.171,5.547c0.414,2.066 0.529,4.192 0.37,6.293c-0.182,2.184 -0.709,4.355 -1.68,6.325c-0.759,1.56 -1.814,2.988 -3.135,4.117c-1.544,1.327 -3.475,2.191 -5.493,2.462c-2.216,0.298 -4.541,0.011 -6.554,-0.99c-1.602,-0.791 -2.969,-2.018 -3.991,-3.478c-1.141,-1.615 -1.892,-3.481 -2.347,-5.4c-0.548,-2.358 -0.677,-4.803 -0.465,-7.211c0.211,-2.317 0.778,-4.627 1.857,-6.699c0.849,-1.624 2.039,-3.091 3.543,-4.151c1.568,-1.117 3.461,-1.741 5.374,-1.877Zm0.584,5.485c-0.944,0.078 -1.819,0.623 -2.333,1.412c-0.573,0.824 -0.866,1.805 -1.056,2.781c-0.245,1.271 -0.31,2.572 -0.323,3.867c-0.008,2.313 -0.009,4.654 0.503,6.923c0.236,0.929 0.54,1.87 1.127,2.643c0.431,0.583 1.063,1.03 1.781,1.172c0.963,0.194 2.025,-0.01 2.793,-0.637c0.648,-0.517 1.059,-1.265 1.349,-2.029c0.326,-0.866 0.495,-1.783 0.609,-2.7c0.175,-1.494 0.185,-3.003 0.169,-4.506c-0.035,-2.11 -0.148,-4.251 -0.755,-6.285c-0.233,-0.772 -0.627,-1.535 -1.287,-2.023c-0.726,-0.559 -1.687,-0.696 -2.577,-0.618Z" style="fill:#fff;"/><path d="M158.662,12.651c0.974,-0.543 2.094,-0.779 3.202,-0.814c1.184,-0.052 2.389,0.108 3.488,0.565c1.668,0.68 3,2.103 3.621,3.788c0.272,0.741 0.434,1.514 0.553,2.291c0.199,1.45 0.241,2.917 0.242,4.379c0.004,5.72 0,11.44 0.002,17.163c-0.005,0.183 0.017,0.374 -0.051,0.549c-0.107,0.291 -0.364,0.517 -0.662,0.598c-0.185,0.053 -0.377,0.04 -0.565,0.041c-1.665,-0.001 -3.331,0 -4.996,-0.001c-0.344,-0.002 -0.674,-0.21 -0.825,-0.517c-0.126,-0.218 -0.103,-0.478 -0.102,-0.718c0,-5.321 -0.001,-10.641 0.002,-15.962c-0.005,-1.188 -0.054,-2.404 -0.449,-3.538c-0.258,-0.727 -0.745,-1.418 -1.468,-1.739c-0.506,-0.233 -1.075,-0.3 -1.626,-0.263c-0.949,0.081 -1.81,0.646 -2.361,1.407c-0.34,0.457 -0.555,0.993 -0.733,1.531c-0.374,1.116 -0.494,2.3 -0.524,3.472c-0.021,1.072 -0.008,2.144 -0.011,3.216c-0.002,4.053 0.001,8.105 -0.003,12.156c0.009,0.52 -0.475,0.953 -0.982,0.955c-1.731,0.003 -3.462,-0.002 -5.194,0.001c-0.39,0.01 -0.785,-0.221 -0.939,-0.585c-0.104,-0.22 -0.078,-0.468 -0.08,-0.704c-0.004,-8.857 -0.012,-17.717 -0.017,-26.576c-0.002,-0.398 0.289,-0.764 0.66,-0.894c0.226,-0.085 0.473,-0.066 0.712,-0.069c1.378,0.002 2.755,0.002 4.132,0.002c0.235,0 0.48,-0.023 0.703,0.071c0.325,0.126 0.608,0.432 0.608,0.795c0.002,1.343 -0.004,2.688 0.003,4.031c0.101,0.019 0.126,-0.084 0.161,-0.149c0.382,-0.933 0.837,-1.843 1.444,-2.65c0.551,-0.742 1.24,-1.39 2.055,-1.832Z" style="fill:#fff;"/><path d="M98.404,12.608c0.201,-0.209 0.497,-0.293 0.782,-0.29c5.622,0 11.245,0.001 16.868,0c0.295,-0.002 0.613,-0.01 0.869,0.158c0.287,0.163 0.46,0.49 0.459,0.818c0.005,1.042 -0.002,2.085 0.003,3.127c0.03,0.712 -0.431,1.305 -0.796,1.875c-3.153,4.498 -6.308,8.996 -9.465,13.493c2.787,-0.042 5.624,0.282 8.222,1.34c0.568,0.231 1.121,0.497 1.655,0.799c0.586,0.309 0.916,0.971 0.897,1.622c0,1.186 -0.002,2.371 -0.002,3.557c-0.003,0.207 0.014,0.417 -0.029,0.623c-0.094,0.375 -0.41,0.71 -0.804,0.759c-0.173,0.025 -0.342,-0.037 -0.493,-0.115c-5.482,-2.819 -12.311,-2.903 -17.823,-0.116c-0.257,0.118 -0.511,0.322 -0.811,0.261c-0.464,-0.097 -0.792,-0.565 -0.786,-1.03c-0.001,-1.345 0.003,-2.69 0.002,-4.035c0,-0.842 0.151,-1.712 0.617,-2.429c0.279,-0.42 0.576,-0.829 0.865,-1.246c3.173,-4.55 6.347,-9.101 9.521,-13.65c-3.007,-0.001 -6.013,0 -9.018,-0.001c-0.282,0 -0.575,-0.102 -0.763,-0.32c-0.18,-0.191 -0.248,-0.459 -0.245,-0.714c-0.002,-1.249 -0.002,-2.5 0,-3.749c-0.003,-0.268 0.08,-0.546 0.275,-0.737Z" style="fill:#fff;"/></g></svg>