<?xml version="1.0" encoding="UTF-8" standalone="no"?><!DOCTYPE svg PUBLIC "-//W3C//DTD SVG 1.1//EN" "http://www.w3.org/Graphics/SVG/1.1/DTD/svg11.dtd"><svg width="100%" height="100%" viewBox="0 0 1923 320" version="1.1" xmlns="http://www.w3.org/2000/svg" xmlns:xlink="http://www.w3.org/1999/xlink" xml:space="preserve" xmlns:serif="http://www.serif.com/" style="fill-rule:evenodd;clip-rule:evenodd;stroke-linejoin:round;stroke-miterlimit:2;"><rect x="0.069" y="0" width="1922.12" height="292.643" style="fill:#fff;"/><path d="M0.122,2.749c0,0 210.598,-25.486 304.442,78.75c93.844,104.235 165.922,-4.436 338.25,-10.5c172.328,-6.065 266.157,129.794 317.596,221.25c114.005,-85.489 340.907,-228.348 568.904,-227.25c257.7,1.24 392.192,116.25 392.192,116.25l0.686,138.59l-1922.19,0l0.122,-317.09l-0.002,0Z" style="fill:#de9031;"/><path d="M1123.11,247.377c0,0 68.305,-46.252 168.033,-83.653c33.064,-12.4 69.693,-23.227 108.191,-32.424c14.527,-3.471 29.199,-6.939 44.204,-9.924c9.888,-1.966 19.753,-3.942 29.835,-5.538c2.09,-0.168 3.652,-2.001 3.484,-4.092c-0.168,-2.09 -2.001,-3.652 -4.092,-3.484c-10.377,0.031 -20.609,0.234 -30.837,0.911c-15.613,1.033 -30.974,2.724 -46.034,5.286c-39.969,6.797 -77.531,18.312 -111.634,30.367c-103.216,36.485 -173.732,83.897 -173.732,83.897c-5.147,3.472 -6.508,10.47 -3.036,15.618c3.472,5.147 10.47,6.508 15.618,3.036Z" style="fill:#f9c98f;"/><path d="M767.717,129.05c5.105,3.534 6.381,10.548 2.847,15.653c-3.534,5.105 -10.548,6.381 -15.653,2.847c0,0 -17.983,-12.56 -49.977,-20.956c-11.726,-3.077 -25.275,-5.487 -40.497,-6.886c-5.691,-0.523 -11.59,-0.774 -17.725,-1.266c-5.066,-0.407 -10.077,-1.075 -15.439,-1.567c-3.507,-0.321 -6.848,-0.774 -10.489,-1.054c-2.081,0.259 -3.982,-1.22 -4.241,-3.301c-0.259,-2.081 1.22,-3.982 3.301,-4.241c3.994,-1.336 7.685,-2.56 11.605,-3.553c6.132,-1.554 12.004,-2.683 17.905,-3.255c16.649,-1.613 31.922,0.156 45.441,2.166c46.354,6.891 72.917,25.409 72.922,25.413Zm0,0l0,0Z" style="fill:#f9c98f;"/><path d="M274.65,106.59c3.014,5.429 1.053,12.283 -4.376,15.296c-5.429,3.014 -12.283,1.052 -15.296,-4.376c0,0 -14.78,-26.725 -49.432,-48.208c-10.949,-6.787 -23.987,-12.5 -38.78,-18.06c-5.336,-2.005 -10.623,-4.242 -16.39,-6.315c-3.746,-1.348 -7.307,-2.813 -11.275,-4.105c-2.082,-0.256 -3.564,-2.153 -3.309,-4.235c0.256,-2.082 2.153,-3.565 4.235,-3.309c7.77,-0.426 14.899,-0.541 22.037,0.059c3.231,0.271 6.33,0.735 9.392,1.368c17.188,3.559 31.764,10.308 44.273,17.253c41.477,23.029 58.918,54.626 58.921,54.632Zm0,0l0,0Z" style="fill:#f9c98f;"/><path d="M1749.07,149.526c0,0 18.482,1.091 45.353,10.777c9.815,3.538 20.648,8.285 32.289,14.236c4.38,2.238 8.782,4.745 13.502,7.087c3.945,1.958 7.94,3.597 12.161,5.522c2.79,1.273 5.462,2.312 8.337,3.64c1.649,1.296 4.04,1.009 5.336,-0.64c1.296,-1.649 1.009,-4.04 -0.64,-5.336c-2.276,-2.851 -4.326,-5.442 -6.716,-8.026c-3.69,-3.988 -7.355,-7.539 -11.37,-10.722c-11.146,-8.839 -22.937,-14.698 -33.505,-19.802c-36.192,-17.478 -63.267,-19.188 -63.267,-19.188c-6.196,-0.408 -11.557,4.291 -11.966,10.486c-0.408,6.196 4.291,11.557 10.486,11.966Z" style="fill:#f9c98f;"/></svg>