<?xml version="1.0" encoding="UTF-8" standalone="no"?><!DOCTYPE svg PUBLIC "-//W3C//DTD SVG 1.1//EN" "http://www.w3.org/Graphics/SVG/1.1/DTD/svg11.dtd"><svg width="100%" height="100%" viewBox="0 0 116 116" version="1.1" xmlns="http://www.w3.org/2000/svg" xmlns:xlink="http://www.w3.org/1999/xlink" xml:space="preserve" xmlns:serif="http://www.serif.com/" style="fill-rule:evenodd;clip-rule:evenodd;stroke-linejoin:round;stroke-miterlimit:2;"><path d="M115.13,57.565c0,-31.787 -25.778,-57.565 -57.565,-57.565c-31.787,0 -57.565,25.778 -57.565,57.565c0,31.787 25.778,57.565 57.565,57.565c0.338,0 0.674,-0.007 1.012,-0.013l0,-44.812l-12.368,0l0,-14.413l12.368,0l0,-10.607c0,-12.3 7.509,-18.995 18.482,-18.995c5.254,0 9.771,0.391 11.087,0.566l0,12.856l-7.566,0c-5.969,0 -7.125,2.837 -7.125,7l0,9.18l14.273,0l-1.86,14.413l-12.413,0l0,42.601c24.061,-6.898 41.675,-29.066 41.675,-55.341Z" style="fill:#fff;fill-rule:nonzero;"/></svg>