<?xml version="1.0" encoding="UTF-8" standalone="no"?><!DOCTYPE svg PUBLIC "-//W3C//DTD SVG 1.1//EN" "http://www.w3.org/Graphics/SVG/1.1/DTD/svg11.dtd"><svg width="100%" height="100%" viewBox="0 0 137 137" version="1.1" xmlns="http://www.w3.org/2000/svg" xmlns:xlink="http://www.w3.org/1999/xlink" xml:space="preserve" xmlns:serif="http://www.serif.com/" style="fill-rule:evenodd;clip-rule:evenodd;stroke-linejoin:round;stroke-miterlimit:2;"><g><path d="M135.477,0.35c0.836,0.473 1.351,1.36 1.351,2.322c0,20.391 -3.992,39.602 -11.24,54.098c-7.541,15.083 -17.787,23.389 -28.845,23.389c-5.506,0 -10.808,-2.058 -15.674,-5.983c0.358,7.13 0.154,14.078 -0.618,20.633c-1.494,12.691 -5.04,23.299 -10.248,30.677c-4.453,6.299 -10.121,10.128 -16.393,11.072c-1.208,0.182 -2.424,0.272 -3.642,0.272c-7.149,0 -14.415,-3.11 -21.223,-9.126c-7.835,-6.927 -14.764,-17.507 -20.04,-30.596c-0.55,-1.369 0.11,-2.926 1.48,-3.478c1.369,-0.55 2.928,0.11 3.478,1.481c4.965,12.322 11.406,22.208 18.623,28.587c6.743,5.963 13.841,8.579 20.527,7.573c4.867,-0.731 9.183,-3.714 12.823,-8.869c8.148,-11.539 11.553,-31.837 9.453,-54.02c-0.298,-3.162 -0.706,-6.364 -1.233,-9.581c-1.028,0.738 -2.265,1.582 -3.696,2.494c-3.738,2.381 -8.795,5.206 -14.912,7.675c-7.953,3.207 -16.056,5.141 -24.081,5.742c-8.52,0.642 -16.965,-0.224 -25.164,-2.57c0.316,1.397 0.66,2.733 1.193,4.645c0.395,1.421 -0.436,2.893 -1.858,3.292c-1.421,0.396 -2.894,-0.436 -3.29,-1.857c-1.069,-3.827 -1.432,-5.552 -2.2,-9.509c-0.181,-0.941 0.156,-1.908 0.883,-2.534c0.727,-0.625 1.735,-0.814 2.638,-0.491c8.864,3.153 18.084,4.396 27.398,3.696c7.474,-0.562 15.039,-2.371 22.48,-5.372c5.927,-2.392 10.818,-5.158 14.356,-7.437c-7.187,-14.471 -11.144,-33.603 -11.144,-53.903c0,-0.957 0.51,-1.841 1.341,-2.317c0.829,-0.476 1.85,-0.473 2.678,0.009c0.089,0.053 9.351,5.371 22.868,7.985c7.879,1.523 15.645,1.843 23.09,0.951c9.263,-1.107 18.06,-4.11 26.155,-8.924c0.825,-0.492 1.851,-0.502 2.686,-0.026Z" style="fill:#e79a3c;"/><path d="M88.783,60.692c-0.626,0 -1.255,-0.219 -1.763,-0.665c-1.108,-0.975 -1.217,-2.663 -0.242,-3.771c0.174,-0.2 4.348,-4.871 10.188,-4.902c3.565,-0.022 6.847,1.624 9.771,4.881c0.985,1.098 0.894,2.788 -0.204,3.774c-1.098,0.986 -2.788,0.894 -3.775,-0.204c-1.85,-2.061 -3.779,-3.106 -5.735,-3.106l-0.028,0c-3.412,0.018 -6.176,3.055 -6.202,3.085c-0.53,0.601 -1.268,0.908 -2.01,0.908Z" style="fill:#e79a3c;"/><path d="M72.999,32.738c-0.627,0 -1.256,-0.219 -1.763,-0.665c-1.109,-0.975 -1.218,-2.663 -0.243,-3.772c0.175,-0.198 4.348,-4.871 10.189,-4.901c3.547,-0.021 6.846,1.623 9.77,4.88c0.986,1.099 0.895,2.789 -0.203,3.774c-1.099,0.987 -2.789,0.896 -3.775,-0.203c-1.85,-2.061 -3.779,-3.106 -5.735,-3.106l-0.029,0c-3.411,0.018 -6.176,3.054 -6.203,3.085c-0.528,0.601 -1.266,0.908 -2.008,0.908Z" style="fill:#e79a3c;"/><path d="M104.425,32.738c-0.626,0 -1.256,-0.219 -1.763,-0.665c-1.109,-0.975 -1.217,-2.663 -0.242,-3.772c0.174,-0.198 4.348,-4.871 10.189,-4.901c3.558,-0.03 6.846,1.623 9.77,4.88c0.985,1.099 0.894,2.789 -0.204,3.774c-1.099,0.987 -2.788,0.896 -3.775,-0.203c-1.859,-2.072 -3.795,-3.109 -5.763,-3.106c-3.412,0.018 -6.176,3.054 -6.203,3.085c-0.528,0.601 -1.266,0.908 -2.009,0.908Z" style="fill:#e79a3c;"/><path d="M88.783,60.692c-0.626,0 -1.255,-0.219 -1.763,-0.665c-1.108,-0.975 -1.217,-2.663 -0.242,-3.771c0.174,-0.2 4.348,-4.871 10.188,-4.902c3.565,-0.022 6.847,1.624 9.771,4.881c0.985,1.098 0.894,2.788 -0.204,3.774c-1.098,0.986 -2.788,0.894 -3.775,-0.204c-1.85,-2.061 -3.779,-3.106 -5.735,-3.106l-0.028,0c-3.412,0.018 -6.176,3.055 -6.202,3.085c-0.53,0.601 -1.268,0.908 -2.01,0.908Z" style="fill:#fff;"/><path d="M72.999,32.738c-0.627,0 -1.256,-0.219 -1.763,-0.665c-1.109,-0.975 -1.218,-2.663 -0.243,-3.772c0.175,-0.198 4.348,-4.871 10.189,-4.901c3.547,-0.021 6.846,1.623 9.77,4.88c0.986,1.099 0.895,2.789 -0.203,3.774c-1.099,0.987 -2.789,0.896 -3.775,-0.203c-1.85,-2.061 -3.779,-3.106 -5.735,-3.106l-0.029,0c-3.411,0.018 -6.176,3.054 -6.203,3.085c-0.528,0.601 -1.266,0.908 -2.008,0.908Z" style="fill:#fff;"/><path d="M104.425,32.738c-0.626,0 -1.256,-0.219 -1.763,-0.665c-1.109,-0.975 -1.217,-2.663 -0.242,-3.772c0.174,-0.198 4.348,-4.871 10.189,-4.901c3.558,-0.03 6.846,1.623 9.77,4.88c0.985,1.099 0.894,2.789 -0.204,3.774c-1.099,0.987 -2.788,0.896 -3.775,-0.203c-1.859,-2.072 -3.795,-3.109 -5.763,-3.106c-3.412,0.018 -6.176,3.054 -6.203,3.085c-0.528,0.601 -1.266,0.908 -2.009,0.908Z" style="fill:#fff;"/><path d="M7.72,89.636c-1.476,0 -2.673,-1.196 -2.673,-2.672c0,-1.475 1.194,-2.673 2.67,-2.673l0.003,0c1.476,0 2.673,1.198 2.673,2.673c0,1.476 -1.197,2.672 -2.673,2.672Z" style="fill:#e79a3c;fill-rule:nonzero;"/><path d="M21.275,94.972c-0.47,0 -0.946,-0.124 -1.377,-0.384c-1.264,-0.762 -1.672,-2.405 -0.91,-3.67c2.249,-3.729 5.157,-5.953 8.645,-6.612c5.721,-1.079 10.685,2.668 10.894,2.828c1.171,0.899 1.391,2.578 0.492,3.748c-0.896,1.168 -2.568,1.389 -3.738,0.5c-0.083,-0.063 -3.359,-2.464 -6.684,-1.819c-1.916,0.373 -3.609,1.757 -5.031,4.115c-0.502,0.832 -1.385,1.294 -2.291,1.294Z" style="fill:#e79a3c;fill-rule:nonzero;"/><path d="M52.031,88.979c-0.47,0 -0.946,-0.125 -1.378,-0.384c-1.263,-0.763 -1.67,-2.406 -0.908,-3.67c2.248,-3.729 5.157,-5.953 8.645,-6.612c5.718,-1.081 10.684,2.668 10.893,2.829c1.17,0.899 1.39,2.576 0.492,3.747c-0.897,1.168 -2.567,1.39 -3.738,0.5c-0.084,-0.063 -3.36,-2.465 -6.684,-1.819c-1.917,0.373 -3.609,1.757 -5.031,4.115c-0.502,0.833 -1.386,1.294 -2.291,1.294Z" style="fill:#e79a3c;fill-rule:nonzero;"/><path d="M48.643,122.239c-2.764,0 -5.545,-1.039 -8.295,-3.105c-1.18,-0.887 -1.418,-2.562 -0.532,-3.743c0.887,-1.179 2.562,-1.417 3.742,-0.531c2.196,1.65 4.28,2.298 6.193,1.927c3.354,-0.653 5.507,-4.166 5.528,-4.202c0.749,-1.271 2.384,-1.689 3.655,-0.94c1.272,0.748 1.693,2.392 0.944,3.664c-0.133,0.226 -3.339,5.572 -9.052,6.713c-0.725,0.145 -1.453,0.217 -2.183,0.217Z" style="fill:#e79a3c;fill-rule:nonzero;"/></g></svg>