<?xml version="1.0" encoding="UTF-8" standalone="no"?><!DOCTYPE svg PUBLIC "-//W3C//DTD SVG 1.1//EN" "http://www.w3.org/Graphics/SVG/1.1/DTD/svg11.dtd"><svg width="100%" height="100%" viewBox="0 0 137 137" version="1.1" xmlns="http://www.w3.org/2000/svg" xmlns:xlink="http://www.w3.org/1999/xlink" xml:space="preserve" xmlns:serif="http://www.serif.com/" style="fill-rule:evenodd;clip-rule:evenodd;stroke-linejoin:round;stroke-miterlimit:2;"><g><path id="Shape" d="M43.218,69.087c0.073,-2.967 -1.641,-5.687 -4.348,-6.903c-2.707,-1.215 -5.878,-0.688 -8.047,1.337l-12.394,11.703c-2.957,2.789 -3.093,7.446 -0.304,10.403c2.789,2.957 7.446,3.093 10.403,0.304l12.394,-11.703c1.421,-1.339 2.247,-3.19 2.296,-5.141Z" style="fill:#e79a3c;fill-rule:nonzero;"/><path id="Shape1" serif:id="Shape" d="M99.688,6.536c-9.704,-0.298 -19.125,3.289 -26.173,9.965c-52.417,49.497 -1.714,1.621 -24.789,23.414c-0.944,0.907 -1.5,2.145 -1.552,3.453c-0.133,5.339 9.258,9.518 15.181,3.916l17.793,-16.794c1.379,-1.302 3.219,-2.003 5.114,-1.948c1.896,0.054 3.693,0.86 4.994,2.239l35.16,37.264c21.142,-22.684 6.016,-60.582 -25.728,-61.509Z" style="fill:#e79a3c;fill-rule:nonzero;"/><path id="Shape2" serif:id="Shape" d="M69.958,97.432c0.073,-2.967 -1.64,-5.687 -4.347,-6.903c-2.707,-1.215 -5.879,-0.688 -8.047,1.337l-12.394,11.703c-1.913,1.804 -2.717,4.491 -2.111,7.049c0.606,2.558 2.531,4.598 5.05,5.352c2.518,0.754 5.247,0.108 7.16,-1.696l12.394,-11.704c1.421,-1.337 2.248,-3.188 2.295,-5.138Z" style="fill:#e79a3c;fill-rule:nonzero;"/><path id="Shape3" serif:id="Shape" d="M123.664,73.127c-0.238,-0.17 0.503,0.543 -36.878,-39.074c-0.434,-0.459 -1.033,-0.728 -1.665,-0.745c-0.632,-0.018 -1.246,0.216 -1.705,0.65l-17.793,16.79c-2.804,2.653 -6.549,4.082 -10.408,3.969c-3.858,-0.113 -7.513,-1.757 -10.157,-4.57c-1.768,-1.865 -2.721,-4.357 -2.649,-6.926c0.072,-2.569 1.163,-5.004 3.032,-6.767l19.521,-18.435c-8.945,-9.598 -22.345,-13.67 -35.119,-10.674c-12.774,2.997 -22.964,12.605 -26.708,25.18c-3.743,12.575 -0.466,26.192 8.589,35.687l3.38,3.575c0.21,-0.238 0.021,-0.026 12.432,-11.741c3.809,-3.592 9.494,-4.329 14.092,-1.827c4.599,2.502 7.068,7.676 6.121,12.824c3.825,-0.506 7.66,0.857 10.309,3.663c2.648,2.806 3.788,6.713 3.062,10.503c3.827,-0.502 7.662,0.864 10.31,3.672c2.648,2.808 3.787,6.717 3.062,10.507c3.728,-0.497 7.474,0.786 10.116,3.463c2.642,2.678 3.874,6.44 3.327,10.162c3.158,1.835 7.184,1.073 9.452,-1.79c2.268,-2.862 2.09,-6.956 -0.418,-9.611l-31.759,-33.648c-0.584,-0.62 -0.794,-1.504 -0.55,-2.32c0.244,-0.816 0.905,-1.44 1.734,-1.636c0.829,-0.197 1.7,0.064 2.284,0.683l31.759,33.658c1.804,1.912 4.492,2.716 7.05,2.108c2.558,-0.607 4.598,-2.533 5.351,-5.052c0.753,-2.518 0.105,-5.248 -1.699,-7.16l-31.761,-33.655c-0.884,-0.96 -0.831,-2.453 0.119,-3.348c0.949,-0.896 2.442,-0.861 3.349,0.078l31.763,33.655c2.047,2.163 5.195,2.88 7.977,1.818c2.782,-1.063 4.651,-3.696 4.734,-6.673c-0.109,-2.761 -1.451,-5.328 -3.656,-6.993Z" style="fill:#e79a3c;fill-rule:nonzero;"/><path id="Shape4" serif:id="Shape" d="M76.189,104.034c-1.951,-0.062 -3.846,0.659 -5.263,2.002l-12.394,11.706c-1.912,1.804 -2.717,4.492 -2.11,7.05c0.606,2.558 2.532,4.598 5.051,5.352c2.518,0.754 5.248,0.106 7.16,-1.698l12.394,-11.703c2.155,-2.047 2.869,-5.188 1.812,-7.965c-1.058,-2.778 -3.68,-4.648 -6.65,-4.744Z" style="fill:#e79a3c;fill-rule:nonzero;"/><path id="Shape5" serif:id="Shape" d="M56.587,83.259c0.073,-2.966 -1.641,-5.687 -4.348,-6.902c-2.706,-1.216 -5.878,-0.689 -8.047,1.337l-12.394,11.703c-2.905,2.799 -3.015,7.416 -0.246,10.351c2.768,2.934 7.384,3.093 10.347,0.355l12.395,-11.705c1.419,-1.338 2.245,-3.189 2.293,-5.139Z" style="fill:#e79a3c;fill-rule:nonzero;"/></g></svg>