<?xml version="1.0" encoding="UTF-8" standalone="no"?><!DOCTYPE svg PUBLIC "-//W3C//DTD SVG 1.1//EN" "http://www.w3.org/Graphics/SVG/1.1/DTD/svg11.dtd"><svg width="100%" height="100%" viewBox="0 0 70 54" version="1.1" xmlns="http://www.w3.org/2000/svg" xmlns:xlink="http://www.w3.org/1999/xlink" xml:space="preserve" xmlns:serif="http://www.serif.com/" style="fill-rule:evenodd;clip-rule:evenodd;stroke-linejoin:round;stroke-miterlimit:2;"><clipPath id="_clip1"><rect id="mastercard-2" x="0" y="0" width="69.102" height="53.761"/></clipPath><g clip-path="url(#_clip1)"><path d="M67.74,53.031l0,0.14l0.129,0c0.025,0 0.048,-0.006 0.069,-0.018c0.017,-0.012 0.027,-0.032 0.026,-0.053c0.001,-0.02 -0.009,-0.04 -0.026,-0.051c-0.02,-0.013 -0.044,-0.019 -0.069,-0.018l-0.129,0Zm0.131,-0.096c0.055,-0.004 0.11,0.012 0.154,0.045c0.037,0.029 0.057,0.075 0.055,0.122c0.001,0.04 -0.014,0.079 -0.044,0.107c-0.034,0.03 -0.078,0.048 -0.123,0.052l0.172,0.197l-0.133,0l-0.159,-0.196l-0.051,0l0,0.196l-0.111,0l0,-0.523l0.241,0l-0.001,0Zm-0.035,0.703c0.059,0.001 0.116,-0.011 0.17,-0.034c0.051,-0.023 0.098,-0.054 0.138,-0.094c0.04,-0.04 0.072,-0.087 0.094,-0.138c0.045,-0.11 0.045,-0.233 0,-0.342c-0.023,-0.052 -0.054,-0.099 -0.094,-0.139c-0.04,-0.039 -0.087,-0.071 -0.138,-0.093c-0.054,-0.022 -0.112,-0.033 -0.17,-0.033c-0.059,0 -0.118,0.011 -0.173,0.033c-0.052,0.022 -0.1,0.053 -0.141,0.093c-0.125,0.128 -0.161,0.319 -0.092,0.484c0.021,0.052 0.052,0.099 0.092,0.138c0.041,0.04 0.089,0.072 0.141,0.094c0.055,0.023 0.114,0.035 0.173,0.035m0,-1.002c0.152,-0.001 0.298,0.059 0.406,0.165c0.052,0.052 0.094,0.112 0.122,0.18c0.06,0.139 0.06,0.297 0,0.437c-0.029,0.067 -0.07,0.128 -0.122,0.179c-0.053,0.051 -0.115,0.092 -0.182,0.121c-0.071,0.03 -0.147,0.045 -0.224,0.045c-0.078,0.001 -0.155,-0.015 -0.227,-0.045c-0.068,-0.028 -0.13,-0.069 -0.183,-0.121c-0.052,-0.053 -0.093,-0.116 -0.121,-0.185c-0.059,-0.14 -0.059,-0.298 0,-0.437c0.029,-0.067 0.071,-0.128 0.123,-0.179c0.052,-0.053 0.115,-0.094 0.183,-0.121c0.072,-0.031 0.149,-0.046 0.227,-0.045m-52.906,-2.013c0,-0.997 0.653,-1.816 1.72,-1.816c1.02,0 1.708,0.784 1.708,1.816c0,1.032 -0.688,1.815 -1.708,1.815c-1.067,0 -1.72,-0.818 -1.72,-1.815m4.591,0l0,-2.837l-1.233,0l0,0.691c-0.392,-0.511 -0.985,-0.831 -1.792,-0.831c-1.589,0 -2.836,1.247 -2.836,2.978c0,1.731 1.246,2.978 2.836,2.978c0.807,0 1.4,-0.321 1.792,-0.831l0,0.689l1.231,0l0,-2.837l0.002,0Zm41.666,0c0,-0.997 0.653,-1.816 1.72,-1.816c1.021,0 1.708,0.784 1.708,1.816c0,1.032 -0.687,1.815 -1.708,1.815c-1.067,0 -1.72,-0.818 -1.72,-1.815m4.592,2.837l0,-7.951l-1.234,0l0,2.968c-0.391,-0.511 -0.984,-0.831 -1.791,-0.831c-1.59,0 -2.837,1.247 -2.837,2.978c0,1.731 1.247,2.978 2.837,2.978c0.807,0 1.4,-0.321 1.791,-0.831l0,0.689l1.234,0Zm-30.954,-4.711c0.795,0 1.305,0.498 1.436,1.375l-2.943,0c0.132,-0.819 0.629,-1.375 1.508,-1.375m0.024,-1.106c-1.662,0 -2.824,1.209 -2.824,2.978c0,1.803 1.209,2.978 2.907,2.978c0.854,0 1.636,-0.213 2.325,-0.795l-0.605,-0.914c-0.475,0.38 -1.081,0.594 -1.65,0.594c-0.794,0 -1.518,-0.368 -1.696,-1.389l4.211,0c0.012,-0.154 0.025,-0.308 0.025,-0.474c-0.013,-1.768 -1.106,-2.978 -2.693,-2.978m14.888,2.978c0,-0.997 0.653,-1.816 1.72,-1.816c1.02,0 1.708,0.784 1.708,1.816c0,1.032 -0.688,1.815 -1.708,1.815c-1.067,0 -1.721,-0.819 -1.721,-1.815m4.591,0l0,-2.835l-1.232,0l0,0.691c-0.392,-0.511 -0.984,-0.831 -1.791,-0.831c-1.589,0 -2.837,1.247 -2.837,2.978c0,1.731 1.247,2.978 2.837,2.978c0.807,0 1.399,-0.321 1.791,-0.831l0,0.689l1.233,0l0,-2.837l-0.001,-0.002Zm-11.554,0c0,1.72 1.197,2.978 3.025,2.978c0.854,0 1.423,-0.19 2.039,-0.677l-0.592,-0.996c-0.463,0.332 -0.95,0.51 -1.486,0.51c-0.985,-0.012 -1.708,-0.724 -1.708,-1.815c0,-1.092 0.723,-1.804 1.708,-1.816c0.535,0 1.021,0.178 1.486,0.511l0.592,-0.997c-0.617,-0.486 -1.186,-0.676 -2.039,-0.676c-1.828,0 -3.025,1.257 -3.025,2.978m15.897,-2.978c-0.712,0 -1.175,0.332 -1.495,0.831l0,-0.688l-1.222,0l0,5.671l1.234,0l0,-3.179c0,-0.938 0.403,-1.46 1.21,-1.46c0.264,-0.004 0.526,0.045 0.771,0.143l0.38,-1.162c-0.273,-0.108 -0.629,-0.155 -0.879,-0.155m-33.053,0.593c-0.593,-0.391 -1.41,-0.593 -2.312,-0.593c-1.437,0 -2.362,0.688 -2.362,1.815c0,0.925 0.689,1.495 1.957,1.673l0.582,0.083c0.677,0.095 0.996,0.273 0.996,0.593c0,0.439 -0.449,0.689 -1.293,0.689c-0.854,0 -1.47,-0.273 -1.886,-0.593l-0.579,0.961c0.676,0.498 1.53,0.736 2.455,0.736c1.638,0 2.587,-0.771 2.587,-1.851c0,-0.997 -0.747,-1.518 -1.981,-1.696l-0.582,-0.084c-0.533,-0.069 -0.961,-0.177 -0.961,-0.557c0,-0.414 0.403,-0.664 1.08,-0.664c0.723,0 1.424,0.273 1.768,0.486l0.533,-0.997l-0.002,-0.001Zm15.911,-0.592c-0.711,0 -1.174,0.333 -1.493,0.831l0,-0.69l-1.222,0l0,5.671l1.233,0l0,-3.179c0,-0.938 0.403,-1.46 1.209,-1.46c0.264,-0.004 0.526,0.045 0.771,0.143l0.38,-1.162c-0.273,-0.108 -0.629,-0.155 -0.878,-0.155m-10.523,0.142l-2.016,0l0,-1.72l-1.247,0l0,1.72l-1.15,0l0,1.127l1.15,0l0,2.587c0,1.316 0.511,2.099 1.97,2.099c0.535,0 1.151,-0.166 1.543,-0.438l-0.357,-1.056c-0.368,0.213 -0.771,0.321 -1.091,0.321c-0.617,0 -0.818,-0.38 -0.818,-0.949l0,-2.563l2.016,0l0,-1.128Zm-18.436,5.672l0,-3.559c0,-1.34 -0.854,-2.242 -2.231,-2.254c-0.723,-0.012 -1.47,0.213 -1.993,1.009c-0.391,-0.629 -1.007,-1.009 -1.874,-1.009c-0.606,0 -1.197,0.178 -1.661,0.842l0,-0.701l-1.234,0l0,5.671l1.244,0l0,-3.145c0,-0.984 0.546,-1.507 1.389,-1.507c0.819,0 1.233,0.534 1.233,1.495l0,3.156l1.247,0l0,-3.144c0,-0.985 0.569,-1.508 1.387,-1.508c0.842,0 1.244,0.534 1.244,1.495l0,3.156l1.249,0.003Z" style="fill:#fff;fill-rule:nonzero;"/><path d="M68.444,34.593l0,-0.829l-0.216,0l-0.25,0.569l-0.249,-0.569l-0.216,0l0,0.829l0.153,0l0,-0.624l0.234,0.539l0.159,0l0.233,-0.541l0,0.626l0.152,0l0,0Zm-1.37,0l0,-0.687l0.276,0l0,-0.14l-0.706,0l0,0.14l0.276,0l0,0.687l0.154,0Z" style="fill:#f79410;fill-rule:nonzero;"/><path d="M43.9,38.15l-18.688,0l0,-33.584l18.688,0l0,33.584Z" style="fill:#ff5f00;fill-rule:nonzero;"/><path d="M26.397,21.358c0,-6.812 3.19,-12.881 8.157,-16.791c-3.759,-2.964 -8.411,-4.574 -13.198,-4.567c-11.795,0 -21.356,9.562 -21.356,21.358c0,11.796 9.561,21.359 21.356,21.359c4.787,0.007 9.439,-1.603 13.198,-4.567c-4.967,-3.91 -8.157,-9.979 -8.157,-16.792" style="fill:#eb001b;fill-rule:nonzero;"/><path d="M69.111,21.358c0,11.796 -9.561,21.359 -21.356,21.359c-4.788,0.007 -9.44,-1.603 -13.2,-4.567c4.968,-3.911 8.158,-9.979 8.158,-16.792c0,-6.812 -3.19,-12.881 -8.158,-16.791c3.76,-2.964 8.412,-4.574 13.2,-4.567c11.794,0 21.355,9.562 21.355,21.358" style="fill:#f79e1b;fill-rule:nonzero;"/></g><g id="mastercard-21" serif:id="mastercard-2"></g></svg>