<?xml version="1.0" encoding="UTF-8" standalone="no"?><!DOCTYPE svg PUBLIC "-//W3C//DTD SVG 1.1//EN" "http://www.w3.org/Graphics/SVG/1.1/DTD/svg11.dtd"><svg width="100%" height="100%" viewBox="0 0 567 284" version="1.1" xmlns="http://www.w3.org/2000/svg" xmlns:xlink="http://www.w3.org/1999/xlink" xml:space="preserve" xmlns:serif="http://www.serif.com/" style="fill-rule:evenodd;clip-rule:evenodd;stroke-linejoin:round;stroke-miterlimit:2;"><clipPath id="_clip1"><rect id="Napster-head-b_w-logo" x="-38.204" y="-78.273" width="643.338" height="411.757"/></clipPath><g clip-path="url(#_clip1)"><rect x="-38.204" y="-78.273" width="643.338" height="411.757" style="fill:#fff;"/><path d="M308.063,198.72c-7.884,7.463 -17.135,13.35 -27.647,16.819c-10.407,-3.469 -19.868,-9.356 -27.647,-16.819l55.294,0Z" style="fill:#111;fill-rule:nonzero;"/><path d="M228.592,88.974c-10.933,-9.251 -23.968,-16.189 -38.264,-19.973l0,88.827c0,49.827 40.156,89.668 90.088,89.668c49.932,0 90.088,-39.946 90.088,-89.668l0,-88.722c-14.296,3.889 -27.226,10.512 -38.263,19.868c-14.717,-10.407 -32.588,-16.399 -51.825,-16.399c-19.447,0 -37.318,6.097 -51.824,16.399Zm0.105,-25.86c15.452,-8.094 33.008,-12.509 51.614,-12.509c18.501,0 36.056,4.52 51.614,12.509c3.574,-2.207 7.464,-4.415 11.353,-6.412c-16.399,-15.348 -38.579,-24.598 -62.862,-24.598c-24.283,0 -46.358,9.46 -62.967,24.808c3.574,1.787 7.884,4.1 11.248,6.202Zm-32.588,-14.401c20.814,-23.127 50.879,-37.739 84.517,-37.739c33.534,0 63.703,14.507 84.517,37.739c8.83,-2.418 17.976,-3.68 27.437,-4.1l0,38.054c14.506,8.935 24.177,25.123 24.177,43.414c0,18.396 -9.671,34.48 -24.282,43.52l-0.105,0.946c-6.097,55.925 -54.243,98.814 -112.269,98.814c-58.027,0 -105.541,-43.73 -111.638,-99.76c-14.507,-9.25 -24.073,-25.334 -24.073,-43.73c0,-18.291 9.566,-34.374 24.073,-43.415l0,-38.053c9.46,0.525 18.606,1.997 27.646,4.31Z" style="fill:#111;fill-rule:nonzero;"/><g><path d="M308.378,157.933c15.032,-1.787 40.156,-1.472 40.156,-1.472c-0.42,4.52 0.105,17.871 -14.401,25.965c-2.418,1.367 -8.41,3.364 -13.981,3.574c-13.981,0.631 -33.744,0.946 -33.744,0.946c3.574,-15.768 9.461,-27.436 21.97,-29.013Z" style="fill:#111;fill-rule:nonzero;"/><path d="M252.349,157.933c12.509,1.366 18.291,13.14 21.76,28.908c0,0 -19.763,-0.105 -33.744,-0.946c-5.571,-0.21 -11.563,-2.208 -13.981,-3.574c-14.401,-8.41 -13.981,-21.55 -14.401,-25.965c0.105,0.105 25.334,0 40.366,1.577Z" style="fill:#111;fill-rule:nonzero;"/></g><path d="M306.801,229.1c-7.568,4.625 -16.714,7.253 -26.385,7.253c-9.881,0 -18.922,-2.628 -26.385,-7.253c0,0 0.525,-2.944 1.997,-5.256c1.892,-2.734 3.469,-3.575 3.469,-3.575c6.518,1.893 13.456,2.944 20.919,2.944c7.359,0 14.402,-0.946 20.919,-2.944c0,0 1.997,1.052 3.679,3.995c1.682,2.733 1.787,4.836 1.787,4.836Z" style="fill:#111;fill-rule:nonzero;"/><g><path d="M396.259,30.947c2.523,0 4.625,1.787 4.625,4.52c0,2.734 -2.207,4.521 -4.625,4.521c-2.523,0 -4.625,-1.787 -4.625,-4.521c0,-2.733 2.207,-4.52 4.625,-4.52Zm0,8.2c1.892,0 3.364,-1.472 3.364,-3.575c0,-1.997 -1.472,-3.468 -3.364,-3.468c-1.892,0 -3.364,1.471 -3.364,3.468c-0.105,1.998 1.577,3.575 3.364,3.575Zm-1.787,-6.203l1.892,0c1.262,0 1.997,0.421 1.997,1.472c0,0.946 -0.63,1.262 -1.366,1.367l1.366,2.207l-0.946,0l-1.261,-2.102l-0.631,0l0,2.102l-0.946,0l-0.105,-5.046Zm0.946,2.208l0.946,0c0.631,0 0.946,-0.105 0.946,-0.736c0,-0.525 -0.631,-0.631 -0.946,-0.631l-0.946,0l0,1.367Z" style="fill:#111;fill-rule:nonzero;"/></g></g><g id="Napster-head-b_w-logo1" serif:id="Napster-head-b_w-logo"></g></svg>