<?xml version="1.0" encoding="UTF-8" standalone="no"?><!DOCTYPE svg PUBLIC "-//W3C//DTD SVG 1.1//EN" "http://www.w3.org/Graphics/SVG/1.1/DTD/svg11.dtd"><svg width="100%" height="100%" viewBox="0 0 198 112" version="1.1" xmlns="http://www.w3.org/2000/svg" xmlns:xlink="http://www.w3.org/1999/xlink" xml:space="preserve" xmlns:serif="http://www.serif.com/" style="fill-rule:evenodd;clip-rule:evenodd;stroke-linejoin:round;stroke-miterlimit:2;"><rect id="Artboard1" x="0" y="0" width="197.716" height="111.741" style="fill:none;"/><g><clipPath id="_clip1"><rect id="paypalFooter" x="23.806" y="35.807" width="150.105" height="40.127"/></clipPath><g clip-path="url(#_clip1)"><g><path d="M126.315,46.728c-0.637,4.186 -3.834,4.186 -6.927,4.186l-1.759,0l1.234,-7.816c0.075,-0.472 0.482,-0.819 0.961,-0.819l0.806,0c2.105,0 4.093,0 5.118,1.198c0.614,0.718 0.799,1.782 0.567,3.251Zm-1.345,-10.921l-11.662,0c-0.798,0 -1.476,0.58 -1.6,1.368l-4.716,29.902c-0.094,0.59 0.363,1.124 0.96,1.124l5.984,0c0.557,0 1.033,-0.407 1.119,-0.957l1.338,-8.478c0.124,-0.788 0.802,-1.368 1.601,-1.368l3.69,0c7.68,0 12.114,-3.717 13.272,-11.085c0.522,-3.222 0.021,-5.755 -1.488,-7.527c-1.658,-1.948 -4.598,-2.979 -8.498,-2.979Z" style="fill:#fff;fill-rule:nonzero;"/><path d="M43.141,46.728c-0.637,4.186 -3.834,4.186 -6.926,4.186l-1.759,0l1.233,-7.816c0.075,-0.472 0.482,-0.819 0.96,-0.819l0.807,0c2.105,0 4.093,0 5.118,1.198c0.613,0.718 0.799,1.782 0.567,3.251Zm-1.346,-10.921l-11.661,0c-0.797,0 -1.477,0.58 -1.601,1.368l-4.715,29.902c-0.093,0.59 0.363,1.124 0.96,1.124l5.568,0c0.797,0 1.476,-0.581 1.6,-1.368l1.273,-8.067c0.124,-0.788 0.803,-1.368 1.6,-1.368l3.69,0c7.681,0 12.115,-3.717 13.273,-11.085c0.521,-3.222 0.021,-5.755 -1.488,-7.527c-1.659,-1.948 -4.597,-2.979 -8.499,-2.979Z" style="fill:#fff;fill-rule:nonzero;"/><path d="M68.868,57.463c-0.539,3.191 -3.072,5.333 -6.302,5.333c-1.62,0 -2.916,-0.521 -3.75,-1.508c-0.826,-0.978 -1.137,-2.371 -0.876,-3.922c0.504,-3.162 3.077,-5.373 6.259,-5.373c1.586,0 2.873,0.526 3.723,1.521c0.855,1.003 1.191,2.406 0.946,3.949Zm7.782,-10.868l-5.584,0c-0.478,0 -0.885,0.347 -0.96,0.82l-0.246,1.561l-0.39,-0.565c-1.209,-1.756 -3.905,-2.342 -6.596,-2.342c-6.169,0 -11.439,4.675 -12.464,11.231c-0.534,3.272 0.224,6.398 2.078,8.579c1.704,2.005 4.136,2.84 7.034,2.84c4.972,0 7.73,-3.195 7.73,-3.195l-0.249,1.552c-0.094,0.591 0.362,1.125 0.96,1.125l5.028,0c0.797,0 1.476,-0.581 1.601,-1.368l3.018,-19.116c0.094,-0.59 -0.362,-1.122 -0.96,-1.122Z" style="fill:#fff;fill-rule:nonzero;"/><path d="M152.042,57.463c-0.539,3.191 -3.072,5.333 -6.302,5.333c-1.62,0 -2.917,-0.521 -3.75,-1.508c-0.826,-0.978 -1.137,-2.371 -0.875,-3.922c0.503,-3.162 3.076,-5.373 6.258,-5.373c1.585,0 2.873,0.526 3.722,1.521c0.856,1.003 1.192,2.406 0.947,3.949Zm7.782,-10.868l-5.584,0c-0.478,0 -0.886,0.347 -0.96,0.82l-0.246,1.561l-0.389,-0.565c-1.21,-1.756 -3.905,-2.342 -6.597,-2.342c-6.169,0 -11.439,4.675 -12.464,11.231c-0.534,3.272 0.223,6.398 2.079,8.579c1.703,2.005 4.135,2.84 7.032,2.84c4.972,0 7.731,-3.195 7.731,-3.195l-0.25,1.552c-0.093,0.591 0.364,1.125 0.961,1.125l5.029,0c0.796,0 1.475,-0.581 1.6,-1.368l3.019,-19.116c0.092,-0.59 -0.364,-1.122 -0.961,-1.122Z" style="fill:#fff;fill-rule:nonzero;"/><path d="M106.391,46.595l-5.613,0c-0.536,0 -1.039,0.266 -1.339,0.709l-7.743,11.403l-3.281,-10.957c-0.205,-0.685 -0.837,-1.155 -1.553,-1.155l-5.517,0c-0.666,0 -1.135,0.655 -0.92,1.285l6.18,18.141l-5.813,8.202c-0.456,0.643 0.005,1.534 0.793,1.534l5.607,0c0.532,0 1.03,-0.261 1.332,-0.697l18.666,-26.94c0.446,-0.644 -0.014,-1.525 -0.799,-1.525Z" style="fill:#fff;fill-rule:nonzero;"/><path d="M166.406,36.628l-4.786,30.45c-0.093,0.589 0.363,1.123 0.96,1.123l4.814,0c0.797,0 1.475,-0.581 1.6,-1.368l4.719,-29.902c0.094,-0.59 -0.363,-1.124 -0.96,-1.124l-5.387,0c-0.478,0 -0.886,0.349 -0.96,0.821Z" style="fill:#fff;fill-rule:nonzero;"/></g></g><g id="paypalFooter1" serif:id="paypalFooter"></g></g></svg>