<?xml version="1.0" encoding="UTF-8" standalone="no"?><!DOCTYPE svg PUBLIC "-//W3C//DTD SVG 1.1//EN" "http://www.w3.org/Graphics/SVG/1.1/DTD/svg11.dtd"><svg width="100%" height="100%" viewBox="0 0 46 54" version="1.1" xmlns="http://www.w3.org/2000/svg" xmlns:xlink="http://www.w3.org/1999/xlink" xml:space="preserve" xmlns:serif="http://www.serif.com/" style="fill-rule:evenodd;clip-rule:evenodd;stroke-linejoin:round;stroke-miterlimit:2;"><path d="M38.656,4.187c-2.48,-2.827 -6.964,-4.039 -12.699,-4.039l-16.647,0c-1.167,0 -2.171,0.857 -2.354,2.01l-6.932,43.961c-0.138,0.866 0.534,1.651 1.412,1.651l10.277,0l2.581,-16.371l-0.08,0.513c0.184,-1.157 1.174,-2.011 2.346,-2.011l4.883,0c9.594,0 17.106,-3.896 19.301,-15.169c0.065,-0.333 0.121,-0.658 0.17,-0.975c-0.277,-0.147 -0.277,-0.147 0,0c0.654,-4.166 -0.004,-7.002 -2.258,-9.57" style="fill:#27346a;fill-rule:nonzero;"/><path d="M18.227,12.256c0.281,-0.134 0.588,-0.203 0.899,-0.203l13.051,0c1.545,0 2.987,0.101 4.304,0.313c0.368,0.059 0.735,0.129 1.099,0.21c0.517,0.114 1.027,0.254 1.529,0.418c0.648,0.216 1.251,0.468 1.805,0.763c0.654,-4.168 -0.004,-7.002 -2.258,-9.57c-2.482,-2.827 -6.964,-4.039 -12.699,-4.039l-16.648,0c-1.173,0 -2.17,0.853 -2.353,2.01l-6.932,43.959c-0.138,0.868 0.534,1.652 1.411,1.652l10.278,0l5.355,-33.957c0.107,-0.677 0.541,-1.26 1.159,-1.556Z" style="fill:#27346a;fill-rule:nonzero;"/><path d="M40.744,14.732c-2.195,11.271 -9.707,15.169 -19.301,15.169l-4.885,0c-1.172,0 -2.161,0.854 -2.344,2.011l-3.211,20.355c-0.119,0.759 0.467,1.446 1.235,1.446l8.663,0c1.021,0 1.899,-0.75 2.058,-1.758l0.085,-0.442l1.632,-10.348l0.106,-0.572c0.159,-1.008 1.037,-1.758 2.058,-1.758l1.296,0c8.392,0 14.964,-3.41 16.884,-13.27c0.801,-4.121 0.387,-7.562 -1.734,-9.978c-0.643,-0.732 -1.441,-1.337 -2.372,-1.83c-0.05,0.319 -0.105,0.642 -0.17,0.975Z" style="fill:#2790c3;fill-rule:nonzero;"/><path d="M38.618,12.841c-0.343,-0.099 -0.688,-0.188 -1.036,-0.265c-0.364,-0.08 -0.731,-0.15 -1.099,-0.209c-1.319,-0.213 -2.76,-0.314 -4.306,-0.314l-13.049,0c-0.312,-0.001 -0.619,0.069 -0.9,0.205c-0.619,0.295 -1.053,0.878 -1.159,1.555l-2.773,17.586l-0.08,0.513c0.182,-1.157 1.172,-2.011 2.344,-2.011l4.885,0c9.594,0 17.106,-3.896 19.3,-15.169c0.066,-0.333 0.12,-0.656 0.171,-0.975c-0.556,-0.293 -1.157,-0.547 -1.805,-0.762c-0.164,-0.054 -0.328,-0.105 -0.493,-0.154" style="fill:#1f264f;fill-rule:nonzero;"/><g id="paypal-icon"></g></svg>