<?xml version="1.0" encoding="UTF-8" standalone="no"?><!DOCTYPE svg PUBLIC "-//W3C//DTD SVG 1.1//EN" "http://www.w3.org/Graphics/SVG/1.1/DTD/svg11.dtd"><svg width="100%" height="100%" viewBox="0 0 202 54" version="1.1" xmlns="http://www.w3.org/2000/svg" xmlns:xlink="http://www.w3.org/1999/xlink" xml:space="preserve" xmlns:serif="http://www.serif.com/" style="fill-rule:evenodd;clip-rule:evenodd;stroke-linejoin:round;stroke-miterlimit:2;"><g><path d="M137.95,14.697c-0.858,5.633 -5.16,5.633 -9.322,5.633l-2.367,0l1.66,-10.518c0.101,-0.635 0.649,-1.103 1.293,-1.103l1.085,0c2.833,0 5.508,0 6.887,1.613c0.826,0.966 1.076,2.397 0.764,4.375Zm-1.811,-14.697l-15.694,0c-1.073,0 -1.986,0.781 -2.153,1.841l-6.346,40.24c-0.126,0.793 0.488,1.512 1.292,1.512l8.052,0c0.75,0 1.391,-0.547 1.507,-1.288l1.8,-11.409c0.167,-1.06 1.08,-1.841 2.154,-1.841l4.966,0c10.336,0 16.302,-5.002 17.861,-14.917c0.702,-4.336 0.028,-7.744 -2.002,-10.129c-2.232,-2.622 -6.188,-4.009 -11.437,-4.009Z" style="fill:#fff;fill-rule:nonzero;"/><path d="M26.02,14.697c-0.857,5.633 -5.16,5.633 -9.321,5.633l-2.367,0l1.66,-10.518c0.1,-0.635 0.648,-1.103 1.292,-1.103l1.086,0c2.832,0 5.507,0 6.887,1.613c0.825,0.966 1.075,2.397 0.763,4.375Zm-1.811,-14.697l-15.693,0c-1.073,0 -1.987,0.781 -2.154,1.841l-6.346,40.24c-0.125,0.793 0.489,1.512 1.292,1.512l7.493,0c1.073,0 1.987,-0.781 2.154,-1.841l1.712,-10.856c0.167,-1.06 1.081,-1.841 2.154,-1.841l4.966,0c10.336,0 16.303,-5.002 17.861,-14.917c0.702,-4.336 0.029,-7.744 -2.002,-10.129c-2.232,-2.622 -6.187,-4.009 -11.437,-4.009Z" style="fill:#fff;fill-rule:nonzero;"/><path d="M60.641,29.143c-0.725,4.294 -4.133,7.176 -8.481,7.176c-2.18,0 -3.924,-0.701 -5.046,-2.029c-1.112,-1.316 -1.53,-3.19 -1.178,-5.278c0.677,-4.255 4.14,-7.23 8.422,-7.23c2.134,0 3.867,0.707 5.01,2.047c1.151,1.349 1.603,3.237 1.273,5.314Zm10.473,-14.626l-7.514,0c-0.644,0 -1.192,0.468 -1.292,1.104l-0.331,2.101l-0.525,-0.761c-1.628,-2.363 -5.255,-3.151 -8.877,-3.151c-8.301,0 -15.393,6.291 -16.773,15.114c-0.719,4.403 0.301,8.609 2.797,11.545c2.293,2.698 5.565,3.822 9.465,3.822c6.691,0 10.403,-4.3 10.403,-4.3l-0.336,2.089c-0.126,0.794 0.488,1.513 1.292,1.513l6.767,0c1.073,0 1.986,-0.781 2.154,-1.841l4.062,-25.724c0.126,-0.794 -0.488,-1.511 -1.292,-1.511Z" style="fill:#fff;fill-rule:nonzero;"/><path d="M172.571,29.143c-0.725,4.294 -4.134,7.176 -8.481,7.176c-2.18,0 -3.925,-0.701 -5.047,-2.029c-1.111,-1.316 -1.53,-3.19 -1.177,-5.278c0.677,-4.255 4.14,-7.23 8.422,-7.23c2.133,0 3.866,0.707 5.009,2.047c1.151,1.349 1.603,3.237 1.274,5.314Zm10.473,-14.626l-7.515,0c-0.643,0 -1.192,0.468 -1.292,1.104l-0.331,2.101l-0.524,-0.761c-1.628,-2.363 -5.255,-3.151 -8.877,-3.151c-8.302,0 -15.394,6.291 -16.774,15.114c-0.718,4.403 0.301,8.609 2.798,11.545c2.292,2.698 5.565,3.822 9.464,3.822c6.691,0 10.403,-4.3 10.403,-4.3l-0.336,2.089c-0.125,0.794 0.489,1.513 1.293,1.513l6.767,0c1.072,0 1.986,-0.781 2.154,-1.841l4.062,-25.724c0.125,-0.794 -0.489,-1.511 -1.292,-1.511Z" style="fill:#fff;fill-rule:nonzero;"/><path d="M111.137,14.517l-7.553,0c-0.722,0 -1.398,0.358 -1.803,0.955l-10.419,15.345l-4.416,-14.745c-0.276,-0.922 -1.126,-1.555 -2.089,-1.555l-7.425,0c-0.896,0 -1.527,0.882 -1.238,1.73l8.317,24.412l-7.823,11.038c-0.614,0.866 0.006,2.064 1.067,2.064l7.546,0c0.716,0 1.385,-0.35 1.792,-0.938l25.12,-36.253c0.6,-0.867 -0.02,-2.053 -1.076,-2.053Z" style="fill:#fff;fill-rule:nonzero;"/><path d="M191.901,1.105l-6.441,40.977c-0.125,0.793 0.489,1.511 1.292,1.511l6.478,0c1.073,0 1.986,-0.781 2.153,-1.841l6.351,-40.239c0.126,-0.795 -0.488,-1.513 -1.292,-1.513l-7.249,0c-0.644,0 -1.193,0.469 -1.292,1.105Z" style="fill:#fff;fill-rule:nonzero;"/></g></svg>