<?xml version="1.0" encoding="UTF-8" standalone="no"?><!DOCTYPE svg PUBLIC "-//W3C//DTD SVG 1.1//EN" "http://www.w3.org/Graphics/SVG/1.1/DTD/svg11.dtd"><svg width="100%" height="100%" viewBox="0 0 567 284" version="1.1" xmlns="http://www.w3.org/2000/svg" xmlns:xlink="http://www.w3.org/1999/xlink" xml:space="preserve" xmlns:serif="http://www.serif.com/" style="fill-rule:evenodd;clip-rule:evenodd;stroke-linejoin:round;stroke-miterlimit:2;"><clipPath id="_clip1"><rect id="soundcloud" x="102.848" y="40.868" width="361.233" height="201.728"/></clipPath><g clip-path="url(#_clip1)"><path d="M102.848,203.822c0,4.443 1.609,7.802 4.832,10.077c3.218,2.275 6.662,3.082 10.33,2.416c3.439,-0.666 5.855,-1.886 7.244,-3.664c1.388,-1.778 2.083,-4.719 2.083,-8.829l0,-48.316c0,-3.439 -1.192,-6.357 -3.58,-8.745c-2.388,-2.387 -5.306,-3.579 -8.749,-3.579c-3.331,0 -6.188,1.192 -8.576,3.579c-2.388,2.388 -3.584,5.302 -3.584,8.745l0,48.316Zm38.319,20.656c0,3.223 1.135,5.639 3.415,7.248c2.275,1.609 5.189,2.416 8.745,2.416c3.664,0 6.633,-0.807 8.913,-2.416c2.276,-1.609 3.416,-4.025 3.416,-7.248l0,-112.615c0,-3.336 -1.197,-6.193 -3.585,-8.581c-2.387,-2.388 -5.301,-3.584 -8.744,-3.584c-3.331,0 -6.193,1.196 -8.581,3.584c-2.388,2.388 -3.579,5.245 -3.579,8.581l0,112.615Zm38.15,5.334c0,3.218 1.163,5.635 3.495,7.244c2.336,1.613 5.334,2.416 8.998,2.416c3.556,0 6.469,-0.803 8.744,-2.416c2.28,-1.609 3.416,-4.026 3.416,-7.244l0,-102.792c0,-3.443 -1.192,-6.385 -3.58,-8.829c-2.388,-2.444 -5.249,-3.664 -8.58,-3.664c-3.444,0 -6.385,1.22 -8.829,3.664c-2.444,2.444 -3.664,5.386 -3.664,8.829l0,102.792Zm38.314,0.498c0,6.108 4.11,9.162 12.329,9.162c8.219,0 12.329,-3.054 12.329,-9.162l0,-166.595c0,-9.331 -2.834,-14.604 -8.496,-15.828c-3.664,-0.887 -7.277,0.169 -10.828,3.166c-3.556,2.998 -5.334,7.22 -5.334,12.662l0,166.595Zm38.985,4.832l0,-181.255c0,-5.78 1.722,-9.219 5.165,-10.33c7.441,-1.778 14.825,-2.665 22.157,-2.665c16.992,0 32.821,3.997 47.481,11.991c14.661,7.999 26.516,18.911 35.566,32.736c9.054,13.83 14.299,29.072 15.744,45.731c6.774,-2.885 13.994,-4.33 21.655,-4.33c15.552,0 28.852,5.498 39.9,16.495c11.053,10.996 16.579,24.212 16.579,39.647c0,15.551 -5.526,28.823 -16.579,39.82c-11.048,10.991 -24.292,16.49 -39.731,16.49l-144.939,-0.164c-0.999,-0.334 -1.75,-0.943 -2.247,-1.835c-0.502,-0.886 -0.751,-1.665 -0.751,-2.331Z" style="fill:url(#_Linear2);fill-rule:nonzero;"/></g><g id="soundcloud1" serif:id="soundcloud"></g><defs><linearGradient id="_Linear2" x1="0" y1="0" x2="1" y2="0" gradientUnits="userSpaceOnUse" gradientTransform="matrix(1.15861e-14,189.216,-189.216,1.15861e-14,282.238,46.2936)"><stop offset="0" style="stop-color:#f80;stop-opacity:1"/><stop offset="1" style="stop-color:#f30;stop-opacity:1"/></linearGradient></defs></svg>