<?xml version="1.0" encoding="UTF-8" standalone="no"?><!DOCTYPE svg PUBLIC "-//W3C//DTD SVG 1.1//EN" "http://www.w3.org/Graphics/SVG/1.1/DTD/svg11.dtd"><svg width="100%" height="100%" viewBox="0 0 567 284" version="1.1" xmlns="http://www.w3.org/2000/svg" xmlns:xlink="http://www.w3.org/1999/xlink" xml:space="preserve" xmlns:serif="http://www.serif.com/" style="fill-rule:evenodd;clip-rule:evenodd;stroke-linejoin:round;stroke-miterlimit:2;"><path d="M282.997,7.536c-73.858,0 -133.729,59.871 -133.729,133.729c0,73.858 59.871,133.73 133.729,133.73c73.858,0 133.73,-59.872 133.73,-133.73c0,-73.858 -59.872,-133.729 -133.73,-133.729Zm58.202,194.078c-1.7,2.907 -4.762,4.533 -7.903,4.533c-1.57,0 -3.156,-0.403 -4.607,-1.253c-24.031,-14.041 -51.795,-16.302 -70.856,-15.721c-21.119,0.641 -36.601,4.811 -36.755,4.856c-4.866,1.327 -9.896,-1.536 -11.233,-6.401c-1.337,-4.871 1.521,-9.896 6.387,-11.238c0.696,-0.189 17.361,-4.717 40.532,-5.482c13.649,-0.448 26.79,0.502 39.047,2.828c15.532,2.947 29.697,8.116 42.108,15.368c4.358,2.549 5.83,8.151 3.28,12.51Zm16.998,-35.309c-2.013,3.445 -5.636,5.368 -9.359,5.368c-1.859,0 -3.737,-0.477 -5.457,-1.481c-28.465,-16.635 -61.353,-19.309 -83.928,-18.624c-25.015,0.761 -43.355,5.701 -43.539,5.751c-5.766,1.571 -11.725,-1.819 -13.305,-7.585c-1.581,-5.765 1.799,-11.719 7.564,-13.305c0.825,-0.229 20.562,-5.591 48.013,-6.496c16.168,-0.532 31.73,0.591 46.253,3.35c18.395,3.489 35.174,9.612 49.871,18.201c5.17,3.022 6.909,9.657 3.887,14.821Zm10.453,-32.108c-2.277,0 -4.583,-0.586 -6.69,-1.819c-67.675,-39.548 -155.46,-16.034 -156.339,-15.79c-7.078,1.948 -14.389,-2.207 -16.338,-9.285c-1.953,-7.072 2.202,-14.388 9.28,-16.337c1.014,-0.278 25.224,-6.854 58.892,-7.967c19.832,-0.651 38.922,0.731 56.736,4.11c22.565,4.28 43.146,11.79 61.178,22.327c6.332,3.702 8.47,11.844 4.767,18.176c-2.47,4.229 -6.919,6.585 -11.486,6.585Z" style="fill:#00d95f;fill-rule:nonzero;"/><g id="spootify"></g></svg>