<?xml version="1.0" encoding="UTF-8" standalone="no"?><!DOCTYPE svg PUBLIC "-//W3C//DTD SVG 1.1//EN" "http://www.w3.org/Graphics/SVG/1.1/DTD/svg11.dtd"><svg width="100%" height="100%" viewBox="0 0 45 45" version="1.1" xmlns="http://www.w3.org/2000/svg" xmlns:xlink="http://www.w3.org/1999/xlink" xml:space="preserve" xmlns:serif="http://www.serif.com/" style="fill-rule:evenodd;clip-rule:evenodd;stroke-linejoin:round;stroke-miterlimit:2;"><path d="M22.13,0.098c-12.166,0 -22.032,9.866 -22.032,22.032c0,12.166 9.866,22.032 22.032,22.032c12.166,0 22.032,-9.866 22.032,-22.032c0,-12.166 -9.866,-22.032 -22.032,-22.032Zm10.06,17.178c0.009,0.217 0.014,0.435 0.014,0.654c0,6.682 -5.086,14.388 -14.388,14.388l0,0l0,0c-2.856,0 -5.513,-0.837 -7.751,-2.272c0.395,0.047 0.798,0.07 1.206,0.07c2.369,0 4.55,-0.808 6.281,-2.164c-2.214,-0.041 -4.081,-1.503 -4.725,-3.513c0.309,0.06 0.626,0.092 0.951,0.092c0.461,0 0.908,-0.062 1.333,-0.178c-2.314,-0.464 -4.057,-2.509 -4.057,-4.957c0,-0.023 0,-0.044 0.001,-0.065c0.681,0.379 1.461,0.607 2.29,0.632c-1.357,-0.906 -2.25,-2.454 -2.25,-4.209c0,-0.926 0.25,-1.794 0.685,-2.542c2.494,3.06 6.22,5.073 10.423,5.284c-0.086,-0.37 -0.131,-0.756 -0.131,-1.153c0,-2.792 2.265,-5.057 5.057,-5.057c1.455,0 2.769,0.615 3.692,1.598c1.152,-0.227 2.234,-0.648 3.211,-1.227c-0.378,1.18 -1.18,2.171 -2.224,2.797c1.023,-0.122 1.998,-0.394 2.904,-0.797c-0.677,1.015 -1.535,1.906 -2.522,2.619Z" style="fill:#e35296;fill-rule:nonzero;"/></svg>