<?xml version="1.0" encoding="UTF-8" standalone="no"?><!DOCTYPE svg PUBLIC "-//W3C//DTD SVG 1.1//EN" "http://www.w3.org/Graphics/SVG/1.1/DTD/svg11.dtd"><svg width="100%" height="100%" viewBox="0 0 54 37" version="1.1" xmlns="http://www.w3.org/2000/svg" xmlns:xlink="http://www.w3.org/1999/xlink" xml:space="preserve" xmlns:serif="http://www.serif.com/" style="fill-rule:evenodd;clip-rule:evenodd;stroke-linejoin:round;stroke-miterlimit:2;"><path d="M51.197,3.542c-1.45,-2.58 -3.024,-3.054 -6.229,-3.235c-3.202,-0.217 -11.252,-0.307 -18.227,-0.307c-6.987,0 -15.041,0.09 -18.239,0.304c-3.199,0.184 -4.776,0.655 -6.24,3.238c-1.493,2.577 -2.262,7.015 -2.262,14.828l0,0.027c0,7.78 0.769,12.251 2.262,14.801c1.464,2.58 3.038,3.048 6.236,3.265c3.202,0.187 11.256,0.297 18.243,0.297c6.975,0 15.025,-0.11 18.23,-0.294c3.205,-0.217 4.779,-0.685 6.229,-3.265c1.507,-2.55 2.269,-7.021 2.269,-14.801l0,-0.027c0,-7.816 -0.762,-12.254 -2.272,-14.831Zm-31.146,24.864l0,-20.051l16.709,10.025l-16.709,10.026Z" style="fill:#e35296;fill-rule:nonzero;"/></svg>